<?xml version="1.0" standalone="no"?>
<!DOCTYPE svg PUBLIC "-//W3C//DTD SVG 1.1//EN" "http://www.w3.org/Graphics/SVG/1.1/DTD/svg11.dtd" >
<svg>
<metadata>
Created by FontForge 20090914 at Tue Jun 16 08:10:49 2015
 By www-data
2009
</metadata>
<defs>
<font id="seattlesans" horiz-adv-x="240" >
  <font-face 
    font-family="Seattle Sans"
    font-weight="400"
    font-stretch="normal"
    units-per-em="700"
    panose-1="0 0 4 0 0 0 0 0 0 0"
    ascent="650"
    descent="-50"
    x-height="450"
    cap-height="600"
    bbox="-36 -150.001 704 800"
    underline-thickness="20"
    underline-position="-123"
    unicode-range="U+0020-U+2122"
  />
<missing-glyph horiz-adv-x="500" 
d="M63 0v800h375v-800h-375zM125 63h250v675h-250v-675z" />
    <glyph glyph-name=".notdef" horiz-adv-x="500" 
d="M63 0v800h375v-800h-375zM125 63h250v675h-250v-675z" />
    <glyph glyph-name="space" unicode=" " horiz-adv-x="100" 
 />
    <glyph glyph-name="space" unicode="&#xa0;" horiz-adv-x="100" 
 />
    <glyph glyph-name="exclam" unicode="!" horiz-adv-x="90" 
d="M70 50h-50v-50h50v50zM70 600h-50l12 -500h25z" />
    <glyph glyph-name="quotedbl" unicode="&#x22;" horiz-adv-x="200" 
d="M175 458h-50v142h50v-142zM75 458h-50v142h50v-142z" />
    <glyph glyph-name="numbersign" unicode="#" horiz-adv-x="228" 
d="M208 245h-38v-38h-37v38h-38v-38h-37v38h-38v38h38v37h-38v38h38v37h37v-37h38v37h37v-37h38v-38h-38v-37h38v-38zM133 283v37h-38v-37h38z" />
    <glyph glyph-name="dollar" unicode="$" horiz-adv-x="190" 
d="M111 0h-32v600h32v-600zM170 145c0 -20.667 -7.33301 -38.335 -22 -53.002s-32.334 -22 -53.001 -22s-38.334 7.33301 -53.001 22s-22 32.334 -22 53.001v38h38v-38c0 -10.667 3.5 -19.5 10.5 -26.5s15.833 -10.5 26.5 -10.5s19.667 3.5 27 10.5s11 15.833 11 26.5v45
l-103 180c-4.66699 8 -8 18 -10 30v45c0 20.667 7.33301 38.334 22 53.001s32.334 22 53.001 22s38.334 -7.33301 53.001 -22s22 -32.334 22 -53.001v-37h-37v37c0 10.667 -3.66699 19.667 -11 27s-16.333 11 -27 11s-19.5 -3.66699 -26.5 -11s-10.5 -16.333 -10.5 -27v-45
l103 -182c4 -7.33301 7 -16.666 9 -27.999v-45z" />
    <glyph glyph-name="percent" unicode="%" horiz-adv-x="360" 
d="M128 358c0 -12 -4.83301 -23.501 -14.5 -34.501s-21.167 -16.5 -34.5 -16.5c-14.667 0 -26.5 5.33301 -35.5 16s-13.5 22.334 -13.5 35.001v191c0 14 4.83301 26 14.5 36s21.167 15 34.5 15s24.833 -5 34.5 -15s14.5 -22 14.5 -36h-25
c0 6.66699 -2.33301 12.334 -7 17.001s-10.334 7 -17.001 7c-8.66699 0 -14.667 -2 -18 -6s-5.33301 -10 -6 -18v-190c-0.666992 -7.33301 1 -13.333 5 -18s10.333 -7 19 -7c6.66699 0 12.334 2.66699 17.001 8s7 10.666 7 15.999v191h25v-191zM329 241.999
c0 12 -4.83301 23.501 -14.5 34.501s-21.167 16.5 -34.5 16.5c-14.667 0 -26.5 -5.33301 -35.5 -16s-13.5 -22.334 -13.5 -35.001v-191c0 -14 4.83301 -26 14.5 -36s21.167 -15 34.5 -15s24.833 5 34.5 15s14.5 22 14.5 36h-25c0 -6.66699 -2.33301 -12.334 -7 -17.001
s-10.334 -7 -17.001 -7c-8.66699 0 -14.667 2 -18 6s-5.33301 10 -6 18v190c-0.666992 7.33301 1 13.333 5 18s10.333 7 19 7c6.66699 0 12.334 -2.66699 17.001 -8s7 -10.666 7 -15.999v-191h25v191zM315 600l-240 -600h-30l240 600h30z" />
    <glyph glyph-name="ampersand" unicode="&#x26;" 
d="M220 0l-42.999 -0.000976562l-13 34c-11.333 -22.667 -32 -34 -62 -34c-24.667 0 -44.334 14 -59.001 42s-22 63.333 -22 106c0 38.667 4.5 73.5 13.5 104.5s20.5 57.833 34.5 80.5l-18 60c-6 20 -9.33301 44 -10 72c-0.666992 38 4.66602 66.667 15.999 86s26 29 44 29
c20 0 34.833 -10.833 44.5 -32.5s13.834 -48.167 12.501 -79.5c-1.33301 -30 -4.83301 -55 -10.5 -75s-16.167 -42 -31.5 -66l53 -175c4.66699 34.667 7 70.334 7 107.001h-24v33h59c2 -76 -4.33301 -146 -19 -210zM123.001 471.999c0 20 -1.49902 36.167 -4.49902 48.5
s-8.83301 18.166 -17.5 17.499c-8.66699 0.666992 -14.5 -5.16602 -17.5 -17.499s-4.83301 -27.5 -5.5 -45.5c1.33301 -21.333 3.16602 -37.833 5.49902 -49.5l11.5 -57.5c10 24.667 16.667 43.167 20 55.5s6 28.5 8 48.5zM148.002 81.999l-60.001 195
c-6.66699 -13.333 -12.5 -32.5 -17.5 -57.5s-7.5 -48.833 -7.5 -71.5c0.666992 -30.667 4.83398 -55.5 12.501 -74.5s18.5 -27.833 32.5 -26.5c18.667 0 32 11.667 40 35z" />
    <glyph glyph-name="quotesingle" unicode="'" horiz-adv-x="90" 
d="M70 458h-50v142h50v-142z" />
    <glyph glyph-name="parenleft" unicode="(" horiz-adv-x="170" 
d="M150 -50l-50 0.000976562c-53.333 93.333 -80 210 -80 350s26.667 256.667 80 350h50c-53.333 -94 -80 -210.667 -80 -350c0 -138.667 26.667 -255.334 80 -350.001z" />
    <glyph glyph-name="parenright" unicode=")" horiz-adv-x="170" 
d="M20 -50l50 0.000976562c53.333 93.333 80 210 80 350s-26.667 256.667 -80 350h-50c53.333 -94 80 -210.667 80 -350c0 -138.667 -26.667 -255.334 -80 -350.001z" />
    <glyph glyph-name="asterisk" unicode="*" horiz-adv-x="260" 
d="M238 498l-85 -9l63 -63l-44 -32l-42 74l-42 -74l-45 36l60 60l-81 8l19 54l71 -30l-13 78h59l-13 -80l74 32z" />
    <glyph glyph-name="plus" unicode="+" 
d="M219 250h-74v-77h-50v77h-75v50h75v72h50v-72h74v-50z" />
    <glyph glyph-name="comma" unicode="," horiz-adv-x="90" 
d="M70 0l-50 -50v100h50v-50z" />
    <glyph glyph-name="hyphen" unicode="-" horiz-adv-x="190" 
d="M170 250h-150v50h150v-50z" />
    <glyph glyph-name="hyphen" unicode="&#xad;" horiz-adv-x="190" 
d="M170 250h-150v50h150v-50z" />
    <glyph glyph-name="period" unicode="." horiz-adv-x="90" 
d="M70 0h-50v50h50v-50z" />
    <glyph glyph-name="slash" unicode="/" 
d="M220 600l-150 -600h-50l150 600h50z" />
    <glyph glyph-name="zero" unicode="0" 
d="M220 100c0 -27.333 -9.83301 -50.833 -29.5 -70.5s-43.167 -29.5 -70.5 -29.5s-50.833 9.83301 -70.5 29.5s-29.5 43.167 -29.5 70.5v400c0 27.333 9.83301 50.833 29.5 70.5s43.167 29.5 70.5 29.5s50.833 -9.83301 70.5 -29.5s29.5 -43.167 29.5 -70.5v-400zM170 100
v400c0 14 -4.83301 25.833 -14.5 35.5s-21.5 14.5 -35.5 14.5s-25.833 -4.83301 -35.5 -14.5s-14.5 -21.5 -14.5 -35.5v-400c0 -14 4.83301 -25.833 14.5 -35.5s21.5 -14.5 35.5 -14.5s25.833 4.83301 35.5 14.5s14.5 21.5 14.5 35.5z" />
    <glyph glyph-name="one" unicode="1" horiz-adv-x="170" 
d="M142 0h-50v530l-32 -32l-33 33l69 69h46v-600z" />
    <glyph glyph-name="two" unicode="2" 
d="M220 0h-199.999v49c0.666992 12 2.66699 23.333 6 34l144 357v60c0 14 -4.83301 25.833 -14.5 35.5s-21.5 14.5 -35.5 14.5s-25.833 -4.83301 -35.5 -14.5s-14.5 -21.5 -14.5 -35.5v-50h-50v50c0 27.333 9.83301 50.833 29.5 70.5s43.167 29.5 70.5 29.5
s50.833 -9.83301 70.5 -29.5s29.5 -43.167 29.5 -70.5v-56c-0.666992 -11.333 -2.33398 -22 -5.00098 -32l-145 -362h150v-50z" />
    <glyph glyph-name="three" unicode="3" 
d="M220 100c0 -27.333 -9.83301 -50.833 -29.5 -70.5s-43.167 -29.5 -70.5 -29.5s-50.833 9.83301 -70.5 29.5s-29.5 43.167 -29.5 70.5v50h50v-50c0 -14 4.83301 -25.833 14.5 -35.5s21.5 -14.5 35.5 -14.5s25.833 4.83301 35.5 14.5s14.5 21.5 14.5 35.5v125
c0 14 -4.83301 25.833 -14.5 35.5s-21.5 14.5 -35.5 14.5h-16v50h16c14 0 25.833 4.83301 35.5 14.5s14.5 21.5 14.5 35.5v125c0 14 -4.83301 25.833 -14.5 35.5s-21.5 14.5 -35.5 14.5s-25.833 -4.83301 -35.5 -14.5s-14.5 -21.5 -14.5 -35.5v-50h-50v50
c0 27.333 9.83301 50.833 29.5 70.5s43.167 29.5 70.5 29.5s50.833 -9.83301 70.5 -29.5s29.5 -43.167 29.5 -70.5v-125c0 -30 -11.333 -55 -34 -75c22.667 -20 34 -45 34 -75v-125z" />
    <glyph glyph-name="four" unicode="4" horiz-adv-x="250" 
d="M231 175h-32v-175h-50v175h-130v50l130 375v-144l-80 -231h80v375h50v-375h32v-50z" />
    <glyph glyph-name="five" unicode="5" 
d="M220 100c0 -27.333 -9.83301 -50.833 -29.5 -70.5s-43.167 -29.5 -70.5 -29.5s-50.833 9.83301 -70.5 29.5s-29.5 43.167 -29.5 70.5v50h50v-50c0 -14 4.83301 -25.833 14.5 -35.5s21.5 -14.5 35.5 -14.5s25.833 4.83301 35.5 14.5s14.5 21.5 14.5 35.5v175
c0 14 -4.83301 25.833 -14.5 35.5s-21.5 14.5 -35.5 14.5s-25.833 -4.83301 -35.5 -14.5s-14.5 -21.5 -14.5 -35.5h-50v325h200v-50h-150v-188c15.333 8.66699 32 13 50 13c27.333 0 50.833 -9.83301 70.5 -29.5s29.5 -43.167 29.5 -70.5v-175z" />
    <glyph glyph-name="six" unicode="6" 
d="M20 324c0.666992 13.333 2.66699 27.667 6 43l73 233h51l-75 -238c10 8.66699 25 13 45 13c27.333 0 50.833 -9.83301 70.5 -29.5s29.5 -43.167 29.5 -70.5v-175c0 -27.333 -9.83301 -50.833 -29.5 -70.5s-43.167 -29.5 -70.5 -29.5s-50.833 9.83301 -70.5 29.5
s-29.5 43.167 -29.5 70.5v224zM70 275.001v-175c0 -14 4.83301 -25.833 14.5 -35.5s21.5 -14.5 35.5 -14.5s25.833 4.83301 35.5 14.5s14.5 21.5 14.5 35.5v175c0 14 -4.83301 25.833 -14.5 35.5s-21.5 14.5 -35.5 14.5s-25.833 -4.83301 -35.5 -14.5
s-14.5 -21.5 -14.5 -35.5z" />
    <glyph glyph-name="seven" unicode="7" 
d="M220 550l-148 -550h-52l148 550h-98v-50h-50v100h200v-50z" />
    <glyph glyph-name="eight" unicode="8" 
d="M220 100c0 -27.333 -9.83301 -50.833 -29.5 -70.5s-43.167 -29.5 -70.5 -29.5s-50.833 9.83301 -70.5 29.5s-29.5 43.167 -29.5 70.5v125c0 30 11.333 55 34 75c-22.667 20 -34 45 -34 75v125c0 27.333 9.83301 50.833 29.5 70.5s43.167 29.5 70.5 29.5
s50.833 -9.83301 70.5 -29.5s29.5 -43.167 29.5 -70.5v-125c0 -30 -11.333 -55 -34 -75c22.667 -20 34 -45 34 -75v-125zM170 375v125c0 14 -4.83301 25.833 -14.5 35.5s-21.5 14.5 -35.5 14.5s-25.833 -4.83301 -35.5 -14.5s-14.5 -21.5 -14.5 -35.5v-125
c0 -14 4.83301 -25.833 14.5 -35.5s21.5 -14.5 35.5 -14.5s25.833 4.83301 35.5 14.5s14.5 21.5 14.5 35.5zM170 100v125c0 14 -4.83301 25.833 -14.5 35.5s-21.5 14.5 -35.5 14.5s-25.833 -4.83301 -35.5 -14.5s-14.5 -21.5 -14.5 -35.5v-125
c0 -14 4.83301 -25.833 14.5 -35.5s21.5 -14.5 35.5 -14.5s25.833 4.83301 35.5 14.5s14.5 21.5 14.5 35.5z" />
    <glyph glyph-name="nine" unicode="9" 
d="M220 276c-0.666992 -13.333 -2.66699 -27.667 -6 -43l-73 -233h-51l75 238c-10 -8.66699 -25 -13 -45 -13c-27.333 0 -50.833 9.83301 -70.5 29.5s-29.5 43.167 -29.5 70.5v175c0 27.333 9.83301 50.833 29.5 70.5s43.167 29.5 70.5 29.5s50.833 -9.83301 70.5 -29.5
s29.5 -43.167 29.5 -70.5v-224zM170 324.999v175c0 14 -4.83301 25.833 -14.5 35.5s-21.5 14.5 -35.5 14.5s-25.833 -4.83301 -35.5 -14.5s-14.5 -21.5 -14.5 -35.5v-175c0 -14 4.83301 -25.833 14.5 -35.5s21.5 -14.5 35.5 -14.5s25.833 4.83301 35.5 14.5
s14.5 21.5 14.5 35.5z" />
    <glyph glyph-name="colon" unicode=":" horiz-adv-x="90" 
d="M70 400h-50v50h50v-50zM70 0h-50v50h50v-50z" />
    <glyph glyph-name="semicolon" unicode=";" horiz-adv-x="90" 
d="M70 400h-50v50h50v-50zM70 0l-50 -50v100h50v-50z" />
    <glyph glyph-name="less" unicode="&#x3c;" horiz-adv-x="320" 
d="M305 144l-290 100v50l290 100v-50l-218 -75l218 -75v-50z" />
    <glyph glyph-name="equal" unicode="=" horiz-adv-x="270" 
d="M245 300h-220v50h220v-50zM245 200h-220v50h220v-50z" />
    <glyph glyph-name="greater" unicode="&#x3e;" horiz-adv-x="320" 
d="M15 144l290 100v50l-290 100v-50l218 -75l-218 -75v-50z" />
    <glyph glyph-name="question" unicode="?" 
d="M220 438c-0.666992 -8.66699 -2.33301 -18.333 -5 -29l-70 -309h-50l75 340v60c0 14 -4.83301 25.833 -14.5 35.5s-21.5 14.5 -35.5 14.5s-25.833 -4.83301 -35.5 -14.5s-14.5 -21.5 -14.5 -35.5v-50h-50v50c0 27.333 9.83301 50.833 29.5 70.5s43.167 29.5 70.5 29.5
s50.833 -9.83301 70.5 -29.5s29.5 -43.167 29.5 -70.5v-62zM145.001 0.000976562h-50v50h50v-50z" />
    <glyph glyph-name="at" unicode="@" horiz-adv-x="580" 
d="M350 208l0.00195312 217.006c0 17.333 -6 31.666 -18 42.999s-26.333 17 -43 17s-30.834 -5.66699 -42.501 -17s-18.834 -26 -21.501 -44v-26h39v25c2 7.33301 4.83301 12.833 8.5 16.5s8.83398 5.5 15.501 5.5c6.66699 -0.666992 11.334 -2.83398 14.001 -6.50098
s4.66699 -8.16699 6 -13.5v-212c-0.666992 -6.66699 -2.33398 -11.167 -5.00098 -13.5s-7.33398 -4.5 -14.001 -6.5c-6.66699 1.33301 -11.5 3.5 -14.5 6.5s-4.83301 7.5 -5.5 13.5v70c0 8.66699 2.83301 16.167 8.5 22.5s12.167 10.166 19.5 11.499h11v52h-14
c-14.667 0 -29.5 -7.33301 -44.5 -22s-22.5 -29.334 -22.5 -44.001v-90c0.666992 -16.667 7 -31 19 -43s26.333 -18 43 -18c19.333 0 35.333 7 48 21c20 -22.667 45.667 -34 77 -34c42 0 76.667 21.333 104 64c24 37.333 36 82 36 134c0 73.333 -22 132.333 -66 177
c-50 49.333 -112.333 74 -187 74c-77.333 0 -143 -30 -197 -90c-52 -58 -78 -128 -78 -210c0.666992 -88.667 29.334 -159.334 86.001 -212.001c55.333 -50 121.333 -75.333 198 -76c68 0.666992 122 13 162 37l-16 31c-37.333 -22 -85.666 -32 -144.999 -30
c-72.667 2 -131 24.333 -175 67c-44 44 -66 105 -66 183c-0.666992 71.333 21 131.333 65 180c44.667 49.333 100 75 166 77c68.667 -2 121.667 -21.667 159 -59c37.333 -38.667 55.666 -88.334 54.999 -149.001c0 -44 -9.33301 -81.667 -28 -113
c-18.667 -32 -42.667 -49 -72 -51c-26.667 -2 -48.334 9.66699 -65.001 35z" />
    <glyph glyph-name="A" unicode="A" horiz-adv-x="290" 
d="M270 0h-50l-25 150h-100l-25 -150h-50l100 600h50zM187 200l-42 250l-42 -250h84z" />
    <glyph glyph-name="B" unicode="B" 
d="M220 100c0 -27.333 -9.83301 -50.833 -29.5 -70.5s-43.167 -29.5 -70.5 -29.5h-100v600h100c27.333 0 50.833 -9.83301 70.5 -29.5s29.5 -43.167 29.5 -70.5v-125c0 -30 -11.333 -55 -34 -75c22.667 -20 34 -45 34 -75v-125zM170 375v125
c0 14 -4.83301 25.833 -14.5 35.5s-21.5 14.5 -35.5 14.5h-50v-225h50c14 0 25.833 4.83301 35.5 14.5s14.5 21.5 14.5 35.5zM170 100v125c0 14 -4.83301 25.833 -14.5 35.5s-21.5 14.5 -35.5 14.5h-50v-225h50c14 0 25.833 4.83301 35.5 14.5s14.5 21.5 14.5 35.5z" />
    <glyph glyph-name="C" unicode="C" 
d="M220 100c0 -27.333 -9.83301 -50.833 -29.5 -70.5s-43.167 -29.5 -70.5 -29.5s-50.833 9.83301 -70.5 29.5s-29.5 43.167 -29.5 70.5v400c0 27.333 9.83301 50.833 29.5 70.5s43.167 29.5 70.5 29.5s50.833 -9.83301 70.5 -29.5s29.5 -43.167 29.5 -70.5v-50h-50v50
c0 14 -4.83301 25.833 -14.5 35.5s-21.5 14.5 -35.5 14.5s-25.833 -4.83301 -35.5 -14.5s-14.5 -21.5 -14.5 -35.5v-400c0 -14 4.83301 -25.833 14.5 -35.5s21.5 -14.5 35.5 -14.5s25.833 4.83301 35.5 14.5s14.5 21.5 14.5 35.5v50h50v-50z" />
    <glyph glyph-name="D" unicode="D" 
d="M220 100c0 -27.333 -9.83301 -50.833 -29.5 -70.5s-43.167 -29.5 -70.5 -29.5h-100v600h100c27.333 0 50.833 -9.83301 70.5 -29.5s29.5 -43.167 29.5 -70.5v-400zM170 100v400c0 14 -4.83301 25.833 -14.5 35.5s-21.5 14.5 -35.5 14.5h-50v-500h50
c14 0 25.833 4.83301 35.5 14.5s14.5 21.5 14.5 35.5z" />
    <glyph glyph-name="E" unicode="E" 
d="M220 0h-200v600h200v-50h-150v-225h110v-50h-110v-225h150v-50z" />
    <glyph glyph-name="F" unicode="F" 
d="M70 0h-50v600h200v-50h-150v-225h110v-50h-110v-275z" />
    <glyph glyph-name="G" unicode="G" 
d="M220 0h-100c-27.333 -0 -50.833 9.83301 -70.5 29.5s-29.5 43.167 -29.5 70.5v400c0 27.333 9.83301 50.833 29.5 70.5s43.167 29.5 70.5 29.5s50.833 -9.83301 70.5 -29.5s29.5 -43.167 29.5 -70.5v-50h-50v50c0 14 -4.83301 25.833 -14.5 35.5s-21.5 14.5 -35.5 14.5
s-25.833 -4.83301 -35.5 -14.5s-14.5 -21.5 -14.5 -35.5v-400c0 -14 4.83301 -25.833 14.5 -35.5s21.5 -14.5 35.5 -14.5h50v225h-50v50h100v-325z" />
    <glyph glyph-name="H" unicode="H" 
d="M220 0h-50v275h-100v-275h-50v600h50v-275h100v275h50v-600z" />
    <glyph glyph-name="I" unicode="I" horiz-adv-x="180" 
d="M15 0v50h50v500h-50v50h150v-50h-50v-500h50v-50h-150z" />
    <glyph glyph-name="J" unicode="J" 
d="M220 100c0 -27.333 -9.83301 -50.833 -29.5 -70.5s-43.167 -29.5 -70.5 -29.5s-50.833 9.83301 -70.5 29.5s-29.5 43.167 -29.5 70.5v50h50v-50c0 -14 4.83301 -25.833 14.5 -35.5s21.5 -14.5 35.5 -14.5s25.833 4.83301 35.5 14.5s14.5 21.5 14.5 35.5v500h50v-500z" />
    <glyph glyph-name="K" unicode="K" 
d="M220 0h-50l-64 286l-36 -109v-177h-50v600h50v-274l100 274h50l-80 -237z" />
    <glyph glyph-name="L" unicode="L" 
d="M220 0h-200v600h50v-550h150v-50z" />
    <glyph glyph-name="M" unicode="M" 
d="M120 173l-50 227v-400h-50v600h50l50 -250l50 250h50v-600h-50v400z" />
    <glyph glyph-name="N" unicode="N" 
d="M220 0h-50l-100 400v-400h-50v600h50l100 -400v400h50v-600z" />
    <glyph glyph-name="O" unicode="O" 
d="M220 100c0 -27.333 -9.83301 -50.833 -29.5 -70.5s-43.167 -29.5 -70.5 -29.5s-50.833 9.83301 -70.5 29.5s-29.5 43.167 -29.5 70.5v400c0 27.333 9.83301 50.833 29.5 70.5s43.167 29.5 70.5 29.5s50.833 -9.83301 70.5 -29.5s29.5 -43.167 29.5 -70.5v-400zM170 100
v400c0 14 -4.83301 25.833 -14.5 35.5s-21.5 14.5 -35.5 14.5s-25.833 -4.83301 -35.5 -14.5s-14.5 -21.5 -14.5 -35.5v-400c0 -14 4.83301 -25.833 14.5 -35.5s21.5 -14.5 35.5 -14.5s25.833 4.83301 35.5 14.5s14.5 21.5 14.5 35.5z" />
    <glyph glyph-name="P" unicode="P" 
d="M220 375c0 -27.333 -9.83301 -50.833 -29.5 -70.5s-43.167 -29.5 -70.5 -29.5h-50v-275h-50v600h100c27.333 0 50.833 -9.83301 70.5 -29.5s29.5 -43.167 29.5 -70.5v-125zM170 375v125c0 14 -4.83301 25.833 -14.5 35.5s-21.5 14.5 -35.5 14.5h-50v-225h50
c14 0 25.833 4.83301 35.5 14.5s14.5 21.5 14.5 35.5z" />
    <glyph glyph-name="Q" unicode="Q" 
d="M220 100c-1.33301 -24.667 -6.66699 -44 -16 -58l30 -30l-33 -33l-30 30c-14.667 -6 -31.667 -9 -51 -9c-27.333 -0 -50.833 9.83301 -70.5 29.5s-29.5 43.167 -29.5 70.5v400c0 27.333 9.83301 50.833 29.5 70.5s43.167 29.5 70.5 29.5s50.833 -9.83301 70.5 -29.5
s29.5 -43.167 29.5 -70.5v-400zM169.999 100v400c0 14 -4.83301 25.833 -14.5 35.5s-21.5 14.5 -35.5 14.5s-25.833 -4.83301 -35.5 -14.5s-14.5 -21.5 -14.5 -35.5v-400c0 -14 4.83301 -25.833 14.5 -35.5s21.5 -14.5 35.5 -14.5l7 1l-27 27l33 33l29 -29
c4 4.66699 6.66699 10.667 8 18z" />
    <glyph glyph-name="R" unicode="R" 
d="M220 0l-50 0.000976562l-50 275h-50v-275h-50v600h100c27.333 0 50.833 -9.83301 70.5 -29.5s29.5 -43.167 29.5 -70.5v-125c-0.666992 -22.667 -5.16699 -41.834 -13.5 -57.501s-20.5 -28.5 -36.5 -38.5zM170 375.001v125c0 14 -4.83301 25.833 -14.5 35.5
s-21.5 14.5 -35.5 14.5h-50v-225h50c14 0 25.833 4.83301 35.5 14.5s14.5 21.5 14.5 35.5z" />
    <glyph glyph-name="S" unicode="S" 
d="M220 100c0 -27.333 -9.83301 -50.833 -29.5 -70.5s-43.167 -29.5 -70.5 -29.5s-50.833 9.83301 -70.5 29.5s-29.5 43.167 -29.5 70.5v50h50v-50c0 -14 4.83301 -25.833 14.5 -35.5s21.5 -14.5 35.5 -14.5s25.833 4.83301 35.5 14.5s14.5 21.5 14.5 35.5v60l-136 234
c-8 12 -12.667 27 -14 45v61c0 27.333 9.83301 50.833 29.5 70.5s43.167 29.5 70.5 29.5s50.833 -9.83301 70.5 -29.5s29.5 -43.167 29.5 -70.5v-50h-50v50c0 14 -4.83301 25.833 -14.5 35.5s-21.5 14.5 -35.5 14.5s-25.833 -4.83301 -35.5 -14.5s-14.5 -21.5 -14.5 -35.5
v-60l137 -235c6.66699 -14 11 -28.667 13 -44v-61z" />
    <glyph glyph-name="T" unicode="T" 
d="M220 550h-75v-550h-50v550h-75v50h200v-50z" />
    <glyph glyph-name="U" unicode="U" 
d="M220 100c0 -27.333 -9.83301 -50.833 -29.5 -70.5s-43.167 -29.5 -70.5 -29.5s-50.833 9.83301 -70.5 29.5s-29.5 43.167 -29.5 70.5v500h50v-500c0 -14 4.83301 -25.833 14.5 -35.5s21.5 -14.5 35.5 -14.5s25.833 4.83301 35.5 14.5s14.5 21.5 14.5 35.5v500h50v-500z
" />
    <glyph glyph-name="V" unicode="V" horiz-adv-x="290" 
d="M270 600l-100 -600h-50l-100 600h50l75 -450l75 450h50z" />
    <glyph glyph-name="W" unicode="W" horiz-adv-x="290" 
d="M145 300l-34 -300h-50l-41 600h50l22 -300l28 300h50l25 -300l25 300h50l-42 -600h-50z" />
    <glyph glyph-name="X" unicode="X" horiz-adv-x="290" 
d="M270 0h-55l-70 215l-70 -215h-55l98 300l-98 300h55l70 -215l70 215h55l-97 -300z" />
    <glyph glyph-name="Y" unicode="Y" horiz-adv-x="290" 
d="M270 600l-100 -303v-297h-50v297l-100 303h55l70 -215l70 215h55z" />
    <glyph glyph-name="Z" unicode="Z" 
d="M220 0h-200v50l145 500h-145v50h200v-50l-145 -500h145v-50z" />
    <glyph glyph-name="bracketleft" unicode="[" horiz-adv-x="140" 
d="M120 -50h-100v700h100v-50h-50v-600h50v-50z" />
    <glyph glyph-name="backslash" unicode="\" 
d="M220 0h-50l-150 600h50z" />
    <glyph glyph-name="bracketright" unicode="]" horiz-adv-x="140" 
d="M120 -50h-100v50h50v600h-50v50h100v-700z" />
    <glyph glyph-name="quotereversed" unicode="^" horiz-adv-x="228" 
d="M20 349l75 250h38l75 -250h-38l-56 188l-56 -188h-38z" />
    <glyph glyph-name="underscore" unicode="_" horiz-adv-x="200" 
d="M200 -90h-200v40h200v-40z" />
    <glyph glyph-name="grave" unicode="`" horiz-adv-x="130" 
d="M110 525h-28l-63 75h55z" />
    <glyph glyph-name="a" unicode="a" horiz-adv-x="190" 
d="M20 75c0 -20.667 7.33398 -38.334 22.001 -53.001s32.334 -22 53.001 -22c16 0 28.333 4.66699 37 14v-14h38v375c0 20.667 -7.33301 38.334 -22 53.001s-32.334 22 -53.001 22s-38.334 -7.33301 -53.001 -22s-22 -32.334 -22 -53.001v-37h37v37
c0 10.667 3.66699 19.667 11 27s16.333 11 27 11s19.5 -3.66699 26.5 -11s10.5 -16.333 10.5 -27v-300c0 -10.667 -3.5 -19.5 -10.5 -26.5s-15.833 -10.5 -26.5 -10.5s-19.667 3.5 -27 10.5s-11 15.833 -11 26.5v140c0.666992 18.667 6 33.834 16 45.501
s22.667 18.167 38 19.5h21v38h-21c-24 0 -45.167 -9.33301 -63.5 -28s-27.5 -44 -27.5 -76v-139z" />
    <glyph glyph-name="b" unicode="b" horiz-adv-x="190" 
d="M20 75v37h38v-36c-0.666992 -11.333 2.66602 -20.5 9.99902 -27.5s16.333 -10.5 27 -10.5s19.5 3.5 26.5 10.5s10.5 15.833 10.5 26.5v300c0 10.667 -3.5 19.667 -10.5 27s-15.833 11 -26.5 11s-19.667 -3.66699 -27 -11s-10.666 -16 -9.99902 -26v-38h-38v37
c0 20.667 7.33301 38.334 22 53.001s32.334 22 53.001 22s38.334 -7.33301 53.001 -22s22 -32.334 22 -53.001v-300c0 -20.667 -7.33301 -38.334 -22 -53.001s-32.334 -22 -53.001 -22s-38.334 7.33301 -53.001 22s-22 32.334 -22 53.001zM58 0h-38v600h38v-600z" />
    <glyph glyph-name="c" unicode="c" horiz-adv-x="190" 
d="M170 75c0 -20.667 -7.33301 -38.334 -22 -53.001s-32.334 -22 -53.001 -22s-38.334 7.33301 -53.001 22s-22 32.334 -22 53.001v300c0 20.667 7.33301 38.334 22 53.001s32.334 22 53.001 22s38.334 -7.33301 53.001 -22s22 -32.334 22 -53.001v-37h-37v37
c0 10.667 -3.66699 19.667 -11 27s-16.333 11 -27 11s-19.5 -3.66699 -26.5 -11s-10.5 -16.333 -10.5 -27v-300c0 -10.667 3.5 -19.5 10.5 -26.5s15.833 -10.5 26.5 -10.5s19.667 3.5 27 10.5s11 15.833 11 26.5v38h37v-38z" />
    <glyph glyph-name="d" unicode="d" horiz-adv-x="190" 
d="M170 75v37h-38v-36c0.666992 -11.333 -2.66602 -20.5 -9.99902 -27.5s-16.333 -10.5 -27 -10.5s-19.5 3.5 -26.5 10.5s-10.5 15.833 -10.5 26.5v300c0 10.667 3.5 19.667 10.5 27s15.833 11 26.5 11s19.667 -3.66699 27 -11s10.666 -16 9.99902 -26v-38h38v37
c0 20.667 -7.33301 38.334 -22 53.001s-32.334 22 -53.001 22s-38.334 -7.33301 -53.001 -22s-22 -32.334 -22 -53.001v-300c0 -20.667 7.33301 -38.334 22 -53.001s32.334 -22 53.001 -22s38.334 7.33301 53.001 22s22 32.334 22 53.001zM132 0h38v600h-38v-600z" />
    <glyph glyph-name="e" unicode="e" horiz-adv-x="190" 
d="M170 375c0 20.667 -7.33301 38.334 -22 53.001s-32.334 22 -53.001 22s-38.334 -7.33301 -53.001 -22s-22 -32.334 -22 -53.001v-300c0 -20.667 7.33301 -38.334 22 -53.001s32.334 -22 53.001 -22s38.334 7.33301 53.001 22s22 32.334 22 53.001v37h-37v-37
c0 -10.667 -3.66699 -19.667 -11 -27s-16.333 -11 -27 -11s-19.5 3.66699 -26.5 11s-10.5 16.333 -10.5 27v300c0 10.667 3.5 19.5 10.5 26.5s15.833 10.5 26.5 10.5s19.667 -3.5 27 -10.5s11 -15.833 11 -26.5v-137h-75v-38h112v175z" />
    <glyph glyph-name="f" unicode="f" horiz-adv-x="190" 
d="M170 413l-56.001 -0.000976562v-413h-38v413h-56v37h56v65c0.666992 22 7.83398 41.667 21.501 59s33.5 26 59.5 26h13v-38h-14c-11.333 0.666992 -21 -3.16602 -29 -11.499s-12.333 -20.5 -13 -36.5v-64h56v-37z" />
    <glyph glyph-name="g" unicode="g" horiz-adv-x="190" 
d="M170 75c0 -20.667 -7.33301 -38.334 -22 -53.001s-32.334 -22 -53.001 -22s-38.334 7.33301 -53.001 22s-22 32.334 -22 53.001v300c0 20.667 7.33301 38.334 22 53.001s32.334 22 53.001 22s38.334 -7.33301 53.001 -22s22 -32.334 22 -53.001v-37h-37v37
c0 10.667 -3.66699 19.667 -11 27s-16.333 11 -27 11s-19.5 -3.66699 -26.5 -11s-10.5 -16.333 -10.5 -27v-300c0 -10.667 3.5 -19.5 10.5 -26.5s15.833 -10.5 26.5 -10.5s19.667 3.5 27 10.5s11 15.833 11 26.5v38h37v-38zM170 -75
c0 -20.667 -7.33105 -38.334 -21.998 -53.001s-32.334 -22 -53.001 -22s-38.334 7.33301 -53.001 22s-22 32.334 -22 53.001v37h38v-37c0 -10.667 3.5 -19.5 10.5 -26.5s15.833 -10.5 26.5 -10.5s19.667 3.5 27 10.5s11 15.833 11 26.5v525h37v-525z" />
    <glyph glyph-name="h" unicode="h" horiz-adv-x="190" 
d="M20 600l36.999 0.000976562v-166c9.33301 10.667 22 16 38 16c20.667 0 38.334 -7.33301 53.001 -22s22 -32.334 22 -53.001v-375h-38v375c0 10.667 -3.5 19.5 -10.5 26.5s-15.833 10.5 -26.5 10.5s-19.667 -3.5 -27 -10.5s-11 -16.5 -11 -28.5v-373h-37v600z" />
    <glyph glyph-name="i" unicode="i" horiz-adv-x="78" 
d="M58 524h-38v38h38v-38zM58 0h-38v450h38v-450z" />
    <glyph glyph-name="j" unicode="j" horiz-adv-x="78" 
d="M58 -73c-0.666992 -22 -8.33203 -40.333 -22.999 -55s-32.334 -22 -53.001 -22h-12v40h12c25.333 1.33301 38 16.333 38 45v515h38v-523zM58.002 524h-38v38h38v-38z" />
    <glyph glyph-name="k" unicode="k" horiz-adv-x="190" 
d="M170 0h-40l-51 223l-21 -63v-160h-38v600h38v-328l68 178h44l-66 -168z" />
    <glyph glyph-name="l" unicode="l" horiz-adv-x="78" 
d="M58 0h-38v600h38v-600z" />
    <glyph glyph-name="m" unicode="m" horiz-adv-x="248" 
d="M142 379l-0.000976562 -378.999h-38v383c-1.33301 16 -8.66602 24.667 -21.999 26c-15.333 -0.666992 -24 -9.33398 -26 -26.001v-383h-37v450h37v-12c8.66699 8 19 12 31 12c17.333 0 30 -7.66699 38 -23c8 15.333 22.333 23 43 23c16 0 30 -6 42 -18s18 -29.333 18 -52
v-380h-37v383c-2 16 -9.66699 24.667 -23 26c-15.333 -0.666992 -24 -10.667 -26 -30z" />
    <glyph glyph-name="n" unicode="n" horiz-adv-x="190" 
d="M20 450l36.999 0.000976562v-16c9.33301 10.667 22 16 38 16c20.667 0 38.334 -7.33301 53.001 -22s22 -32.334 22 -53.001v-375h-38v375c0 10.667 -3.5 19.5 -10.5 26.5s-15.833 10.5 -26.5 10.5s-19.667 -3.5 -27 -10.5s-11 -16.5 -11 -28.5v-373h-37v450z" />
    <glyph glyph-name="o" unicode="o" horiz-adv-x="190" 
d="M170 75c0 -20.667 -7.33301 -38.334 -22 -53.001s-32.334 -22 -53.001 -22s-38.334 7.33301 -53.001 22s-22 32.334 -22 53.001v300c0 20.667 7.33301 38.334 22 53.001s32.334 22 53.001 22s38.334 -7.33301 53.001 -22s22 -32.334 22 -53.001v-300zM133 75v300
c0 10.667 -3.66699 19.667 -11 27s-16.333 11 -27 11s-19.5 -3.66699 -26.5 -11s-10.5 -16.333 -10.5 -27v-300c0 -10.667 3.5 -19.5 10.5 -26.5s15.833 -10.5 26.5 -10.5s19.667 3.5 27 10.5s11 15.833 11 26.5z" />
    <glyph glyph-name="p" unicode="p" horiz-adv-x="190" 
d="M20 375v-37h38v36c-0.666992 11.333 2.66602 20.5 9.99902 27.5s16.333 10.5 27 10.5s19.5 -3.5 26.5 -10.5s10.5 -15.833 10.5 -26.5v-300c0 -10.667 -3.5 -19.667 -10.5 -27s-15.833 -11 -26.5 -11s-19.667 3.66699 -27 11s-10.666 16 -9.99902 26v38h-38v-37
c0 -20.667 7.33301 -38.334 22 -53.001s32.334 -22 53.001 -22s38.334 7.33301 53.001 22s22 32.334 22 53.001v300c0 20.667 -7.33301 38.334 -22 53.001s-32.334 22 -53.001 22s-38.334 -7.33301 -53.001 -22s-22 -32.334 -22 -53.001zM58 450h-38v-600h38v600z" />
    <glyph glyph-name="q" unicode="q" horiz-adv-x="190" 
d="M170 375v-37h-38v36c0.666992 11.333 -2.66602 20.5 -9.99902 27.5s-16.333 10.5 -27 10.5s-19.5 -3.5 -26.5 -10.5s-10.5 -15.833 -10.5 -26.5v-300c0 -10.667 3.5 -19.667 10.5 -27s15.833 -11 26.5 -11s19.667 3.66699 27 11s10.666 16 9.99902 26v38h38v-37
c0 -20.667 -7.33301 -38.334 -22 -53.001s-32.334 -22 -53.001 -22s-38.334 7.33301 -53.001 22s-22 32.334 -22 53.001v300c0 20.667 7.33301 38.334 22 53.001s32.334 22 53.001 22s38.334 -7.33301 53.001 -22s22 -32.334 22 -53.001zM132 450h38v-600h-38v600z" />
    <glyph glyph-name="r" unicode="r" horiz-adv-x="190" 
d="M20 450l36.999 0.000976562v-16c9.33301 10.667 22 16 38 16c20.667 0 38.334 -7.33301 53.001 -22s22 -32.334 22 -53.001v-35h-38v35c0 10.667 -3.5 19.5 -10.5 26.5s-15.833 10.5 -26.5 10.5s-19.667 -3.5 -27 -10.5s-11 -16.5 -11 -28.5v-373h-37v450z" />
    <glyph glyph-name="s" unicode="s" horiz-adv-x="190" 
d="M170 75c0 -20.667 -7.33301 -38.335 -22 -53.002s-32.334 -22 -53.001 -22s-38.334 7.33301 -53.001 22s-22 32.334 -22 53.001v38h38v-38c0 -10.667 3.5 -19.5 10.5 -26.5s15.833 -10.5 26.5 -10.5s19.667 3.5 27 10.5s11 15.833 11 26.5v45l-103 180
c-4.66699 8 -8 18 -10 30v45c0 20.667 7.33301 38.334 22 53.001s32.334 22 53.001 22s38.334 -7.33301 53.001 -22s22 -32.334 22 -53.001v-37h-37v37c0 10.667 -3.66699 19.667 -11 27s-16.333 11 -27 11s-19.5 -3.66699 -26.5 -11s-10.5 -16.333 -10.5 -27v-45l103 -182
c4 -7.33301 7 -16.666 9 -27.999v-45z" />
    <glyph glyph-name="t" unicode="t" horiz-adv-x="190" 
d="M170 450l-56.001 0.000976562v150h-38v-151h-56v-36h56v-328c0.666992 -22 7.83398 -41.667 21.501 -59s33.5 -26 59.5 -26h13v38h-14c-11.333 -0.666992 -21 3.16602 -29 11.499s-12.333 20.5 -13 36.5v327h56v37z" />
    <glyph glyph-name="u" unicode="u" horiz-adv-x="190" 
d="M170 0l-36.999 -0.000976562v16c-9.33301 -10.667 -22 -16 -38 -16c-20.667 0 -38.334 7.33301 -53.001 22s-22 32.334 -22 53.001v375h38v-375c0 -10.667 3.5 -19.5 10.5 -26.5s15.833 -10.5 26.5 -10.5s19.667 3.5 27 10.5s11 16.5 11 28.5v373h37v-450z" />
    <glyph glyph-name="v" unicode="v" horiz-adv-x="228" 
d="M208 450l-75 -450h-38l-75 450h38l56 -337l56 337h38z" />
    <glyph glyph-name="w" unicode="w" horiz-adv-x="238" 
d="M117 289l-27 -289h-36l-30 450h37l14 -248l25 248h37l24 -250l15 250h38l-32 -450h-37z" />
    <glyph glyph-name="x" unicode="x" horiz-adv-x="228" 
d="M208 0h-42l-52 162l-53 -162h-41l73 225l-73 225h41l53 -162l52 162h42l-74 -225z" />
    <glyph glyph-name="y" unicode="y" horiz-adv-x="228" 
d="M208 450l-102 -600h-37l26 150l-75 450h38l56 -337l56 337h38z" />
    <glyph glyph-name="z" unicode="z" horiz-adv-x="190" 
d="M170 0h-150v38l109 375h-109v37h150v-37l-109 -375h109v-38z" />
    <glyph glyph-name="braceleft" unicode="{" horiz-adv-x="190" 
d="M170 -50c-27.333 0 -50.833 9.83301 -70.5 29.5s-29.5 43.167 -29.5 70.5v175c0 14 -4.83301 25.833 -14.5 35.5s-21.5 14.5 -35.5 14.5v50c14 0 25.833 4.83301 35.5 14.5s14.5 21.5 14.5 35.5v175c0 27.333 9.83301 50.833 29.5 70.5s43.167 29.5 70.5 29.5v-50
c-14 0 -25.833 -4.83301 -35.5 -14.5s-14.5 -21.5 -14.5 -35.5v-175c0 -30 -11.333 -55 -34 -75c22.667 -20 34 -45 34 -75v-175c0 -14 4.83301 -25.833 14.5 -35.5s21.5 -14.5 35.5 -14.5v-50z" />
    <glyph glyph-name="bar" unicode="|" horiz-adv-x="60" 
d="M42 -50h-25v699h25v-699z" />
    <glyph glyph-name="braceright" unicode="}" horiz-adv-x="190" 
d="M170 275c-14 0 -25.833 -4.83301 -35.5 -14.5s-14.5 -21.5 -14.5 -35.5v-175c0 -27.333 -9.83301 -50.833 -29.5 -70.5s-43.167 -29.5 -70.5 -29.5v50c14 -0 25.833 4.83301 35.5 14.5s14.5 21.5 14.5 35.5v175c0 30 11.333 55 34 75c-22.667 20 -34 45 -34 75v175
c0 14 -4.83301 25.833 -14.5 35.5s-21.5 14.5 -35.5 14.5v50c27.333 0 50.833 -9.83301 70.5 -29.5s29.5 -43.167 29.5 -70.5v-175c0 -14 4.83301 -25.833 14.5 -35.5s21.5 -14.5 35.5 -14.5v-50z" />
    <glyph glyph-name="asciitilde" unicode="~" horiz-adv-x="480" 
d="M440 355c-8.66699 -24.667 -23.332 -45.667 -43.999 -63c-21.333 -18 -46.333 -27 -75 -27c-22 0 -41 6 -57 18l-60 39c-13.333 10.667 -26.666 16 -39.999 16c-16 0.666992 -30 -3.66602 -42 -12.999c-12.667 -10 -22.667 -24 -30 -42l-52 26
c8.66699 25.333 23.667 46.666 45 63.999s46.666 26.333 75.999 27c20.667 0 38 -4.33301 52 -13l60 -39c15.333 -11.333 31.666 -17.333 48.999 -18c15.333 0 28.333 4 39 12c11.333 8.66699 20.333 21.667 27 39z" />
    <glyph glyph-name="exclamdown" unicode="&#xa1;" horiz-adv-x="90" 
d="M70 550h-50v50h50v-50zM70 0h-50l12 500h25z" />
    <glyph glyph-name="cent" unicode="&#xa2;" horiz-adv-x="190" 
d="M111 0h-32v600h32v-600zM170 146c0 -20.667 -7.33301 -38.334 -22 -53.001s-32.334 -22 -53.001 -22s-38.334 7.33301 -53.001 22s-22 32.334 -22 53.001v300c0 20.667 7.33301 38.334 22 53.001s32.334 22 53.001 22s38.334 -7.33301 53.001 -22s22 -32.334 22 -53.001
v-37h-37v37c0 10.667 -3.66699 19.667 -11 27s-16.333 11 -27 11s-19.5 -3.66699 -26.5 -11s-10.5 -16.333 -10.5 -27v-300c0 -10.667 3.5 -19.5 10.5 -26.5s15.833 -10.5 26.5 -10.5s19.667 3.5 27 10.5s11 15.833 11 26.5v38h37v-38z" />
    <glyph glyph-name="sterling" unicode="&#xa3;" horiz-adv-x="270" 
d="M45 500v-200h-20v-50h20v-200h-20v-50h220v50h-150v200h70v50h-70v200c0 14 4.83301 25.833 14.5 35.5s21.5 14.5 35.5 14.5s25.833 -4.83301 35.5 -14.5s14.5 -21.5 14.5 -35.5v-50h50v50c0 27.333 -9.83301 50.833 -29.5 70.5s-43.167 29.5 -70.5 29.5
s-50.833 -9.83301 -70.5 -29.5s-29.5 -43.167 -29.5 -70.5z" />
    <glyph glyph-name="currency" unicode="&#xa4;" horiz-adv-x="400" 
d="M81 365l-46 46l36 39l49 -45c22.667 15.333 48.667 23 78 23c30.667 0 57.334 -7.66699 80.001 -23l48 45l38 -39l-47 -46c16 -24.667 24 -51 24 -79s-8 -54.667 -24 -80l47 -45l-38 -40l-48 46c-22.667 -16 -49.334 -24 -80.001 -24c-29.333 0 -55.333 8 -78 24l-49 -46
l-36 40l46 45c-16 25.333 -24 52 -24 80s8 54.333 24 79zM111 286c0 -24 8.5 -44.667 25.5 -62s37.5 -26 61.5 -26c24.667 0 45.5 8.66699 62.5 26s25.5 38 25.5 62s-8.5 44.667 -25.5 62s-37.833 26 -62.5 26c-24 0 -44.5 -8.66699 -61.5 -26s-25.5 -38 -25.5 -62z" />
    <glyph glyph-name="yen" unicode="&#xa5;" horiz-adv-x="290" 
d="M225 273h-160v50h160v-50zM225 173h-160v50h160v-50zM270 600l-100 -303v-297h-50v297l-100 303h55l70 -215l70 215h55z" />
    <glyph glyph-name="brokenbar" unicode="&#xa6;" horiz-adv-x="60" 
d="M42 -50h-25v261h25v-261zM42 388h-25v261h25v-261z" />
    <glyph glyph-name="section" unicode="&#xa7;" horiz-adv-x="190" 
d="M170 -3c-0.666992 -21.333 -8.33398 -39.3369 -23.001 -54.0039s-32.334 -22 -53.001 -22s-38.334 7.33301 -53.001 22s-22 32.334 -22 53.001v38h38v-38c0 -10.667 3.5 -19.5 10.5 -26.5s15.833 -10.5 26.5 -10.5s19.667 3.5 27 10.5s11 15.833 11 26.5v45l-80 106
c-8 12 -15.167 24.167 -21.5 36.5s-10.166 26.5 -11.499 42.5v70c0 20.667 7.33301 38.334 22 53.001s31.667 21.334 51 20.001l-62 82c-4.66699 8 -8 18 -10 30v45c0 20.667 7.33301 38.334 22 53.001s32.334 22 53.001 22s38.334 -7.33301 53.001 -22
s22 -32.334 22 -53.001v-37h-37v37c0 10.667 -3.66699 19.667 -11 27s-16.333 11 -27 11s-19.5 -3.66699 -26.5 -11s-10.5 -16.333 -10.5 -27v-45l77 -104c10.667 -13.333 19 -26.666 25 -39.999s9.33301 -27.666 10 -42.999v-68c0 -20.667 -7.33301 -38.334 -22 -53.001
s-31.667 -21.667 -51 -21l63 -83c4.66699 -8.66699 8 -18 10 -28v-44zM57 228.996c0.666992 -12.667 4.50098 -22.5 11.501 -29.5s15.833 -10.5 26.5 -10.5s19.667 3.5 27 10.5s10.666 15.5 9.99902 25.5v71c0 10.667 -3.66699 19.667 -11 27s-16.333 11 -27 11
s-19.5 -3.66699 -26.5 -11s-10.5 -16.333 -10.5 -27v-67z" />
    <glyph glyph-name="dieresis" unicode="&#xa8;" horiz-adv-x="190" 
d="M170 550h-50v50h50v-50zM70 550h-50v50h50v-50z" />
    <glyph glyph-name="copyright" unicode="&#xa9;" horiz-adv-x="600" 
d="M300 590c50 0 97.666 -12.332 142.999 -36.999s80 -59.334 104 -104.001c25.333 -45.333 38 -93 38 -143c0 -50.667 -12.667 -98.667 -38 -144s-60.5 -80.333 -105.5 -105s-92.167 -37 -141.5 -37c-51.333 0 -99.666 12.833 -144.999 38.5s-79.833 60.834 -103.5 105.501
s-35.5 92 -35.5 142c0 51.333 12.5 99.666 37.5 144.999s60 79.833 105 103.5s92.167 35.5 141.5 35.5zM299.999 545.001c-42.667 0 -82.666 -10.8311 -119.999 -32.498s-67 -50.834 -89 -87.501c-20.667 -38 -31 -77.667 -31 -119c0 -43.333 11 -83.5 33 -120.5
s51.667 -66 89 -87s76.666 -31.5 117.999 -31.5s80.833 10.833 118.5 32.5s67 51.167 88 88.5s31.5 76.666 31.5 117.999c0 42.667 -11 83 -33 121s-52 67.167 -90 87.5s-76.333 30.5 -115 30.5zM391 260.003l46.001 -13.999c-8 -32.667 -24.333 -58.334 -49 -77.001
s-54 -28 -88 -28c-48.667 0 -86.334 15.667 -113.001 47c-25.333 29.333 -38 68.333 -38 117c0 69.333 24.667 117 74 143c22.667 12 48.667 18 78 18c70 0 113.667 -29.667 131 -89l-46 -11c-15.333 39.333 -44 59 -86 59c-32.667 0 -57.667 -12.333 -75 -37
c-16 -22 -24 -50 -24 -84c0 -33.333 7.66699 -60.333 23 -81c16.667 -24 41.667 -36 75 -36c22 0 41.5 6.5 58.5 19.5s28.167 30.833 33.5 53.5z" />
    <glyph glyph-name="ordfeminine" unicode="&#xaa;" horiz-adv-x="150" 
d="M23 263h103v-27h-103v27zM23 350c0 -13.333 4.83301 -24.999 14.5 -34.999s21.834 -15 36.501 -15c10.667 0 19 3.33301 25 10v-10h27v250c0 14 -5.16699 25.833 -15.5 35.5s-22.5 14.5 -36.5 14.5c-14.667 0 -26.834 -4.83301 -36.501 -14.5s-14.5 -21.5 -14.5 -35.5
v-24h24v24c0 7.33301 2.66699 13.5 8 18.5s11.666 7.5 18.999 7.5s13.333 -2.5 18 -7.5s7 -11.167 7 -18.5v-200c0 -6.66699 -2.33301 -12.334 -7 -17.001s-10.667 -7 -18 -7s-13.666 2.33301 -18.999 7s-8 10.334 -8 17.001v91c2 14.667 6.33301 25.667 13 33
s15 11.333 25 12h14v26h-14c-16.667 0 -31.167 -7.33301 -43.5 -22s-18.5 -30.334 -18.5 -47.001v-93z" />
    <glyph glyph-name="guillemotleft" unicode="&#xab;" horiz-adv-x="290" 
d="M217 95l-90 147l90 146h52l-83 -146l83 -147h-52zM110 95l-90 147l90 146h52l-83 -146l83 -147h-52z" />
    <glyph glyph-name="logicalnot" unicode="&#xac;" horiz-adv-x="380" 
d="M362 150h-50v100h-294v50h344v-150z" />
    <glyph glyph-name="registered" unicode="&#xae;" horiz-adv-x="600" 
d="M299 600c46 0 89.333 -11.333 130 -34s71.667 -53.667 93 -93c22.667 -40.667 34 -83.667 34 -129s-11.5 -88.5 -34.5 -129.5s-54.667 -72.5 -95 -94.5s-82.833 -33 -127.5 -33c-46.667 0 -90.167 11.667 -130.5 35s-71.333 55 -93 95s-32.5 82.333 -32.5 127
c0 46 11.5 89.5 34.5 130.5s54.833 72.167 95.5 93.5s82.667 32 126 32zM299 554c-37.333 0 -72.332 -9.50098 -104.999 -28.501s-58.667 -44.5 -78 -76.5c-17.333 -34.667 -26 -70 -26 -106c0 -38 9.33301 -73.5 28 -106.5s44.5 -58.667 77.5 -77s67.5 -27.5 103.5 -27.5
c37.333 0 72.666 9.5 105.999 28.5s59.5 45 78.5 78s28.5 67.833 28.5 104.5c0 38 -10.167 73.833 -30.5 107.5s-47 59.334 -80 77.001s-67.167 26.5 -102.5 26.5zM186.001 201.999v276h95c26 0 45.333 -1 58 -3c22 -5.33301 38 -15.666 48 -30.999
c8 -12.667 12 -26.334 12 -41.001c0 -21.333 -6.33301 -39.333 -19 -54c-11.333 -14.667 -28.333 -23.667 -51 -27l90 -120h-49l-93 117h-47v-117h-44zM230.001 357.999h56c19.333 -0.666992 33.666 1.33301 42.999 6c16.667 6 24.334 18 23.001 36
c0 17.333 -8.66699 29.333 -26 36c-8 4 -23 6 -45 6h-51v-84z" />
    <glyph glyph-name="macron" unicode="&#xaf;" horiz-adv-x="200" 
d="M180 570h-160v30h160v-30z" />
    <glyph glyph-name="degree" unicode="&#xb0;" horiz-adv-x="230" 
d="M213 501h-36c0.666992 16.667 -5.16602 31 -17.499 43s-27.166 18 -44.499 18s-32.166 -5.83301 -44.499 -17.5s-18.5 -26.167 -18.5 -43.5c0 -16.667 6.16699 -31.167 18.5 -43.5s27.166 -18.5 44.499 -18.5s32.166 6.16699 44.499 18.5s18.166 26.833 17.499 43.5h36
c0 -26.667 -9.66699 -49.667 -29 -69s-42.333 -29 -69 -29s-49.5 9.66699 -68.5 29s-28.5 42.333 -28.5 69c0 27.333 9.33301 50.333 28 69s41.667 28 69 28c26 0 48.833 -9.5 68.5 -28.5s29.5 -41.833 29.5 -68.5z" />
    <glyph glyph-name="plusminus" unicode="&#xb1;" 
d="M219 73h-199v50h199v-50zM219 250h-74v-77h-50v77h-75v50h75v72h50v-72h74v-50z" />
    <glyph glyph-name="uni00B2" unicode="&#xb2;" horiz-adv-x="150" 
d="M126 300l-103 -0.000976562v25c0 6 1 11.667 3 17l74 178v30c0 7.33301 -2.5 13.333 -7.5 18s-11.167 7 -18.5 7s-13.5 -2.33301 -18.5 -7s-7.5 -10.667 -7.5 -18v-25h-25v25c0 14 5 25.833 15 35.5s22 14.5 36 14.5s26.167 -4.83301 36.5 -14.5s15.5 -21.5 15.5 -35.5
v-28c-0.666992 -5.33301 -1.66699 -10.666 -3 -15.999l-75 -181h78v-25z" />
    <glyph glyph-name="uni00B3" unicode="&#xb3;" horiz-adv-x="150" 
d="M126 350c0 -13.333 -5.16699 -25 -15.5 -35s-22.5 -15 -36.5 -15s-26 5 -36 15s-15 21.667 -15 35v25h25v-25c0 -6.66699 2.5 -12.5 7.5 -17.5s11.167 -7.5 18.5 -7.5s13.5 2.5 18.5 7.5s7.5 10.833 7.5 17.5v63c0 6.66699 -2.5 12.5 -7.5 17.5s-11.167 7.5 -18.5 7.5h-8
v25h8c7.33301 0 13.5 2.33301 18.5 7s7.5 10.667 7.5 18v62c0 7.33301 -2.5 13.333 -7.5 18s-11.167 7 -18.5 7s-13.5 -2.33301 -18.5 -7s-7.5 -10.667 -7.5 -18v-25h-25v25c0 14 5 25.833 15 35.5s22 14.5 36 14.5s26.167 -4.83301 36.5 -14.5s15.5 -21.5 15.5 -35.5v-62
c0 -15.333 -6 -28 -18 -38c12 -10 18 -22.333 18 -37v-63z" />
    <glyph glyph-name="acute" unicode="&#xb4;" horiz-adv-x="130" 
d="M19 525h28l63 75h-55z" />
    <glyph glyph-name="uni00B5" unicode="&#xb5;" horiz-adv-x="190" 
d="M20 -75l37 0.000976562v91c9.33301 -10.667 22 -16 38 -16c12 -0.666992 24.333 4.66602 37 15.999v-16h38v450h-38v-375c0 -10.667 -3.5 -19.5 -10.5 -26.5s-15.833 -10.5 -26.5 -10.5s-19.667 3.5 -27 10.5s-11 16.5 -11 28.5v373h-37v-525z" />
    <glyph glyph-name="paragraph" unicode="&#xb6;" horiz-adv-x="260" 
d="M95 0l0.000976562 404.001c-26 0.666992 -46 8.66699 -60 24s-21 29.666 -21 42.999v58c0.666992 16.667 9.16699 32.667 25.5 48s36.166 23 59.499 23h148v-39h-31v-561h-37v562h-46v-562h-38z" />
    <glyph glyph-name="periodcentered" unicode="&#xb7;" horiz-adv-x="90" 
d="M70 300h-50v50h50v-50z" />
    <glyph glyph-name="cedilla" unicode="&#xb8;" horiz-adv-x="160" 
d="M16 -108l15 31h61c12.667 0.666992 19 6.33398 19 17.001c-0.666992 10.667 -7.33398 16 -20.001 16h-24v44h25v-17h4c12 0 22.833 -3.33301 32.5 -10s14.834 -18.334 15.501 -35.001c0 -14.667 -4.5 -26 -13.5 -34s-20.167 -12 -33.5 -12h-81z" />
    <glyph glyph-name="uni00B9" unicode="&#xb9;" horiz-adv-x="110" 
d="M87 300h-28v265l-19 -19l-17 17l37 37h27v-300z" />
    <glyph glyph-name="ordmasculine" unicode="&#xba;" horiz-adv-x="150" 
d="M126 349c0 -14 -5 -25.667 -15 -35s-22.333 -14 -37 -14c-14 0 -26 4.66699 -36 14s-15 21 -15 35v203c0 13.333 5 24.666 15 33.999s22 14 36 14c14.667 0 27 -4.66699 37 -14s15 -20.666 15 -33.999v-203zM101 349v203c0 6.66699 -2.5 12.5 -7.5 17.5
s-11.5 7.5 -19.5 7.5c-7.33301 0 -13.333 -2.5 -18 -7.5s-7 -10.833 -7 -17.5v-203c0 -7.33301 2.33301 -13.333 7 -18s10.667 -7 18 -7c8 0 14.5 2.33301 19.5 7s7.5 10.667 7.5 18zM23 263h103v-27h-103v27z" />
    <glyph glyph-name="guillemotright" unicode="&#xbb;" horiz-adv-x="290" 
d="M72 95l90 147l-90 146h-52l83 -146l-83 -147h52zM179 95l90 147l-90 146h-52l83 -146l-83 -147h52z" />
    <glyph glyph-name="onequarter" unicode="&#xbc;" horiz-adv-x="420" 
d="M385 88h-20v-88h-29v88h-74v25l74 187v-72l-46 -115h46v187h29v-187h20v-25zM99 300h-28v265l-19 -19l-17 17l37 37h27v-300zM332 600l-240 -600h-30l240 600h30z" />
    <glyph glyph-name="onehalf" unicode="&#xbd;" horiz-adv-x="420" 
d="M102 300h-28v265l-19 -19l-17 17l37 37h27v-300zM335 600l-240 -600h-30l240 600h30zM381 0l-103 -0.000976562v25c0 6 1 11.667 3 17l74 178v30c0 7.33301 -2.5 13.333 -7.5 18s-11.167 7 -18.5 7s-13.5 -2.33301 -18.5 -7s-7.5 -10.667 -7.5 -18v-25h-25v25
c0 14 5 25.833 15 35.5s22 14.5 36 14.5s26.167 -4.83301 36.5 -14.5s15.5 -21.5 15.5 -35.5v-28c-0.666992 -5.33301 -1.66699 -10.666 -3 -15.999l-75 -181h78v-25z" />
    <glyph glyph-name="threequarters" unicode="&#xbe;" horiz-adv-x="440" 
d="M406 88h-20v-88h-29v88h-74v25l74 187v-72l-46 -115h46v187h29v-187h20v-25zM353 600l-240 -600h-30l240 600h30zM137 350c0 -13.333 -5.16699 -25 -15.5 -35s-22.5 -15 -36.5 -15s-26 5 -36 15s-15 21.667 -15 35v25h25v-25c0 -6.66699 2.5 -12.5 7.5 -17.5
s11.167 -7.5 18.5 -7.5s13.5 2.5 18.5 7.5s7.5 10.833 7.5 17.5v63c0 6.66699 -2.5 12.5 -7.5 17.5s-11.167 7.5 -18.5 7.5h-8v25h8c7.33301 0 13.5 2.33301 18.5 7s7.5 10.667 7.5 18v62c0 7.33301 -2.5 13.333 -7.5 18s-11.167 7 -18.5 7s-13.5 -2.33301 -18.5 -7
s-7.5 -10.667 -7.5 -18v-25h-25v25c0 14 5 25.833 15 35.5s22 14.5 36 14.5s26.167 -4.83301 36.5 -14.5s15.5 -21.5 15.5 -35.5v-62c0 -15.333 -6 -28 -18 -38c12 -10 18 -22.333 18 -37v-63z" />
    <glyph glyph-name="questiondown" unicode="&#xbf;" 
d="M20 162c0.666992 8.66699 2.33301 18.333 5 29l70 309h50l-75 -340v-60c0 -14 4.83301 -25.833 14.5 -35.5s21.5 -14.5 35.5 -14.5s25.833 4.83301 35.5 14.5s14.5 21.5 14.5 35.5v50h50v-50c0 -27.333 -9.83301 -50.833 -29.5 -70.5s-43.167 -29.5 -70.5 -29.5
s-50.833 9.83301 -70.5 29.5s-29.5 43.167 -29.5 70.5v62zM94.999 599.999h50v-50h-50v50z" />
    <glyph glyph-name="Agrave" unicode="&#xc0;" horiz-adv-x="290" 
d="M270 0h-50l-25 150h-100l-25 -150h-50l100 600h50zM187 200l-42 250l-42 -250h84zM163 621h-28l-63 75h55z" />
    <glyph glyph-name="Aacute" unicode="&#xc1;" horiz-adv-x="290" 
d="M187 200l-42 250l-42 -250h84zM123 621h28l63 75h-55zM270 0h-50l-25 150h-100l-25 -150h-50l100 600h50z" />
    <glyph glyph-name="Acircumflex" unicode="&#xc2;" horiz-adv-x="290" 
d="M70 625l75 75l75 -75h-49l-27 27l-27 -27h-47zM270 0h-50l-25 150h-100l-25 -150h-50l100 600h50zM187 200l-42 250l-42 -250h84z" />
    <glyph glyph-name="Atilde" unicode="&#xc3;" horiz-adv-x="290" 
d="M187 200l-42 250l-42 -250h84zM270 0h-50l-25 150h-100l-25 -150h-50l100 600h50zM71 627c-0.666992 20.667 4.83398 35.6689 16.501 45.002s24.5 12.666 38.5 9.99902l39 -17c15.333 -0.666992 23.333 6.66602 24 21.999h32c-1.33301 -20 -7.33301 -35 -18 -45
s-23.334 -13.667 -38.001 -11l-40 17c-15.333 3.33301 -23 -3.66699 -23 -21h-31z" />
    <glyph glyph-name="Adieresis" unicode="&#xc4;" horiz-adv-x="290" 
d="M270 0h-50l-25 150h-100l-25 -150h-50l100 600h50zM187 200l-42 250l-42 -250h84zM120 631h-50v50h50v-50zM220 631h-50v50h50v-50z" />
    <glyph glyph-name="Aring" unicode="&#xc5;" horiz-adv-x="290" 
d="M201 657l-21.002 0.000976562c0 9.33301 -3.66699 17.5 -11 24.5s-15.666 10.167 -24.999 9.5c-10.667 0 -18.834 -3.33301 -24.501 -10s-8.5 -15 -8.5 -25c0 -8 3 -15.333 9 -22s14.333 -10.334 25 -11.001c10.667 0 19.167 3.16699 25.5 9.5s9.5 14.5 9.5 24.5h21
c0 -15.333 -5.66699 -28.666 -17 -39.999s-24.666 -17 -39.999 -17s-28.5 5.66699 -39.5 17s-16.5 24.666 -16.5 39.999s5.33301 28.5 16 39.5s24 16.5 40 16.5c14.667 0 27.834 -5.66699 39.501 -17s17.5 -24.333 17.5 -39zM269.998 0.000976562h-50l-25 150h-100l-25 -150
h-50l100 600h50zM186.998 200.001l-42 250l-42 -250h84z" />
    <glyph glyph-name="AE" unicode="&#xc6;" horiz-adv-x="470" 
d="M247 507l-103 -307h103v-50h-120l-52 -150h-52l201 600h223v-50h-150v-225h110v-50h-110v-225h150v-50h-200v507z" />
    <glyph glyph-name="Ccedilla" unicode="&#xc7;" 
d="M56 -108l15 31h61c12.667 0.666992 19 6.33398 19 17.001c-0.666992 10.667 -7.33398 16 -20.001 16h-24v44h25v-17h4c12 0 22.833 -3.33301 32.5 -10s14.834 -18.334 15.501 -35.001c0 -14.667 -4.5 -26 -13.5 -34s-20.167 -12 -33.5 -12h-81zM220 100
c0 -27.333 -9.83301 -50.833 -29.5 -70.5s-43.167 -29.5 -70.5 -29.5s-50.833 9.83301 -70.5 29.5s-29.5 43.167 -29.5 70.5v400c0 27.333 9.83301 50.833 29.5 70.5s43.167 29.5 70.5 29.5s50.833 -9.83301 70.5 -29.5s29.5 -43.167 29.5 -70.5v-50h-50v50
c0 14 -4.83301 25.833 -14.5 35.5s-21.5 14.5 -35.5 14.5s-25.833 -4.83301 -35.5 -14.5s-14.5 -21.5 -14.5 -35.5v-400c0 -14 4.83301 -25.833 14.5 -35.5s21.5 -14.5 35.5 -14.5s25.833 4.83301 35.5 14.5s14.5 21.5 14.5 35.5v50h50v-50z" />
    <glyph glyph-name="Egrave" unicode="&#xc8;" 
d="M165 621h-28l-63 75h55zM220 0h-200v600h200v-50h-150v-225h110v-50h-110v-225h150v-50z" />
    <glyph glyph-name="Eacute" unicode="&#xc9;" 
d="M220 0h-200v600h200v-50h-150v-225h110v-50h-110v-225h150v-50zM74 621h28l63 75h-55z" />
    <glyph glyph-name="Ecircumflex" unicode="&#xca;" 
d="M45 624l75 75l75 -75h-49l-27 27l-27 -27h-47zM220 0h-200v600h200v-50h-150v-225h110v-50h-110v-225h150v-50z" />
    <glyph glyph-name="Edieresis" unicode="&#xcb;" 
d="M95 631h-50v50h50v-50zM195 631h-50v50h50v-50zM220 0h-200v600h200v-50h-150v-225h110v-50h-110v-225h150v-50z" />
    <glyph glyph-name="Igrave" unicode="&#xcc;" horiz-adv-x="180" 
d="M135 621h-28l-63 75h55zM165 0v50h-50v500h50v50h-150v-50h50v-500h-50v-50h150z" />
    <glyph glyph-name="Iacute" unicode="&#xcd;" horiz-adv-x="180" 
d="M45 621h28l63 75h-55zM15 0v50h50v500h-50v50h150v-50h-50v-500h50v-50h-150z" />
    <glyph glyph-name="Icircumflex" unicode="&#xce;" horiz-adv-x="180" 
d="M15 625l75 75l75 -75h-49l-27 27l-27 -27h-47zM15 0v50h50v500h-50v50h150v-50h-50v-500h50v-50h-150z" />
    <glyph glyph-name="Idieresis" unicode="&#xcf;" horiz-adv-x="180" 
d="M65 631h-50v50h50v-50zM165 631h-50v50h50v-50zM15 0v50h50v500h-50v50h150v-50h-50v-500h50v-50h-150z" />
    <glyph glyph-name="Eth" unicode="&#xd0;" horiz-adv-x="280" 
d="M255 100c0 -27.333 -9.83301 -50.833 -29.5 -70.5s-43.167 -29.5 -70.5 -29.5h-100v600h100c27.333 0 50.833 -9.83301 70.5 -29.5s29.5 -43.167 29.5 -70.5v-400zM205 100v400c0 14 -4.83301 25.833 -14.5 35.5s-21.5 14.5 -35.5 14.5h-50v-500h50
c14 0 25.833 4.83301 35.5 14.5s14.5 21.5 14.5 35.5zM144 282h-120v50h120v-50z" />
    <glyph glyph-name="Ntilde" unicode="&#xd1;" 
d="M46 627c-0.666992 20.667 4.83398 35.6689 16.501 45.002s24.5 12.666 38.5 9.99902l39 -17c15.333 -0.666992 23.333 6.66602 24 21.999h32c-1.33301 -20 -7.33301 -35 -18 -45s-23.334 -13.667 -38.001 -11l-40 17c-15.333 3.33301 -23 -3.66699 -23 -21h-31z
M220.001 0.00195312h-50l-100 400v-400h-50v600h50l100 -400v400h50v-600z" />
    <glyph glyph-name="Ograve" unicode="&#xd2;" 
d="M220 100c0 -27.333 -9.83301 -50.833 -29.5 -70.5s-43.167 -29.5 -70.5 -29.5s-50.833 9.83301 -70.5 29.5s-29.5 43.167 -29.5 70.5v400c0 27.333 9.83301 50.833 29.5 70.5s43.167 29.5 70.5 29.5s50.833 -9.83301 70.5 -29.5s29.5 -43.167 29.5 -70.5v-400zM170 100
v400c0 14 -4.83301 25.833 -14.5 35.5s-21.5 14.5 -35.5 14.5s-25.833 -4.83301 -35.5 -14.5s-14.5 -21.5 -14.5 -35.5v-400c0 -14 4.83301 -25.833 14.5 -35.5s21.5 -14.5 35.5 -14.5s25.833 4.83301 35.5 14.5s14.5 21.5 14.5 35.5zM165 621h-28l-63 75h55z" />
    <glyph glyph-name="Oacute" unicode="&#xd3;" 
d="M220 100c0 -27.333 -9.83301 -50.833 -29.5 -70.5s-43.167 -29.5 -70.5 -29.5s-50.833 9.83301 -70.5 29.5s-29.5 43.167 -29.5 70.5v400c0 27.333 9.83301 50.833 29.5 70.5s43.167 29.5 70.5 29.5s50.833 -9.83301 70.5 -29.5s29.5 -43.167 29.5 -70.5v-400zM170 100
v400c0 14 -4.83301 25.833 -14.5 35.5s-21.5 14.5 -35.5 14.5s-25.833 -4.83301 -35.5 -14.5s-14.5 -21.5 -14.5 -35.5v-400c0 -14 4.83301 -25.833 14.5 -35.5s21.5 -14.5 35.5 -14.5s25.833 4.83301 35.5 14.5s14.5 21.5 14.5 35.5zM74 621h28l63 75h-55z" />
    <glyph glyph-name="Ocircumflex" unicode="&#xd4;" 
d="M220 100c0 -27.333 -9.83301 -50.833 -29.5 -70.5s-43.167 -29.5 -70.5 -29.5s-50.833 9.83301 -70.5 29.5s-29.5 43.167 -29.5 70.5v400c0 27.333 9.83301 50.833 29.5 70.5s43.167 29.5 70.5 29.5s50.833 -9.83301 70.5 -29.5s29.5 -43.167 29.5 -70.5v-400zM170 100
v400c0 14 -4.83301 25.833 -14.5 35.5s-21.5 14.5 -35.5 14.5s-25.833 -4.83301 -35.5 -14.5s-14.5 -21.5 -14.5 -35.5v-400c0 -14 4.83301 -25.833 14.5 -35.5s21.5 -14.5 35.5 -14.5s25.833 4.83301 35.5 14.5s14.5 21.5 14.5 35.5zM45 624l75 75l75 -75h-49l-27 27
l-27 -27h-47z" />
    <glyph glyph-name="Otilde" unicode="&#xd5;" 
d="M220 100c0 -27.333 -9.83301 -50.833 -29.5 -70.5s-43.167 -29.5 -70.5 -29.5s-50.833 9.83301 -70.5 29.5s-29.5 43.167 -29.5 70.5v400c0 27.333 9.83301 50.833 29.5 70.5s43.167 29.5 70.5 29.5s50.833 -9.83301 70.5 -29.5s29.5 -43.167 29.5 -70.5v-400zM170 100
v400c0 14 -4.83301 25.833 -14.5 35.5s-21.5 14.5 -35.5 14.5s-25.833 -4.83301 -35.5 -14.5s-14.5 -21.5 -14.5 -35.5v-400c0 -14 4.83301 -25.833 14.5 -35.5s21.5 -14.5 35.5 -14.5s25.833 4.83301 35.5 14.5s14.5 21.5 14.5 35.5zM46 627
c-0.666992 20.667 4.83398 35.6689 16.501 45.002s24.5 12.666 38.5 9.99902l39 -17c15.333 -0.666992 23.333 6.66602 24 21.999h32c-1.33301 -20 -7.33301 -35 -18 -45s-23.334 -13.667 -38.001 -11l-40 17c-15.333 3.33301 -23 -3.66699 -23 -21h-31z" />
    <glyph glyph-name="Odieresis" unicode="&#xd6;" 
d="M95 631h-50v50h50v-50zM195 631h-50v50h50v-50zM170 100v400c0 14 -4.83301 25.833 -14.5 35.5s-21.5 14.5 -35.5 14.5s-25.833 -4.83301 -35.5 -14.5s-14.5 -21.5 -14.5 -35.5v-400c0 -14 4.83301 -25.833 14.5 -35.5s21.5 -14.5 35.5 -14.5s25.833 4.83301 35.5 14.5
s14.5 21.5 14.5 35.5zM220 100c0 -27.333 -9.83301 -50.833 -29.5 -70.5s-43.167 -29.5 -70.5 -29.5s-50.833 9.83301 -70.5 29.5s-29.5 43.167 -29.5 70.5v400c0 27.333 9.83301 50.833 29.5 70.5s43.167 29.5 70.5 29.5s50.833 -9.83301 70.5 -29.5
s29.5 -43.167 29.5 -70.5v-400z" />
    <glyph glyph-name="multiply" unicode="&#xd7;" horiz-adv-x="270" 
d="M237 317l-33 33l-171 -171l33 -33zM33 317l171 -171l33 33l-171 171z" />
    <glyph glyph-name="Oslash" unicode="&#xd8;" 
d="M220 100c0 -27.333 -9.83301 -50.833 -29.5 -70.5s-43.167 -29.5 -70.5 -29.5s-50.833 9.83301 -70.5 29.5s-29.5 43.167 -29.5 70.5v400c0 27.333 9.83301 50.833 29.5 70.5s43.167 29.5 70.5 29.5s50.833 -9.83301 70.5 -29.5s29.5 -43.167 29.5 -70.5v-400zM170 100
v400c0 14 -4.83301 25.833 -14.5 35.5s-21.5 14.5 -35.5 14.5s-25.833 -4.83301 -35.5 -14.5s-14.5 -21.5 -14.5 -35.5v-400c0 -14 4.83301 -25.833 14.5 -35.5s21.5 -14.5 35.5 -14.5s25.833 4.83301 35.5 14.5s14.5 21.5 14.5 35.5zM20 0l160 601h40l-160 -601h-40z" />
    <glyph glyph-name="Ugrave" unicode="&#xd9;" 
d="M220 100c0 -27.333 -9.83301 -50.833 -29.5 -70.5s-43.167 -29.5 -70.5 -29.5s-50.833 9.83301 -70.5 29.5s-29.5 43.167 -29.5 70.5v500h50v-500c0 -14 4.83301 -25.833 14.5 -35.5s21.5 -14.5 35.5 -14.5s25.833 4.83301 35.5 14.5s14.5 21.5 14.5 35.5v500h50v-500z
M165 621h-28l-63 75h55z" />
    <glyph glyph-name="Uacute" unicode="&#xda;" 
d="M220 100c0 -27.333 -9.83301 -50.833 -29.5 -70.5s-43.167 -29.5 -70.5 -29.5s-50.833 9.83301 -70.5 29.5s-29.5 43.167 -29.5 70.5v500h50v-500c0 -14 4.83301 -25.833 14.5 -35.5s21.5 -14.5 35.5 -14.5s25.833 4.83301 35.5 14.5s14.5 21.5 14.5 35.5v500h50v-500z
M74 621h28l63 75h-55z" />
    <glyph glyph-name="Ucircumflex" unicode="&#xdb;" 
d="M220 100c0 -27.333 -9.83301 -50.833 -29.5 -70.5s-43.167 -29.5 -70.5 -29.5s-50.833 9.83301 -70.5 29.5s-29.5 43.167 -29.5 70.5v500h50v-500c0 -14 4.83301 -25.833 14.5 -35.5s21.5 -14.5 35.5 -14.5s25.833 4.83301 35.5 14.5s14.5 21.5 14.5 35.5v500h50v-500z
M45 624l75 75l75 -75h-49l-27 27l-27 -27h-47z" />
    <glyph glyph-name="Udieresis" unicode="&#xdc;" 
d="M95 631h-50v50h50v-50zM195 631h-50v50h50v-50zM220 100c0 -27.333 -9.83301 -50.833 -29.5 -70.5s-43.167 -29.5 -70.5 -29.5s-50.833 9.83301 -70.5 29.5s-29.5 43.167 -29.5 70.5v500h50v-500c0 -14 4.83301 -25.833 14.5 -35.5s21.5 -14.5 35.5 -14.5
s25.833 4.83301 35.5 14.5s14.5 21.5 14.5 35.5v500h50v-500z" />
    <glyph glyph-name="Yacute" unicode="&#xdd;" horiz-adv-x="290" 
d="M100 621h28l63 75h-55zM270 600l-100 -303v-297h-50v297l-100 303h55l70 -215l70 215h55z" />
    <glyph glyph-name="Thorn" unicode="&#xde;" 
d="M220 265c0 -27.333 -9.83301 -50.833 -29.5 -70.5s-43.167 -29.5 -70.5 -29.5h-50v-165h-50v600h50v-110h50c27.333 0 50.833 -9.83301 70.5 -29.5s29.5 -43.167 29.5 -70.5v-125zM170 265v125c0 14 -4.83301 25.833 -14.5 35.5s-21.5 14.5 -35.5 14.5h-50v-225h50
c14 0 25.833 4.83301 35.5 14.5s14.5 21.5 14.5 35.5z" />
    <glyph glyph-name="germandbls" unicode="&#xdf;" 
d="M220 100c0 -27.333 -9.83301 -50.833 -29.5 -70.5s-43.167 -29.5 -70.5 -29.5h-16v50h16c14 0 25.833 4.83301 35.5 14.5s14.5 21.5 14.5 35.5v125c0 14 -4.83301 25.833 -14.5 35.5s-21.5 14.5 -35.5 14.5h-16v50h16c14 0 25.833 4.83301 35.5 14.5s14.5 21.5 14.5 35.5
v125c0 14 -4.83301 25.833 -14.5 35.5s-21.5 14.5 -35.5 14.5s-25.833 -4.83301 -35.5 -14.5s-14.5 -21.5 -14.5 -35.5v-500h-50v500c0 27.333 9.83301 50.833 29.5 70.5s43.167 29.5 70.5 29.5s50.833 -9.83301 70.5 -29.5s29.5 -43.167 29.5 -70.5v-125
c0 -30 -11.333 -55 -34 -75c22.667 -20 34 -45 34 -75v-125z" />
    <glyph glyph-name="agrave" unicode="&#xe0;" horiz-adv-x="190" 
d="M20 75c0 -20.667 7.33398 -38.334 22.001 -53.001s32.334 -22 53.001 -22c16 0 28.333 4.66699 37 14v-14h38v375c0 20.667 -7.33301 38.334 -22 53.001s-32.334 22 -53.001 22s-38.334 -7.33301 -53.001 -22s-22 -32.334 -22 -53.001v-37h37v37
c0 10.667 3.66699 19.667 11 27s16.333 11 27 11s19.5 -3.66699 26.5 -11s10.5 -16.333 10.5 -27v-300c0 -10.667 -3.5 -19.5 -10.5 -26.5s-15.833 -10.5 -26.5 -10.5s-19.667 3.5 -27 10.5s-11 15.833 -11 26.5v140c0.666992 18.667 6 33.834 16 45.501
s22.667 18.167 38 19.5h21v38h-21c-24 0 -45.167 -9.33301 -63.5 -28s-27.5 -44 -27.5 -76v-139zM141.001 480h-28l-63 75h55z" />
    <glyph glyph-name="aacute" unicode="&#xe1;" horiz-adv-x="190" 
d="M50 480h28l63 75h-55zM20 75c0 -20.667 7.33398 -38.334 22.001 -53.001s32.334 -22 53.001 -22c16 0 28.333 4.66699 37 14v-14h38v375c0 20.667 -7.33301 38.334 -22 53.001s-32.334 22 -53.001 22s-38.334 -7.33301 -53.001 -22s-22 -32.334 -22 -53.001v-37h37v37
c0 10.667 3.66699 19.667 11 27s16.333 11 27 11s19.5 -3.66699 26.5 -11s10.5 -16.333 10.5 -27v-300c0 -10.667 -3.5 -19.5 -10.5 -26.5s-15.833 -10.5 -26.5 -10.5s-19.667 3.5 -27 10.5s-11 15.833 -11 26.5v140c0.666992 18.667 6 33.834 16 45.501
s22.667 18.167 38 19.5h21v38h-21c-24 0 -45.167 -9.33301 -63.5 -28s-27.5 -44 -27.5 -76v-139z" />
    <glyph glyph-name="acircumflex" unicode="&#xe2;" horiz-adv-x="190" 
d="M20 75c0 -20.667 7.33398 -38.334 22.001 -53.001s32.334 -22 53.001 -22c16 0 28.333 4.66699 37 14v-14h38v375c0 20.667 -7.33301 38.334 -22 53.001s-32.334 22 -53.001 22s-38.334 -7.33301 -53.001 -22s-22 -32.334 -22 -53.001v-37h37v37
c0 10.667 3.66699 19.667 11 27s16.333 11 27 11s19.5 -3.66699 26.5 -11s10.5 -16.333 10.5 -27v-300c0 -10.667 -3.5 -19.5 -10.5 -26.5s-15.833 -10.5 -26.5 -10.5s-19.667 3.5 -27 10.5s-11 15.833 -11 26.5v140c0.666992 18.667 6 33.834 16 45.501
s22.667 18.167 38 19.5h21v38h-21c-24 0 -45.167 -9.33301 -63.5 -28s-27.5 -44 -27.5 -76v-139zM20.001 472l75 75l75 -75h-49l-27 27l-27 -27h-47z" />
    <glyph glyph-name="atilde" unicode="&#xe3;" horiz-adv-x="190" 
d="M20 477c-0.666992 20.667 4.83398 35.6689 16.501 45.002s24.5 12.666 38.5 9.99902l39 -17c15.333 -0.666992 23.333 6.66602 24 21.999h32c-1.33301 -20 -7.33301 -35 -18 -45s-23.334 -13.667 -38.001 -11l-40 17c-15.333 3.33301 -23 -3.66699 -23 -21h-31z
M20.001 75.002c0 -20.667 7.33398 -38.334 22.001 -53.001s32.334 -22 53.001 -22c16 0 28.333 4.66699 37 14v-14h38v375c0 20.667 -7.33301 38.334 -22 53.001s-32.334 22 -53.001 22s-38.334 -7.33301 -53.001 -22s-22 -32.334 -22 -53.001v-37h37v37
c0 10.667 3.66699 19.667 11 27s16.333 11 27 11s19.5 -3.66699 26.5 -11s10.5 -16.333 10.5 -27v-300c0 -10.667 -3.5 -19.5 -10.5 -26.5s-15.833 -10.5 -26.5 -10.5s-19.667 3.5 -27 10.5s-11 15.833 -11 26.5v140c0.666992 18.667 6 33.834 16 45.501
s22.667 18.167 38 19.5h21v38h-21c-24 0 -45.167 -9.33301 -63.5 -28s-27.5 -44 -27.5 -76v-139z" />
    <glyph glyph-name="adieresis" unicode="&#xe4;" horiz-adv-x="190" 
d="M20 75c0 -20.667 7.33398 -38.334 22.001 -53.001s32.334 -22 53.001 -22c16 0 28.333 4.66699 37 14v-14h38v375c0 20.667 -7.33301 38.334 -22 53.001s-32.334 22 -53.001 22s-38.334 -7.33301 -53.001 -22s-22 -32.334 -22 -53.001v-37h37v37
c0 10.667 3.66699 19.667 11 27s16.333 11 27 11s19.5 -3.66699 26.5 -11s10.5 -16.333 10.5 -27v-300c0 -10.667 -3.5 -19.5 -10.5 -26.5s-15.833 -10.5 -26.5 -10.5s-19.667 3.5 -27 10.5s-11 15.833 -11 26.5v140c0.666992 18.667 6 33.834 16 45.501
s22.667 18.167 38 19.5h21v38h-21c-24 0 -45.167 -9.33301 -63.5 -28s-27.5 -44 -27.5 -76v-139zM70.001 497h-50v50h50v-50zM170.001 497h-50v50h50v-50z" />
    <glyph glyph-name="aring" unicode="&#xe5;" horiz-adv-x="190" 
d="M151 535l-21.002 0.000976562c0 9.33301 -3.66699 17.5 -11 24.5s-15.666 10.167 -24.999 9.5c-10.667 0 -18.834 -3.33301 -24.501 -10s-8.5 -15 -8.5 -25c0 -8 3 -15.333 9 -22s14.333 -10.334 25 -11.001c10.667 0 19.167 3.16699 25.5 9.5s9.5 14.5 9.5 24.5h21
c0 -15.333 -5.66699 -28.666 -17 -39.999s-24.666 -17 -39.999 -17s-28.5 5.66699 -39.5 17s-16.5 24.666 -16.5 39.999s5.33301 28.5 16 39.5s24 16.5 40 16.5c14.667 0 27.834 -5.66699 39.501 -17s17.5 -24.333 17.5 -39zM19.998 75.001
c0 -20.667 7.33398 -38.334 22.001 -53.001s32.334 -22 53.001 -22c16 0 28.333 4.66699 37 14v-14h38v375c0 20.667 -7.33301 38.334 -22 53.001s-32.334 22 -53.001 22s-38.334 -7.33301 -53.001 -22s-22 -32.334 -22 -53.001v-37h37v37c0 10.667 3.66699 19.667 11 27
s16.333 11 27 11s19.5 -3.66699 26.5 -11s10.5 -16.333 10.5 -27v-300c0 -10.667 -3.5 -19.5 -10.5 -26.5s-15.833 -10.5 -26.5 -10.5s-19.667 3.5 -27 10.5s-11 15.833 -11 26.5v140c0.666992 18.667 6 33.834 16 45.501s22.667 18.167 38 19.5h21v38h-21
c-24 0 -45.167 -9.33301 -63.5 -28s-27.5 -44 -27.5 -76v-139z" />
    <glyph glyph-name="ae" unicode="&#xe6;" horiz-adv-x="300" 
d="M19 75c0 -20.667 7.33398 -38.334 22.001 -53.001s32.334 -22 53.001 -22s38 7.5 52 22.5s21.667 32.5 23 52.5v300c0 20.667 -7.33301 38.334 -22 53.001s-32.334 22 -53.001 22s-38.334 -7.33301 -53.001 -22s-22 -32.334 -22 -53.001v-37h37v37
c0 10.667 3.66699 19.667 11 27s16.333 11 27 11s19.5 -3.66699 26.5 -11s10.5 -16.333 10.5 -27v-300c0 -10.667 -3.5 -19.5 -10.5 -26.5s-15.833 -10.5 -26.5 -10.5s-19.667 3.5 -27 10.5s-11 15.833 -11 26.5v140c0.666992 18.667 6 33.834 16 45.501
s22.667 18.167 38 19.5h21v38h-21c-24 0 -45.167 -9.33301 -63.5 -28s-27.5 -44 -27.5 -76v-139zM281.001 375c0 20.667 -7.33301 38.334 -22 53.001s-32.334 22 -53.001 22s-38.334 -7.33301 -53.001 -22s-22 -32.334 -22 -53.001v-300
c0 -20.667 7.33301 -38.334 22 -53.001s32.334 -22 53.001 -22s38.334 7.33301 53.001 22s22 32.334 22 53.001v37h-37v-37c0 -10.667 -3.66699 -19.667 -11 -27s-16.333 -11 -27 -11s-19.5 3.66699 -26.5 11s-10.5 16.333 -10.5 27v300c0 10.667 3.5 19.5 10.5 26.5
s15.833 10.5 26.5 10.5s19.667 -3.5 27 -10.5s11 -15.833 11 -26.5v-137h-75v-38h112v175z" />
    <glyph glyph-name="ccedilla" unicode="&#xe7;" horiz-adv-x="190" 
d="M31 -108l15 31h61c12.667 0.666992 19 6.33398 19 17.001c-0.666992 10.667 -7.33398 16 -20.001 16h-24v44h25v-17h4c12 0 22.833 -3.33301 32.5 -10s14.834 -18.334 15.501 -35.001c0 -14.667 -4.5 -26 -13.5 -34s-20.167 -12 -33.5 -12h-81zM170 75
c0 -20.667 -7.33301 -38.334 -22 -53.001s-32.334 -22 -53.001 -22s-38.334 7.33301 -53.001 22s-22 32.334 -22 53.001v300c0 20.667 7.33301 38.334 22 53.001s32.334 22 53.001 22s38.334 -7.33301 53.001 -22s22 -32.334 22 -53.001v-37h-37v37
c0 10.667 -3.66699 19.667 -11 27s-16.333 11 -27 11s-19.5 -3.66699 -26.5 -11s-10.5 -16.333 -10.5 -27v-300c0 -10.667 3.5 -19.5 10.5 -26.5s15.833 -10.5 26.5 -10.5s19.667 3.5 27 10.5s11 15.833 11 26.5v38h37v-38z" />
    <glyph glyph-name="egrave" unicode="&#xe8;" horiz-adv-x="190" 
d="M170 375c0 20.667 -7.33301 38.334 -22 53.001s-32.334 22 -53.001 22s-38.334 -7.33301 -53.001 -22s-22 -32.334 -22 -53.001v-300c0 -20.667 7.33301 -38.334 22 -53.001s32.334 -22 53.001 -22s38.334 7.33301 53.001 22s22 32.334 22 53.001v37h-37v-37
c0 -10.667 -3.66699 -19.667 -11 -27s-16.333 -11 -27 -11s-19.5 3.66699 -26.5 11s-10.5 16.333 -10.5 27v300c0 10.667 3.5 19.5 10.5 26.5s15.833 10.5 26.5 10.5s19.667 -3.5 27 -10.5s11 -15.833 11 -26.5v-137h-75v-38h112v175zM141 480h-28l-63 75h55z" />
    <glyph glyph-name="eacute" unicode="&#xe9;" horiz-adv-x="190" 
d="M170 375c0 20.667 -7.33301 38.334 -22 53.001s-32.334 22 -53.001 22s-38.334 -7.33301 -53.001 -22s-22 -32.334 -22 -53.001v-300c0 -20.667 7.33301 -38.334 22 -53.001s32.334 -22 53.001 -22s38.334 7.33301 53.001 22s22 32.334 22 53.001v37h-37v-37
c0 -10.667 -3.66699 -19.667 -11 -27s-16.333 -11 -27 -11s-19.5 3.66699 -26.5 11s-10.5 16.333 -10.5 27v300c0 10.667 3.5 19.5 10.5 26.5s15.833 10.5 26.5 10.5s19.667 -3.5 27 -10.5s11 -15.833 11 -26.5v-137h-75v-38h112v175zM50 480h28l63 75h-55z" />
    <glyph glyph-name="ecircumflex" unicode="&#xea;" horiz-adv-x="190" 
d="M170 375c0 20.667 -7.33301 38.334 -22 53.001s-32.334 22 -53.001 22s-38.334 -7.33301 -53.001 -22s-22 -32.334 -22 -53.001v-300c0 -20.667 7.33301 -38.334 22 -53.001s32.334 -22 53.001 -22s38.334 7.33301 53.001 22s22 32.334 22 53.001v37h-37v-37
c0 -10.667 -3.66699 -19.667 -11 -27s-16.333 -11 -27 -11s-19.5 3.66699 -26.5 11s-10.5 16.333 -10.5 27v300c0 10.667 3.5 19.5 10.5 26.5s15.833 10.5 26.5 10.5s19.667 -3.5 27 -10.5s11 -15.833 11 -26.5v-137h-75v-38h112v175zM20 472l75 75l75 -75h-49l-27 27
l-27 -27h-47z" />
    <glyph glyph-name="edieresis" unicode="&#xeb;" horiz-adv-x="190" 
d="M170 375c0 20.667 -7.33301 38.334 -22 53.001s-32.334 22 -53.001 22s-38.334 -7.33301 -53.001 -22s-22 -32.334 -22 -53.001v-300c0 -20.667 7.33301 -38.334 22 -53.001s32.334 -22 53.001 -22s38.334 7.33301 53.001 22s22 32.334 22 53.001v37h-37v-37
c0 -10.667 -3.66699 -19.667 -11 -27s-16.333 -11 -27 -11s-19.5 3.66699 -26.5 11s-10.5 16.333 -10.5 27v300c0 10.667 3.5 19.5 10.5 26.5s15.833 10.5 26.5 10.5s19.667 -3.5 27 -10.5s11 -15.833 11 -26.5v-137h-75v-38h112v175zM70 497h-50v50h50v-50zM170 497h-50v50
h50v-50z" />
    <glyph glyph-name="igrave" unicode="&#xec;" horiz-adv-x="78" 
d="M58 0h-38v450h38v-450zM57 479h-28l-63 75h55z" />
    <glyph glyph-name="iacute" unicode="&#xed;" horiz-adv-x="78" 
d="M58 0h-38v450h38v-450zM20 479h28l63 75h-55z" />
    <glyph glyph-name="icircumflex" unicode="&#xee;" horiz-adv-x="78" 
d="M-36 472l75 75l75 -75h-49l-27 27l-27 -27h-47zM58 0h-38v450h38v-450z" />
    <glyph glyph-name="idieresis" unicode="&#xef;" horiz-adv-x="78" 
d="M14 497h-50v50h50v-50zM114 497h-50v50h50v-50zM58 0h-38v450h38v-450z" />
    <glyph glyph-name="eth" unicode="&#xf0;" horiz-adv-x="190" 
d="M170 75c0 -20.667 -7.33203 -38.3359 -21.999 -53.0029s-32.334 -22 -53.001 -22s-38.334 7.33301 -53.001 22s-22 32.334 -22 53.001v300c0 20.667 7.33301 38.334 22 53.001s32.334 22 53.001 22c14 0.666992 26.667 -2.66602 38 -9.99902c-14 58 -45.333 101 -94 129
l16 31c76.667 -46.667 115 -112 115 -196v-329zM133.001 74.998v300c0 10.667 -3.66699 19.667 -11 27s-16.333 11 -27 11s-19.5 -3.66699 -26.5 -11s-10.5 -16.333 -10.5 -27v-300c0 -10.667 3.5 -19.5 10.5 -26.5s15.833 -10.5 26.5 -10.5s19.667 3.5 27 10.5
s11 15.833 11 26.5zM37.001 508.998l115 83l18 -29l-115 -81z" />
    <glyph glyph-name="ntilde" unicode="&#xf1;" horiz-adv-x="190" 
d="M20 450l36.999 0.000976562v-16c9.33301 10.667 22 16 38 16c20.667 0 38.334 -7.33301 53.001 -22s22 -32.334 22 -53.001v-375h-38v375c0 10.667 -3.5 19.5 -10.5 26.5s-15.833 10.5 -26.5 10.5s-19.667 -3.5 -27 -10.5s-11 -16.5 -11 -28.5v-373h-37v450z
M19.999 477.001c-0.666992 20.667 4.83398 35.6689 16.501 45.002s24.5 12.666 38.5 9.99902l39 -17c15.333 -0.666992 23.333 6.66602 24 21.999h32c-1.33301 -20 -7.33301 -35 -18 -45s-23.334 -13.667 -38.001 -11l-40 17c-15.333 3.33301 -23 -3.66699 -23 -21h-31z" />
    <glyph glyph-name="ograve" unicode="&#xf2;" horiz-adv-x="190" 
d="M170 75c0 -20.667 -7.33301 -38.334 -22 -53.001s-32.334 -22 -53.001 -22s-38.334 7.33301 -53.001 22s-22 32.334 -22 53.001v300c0 20.667 7.33301 38.334 22 53.001s32.334 22 53.001 22s38.334 -7.33301 53.001 -22s22 -32.334 22 -53.001v-300zM133 75v300
c0 10.667 -3.66699 19.667 -11 27s-16.333 11 -27 11s-19.5 -3.66699 -26.5 -11s-10.5 -16.333 -10.5 -27v-300c0 -10.667 3.5 -19.5 10.5 -26.5s15.833 -10.5 26.5 -10.5s19.667 3.5 27 10.5s11 15.833 11 26.5zM141 480h-28l-63 75h55z" />
    <glyph glyph-name="oacute" unicode="&#xf3;" horiz-adv-x="190" 
d="M170 75c0 -20.667 -7.33301 -38.334 -22 -53.001s-32.334 -22 -53.001 -22s-38.334 7.33301 -53.001 22s-22 32.334 -22 53.001v300c0 20.667 7.33301 38.334 22 53.001s32.334 22 53.001 22s38.334 -7.33301 53.001 -22s22 -32.334 22 -53.001v-300zM133 75v300
c0 10.667 -3.66699 19.667 -11 27s-16.333 11 -27 11s-19.5 -3.66699 -26.5 -11s-10.5 -16.333 -10.5 -27v-300c0 -10.667 3.5 -19.5 10.5 -26.5s15.833 -10.5 26.5 -10.5s19.667 3.5 27 10.5s11 15.833 11 26.5zM50 480h28l63 75h-55z" />
    <glyph glyph-name="ocircumflex" unicode="&#xf4;" horiz-adv-x="190" 
d="M170 75c0 -20.667 -7.33301 -38.334 -22 -53.001s-32.334 -22 -53.001 -22s-38.334 7.33301 -53.001 22s-22 32.334 -22 53.001v300c0 20.667 7.33301 38.334 22 53.001s32.334 22 53.001 22s38.334 -7.33301 53.001 -22s22 -32.334 22 -53.001v-300zM133 75v300
c0 10.667 -3.66699 19.667 -11 27s-16.333 11 -27 11s-19.5 -3.66699 -26.5 -11s-10.5 -16.333 -10.5 -27v-300c0 -10.667 3.5 -19.5 10.5 -26.5s15.833 -10.5 26.5 -10.5s19.667 3.5 27 10.5s11 15.833 11 26.5zM20 472l75 75l75 -75h-49l-27 27l-27 -27h-47z" />
    <glyph glyph-name="otilde" unicode="&#xf5;" horiz-adv-x="190" 
d="M170 75c0 -20.667 -7.33301 -38.334 -22 -53.001s-32.334 -22 -53.001 -22s-38.334 7.33301 -53.001 22s-22 32.334 -22 53.001v300c0 20.667 7.33301 38.334 22 53.001s32.334 22 53.001 22s38.334 -7.33301 53.001 -22s22 -32.334 22 -53.001v-300zM133 75v300
c0 10.667 -3.66699 19.667 -11 27s-16.333 11 -27 11s-19.5 -3.66699 -26.5 -11s-10.5 -16.333 -10.5 -27v-300c0 -10.667 3.5 -19.5 10.5 -26.5s15.833 -10.5 26.5 -10.5s19.667 3.5 27 10.5s11 15.833 11 26.5zM20 477c-0.666992 20.667 4.83398 35.6689 16.501 45.002
s24.5 12.666 38.5 9.99902l39 -17c15.333 -0.666992 23.333 6.66602 24 21.999h32c-1.33301 -20 -7.33301 -35 -18 -45s-23.334 -13.667 -38.001 -11l-40 17c-15.333 3.33301 -23 -3.66699 -23 -21h-31z" />
    <glyph glyph-name="odieresis" unicode="&#xf6;" horiz-adv-x="190" 
d="M170 75c0 -20.667 -7.33301 -38.334 -22 -53.001s-32.334 -22 -53.001 -22s-38.334 7.33301 -53.001 22s-22 32.334 -22 53.001v300c0 20.667 7.33301 38.334 22 53.001s32.334 22 53.001 22s38.334 -7.33301 53.001 -22s22 -32.334 22 -53.001v-300zM133 75v300
c0 10.667 -3.66699 19.667 -11 27s-16.333 11 -27 11s-19.5 -3.66699 -26.5 -11s-10.5 -16.333 -10.5 -27v-300c0 -10.667 3.5 -19.5 10.5 -26.5s15.833 -10.5 26.5 -10.5s19.667 3.5 27 10.5s11 15.833 11 26.5zM70 497h-50v50h50v-50zM170 497h-50v50h50v-50z" />
    <glyph glyph-name="divide" unicode="&#xf7;" 
d="M145 327h-50v50h50v-50zM145 173h-50v50h50v-50zM222 250h-204v50h204v-50z" />
    <glyph glyph-name="oslash" unicode="&#xf8;" horiz-adv-x="190" 
d="M170 75c0 -20.667 -7.33301 -38.334 -22 -53.001s-32.334 -22 -53.001 -22s-38.334 7.33301 -53.001 22s-22 32.334 -22 53.001v300c0 20.667 7.33301 38.334 22 53.001s32.334 22 53.001 22s38.334 -7.33301 53.001 -22s22 -32.334 22 -53.001v-300zM133 75v300
c0 10.667 -3.66699 19.667 -11 27s-16.333 11 -27 11s-19.5 -3.66699 -26.5 -11s-10.5 -16.333 -10.5 -27v-300c0 -10.667 3.5 -19.5 10.5 -26.5s15.833 -10.5 26.5 -10.5s19.667 3.5 27 10.5s11 15.833 11 26.5zM20 0l115 450h35l-115 -450h-35z" />
    <glyph glyph-name="ugrave" unicode="&#xf9;" horiz-adv-x="190" 
d="M170 0l-36.999 -0.000976562v16c-9.33301 -10.667 -22 -16 -38 -16c-20.667 0 -38.334 7.33301 -53.001 22s-22 32.334 -22 53.001v375h38v-375c0 -10.667 3.5 -19.5 10.5 -26.5s15.833 -10.5 26.5 -10.5s19.667 3.5 27 10.5s11 16.5 11 28.5v373h37v-450z
M141.001 479.999h-28l-63 75h55z" />
    <glyph glyph-name="uacute" unicode="&#xfa;" horiz-adv-x="190" 
d="M170 0l-36.999 -0.000976562v16c-9.33301 -10.667 -22 -16 -38 -16c-20.667 0 -38.334 7.33301 -53.001 22s-22 32.334 -22 53.001v375h38v-375c0 -10.667 3.5 -19.5 10.5 -26.5s15.833 -10.5 26.5 -10.5s19.667 3.5 27 10.5s11 16.5 11 28.5v373h37v-450z
M50.001 479.999h28l63 75h-55z" />
    <glyph glyph-name="ucircumflex" unicode="&#xfb;" horiz-adv-x="190" 
d="M170 0l-36.999 -0.000976562v16c-9.33301 -10.667 -22 -16 -38 -16c-20.667 0 -38.334 7.33301 -53.001 22s-22 32.334 -22 53.001v375h38v-375c0 -10.667 3.5 -19.5 10.5 -26.5s15.833 -10.5 26.5 -10.5s19.667 3.5 27 10.5s11 16.5 11 28.5v373h37v-450z
M20.001 471.999l75 75l75 -75h-49l-27 27l-27 -27h-47z" />
    <glyph glyph-name="udieresis" unicode="&#xfc;" horiz-adv-x="190" 
d="M170 0l-36.999 -0.000976562v16c-9.33301 -10.667 -22 -16 -38 -16c-20.667 0 -38.334 7.33301 -53.001 22s-22 32.334 -22 53.001v375h38v-375c0 -10.667 3.5 -19.5 10.5 -26.5s15.833 -10.5 26.5 -10.5s19.667 3.5 27 10.5s11 16.5 11 28.5v373h37v-450z
M170.001 496.999h-50v50h50v-50zM70.001 496.999h-50v50h50v-50z" />
    <glyph glyph-name="yacute" unicode="&#xfd;" horiz-adv-x="228" 
d="M68 479h28l63 75h-55zM208 450l-102 -600h-37l26 150l-75 450h38l56 -337l56 337h38z" />
    <glyph glyph-name="thorn" unicode="&#xfe;" horiz-adv-x="190" 
d="M20 375v-37h38v36c-0.666992 11.333 2.66602 20.5 9.99902 27.5s16.333 10.5 27 10.5s19.5 -3.5 26.5 -10.5s10.5 -15.833 10.5 -26.5v-300c0 -10.667 -3.5 -19.667 -10.5 -27s-15.833 -11 -26.5 -11s-19.667 3.66699 -27 11s-10.666 16 -9.99902 26v38h-38v-37
c0 -20.667 7.33301 -38.334 22 -53.001s32.334 -22 53.001 -22s38.334 7.33301 53.001 22s22 32.334 22 53.001v300c0 20.667 -7.33301 38.334 -22 53.001s-32.334 22 -53.001 22s-38.334 -7.33301 -53.001 -22s-22 -32.334 -22 -53.001zM58 599h-38v-749h38v749z" />
    <glyph glyph-name="ydieresis" unicode="&#xff;" horiz-adv-x="228" 
d="M89 497h-50v50h50v-50zM189 497h-50v50h50v-50zM208 450l-102 -600h-37l26 150l-75 450h38l56 -337l56 337h38z" />
    <glyph glyph-name="OE" unicode="&#x152;" horiz-adv-x="390" 
d="M220 100c0 -27.333 -9.83301 -50.833 -29.5 -70.5s-43.167 -29.5 -70.5 -29.5s-50.833 9.83301 -70.5 29.5s-29.5 43.167 -29.5 70.5v400c0 27.333 9.83301 50.833 29.5 70.5s43.167 29.5 70.5 29.5s50.833 -9.83301 70.5 -29.5s29.5 -43.167 29.5 -70.5v-400zM170 100
v400c0 14 -4.83301 25.833 -14.5 35.5s-21.5 14.5 -35.5 14.5s-25.833 -4.83301 -35.5 -14.5s-14.5 -21.5 -14.5 -35.5v-400c0 -14 4.83301 -25.833 14.5 -35.5s21.5 -14.5 35.5 -14.5s25.833 4.83301 35.5 14.5s14.5 21.5 14.5 35.5zM370 0h-200v600h200v-50h-150v-225h110
v-50h-110v-225h150v-50z" />
    <glyph glyph-name="oe" unicode="&#x153;" horiz-adv-x="300" 
d="M169 75v300c0 20.667 -7.33301 38.334 -22 53.001s-32.334 22 -53.001 22s-38.334 -7.33301 -53.001 -22s-22 -32.334 -22 -53.001v-300c0 -20.667 7.33301 -38.334 22 -53.001s32.334 -22 53.001 -22s38.334 7.33301 53.001 22s22 32.334 22 53.001zM131 75
c0.666992 -10.667 -2.66602 -19.5 -9.99902 -26.5s-16.333 -10.5 -27 -10.5s-19.5 3.5 -26.5 10.5s-10.5 15.833 -10.5 26.5v300c0 10.667 3.5 19.667 10.5 27s15.833 11 26.5 11s19.667 -3.66699 27 -11s10.666 -16.333 9.99902 -27v-300zM281 375
c0 20.667 -7.33301 38.334 -22 53.001s-32.334 22 -53.001 22s-38.334 -7.33301 -53.001 -22s-22 -32.334 -22 -53.001v-300c0 -20.667 7.33301 -38.334 22 -53.001s32.334 -22 53.001 -22s38.334 7.33301 53.001 22s22 32.334 22 53.001v37h-37v-37
c0 -10.667 -3.66699 -19.667 -11 -27s-16.333 -11 -27 -11s-19.5 3.66699 -26.5 11s-10.5 16.333 -10.5 27v300c0 10.667 3.5 19.5 10.5 26.5s15.833 10.5 26.5 10.5s19.667 -3.5 27 -10.5s11 -15.833 11 -26.5v-137h-75v-38h112v175z" />
    <glyph glyph-name="Scaron" unicode="&#x160;" 
d="M45 700l75 -75l75 75h-49l-27 -27l-27 27h-47zM220 100c0 -27.333 -9.83301 -50.833 -29.5 -70.5s-43.167 -29.5 -70.5 -29.5s-50.833 9.83301 -70.5 29.5s-29.5 43.167 -29.5 70.5v50h50v-50c0 -14 4.83301 -25.833 14.5 -35.5s21.5 -14.5 35.5 -14.5
s25.833 4.83301 35.5 14.5s14.5 21.5 14.5 35.5v60l-136 234c-8 12 -12.667 27 -14 45v61c0 27.333 9.83301 50.833 29.5 70.5s43.167 29.5 70.5 29.5s50.833 -9.83301 70.5 -29.5s29.5 -43.167 29.5 -70.5v-50h-50v50c0 14 -4.83301 25.833 -14.5 35.5
s-21.5 14.5 -35.5 14.5s-25.833 -4.83301 -35.5 -14.5s-14.5 -21.5 -14.5 -35.5v-60l137 -235c6.66699 -14 11 -28.667 13 -44v-61z" />
    <glyph glyph-name="scaron" unicode="&#x161;" horiz-adv-x="190" 
d="M20 547l75 -75l75 75h-49l-27 -27l-27 27h-47zM170 75c0 -20.667 -7.33301 -38.335 -22 -53.002s-32.334 -22 -53.001 -22s-38.334 7.33301 -53.001 22s-22 32.334 -22 53.001v38h38v-38c0 -10.667 3.5 -19.5 10.5 -26.5s15.833 -10.5 26.5 -10.5s19.667 3.5 27 10.5
s11 15.833 11 26.5v45l-103 180c-4.66699 8 -8 18 -10 30v45c0 20.667 7.33301 38.334 22 53.001s32.334 22 53.001 22s38.334 -7.33301 53.001 -22s22 -32.334 22 -53.001v-37h-37v37c0 10.667 -3.66699 19.667 -11 27s-16.333 11 -27 11s-19.5 -3.66699 -26.5 -11
s-10.5 -16.333 -10.5 -27v-45l103 -182c4 -7.33301 7 -16.666 9 -27.999v-45z" />
    <glyph glyph-name="Ydieresis" unicode="&#x178;" horiz-adv-x="290" 
d="M220 631h-50v50h50v-50zM120 631h-50v50h50v-50zM270 600l-100 -303v-297h-50v297l-100 303h55l70 -215l70 215h55z" />
    <glyph glyph-name="Zcaron" unicode="&#x17d;" 
d="M220 0h-200v50l145 500h-145v50h200v-50l-145 -500h145v-50zM45 700l75 -75l75 75h-49l-27 -27l-27 27h-47z" />
    <glyph glyph-name="zcaron" unicode="&#x17e;" horiz-adv-x="190" 
d="M170 0h-150v38l109 375h-109v37h150v-37l-109 -375h109v-38zM20 547l75 -75l75 75h-49l-27 -27l-27 27h-47z" />
    <glyph glyph-name="florin" unicode="&#x192;" horiz-adv-x="200" 
d="M20 -150v38h29c10.667 0 19.5 3.5 26.5 10.5s10.5 15.833 10.5 26.5v488h-56v37h56v65c0.666992 22 7.83398 41.667 21.501 59s33.5 26 59.5 26h13v-38h-14c-11.333 0.666992 -21 -3.16602 -29 -11.499s-12.333 -20.5 -13 -36.5v-64h56v-37h-56v-488
c0 -20.667 -7.33301 -38.334 -22 -53.001s-32.334 -22 -53.001 -22h-29z" />
    <glyph glyph-name="circumflex" unicode="&#x2c6;" horiz-adv-x="180" 
d="M15 525l75 75l75 -75h-49l-27 27l-27 -27h-47z" />
    <glyph glyph-name="tilde" unicode="&#x2dc;" horiz-adv-x="190" 
d="M21 540c-0.666992 20.667 4.83398 35.6689 16.501 45.002s24.5 12.666 38.5 9.99902l39 -17c15.333 -0.666992 23.333 6.66602 24 21.999h32c-1.33301 -20 -7.33301 -35 -18 -45s-23.334 -13.667 -38.001 -11l-40 17c-15.333 3.33301 -23 -3.66699 -23 -21h-31z" />
    <glyph glyph-name="endash" unicode="&#x2013;" horiz-adv-x="380" 
d="M362 250h-344v50h344v-50z" />
    <glyph glyph-name="emdash" unicode="&#x2014;" horiz-adv-x="720" 
d="M704 250h-688v50h688v-50z" />
    <glyph glyph-name="quoteleft" unicode="&#x2018;" horiz-adv-x="90" 
d="M20 550l50 50v-100h-50v50z" />
    <glyph glyph-name="quoteright" unicode="&#x2019;" horiz-adv-x="90" 
d="M70 550l-50 -50v100h50v-50z" />
    <glyph glyph-name="quotesinglbase" unicode="&#x201a;" horiz-adv-x="90" 
d="M70 0l-50 -50v100h50v-50z" />
    <glyph glyph-name="quotedblleft" unicode="&#x201c;" horiz-adv-x="200" 
d="M25 550l50 50v-100h-50v50zM125 550l50 50v-100h-50v50z" />
    <glyph glyph-name="quotedblright" unicode="&#x201d;" horiz-adv-x="200" 
d="M175 550l-50 -50v100h50v-50zM75 550l-50 -50v100h50v-50z" />
    <glyph glyph-name="quotedblbase" unicode="&#x201e;" horiz-adv-x="200" 
d="M175 0l-50 -50v100h50v-50zM75 0l-50 -50v100h50v-50z" />
    <glyph glyph-name="dagger" unicode="&#x2020;" horiz-adv-x="200" 
d="M113 411v-411h-29v411h-70v33h70v146h29v-146h72v-33h-72z" />
    <glyph glyph-name="daggerdbl" unicode="&#x2021;" horiz-adv-x="200" 
d="M113 411v-227h72v-33h-72v-151h-29v151h-70v32h70v228h-70v33h70v146h29v-146h72v-33h-72z" />
    <glyph glyph-name="bullet" unicode="&#x2022;" horiz-adv-x="300" 
d="M15 315c0 37.333 12.665 69 37.998 95c26 26.667 57.667 40 95 40c38.667 0 71.334 -13 98.001 -39s40 -58 40 -96s-13.333 -70 -40 -96c-27.333 -26.667 -60 -40 -98 -40c-37.333 0 -68.666 13 -93.999 39c-26 26.667 -39 59 -39 97z" />
    <glyph glyph-name="ellipsis" unicode="&#x2026;" horiz-adv-x="300" 
d="M275 0h-50v50h50v-50zM75 0h-50v50h50v-50zM175 0h-50v50h50v-50z" />
    <glyph glyph-name="perthousand" unicode="&#x2030;" horiz-adv-x="499" 
d="M133 358c0 -12 -4.83301 -23.501 -14.5 -34.501s-21.167 -16.5 -34.5 -16.5c-14.667 0 -26.5 5.33301 -35.5 16s-13.5 22.334 -13.5 35.001v191c0 14 4.83301 26 14.5 36s21.167 15 34.5 15s24.833 -5 34.5 -15s14.5 -22 14.5 -36h-25
c0 6.66699 -2.33301 12.334 -7 17.001s-10.334 7 -17.001 7c-8.66699 0 -14.667 -2 -18 -6s-5.33301 -10 -6 -18v-190c-0.666992 -7.33301 1 -13.333 5 -18s10.333 -7 19 -7c6.66699 0 12.334 2.66699 17.001 8s7 10.666 7 15.999v191h25v-191zM465 241.999
c0 12 -4.83301 23.501 -14.5 34.501s-21.167 16.5 -34.5 16.5c-14.667 0 -26.5 -5.33301 -35.5 -16s-13.5 -22.334 -13.5 -35.001v-191c0 -14 4.83301 -26 14.5 -36s21.167 -15 34.5 -15s24.833 5 34.5 15s14.5 22 14.5 36h-25c0 -6.66699 -2.33301 -12.334 -7 -17.001
s-10.334 -7 -17.001 -7c-8.66699 0 -14.667 2 -18 6s-5.33301 10 -6 18v190c-0.666992 7.33301 1 13.333 5 18s10.333 7 19 7c6.66699 0 12.334 -2.66699 17.001 -8s7 -10.666 7 -15.999v-191h25v191zM320 600l-240 -600h-30l240 600h30zM334 242
c0 12 -4.83301 23.501 -14.5 34.501s-21.167 16.5 -34.5 16.5c-14.667 0 -26.5 -5.33301 -35.5 -16s-13.5 -22.334 -13.5 -35.001v-191c0 -14 4.83301 -26 14.5 -36s21.167 -15 34.5 -15s24.833 5 34.5 15s14.5 22 14.5 36h-25c0 -6.66699 -2.33301 -12.334 -7 -17.001
s-10.334 -7 -17.001 -7c-8.66699 0 -14.667 2 -18 6s-5.33301 10 -6 18v190c-0.666992 7.33301 1 13.333 5 18s10.333 7 19 7c6.66699 0 12.334 -2.66699 17.001 -8s7 -10.666 7 -15.999v-191h25v191z" />
    <glyph glyph-name="guilsinglleft" unicode="&#x2039;" horiz-adv-x="180" 
d="M109 95l-90 147l90 146h52l-83 -146l83 -147h-52z" />
    <glyph glyph-name="guilsinglright" unicode="&#x203a;" horiz-adv-x="180" 
d="M71 95l90 147l-90 146h-52l83 -146l-83 -147h52z" />
    <glyph glyph-name="Euro" unicode="&#x20ac;" horiz-adv-x="280" 
d="M185 329h-160v50h160v-50zM185 229h-160v50h160v-50zM255 100c0 -27.333 -9.83301 -50.833 -29.5 -70.5s-43.167 -29.5 -70.5 -29.5s-50.833 9.83301 -70.5 29.5s-29.5 43.167 -29.5 70.5v400c0 27.333 9.83301 50.833 29.5 70.5s43.167 29.5 70.5 29.5
s50.833 -9.83301 70.5 -29.5s29.5 -43.167 29.5 -70.5v-50h-50v50c0 14 -4.83301 25.833 -14.5 35.5s-21.5 14.5 -35.5 14.5s-25.833 -4.83301 -35.5 -14.5s-14.5 -21.5 -14.5 -35.5v-400c0 -14 4.83301 -25.833 14.5 -35.5s21.5 -14.5 35.5 -14.5s25.833 4.83301 35.5 14.5
s14.5 21.5 14.5 35.5v50h50v-50z" />
    <glyph glyph-name="trademark" unicode="&#x2122;" horiz-adv-x="290" 
d="M127 575h-39v-275h-26v275h-38v25h103v-25zM210 387l-28 113v-200h-27v300h27l28 -125l28 125h28v-300h-28v200z" />
    <glyph glyph-name=".null" horiz-adv-x="0" 
 />
    <glyph glyph-name="nonmarkingreturn" horiz-adv-x="0" 
 />
    </font>
</defs>
</svg>
