<?xml version="1.0" standalone="no"?>
<!DOCTYPE svg PUBLIC "-//W3C//DTD SVG 1.1//EN" "http://www.w3.org/Graphics/SVG/1.1/DTD/svg11.dtd" >
<svg>
<metadata>
Created by FontForge 20090914 at Tue Jun 16 08:12:03 2015
 By www-data
Copyright (c) Graham Meade,, 2004. All rights reserved.
</metadata>
<defs>
<font id="TallFilms" horiz-adv-x="232" >
  <font-face 
    font-family="Tall Films"
    font-weight="500"
    font-stretch="normal"
    units-per-em="1000"
    panose-1="2 0 6 8 2 0 0 2 0 4"
    ascent="800"
    descent="-200"
    x-height="513"
    cap-height="691"
    bbox="-67.001 -195.629 531 800.001"
    underline-thickness="50"
    underline-position="-50"
    unicode-range="U+0005-U+2122"
  />
<missing-glyph horiz-adv-x="1000" 
 />
    <glyph glyph-name=".notdef" horiz-adv-x="1000" 
 />
    <glyph glyph-name="breve" horiz-adv-x="189" 
d="M89 620l-58.001 65h20l43 -48l22.5 24c7.66699 8 14.834 16 21.501 24h20l-58 -65h-11z" />
    <glyph glyph-name="dotlessi" unicode="&#xd;" horiz-adv-x="88" 
d="M36 0v513h16v-513h-16z" />
    <glyph glyph-name="fraction" horiz-adv-x="236" 
d="M52 0h-16l149 690h14z" />
    <glyph glyph-name="fi" horiz-adv-x="265" 
d="M37 0l-0.00195312 608.999c0 22.667 7.66699 41.834 23 57.501s34 23.5 56 23.5c22.667 0 41.5 -8.5 56.5 -25.5s22.5 -37.167 22.5 -60.5h-16c0 19.333 -6.16699 35.833 -18.5 49.5s-27.166 20.5 -44.499 20.5s-32.166 -6.33301 -44.499 -19s-18.5 -28 -18.5 -46v-96
h175v-513h-16v497h-159v-497h-16z" />
    <glyph glyph-name="fl" horiz-adv-x="265" 
d="M37 0l-0.00195312 608.999c0 22.667 7.66699 41.834 23 57.501s34 23.5 56 23.5c22.667 0 41.5 -8.5 56.5 -25.5s22.5 -37.167 22.5 -60.5h-16c0 19.333 -6.16699 35.833 -18.5 49.5s-27.166 20.5 -44.499 20.5s-32.166 -6.33301 -44.499 -19s-18.5 -28 -18.5 -46v-96
h159v177h16v-690h-16v497h-159v-497h-16z" />
    <glyph glyph-name="Zcaron" horiz-adv-x="231" 
d="M36 0l140 674h-136v16h155l-140 -674h135v-16h-154zM110 714l-58 64h20l44 -47l22 23l21 24h20l-58 -64h-11z" />
    <glyph glyph-name="zcaron" horiz-adv-x="231" 
d="M35 0l140 497h-135v16h156l-140 -497h134v-16h-155zM117 547l-58 64h21l43 -47l21.5 23.5l21.5 23.5h20l-57 -64h-12z" />
    <glyph glyph-name="space" unicode=" " horiz-adv-x="179" 
 />
    <glyph glyph-name="space" unicode="&#xa0;" horiz-adv-x="179" 
 />
    <glyph glyph-name="exclam" unicode="!" horiz-adv-x="88" 
d="M36 143v547h16v-547h-16zM36 0v58h16v-58h-16z" />
    <glyph glyph-name="quotedbl" unicode="&#x22;" horiz-adv-x="137" 
d="M85 574v142h16v-142h-16zM36 574v142h16v-142h-16z" />
    <glyph glyph-name="numbersign" unicode="#" horiz-adv-x="236" 
d="M187 240h-36l-10.5 -74.5l-10.5 -73.5h-16l21 148h-49l-10 -74.5l-10 -73.5h-16l21 148h-34l1 14h35c1.33301 11.333 2.83301 21.5 4.5 30.5s3.16699 19.167 4.5 30.5h-34v15h35l10 72.5l10 72.5h17l-21 -145h50l10 72.5l10 72.5h15l-21 -145h36l-1 -15h-36
c-1.33301 -11.333 -2.83301 -21.5 -4.5 -30.5s-3.16699 -19.167 -4.5 -30.5h36zM137 254c1.33301 11.333 2.83301 21.5 4.5 30.5s3.16699 19.167 4.5 30.5h-50l-3.5 -30.5l-3.5 -30.5h48z" />
    <glyph glyph-name="dollar" unicode="$" 
d="M109 0l0.000976562 56.002c-20.667 2 -37.834 10.667 -51.501 26s-20.5 33.666 -20.5 54.999v53h16v-53c0 -17.333 6.16699 -32.5 18.5 -45.5s27.166 -19.5 44.499 -19.5s32.166 6.5 44.499 19.5s18.5 28.167 18.5 45.5v145c0 10 -2.33301 19.167 -7 27.5
s-10.667 15.833 -18 22.5c-3.33301 3.33301 -8.16602 6.5 -14.499 9.5l-19.5 9.5h1h-2c-0.666992 0 -1 0.333008 -1 1c-1.33301 0.666992 -2.66602 1.16699 -3.99902 1.5s-2.66602 0.833008 -3.99902 1.5v-1c-11.333 4.66699 -19.833 8.66699 -25.5 12
s-12.167 7.66602 -19.5 12.999c-8.66699 7.33301 -15.5 16.166 -20.5 26.499s-7.5 22.166 -7.5 35.499v112c0 21.333 6.83301 39.666 20.5 54.999s30.5 23.666 50.5 24.999v57h16v-57c20 -1.33301 36.833 -9.66602 50.5 -24.999s20.5 -33.666 20.5 -54.999v-53h-16v53
c0 18 -6.16699 33.333 -18.5 46s-27.166 19 -44.499 19s-32.166 -6.33301 -44.499 -19s-18.5 -28 -18.5 -46v-112c0 -21.333 7.33301 -38.333 22 -51c4 -4 8.66699 -7.16699 14 -9.5s11.666 -4.83301 18.999 -7.5c2 -1.33301 4 -2.16602 6 -2.49902s4 -1.16602 6 -2.49902v1
c9.33301 -4 17.166 -7.66699 23.499 -11s13.166 -7.66602 20.499 -12.999c9.33301 -7.33301 16.833 -16.333 22.5 -27s8.5 -22.667 8.5 -36v-145c0 -20.667 -6.83301 -38.834 -20.5 -54.501s-30.5 -24.5 -50.5 -26.5v-56h-15z" />
    <glyph glyph-name="percent" unicode="%" horiz-adv-x="370" 
d="M170 502c0 -20.667 -6.16699 -37.834 -18.5 -51.501s-28.166 -20.5 -47.499 -20.5c-18 0 -33.5 6.83301 -46.5 20.5s-19.5 30.834 -19.5 51.501v108c0 19.333 6.5 36 19.5 50s28.5 21 46.5 21c19.333 0 35.166 -7 47.499 -21s18.5 -30.667 18.5 -50v-108v0zM331 71
c0 -19.333 -6.33301 -36 -19 -50s-28.334 -21 -47.001 -21s-34.334 7 -47.001 21s-19 30.667 -19 50v107c0 20.667 6.33301 37.834 19 51.501s28.334 20.5 47.001 20.5s34.334 -6.83301 47.001 -20.5s19 -30.834 19 -51.501v-107v0zM53 502c0 -15.333 5 -28.5 15 -39.5
s22 -16.5 36 -16.5c14.667 0 27 5.5 37 16.5s15 24.167 15 39.5v108c0 15.333 -5 28.5 -15 39.5s-22.333 16.5 -37 16.5c-14 0 -26 -5.5 -36 -16.5s-15 -24.167 -15 -39.5v-108v0zM214 71c0 -15.333 4.83301 -28.5 14.5 -39.5s21.834 -16.5 36.501 -16.5
c14 0 26.167 5.5 36.5 16.5s15.5 24.167 15.5 39.5v107c0 16 -5.16699 29.667 -15.5 41s-22.5 17 -36.5 17c-14.667 0 -26.834 -5.66699 -36.501 -17s-14.5 -25 -14.5 -41v-107v0zM116 0h-16l146 674h15z" />
    <glyph glyph-name="ampersand" unicode="&#x26;" 
d="M116 0c-22 0 -40.668 7.66699 -56.001 23s-23 34.666 -23 57.999v238c0 16 4.16699 30.5 12.5 43.5s19.166 22.833 32.499 29.5c-13.333 7.33301 -24.166 17.5 -32.499 30.5s-12.5 27.167 -12.5 42.5v144c0 22.667 7.66699 41.834 23 57.501s34 23.5 56 23.5
s40.667 -8.5 56 -25.5s23 -37.167 23 -60.5h-16c0 19.333 -6.16699 35.833 -18.5 49.5s-27.166 20.5 -44.499 20.5s-32.166 -6.33301 -44.499 -19s-18.5 -28 -18.5 -46v-144c0 -18 6.16699 -33.5 18.5 -46.5s27.166 -19.5 44.499 -19.5h63v41h16v-481h-16v73
c-7.33301 -9.33301 -16.5 -17 -27.5 -23s-22.833 -9 -35.5 -9zM52.999 81c0 -18 6.16797 -33.333 18.501 -46s27.166 -19 44.499 -19s32.166 6.33301 44.499 19s18.5 28 18.5 46v304h-63c-17.333 0 -32.166 -6.5 -44.499 -19.5s-18.5 -28.5 -18.5 -46.5v-238v0z" />
    <glyph glyph-name="quotesingle" unicode="'" horiz-adv-x="88" 
d="M36 574v142h16v-142h-16z" />
    <glyph glyph-name="parenleft" unicode="(" horiz-adv-x="158" 
d="M116 -40c-22.667 0 -41.5 7.66699 -56.5 23s-22.167 34.333 -21.5 57c0 102.667 -0.166992 204.5 -0.5 305.5s-0.5 202.5 -0.5 304.5c0 22 8 40.833 24 56.5s36 23.5 60 23.5v-15c-19.333 0 -35.666 -6.5 -48.999 -19.5s-20 -28.167 -20 -45.5v-610
c0 -17.333 6.66699 -32.5 20 -45.5s29.666 -19.5 48.999 -19.5v-10z" />
    <glyph glyph-name="parenright" unicode=")" horiz-adv-x="158" 
d="M121 40c0 -22.667 -8.16699 -41.667 -24.5 -57s-36.166 -23 -59.499 -23v15c18.667 0 34.667 6.5 48 19.5s20 28.167 20 45.5v610c0 17.333 -6.66699 32.5 -20 45.5s-29.333 19.5 -48 19.5v15c23.333 0 43.166 -7.83301 59.499 -23.5s24.5 -34.5 24.5 -56.5v-610v0z" />
    <glyph glyph-name="asterisk" unicode="*" horiz-adv-x="203" 
d="M93 481v90l-28 -16.5l-26 -15.5l-2 15l48 30l-24.5 14.5c-8.33301 5 -16.166 9.5 -23.499 13.5l2 15l54 -31v89h16v-90c8.66699 4.66699 17.167 9.66699 25.5 15l24.5 15l11 -12l-53 -29l27 -17c9.33301 -6 17.666 -11 24.999 -15l-10 -11l-50 30v-90h-16z" />
    <glyph glyph-name="plus" unicode="+" horiz-adv-x="224" 
d="M102 66v167h-65v15h65v169h16v-169h69v-15h-69v-167h-16z" />
    <glyph glyph-name="comma" unicode="," horiz-adv-x="110" 
d="M51 -54h-18l25 61v51h16v-55z" />
    <glyph glyph-name="hyphen" unicode="-" horiz-adv-x="224" 
d="M37 233v15h150v-15h-150z" />
    <glyph glyph-name="period" unicode="." horiz-adv-x="88" 
d="M36 0v58h16v-58h-16z" />
    <glyph glyph-name="slash" unicode="/" horiz-adv-x="236" 
d="M52 0h-16l149 690h14z" />
    <glyph glyph-name="zero" unicode="0" 
d="M195 56c0 -22.667 -7.66699 -37.667 -23 -45s-34 -11 -56 -11s-40.667 3.66699 -56 11s-23 22.333 -23 45v577c0 23.333 7.66699 38.666 23 45.999s34 11 56 11s40.667 -3.66699 56 -11s23 -22.666 23 -45.999v-577v0zM53 56c0 -17.333 6.16699 -28.333 18.5 -33
s27.166 -7 44.499 -7s32.166 2.33301 44.499 7s18.5 15.667 18.5 33v577c0 17.333 -6.16699 28.5 -18.5 33.5s-27.166 7.5 -44.499 7.5s-32.166 -2.5 -44.499 -7.5s-18.5 -16.167 -18.5 -33.5v-577v0z" />
    <glyph glyph-name="one" unicode="1" horiz-adv-x="151" 
d="M100 0v658l-26 -46.5l-25 -44.5l-15 1l69 123h11v-691h-14z" />
    <glyph glyph-name="two" unicode="2" 
d="M37 0l-0.00488281 290.003c0 13.333 2.83301 25.333 8.5 36s13.167 19.667 22.5 27c6.66699 5.33301 13.167 9.66602 19.5 12.999s14.5 7 24.5 11v-1c2 1.33301 4 2.16602 6 2.49902s4 1.16602 6 2.49902c6.66699 2 12.834 4.16699 18.501 6.5s10.5 5.83301 14.5 10.5
c14.667 13.333 22 30.333 22 51v160c0 18 -6.16699 33.333 -18.5 46s-27.166 19 -44.499 19s-32.166 -6.33301 -44.499 -19s-18.5 -28 -18.5 -46v-53h-16v53c0 22.667 7.66699 41.834 23 57.501s34 23.5 56 23.5s40.667 -7.83301 56 -23.5s23 -34.834 23 -57.501v-160
c0 -13.333 -2.5 -25.333 -7.5 -36s-11.833 -19.667 -20.5 -27c-7.33301 -5.33301 -13.833 -9.5 -19.5 -12.5s-14.167 -6.83301 -25.5 -11.5v1c-1.33301 -0.666992 -2.66602 -1.16699 -3.99902 -1.5s-2.66602 -0.833008 -3.99902 -1.5
c-0.666992 0 -1.16699 -0.166992 -1.5 -0.5s-0.833008 -0.5 -1.5 -0.5h1c-7.33301 -3.33301 -14 -6.5 -20 -9.5s-10.667 -6.16699 -14 -9.5c-7.33301 -6.66699 -13.333 -14.167 -18 -22.5s-7 -17.5 -7 -27.5v-274h134v-16h-150z" />
    <glyph glyph-name="three" unicode="3" 
d="M116 0c-22 0 -40.667 8.16602 -56 24.499s-23 36.833 -23 61.5h16c0 -19.333 6.16699 -35.833 18.5 -49.5s27.166 -20.5 44.499 -20.5s32.166 6.33301 44.499 19s18.5 28 18.5 46v222c0 17.333 -6.16699 32.5 -18.5 45.5s-27.166 19.5 -44.499 19.5h-35v16h35
c17.333 0 32.166 6.33301 44.499 19s18.5 28.334 18.5 47.001v159c0 18 -6.16699 33.333 -18.5 46s-27.166 19 -44.499 19s-32.166 -6.83301 -44.499 -20.5s-18.5 -30.167 -18.5 -49.5h-16c0 23.333 7.66699 43.5 23 60.5s34 25.5 56 25.5s40.667 -7.83301 56 -23.5
s23 -34.834 23 -57.501v-159c0 -16 -4.16699 -30.667 -12.5 -44s-19.166 -23.333 -32.499 -30c13.333 -6.66699 24.166 -16.5 32.499 -29.5s12.5 -27.5 12.5 -43.5v-222c0 -23.333 -7.66699 -42.666 -23 -57.999s-34 -23 -56 -23z" />
    <glyph glyph-name="four" unicode="4" horiz-adv-x="227" 
d="M163 225v-225h-15v225h-112l113 466h14v-450h27v-16h-27zM148 241v380l-47 -190l-47 -190h94z" />
    <glyph glyph-name="five" unicode="5" 
d="M116 0c-22 0 -40.667 8.16699 -56 24.5s-23 36.833 -23 61.5h16c0 -19.333 6.16699 -35.833 18.5 -49.5s27.166 -20.5 44.499 -20.5s32.166 6.33301 44.499 19s18.5 28 18.5 46v270c0 18 -6.16699 33.333 -18.5 46s-27.166 19 -44.499 19s-32.166 -6.83301 -44.499 -20.5
s-18.5 -30.167 -18.5 -49.5l-16 2v342h153v-16h-137v-274c7.33301 9.33301 16.5 17 27.5 23s22.833 9 35.5 9c22 0 40.667 -7.83301 56 -23.5s23 -34.834 23 -57.501v-270c0 -23.333 -7.66699 -42.666 -23 -57.999s-34 -23 -56 -23z" />
    <glyph glyph-name="six" unicode="6" 
d="M116 0c-22 0 -40.6689 7.66699 -56.002 23s-23 34.666 -23 57.999v528c0 22.667 7.66699 41.834 23 57.501s34 23.5 56 23.5s40.667 -7.83301 56 -23.5s23 -34.834 23 -57.501v-60h-16v60c0 18 -6.16699 33.333 -18.5 46s-27.166 19 -44.499 19
s-32.166 -6.33301 -44.499 -19s-18.5 -28 -18.5 -46v-249c7.33301 9.33301 16.5 16.833 27.5 22.5s22.833 8.5 35.5 8.5c22 0 40.667 -7.66699 56 -23s23 -34.333 23 -57v-230c0 -23.333 -7.66699 -42.666 -23 -57.999s-34 -23 -56 -23zM52.998 81
c0 -18 6.16699 -33.333 18.5 -46s27.166 -19 44.499 -19s32.166 6.33301 44.499 19s18.5 28 18.5 46v230c0 18 -6.16699 33.5 -18.5 46.5s-27.166 19.5 -44.499 19.5s-32.166 -6.5 -44.499 -19.5s-18.5 -28.5 -18.5 -46.5v-230v0z" />
    <glyph glyph-name="seven" unicode="7" horiz-adv-x="227" 
d="M80 0h-15l108 674h-136v16h154z" />
    <glyph glyph-name="eight" unicode="8" 
d="M116 0c-22 0 -40.667 7.66699 -56 23s-23 34.666 -23 57.999v222c0 16 4.16699 30.5 12.5 43.5s19.166 22.833 32.499 29.5c-13.333 6.66699 -24.166 16.667 -32.499 30s-12.5 28 -12.5 44v159c0 22.667 7.66699 41.834 23 57.501s34 23.5 56 23.5
s40.667 -7.83301 56 -23.5s23 -34.834 23 -57.501v-159c0 -16 -4.16699 -30.667 -12.5 -44s-19.166 -23.333 -32.499 -30c13.333 -6.66699 24.166 -16.5 32.499 -29.5s12.5 -27.5 12.5 -43.5v-222c0 -23.333 -7.66699 -42.666 -23 -57.999s-34 -23 -56 -23zM53 81
c0 -18 6.16699 -33.333 18.5 -46s27.166 -19 44.499 -19s32.166 6.33301 44.499 19s18.5 28 18.5 46v222c0 17.333 -6.16699 32.5 -18.5 45.5s-27.166 19.5 -44.499 19.5s-32.166 -6.5 -44.499 -19.5s-18.5 -28.167 -18.5 -45.5v-222v0zM53 450
c0 -18.667 6.16699 -34.334 18.5 -47.001s27.166 -19 44.499 -19s32.166 6.33301 44.499 19s18.5 28.334 18.5 47.001v159c0 18 -6.16699 33.333 -18.5 46s-27.166 19 -44.499 19s-32.166 -6.33301 -44.499 -19s-18.5 -28 -18.5 -46v-159v0z" />
    <glyph glyph-name="nine" unicode="9" 
d="M116 0c-22 0 -40.665 7.66602 -55.998 22.999s-23 34.666 -23 57.999v59h16v-59c0 -18 6.16699 -33.333 18.5 -46s27.166 -19 44.499 -19s32.166 6.33301 44.499 19s18.5 28 18.5 46v249c-7.33301 -9.33301 -16.333 -17 -27 -23s-22.667 -9 -36 -9
c-22 0 -40.667 7.83301 -56 23.5s-23 34.834 -23 57.501v230c0 22.667 7.66699 41.834 23 57.501s34 23.5 56 23.5s40.667 -7.83301 56 -23.5s23 -34.834 23 -57.501v-528c0 -23.333 -7.66699 -42.666 -23 -57.999s-34 -23 -56 -23zM53.002 378.999
c0 -18 6.16699 -33.333 18.5 -46s27.166 -19 44.499 -19s32.166 6.33301 44.499 19s18.5 28 18.5 46v230c0 18 -6.16699 33.333 -18.5 46s-27.166 19 -44.499 19s-32.166 -6.33301 -44.499 -19s-18.5 -28 -18.5 -46v-230v0z" />
    <glyph glyph-name="colon" unicode=":" horiz-adv-x="88" 
d="M36 322v59h16v-59h-16zM36 0v58h16v-58h-16z" />
    <glyph glyph-name="semicolon" unicode=";" horiz-adv-x="110" 
d="M51 -54h-18l25 61v51h16v-55zM58 322v59h16v-59h-16z" />
    <glyph glyph-name="less" unicode="&#x3c;" horiz-adv-x="197" 
d="M144 125l-109 120l107 120l23 -1l-108 -119l26.5 -29.5l29 -31l28 -31l25.5 -28.5h-22z" />
    <glyph glyph-name="equal" unicode="=" horiz-adv-x="224" 
d="M37 273v16h150v-16h-150zM37 197v16h150v-16h-150z" />
    <glyph glyph-name="greater" unicode="&#x3e;" horiz-adv-x="197" 
d="M53 125h-22l109 120l-54 59l-54 60l22 1l108 -120z" />
    <glyph glyph-name="question" unicode="?" 
d="M95 143l-0.00292969 146.001c0 24.667 5 43.334 15 56.001c3.33301 5.33301 7.66602 10 12.999 14s11 8 17 12c5.33301 3.33301 10 6.83301 14 10.5s7.66699 7.5 11 11.5c9.33301 13.333 14 29.333 14 48v168c0 18 -6.16699 33.333 -18.5 46s-27.166 19 -44.499 19
s-32.166 -6.33301 -44.499 -19s-18.5 -28 -18.5 -46v-53h-16v53c0 22.667 7.66699 41.834 23 57.501s34 23.5 56 23.5s40.667 -7.83301 56 -23.5s23 -34.834 23 -57.501v-168c0 -24 -6 -43 -18 -57l-16 -16c-1.33301 -0.666992 -3.5 -2.33398 -6.5 -5.00098
s-6.16699 -5.33398 -9.5 -8.00098c-3.33301 -2 -7.16602 -4.5 -11.499 -7.5s-8.16602 -6.83301 -11.499 -11.5c-8 -12 -12 -27.667 -12 -47v-146h-15zM94.9971 0.000976562v58h15v-58h-15z" />
    <glyph glyph-name="at" unicode="@" 
d="M195 146c0 -22.667 -7.66602 -41.834 -22.999 -57.501s-34 -23.5 -56 -23.5s-40.667 7.83301 -56 23.5s-23 34.834 -23 57.501v378c0 22.667 7.66699 41.667 23 57s34 23 56 23s40.667 -7.66699 56 -23s23 -34.333 23 -57v-301c0 -7.33301 -2 -13.5 -6 -18.5
s-9 -7.5 -15 -7.5s-11.167 2.5 -15.5 7.5s-6.5 11.167 -6.5 18.5v21c-4 -4 -9.33301 -8 -16 -12s-12.667 -6 -18 -6c-14.667 0 -26.834 6.33301 -36.501 19s-14.5 28.667 -14.5 48v105c0 19.333 4.83301 35.333 14.5 48s21.834 19 36.501 19
c15.333 0 26.666 -5.66699 33.999 -17v21h16v-246c0 -6.66699 2 -10 6 -10c3.33301 0 5 3.33301 5 10v301c0 17.333 -6.16699 32.5 -18.5 45.5s-27.166 19.5 -44.499 19.5s-32.166 -6.5 -44.499 -19.5s-18.5 -28.167 -18.5 -45.5v-378c0 -18 6.16699 -33.333 18.5 -46
s27.166 -19 44.499 -19s32.166 6.83301 44.499 20.5s18.5 30.167 18.5 49.5h11zM152.001 397c0 14.667 -3.33301 27 -10 37s-14.667 15 -24 15c-10 0 -18.5 -5 -25.5 -15s-10.5 -22.333 -10.5 -37v-104c0 -14 3.5 -26 10.5 -36s15.5 -15 25.5 -15c9.33301 0 17.333 5 24 15
s10 22 10 36v104z" />
    <glyph glyph-name="A" unicode="A" horiz-adv-x="189" 
d="M60 282c-4.66699 -46 -9.16797 -93 -13.501 -141s-9.16602 -95 -14.499 -141h-17l72 690h15l71 -690h-15l-29 282h-69zM127.999 298c-3.33301 28.667 -6.16699 55.668 -8.5 81.001s-4.83301 50.166 -7.5 74.499l-8 75l-9 82.5l-16 -156l-17 -157h66z" />
    <glyph glyph-name="B" unicode="B" horiz-adv-x="225" 
d="M109 690c10.667 0 20.833 -2.16895 30.5 -6.50195s18 -10.166 25 -17.499s12.667 -15.833 17 -25.5s6.5 -20.167 6.5 -31.5v-184c0 -16 -4.16699 -30.333 -12.5 -43s-19.166 -22.667 -32.499 -30c13.333 -7.33301 24.166 -17.333 32.499 -30s12.5 -27 12.5 -43v-198
c0 -23.333 -7.83301 -42.666 -23.5 -57.999s-34.167 -23 -55.5 -23h-72v690h72zM52.999 15.998h56c17.333 0 32.166 6.33301 44.499 19s18.5 28 18.5 46v198c0 18 -6.16699 33.333 -18.5 46s-27.166 19 -44.499 19h-56v-328zM108.999 359.998
c17.333 0 32.166 6.16699 44.499 18.5s18.5 27.833 18.5 46.5v184c0 18 -6.16699 33.333 -18.5 46s-27.166 19 -44.499 19h-56v-314h56v0z" />
    <glyph glyph-name="C" unicode="C" 
d="M195 81c0 -23.333 -7.66699 -42.666 -23 -57.999s-34 -23 -56 -23s-40.667 7.66699 -56 23s-23 34.666 -23 57.999v528c0 22.667 7.66699 41.834 23 57.501s34 23.5 56 23.5s40.667 -7.83301 56 -23.5s23 -34.834 23 -57.501v-53h-16v53c0 18 -6.16699 33.333 -18.5 46
s-27.166 19 -44.499 19s-32.166 -6.33301 -44.499 -19s-18.5 -28 -18.5 -46v-528c0 -18 6.16699 -33.333 18.5 -46s27.166 -19 44.499 -19s32.166 6.33301 44.499 19s18.5 28 18.5 46v53h16v-53v0z" />
    <glyph glyph-name="D" unicode="D" horiz-adv-x="225" 
d="M37 690l72 0.000976562c22 0 40.667 -8 56 -24s23 -35 23 -57v-528c0 -22.667 -7.66699 -41.834 -23 -57.501s-34 -23.5 -56 -23.5h-72v690zM109 16.001c18 0 33 6.5 45 19.5s18 28.167 18 45.5v528c0 17.333 -6 32.5 -18 45.5s-27 19.5 -45 19.5h-56v-658h56z" />
    <glyph glyph-name="E" unicode="E" horiz-adv-x="224" 
d="M37 0v690h150v-16h-134v-314h114v-15h-114v-329h134v-16h-150z" />
    <glyph glyph-name="F" unicode="F" horiz-adv-x="201" 
d="M37 0v690h150v-16h-134v-320h114v-16h-114v-338h-16z" />
    <glyph glyph-name="G" unicode="G" 
d="M195 81c0 -23.333 -7.66699 -42.666 -23 -57.999s-34 -23 -56 -23s-40.667 7.66699 -56 23s-23 34.666 -23 57.999v528c0 22.667 7.66699 41.834 23 57.501s34 23.5 56 23.5s40.667 -7.83301 56 -23.5s23 -34.834 23 -57.501v-53h-16v53c0 18 -6.16699 33.333 -18.5 46
s-27.166 19 -44.499 19s-32.166 -6.33301 -44.499 -19s-18.5 -28 -18.5 -46v-528c0 -18 6.16699 -33.333 18.5 -46s27.166 -19 44.499 -19s32.166 6.33301 44.499 19s18.5 28 18.5 46v259h-67v15h83v-274v0z" />
    <glyph glyph-name="H" unicode="H" horiz-adv-x="231" 
d="M37 0v690h16v-330h126v330h15v-690h-15v345h-126v-345h-16z" />
    <glyph glyph-name="I" unicode="I" horiz-adv-x="88" 
d="M36 0v691h16v-691h-16z" />
    <glyph glyph-name="J" unicode="J" 
d="M37 134h16.002v-53c0 -18 6.16699 -33.333 18.5 -46s27.166 -19 44.499 -19s32.166 6.33301 44.499 19s18.5 28 18.5 46v606h16v-606c0 -23.333 -7.66699 -42.666 -23 -57.999s-34 -23 -56 -23s-40.667 7.66699 -56 23s-23 34.666 -23 57.999v53z" />
    <glyph glyph-name="K" unicode="K" horiz-adv-x="208" 
d="M180 0l-127 298v-298h-16v690h16v-325l127 325h17l-141 -360l70.5 -165l70.5 -165h-17z" />
    <glyph glyph-name="L" unicode="L" horiz-adv-x="224" 
d="M37 0v690h16v-674h134v-16h-150z" />
    <glyph glyph-name="M" unicode="M" horiz-adv-x="281" 
d="M37 -2v692h15l88 -629l44.5 315l44.5 314h14v-692h-15v578l-40.5 -288.5l-40.5 -287.5h-14l-80 577v-579h-16z" />
    <glyph glyph-name="N" unicode="N" horiz-adv-x="231" 
d="M37 0v690h15l127 -611v611h15v-690h-14l-127 610v-610h-16z" />
    <glyph glyph-name="O" unicode="O" 
d="M195 81c0 -23.333 -7.66699 -42.666 -23 -57.999s-34 -23 -56 -23s-40.667 7.66699 -56 23s-23 34.666 -23 57.999v528c0 22.667 7.66699 41.834 23 57.501s34 23.5 56 23.5s40.667 -7.83301 56 -23.5s23 -34.834 23 -57.501v-528v0zM53 81
c0 -18 6.16699 -33.333 18.5 -46s27.166 -19 44.499 -19s32.166 6.33301 44.499 19s18.5 28 18.5 46v528c0 18 -6.16699 33.333 -18.5 46s-27.166 19 -44.499 19s-32.166 -6.33301 -44.499 -19s-18.5 -28 -18.5 -46v-528v0z" />
    <glyph glyph-name="P" unicode="P" horiz-adv-x="225" 
d="M37 0v689.998h72c10.667 0 20.834 -2.16699 30.501 -6.5s18 -10.166 25 -17.499s12.667 -15.833 17 -25.5s6.5 -20.167 6.5 -31.5v-184c0 -11.333 -2.16699 -21.833 -6.5 -31.5s-10 -18.167 -17 -25.5s-15.333 -13.166 -25 -17.499s-19.834 -6.5 -30.501 -6.5h-56v-344
h-16zM109 359.998c17.333 0 32.166 6.16699 44.499 18.5s18.5 27.833 18.5 46.5v184c0 18 -6.16699 33.333 -18.5 46s-27.166 19 -44.499 19h-56v-314h56z" />
    <glyph glyph-name="Q" unicode="Q" horiz-adv-x="226" 
d="M203 -71l-129 83.999c-10.667 7.33301 -19.5 16.833 -26.5 28.5s-10.5 24.834 -10.5 39.501v528c0 22.667 7.66699 41.834 23 57.501s34 23.5 56 23.5s40.667 -7.83301 56 -23.5s23 -34.834 23 -57.501v-528c0 -22.667 -7.16699 -41.5 -21.5 -56.5
s-31.833 -23.167 -52.5 -24.5l46.5 -29l45.5 -29zM53 80.999c0 -18 6.16699 -33.333 18.5 -46s27.166 -19 44.499 -19s32.166 6.33301 44.499 19s18.5 28 18.5 46v528c0 18 -6.16699 33.333 -18.5 46s-27.166 19 -44.499 19s-32.166 -6.33301 -44.499 -19
s-18.5 -28 -18.5 -46v-528v0z" />
    <glyph glyph-name="R" unicode="R" horiz-adv-x="225" 
d="M37 0l-0.00195312 689.999h72c10.667 0 20.834 -2.16699 30.501 -6.5s18 -10.166 25 -17.499s12.667 -15.833 17 -25.5s6.5 -20.167 6.5 -31.5v-184c0 -16 -4.16699 -30.333 -12.5 -43s-19.166 -22.667 -32.499 -30c13.333 -7.33301 24.166 -17.333 32.499 -30
s12.5 -27 12.5 -43v-279h-16v279c0 18 -6.16699 33.333 -18.5 46s-27.166 19 -44.499 19h-56v-344h-16zM108.998 359.999c17.333 0 32.166 6.16699 44.499 18.5s18.5 27.833 18.5 46.5v184c0 18 -6.16699 33.333 -18.5 46s-27.166 19 -44.499 19h-56v-314h56z" />
    <glyph glyph-name="S" unicode="S" 
d="M37 134h16v-53c0 -18 6.16699 -33.333 18.5 -46s27.166 -19 44.499 -19s32.166 6.33301 44.499 19s18.5 28 18.5 46v201c0 10 -2.33301 19.167 -7 27.5s-10.667 15.833 -18 22.5c-3.33301 3.33301 -8.16602 6.5 -14.499 9.5l-19.5 9.5h1h-2c-0.666992 0 -1 0.333008 -1 1
c-1.33301 0.666992 -2.66602 1.16699 -3.99902 1.5s-2.66602 0.833008 -3.99902 1.5v-1c-11.333 4.66699 -19.833 8.66699 -25.5 12s-12.167 7.66602 -19.5 12.999c-8.66699 7.33301 -15.5 16.166 -20.5 26.499s-7.5 22.166 -7.5 35.499v168
c0 22.667 7.66699 41.834 23 57.501s34 23.5 56 23.5s40.667 -7.83301 56 -23.5s23 -34.834 23 -57.501v-53h-16v53c0 18 -6.16699 33.333 -18.5 46s-27.166 19 -44.499 19s-32.166 -6.33301 -44.499 -19s-18.5 -28 -18.5 -46v-168c0 -21.333 7.33301 -38.333 22 -51
c4 -4 8.66699 -7.16699 14 -9.5s11.666 -4.83301 18.999 -7.5c2 -1.33301 4 -2.16602 6 -2.49902s4 -1.16602 6 -2.49902v1c9.33301 -4 17.166 -7.66699 23.499 -11s13.166 -7.66602 20.499 -12.999c9.33301 -7.33301 16.833 -16.333 22.5 -27s8.5 -22.667 8.5 -36v-201
c0 -23.333 -7.66699 -42.666 -23 -57.999s-34 -23 -56 -23s-40.667 7.66699 -56 23s-23 34.666 -23 57.999v53z" />
    <glyph glyph-name="T" unicode="T" horiz-adv-x="183" 
d="M84 0v674h-68v16h151v-16h-67v-674h-16z" />
    <glyph glyph-name="U" unicode="U" 
d="M195 81c0 -23.333 -7.66504 -42.666 -22.998 -57.999s-34 -23 -56 -23s-40.667 7.66699 -56 23s-23 34.666 -23 57.999v606h16v-606c0 -18 6.16699 -33.333 18.5 -46s27.166 -19 44.499 -19s32.166 6.33301 44.499 19s18.5 28 18.5 46v606h16v-606v0z" />
    <glyph glyph-name="V" unicode="V" horiz-adv-x="189" 
d="M87 0l-72 690h17l63 -610l31.5 305l31.5 305h16l-72 -690h-15z" />
    <glyph glyph-name="W" unicode="W" horiz-adv-x="309" 
d="M82 0l-64 690h16l56 -604l28.5 302.5l28.5 301.5h15l57 -606l28.5 303.5l28.5 302.5h15l-64 -690h-16l-57 603l-28 -301.5l-28 -301.5h-16z" />
    <glyph glyph-name="X" unicode="X" horiz-adv-x="189" 
d="M102 345l36 -172.5l36 -172.5h-15l-64 309c-11.333 -51.333 -22.166 -102.833 -32.499 -154.5l-31.5 -154.5h-16l72 345l-36 172.5l-36 172.5h16l64 -308c11.333 50.667 22.166 102 32.499 154l31.5 154h15z" />
    <glyph glyph-name="Y" unicode="Y" horiz-adv-x="186" 
d="M86 0v323l-36 184l-36 183h15l64 -325c11.333 54 22 108.167 32 162.5s20.667 108.5 32 162.5h15l-71 -367v-323h-15z" />
    <glyph glyph-name="Z" unicode="Z" horiz-adv-x="231" 
d="M36 0l140 674h-136v16h155l-140 -674h135v-16h-154z" />
    <glyph glyph-name="bracketleft" unicode="[" horiz-adv-x="125" 
d="M37 -40v770h92v-15h-77v-740h77v-15h-92z" />
    <glyph glyph-name="backslash" unicode="\" horiz-adv-x="193" 
d="M163 0l-148 690h15l149 -690h-16z" />
    <glyph glyph-name="bracketright" unicode="]" horiz-adv-x="125" 
d="M1 -25h77v740h-77v15h92v-770h-92v15z" />
    <glyph glyph-name="asciicircum" unicode="^" horiz-adv-x="150" 
d="M99 469l-24.001 154l-12.5 -77c-4.33301 -26 -8.16602 -51.667 -11.499 -77h-15l32 221h14l32 -221h-15z" />
    <glyph glyph-name="underscore" unicode="_" horiz-adv-x="241" 
d="M6 -73v16h228v-16h-228z" />
    <glyph glyph-name="grave" unicode="`" horiz-adv-x="140" 
d="M90 616l-59 69h20l57 -69h-18z" />
    <glyph glyph-name="a" unicode="a" 
d="M179 -1l-0.00195312 31.999c-16 -21.333 -37 -32 -63 -32c-22 0 -40.667 7.83301 -56 23.5s-23 34.834 -23 57.501v145c0 22 7.66699 41 23 57s34 24 56 24c13.333 0 25.333 -3 36 -9s19.667 -14 27 -24v158c0 17.333 -6.16699 32.5 -18.5 45.5
s-27.166 19.5 -44.499 19.5s-32.166 -6.5 -44.499 -19.5s-18.5 -28.167 -18.5 -45.5v-53h-16v53c0 22 7.66699 41 23 57s34 24 56 24s40.667 -8 56 -24s23 -35 23 -57v-432h-16zM52.998 79.999c0 -18 6.16699 -33.333 18.5 -46s27.166 -19 44.499 -19
s32.166 6.33301 44.499 19s18.5 28 18.5 46v145c0 17.333 -6.16699 32.5 -18.5 45.5s-27.166 19.5 -44.499 19.5s-32.166 -6.5 -44.499 -19.5s-18.5 -28.167 -18.5 -45.5v-145v0z" />
    <glyph glyph-name="b" unicode="b" 
d="M195 81c0 -23.333 -7.66699 -42.666 -23 -57.999s-34 -23 -56 -23c-12.667 0 -24.5 3 -35.5 9s-20.167 13.667 -27.5 23v-32h-16v690h16v-210c7.33301 9.33301 16.5 17.166 27.5 23.499s22.833 9.5 35.5 9.5c22 0 40.667 -8 56 -24s23 -35 23 -57v-351v0zM53 81
c0 -18 6.16699 -33.333 18.5 -46s27.166 -19 44.499 -19s32.166 6.33301 44.499 19s18.5 28 18.5 46v351c0 17.333 -6.16699 32.5 -18.5 45.5s-27.166 19.5 -44.499 19.5s-32.166 -6.5 -44.499 -19.5s-18.5 -28.167 -18.5 -45.5v-351v0z" />
    <glyph glyph-name="c" unicode="c" 
d="M195 81c0 -23.333 -7.66699 -42.666 -23 -57.999s-34 -23 -56 -23s-40.667 7.66699 -56 23s-23 34.666 -23 57.999v351c0 22 7.66699 41 23 57s34 24 56 24s40.667 -8 56 -24s23 -35 23 -57v-53h-16v53c0 17.333 -6.16699 32.5 -18.5 45.5s-27.166 19.5 -44.499 19.5
s-32.166 -6.5 -44.499 -19.5s-18.5 -28.167 -18.5 -45.5v-351c0 -18 6.16699 -33.333 18.5 -46s27.166 -19 44.499 -19s32.166 6.33301 44.499 19s18.5 28 18.5 46v53h16v-53v0z" />
    <glyph glyph-name="d" unicode="d" 
d="M179 0v32c-16 -21.333 -37 -32 -63 -32c-22 0 -40.667 7.66699 -56 23s-23 34.666 -23 57.999v351c0 22 7.66699 41 23 57s34 24 56 24c12.667 0 24.5 -3.16699 35.5 -9.5s20.167 -14.166 27.5 -23.499v210h16v-690h-16zM53 81c0 -18 6.16699 -33.333 18.5 -46
s27.166 -19 44.499 -19s32.166 6.33301 44.499 19s18.5 28 18.5 46v351c0 17.333 -6.16699 32.5 -18.5 45.5s-27.166 19.5 -44.499 19.5s-32.166 -6.5 -44.499 -19.5s-18.5 -28.167 -18.5 -45.5v-351v0z" />
    <glyph glyph-name="e" unicode="e" 
d="M195 81c0 -23.333 -7.66504 -42.666 -22.998 -57.999s-34 -23 -56 -23s-40.667 7.66699 -56 23s-23 34.666 -23 57.999v351c0 22 7.66699 41 23 57s34 24 56 24s40.667 -8 56 -24s23 -35 23 -57v-158h-142v-193c0 -18 6.16699 -33.333 18.5 -46s27.166 -19 44.499 -19
s32.166 6.33301 44.499 19s18.5 28 18.5 46v53h16v-53v0zM53.002 289h125.998v143c0 17.333 -6.16699 32.5 -18.5 45.5s-27.166 19.5 -44.499 19.5s-32.166 -6.5 -44.499 -19.5s-18.5 -28.167 -18.5 -45.5v-143z" />
    <glyph glyph-name="f" unicode="f" horiz-adv-x="192" 
d="M37 0l-0.00195312 608.999c0 22.667 7.66699 41.834 23 57.501s34 23.5 56 23.5s40.667 -8.5 56 -25.5s23 -37.167 23 -60.5h-16c0 19.333 -6.16699 35.833 -18.5 49.5s-27.166 20.5 -44.499 20.5s-32.166 -6.33301 -44.499 -19s-18.5 -28 -18.5 -46v-96h113v-16h-113
v-497h-16z" />
    <glyph glyph-name="g" unicode="g" 
d="M195 -97c0 -22 -7.66504 -40.833 -22.998 -56.5s-34 -23.5 -56 -23.5s-40.667 8.33301 -56 25s-23 36.667 -23 60h16c0 -19.333 6.16699 -35.833 18.5 -49.5s27.166 -20.5 44.499 -20.5s32.166 6.5 44.499 19.5s18.5 28.167 18.5 45.5v129
c-7.33301 -9.33301 -16.5 -17 -27.5 -23s-22.833 -9 -35.5 -9c-22 0 -40.667 7.66699 -56 23s-23 34.666 -23 57.999v351c0 22 7.66699 41 23 57s34 24 56 24c12.667 0 24.5 -3.16699 35.5 -9.5s20.167 -14.166 27.5 -23.499v33h16v-610v0zM53.002 81
c0 -18 6.16699 -33.333 18.5 -46s27.166 -19 44.499 -19s32.166 6.33301 44.499 19s18.5 28 18.5 46v351c0 17.333 -6.16699 32.5 -18.5 45.5s-27.166 19.5 -44.499 19.5s-32.166 -6.5 -44.499 -19.5s-18.5 -28.167 -18.5 -45.5v-351v0z" />
    <glyph glyph-name="h" unicode="h" 
d="M37 0l-0.00195312 690.001h16v-210c7.33301 9.33301 16.5 17.166 27.5 23.499s22.833 9.5 35.5 9.5c22 0 40.667 -8 56 -24s23 -35 23 -57v-432h-16v432c0 17.333 -6.16699 32.5 -18.5 45.5s-27.166 19.5 -44.499 19.5s-32.166 -6.5 -44.499 -19.5
s-18.5 -28.167 -18.5 -45.5v-432h-16z" />
    <glyph glyph-name="i" unicode="i" horiz-adv-x="88" 
d="M36 0v513h16v-513h-16zM36 565v81h16v-81h-16z" />
    <glyph glyph-name="j" unicode="j" horiz-adv-x="93" 
d="M55 -94c0 -22.667 -7.99902 -41.833 -23.999 -57.5s-35.667 -23.5 -59 -23.5v15c19.333 0 35.666 6.5 48.999 19.5s20 28.5 20 46.5v607h14v-607v0zM41.001 565.001v81h14v-81h-14z" />
    <glyph glyph-name="k" unicode="k" horiz-adv-x="208" 
d="M182 0l-129 234v-234h-16v688h16v-404l64.5 115l64.5 114h15l-142 -254l71 -129.5l71 -129.5h-15z" />
    <glyph glyph-name="l" unicode="l" horiz-adv-x="88" 
d="M36 0v690h16v-690h-16z" />
    <glyph glyph-name="m" unicode="m" horiz-adv-x="377" 
d="M38 0l-0.00585938 513h16v-33c7.33301 9.33301 16.5 17.166 27.5 23.499s22.833 9.5 35.5 9.5c15.333 0 29.333 -4.5 42 -13.5s22.334 -20.167 29.001 -33.5c6.66699 14 16.334 25.333 29.001 34s27 13 43 13c10.667 0 20.834 -2.16699 30.501 -6.5
s18 -10.166 25 -17.499s12.667 -16 17 -26s6.5 -20.333 6.5 -31v-432h-16v432c0 17.333 -6.16699 32.5 -18.5 45.5s-27.166 19.5 -44.499 19.5c-18 0 -33.167 -6.5 -45.5 -19.5s-18.5 -28.167 -18.5 -45.5v-432h-16v432c0 17.333 -6.16699 32.5 -18.5 45.5
s-27.166 19.5 -44.499 19.5s-32.166 -6.5 -44.499 -19.5s-18.5 -28.167 -18.5 -45.5v-432h-16z" />
    <glyph glyph-name="n" unicode="n" 
d="M37 0l-0.00195312 513.001h16v-33c7.33301 9.33301 16.5 17.166 27.5 23.499s22.833 9.5 35.5 9.5c22 0 40.667 -8 56 -24s23 -35 23 -57v-432h-16v432c0 17.333 -6.16699 32.5 -18.5 45.5s-27.166 19.5 -44.499 19.5s-32.166 -6.5 -44.499 -19.5
s-18.5 -28.167 -18.5 -45.5v-432h-16z" />
    <glyph glyph-name="o" unicode="o" 
d="M195 81c0 -23.333 -7.66699 -42.666 -23 -57.999s-34 -23 -56 -23s-40.667 7.66699 -56 23s-23 34.666 -23 57.999v351c0 22 7.66699 41 23 57s34 24 56 24s40.667 -8 56 -24s23 -35 23 -57v-351v0zM53 81c0 -18 6.16699 -33.333 18.5 -46s27.166 -19 44.499 -19
s32.166 6.33301 44.499 19s18.5 28 18.5 46v351c0 17.333 -6.16699 32.5 -18.5 45.5s-27.166 19.5 -44.499 19.5s-32.166 -6.5 -44.499 -19.5s-18.5 -28.167 -18.5 -45.5v-351v0z" />
    <glyph glyph-name="p" unicode="p" 
d="M195 81c0 -23.333 -7.66699 -42.666 -23 -57.999s-34 -23 -56 -23c-12.667 0 -24.5 3 -35.5 9s-20.167 13.667 -27.5 23v-209h-16v690h16v-33c7.33301 9.33301 16.5 17.166 27.5 23.499s22.833 9.5 35.5 9.5c22 0 40.667 -8 56 -24s23 -35 23 -57v-351v0zM53 81
c0 -18 6.16699 -33.333 18.5 -46s27.166 -19 44.499 -19s32.166 6.33301 44.499 19s18.5 28 18.5 46v351c0 17.333 -6.16699 32.5 -18.5 45.5s-27.166 19.5 -44.499 19.5s-32.166 -6.5 -44.499 -19.5s-18.5 -28.167 -18.5 -45.5v-351v0z" />
    <glyph glyph-name="q" unicode="q" 
d="M179 -177v209c-16 -21.333 -37 -32 -63 -32c-22 0 -40.667 7.66699 -56 23s-23 34.666 -23 57.999v351c0 22 7.66699 41 23 57s34 24 56 24c12.667 0 24.5 -3.16699 35.5 -9.5s20.167 -14.166 27.5 -23.499v33h16v-690h-16zM53 81c0 -18 6.16699 -33.333 18.5 -46
s27.166 -19 44.499 -19s32.166 6.33301 44.499 19s18.5 28 18.5 46v351c0 17.333 -6.16699 32.5 -18.5 45.5s-27.166 19.5 -44.499 19.5s-32.166 -6.5 -44.499 -19.5s-18.5 -28.167 -18.5 -45.5v-351v0z" />
    <glyph glyph-name="r" unicode="r" horiz-adv-x="204" 
d="M37 0l-0.00292969 513h16v-33c7.33301 9.33301 16.5 17.166 27.5 23.499s22.833 9.5 35.5 9.5c10.667 0 20.834 -2.33301 30.501 -7s18.167 -11 25.5 -19s13 -17.167 17 -27.5s6 -21.166 6 -32.499h-16c0 19.333 -6.16699 35.833 -18.5 49.5s-27.166 20.5 -44.499 20.5
s-32.166 -6.5 -44.499 -19.5s-18.5 -28.167 -18.5 -45.5v-432h-16z" />
    <glyph glyph-name="s" unicode="s" 
d="M37 133l16.001 0.000976562v-53c0 -18 6.16699 -33.333 18.5 -46s27.166 -19 44.499 -19s32.166 6.33301 44.499 19s18.5 28 18.5 46v106c0 10 -2.33301 19.333 -7 28s-10.667 16.334 -18 23.001c-3.33301 3.33301 -8.16602 6.33301 -14.499 9s-12.833 5.66699 -19.5 9h1
h-2c-0.666992 0 -1 0.333008 -1 1c-1.33301 0.666992 -2.66602 1.16699 -3.99902 1.5s-2.66602 0.833008 -3.99902 1.5v-1c-11.333 4.66699 -19.833 8.66699 -25.5 12s-12.167 7.66602 -19.5 12.999c-8.66699 7.33301 -15.5 16.166 -20.5 26.499s-7.5 22.166 -7.5 35.499v87
c0 22 7.66699 41 23 57s34 24 56 24s40.667 -8 56 -24s23 -35 23 -57v-53h-16v53c0 17.333 -6.16699 32.5 -18.5 45.5s-27.166 19.5 -44.499 19.5s-32.166 -6.5 -44.499 -19.5s-18.5 -28.167 -18.5 -45.5v-87c0 -20.667 7.33301 -37.334 22 -50.001
c5.33301 -4 11.166 -7.66699 17.499 -11s13.166 -6.66602 20.499 -9.99902c1.33301 -0.666992 3.16602 -1.5 5.49902 -2.5s4.16602 -1.83301 5.49902 -2.5c-0.666992 0 1 -0.333008 5 -1l18 -9c5.33301 -2.66699 11 -6.33398 17 -11.001
c9.33301 -7.33301 16.833 -16.166 22.5 -26.499s8.5 -22.166 8.5 -35.499v-106c0 -22.667 -7.66699 -41.834 -23 -57.501s-34 -23.5 -56 -23.5s-40.667 7.83301 -56 23.5s-23 34.834 -23 57.501v53z" />
    <glyph glyph-name="t" unicode="t" horiz-adv-x="151" 
d="M136 0c-21.333 0 -39.833 7.66797 -55.5 23.001s-23.5 34.666 -23.5 57.999v416h-44v16h44v125h16v-125h67v-16h-67v-416c0 -18 6.66699 -33.333 20 -46s29.333 -19 48 -19v-11z" />
    <glyph glyph-name="u" unicode="u" 
d="M195 81c0 -23.333 -7.66504 -42.666 -22.998 -57.999s-34 -23 -56 -23s-40.667 7.66699 -56 23s-23 34.666 -23 57.999v432h16v-432c0 -18 6.16699 -33.333 18.5 -46s27.166 -19 44.499 -19s32.166 6.33301 44.499 19s18.5 28 18.5 46v432h16v-432v0z" />
    <glyph glyph-name="v" unicode="v" horiz-adv-x="189" 
d="M88 0l-73 513h16l64 -452c11.333 76 22 151.333 32 226s20.667 150 32 226h15l-72 -513h-14z" />
    <glyph glyph-name="w" unicode="w" horiz-adv-x="324" 
d="M85 0l-67.999 512.999h15l60 -448l32 224l32 224h13l64 -448l30.5 224c10.333 74.667 20.166 149.334 29.499 224.001h14l-67 -513h-13l-65 451l-32 -226l-32 -225h-13z" />
    <glyph glyph-name="x" unicode="x" horiz-adv-x="190" 
d="M103 256l36.5 -128l36.5 -128h-16l-65 227l-32 -114l-31 -113h-17l73 256l-36.5 128.5l-36.5 128.5h17l63 -228l32.5 114l32.5 114h16z" />
    <glyph glyph-name="y" unicode="y" 
d="M195 -97c0 -22 -7.66309 -40.832 -22.9961 -56.499s-34 -23.5 -56 -23.5s-40.667 8.33301 -56 25s-23 36.667 -23 60h16c0 -19.333 6.16699 -35.833 18.5 -49.5s27.166 -20.5 44.499 -20.5s32.166 6.5 44.499 19.5s18.5 28.167 18.5 45.5v129
c-7.33301 -9.33301 -16.5 -17 -27.5 -23s-22.833 -9 -35.5 -9c-22 0 -40.667 7.66699 -56 23s-23 34.666 -23 57.999v432h16v-432c0 -18 6.16699 -33.333 18.5 -46s27.166 -19 44.499 -19s32.166 6.33301 44.499 19s18.5 28 18.5 46v432h16v-610v0z" />
    <glyph glyph-name="z" unicode="z" horiz-adv-x="231" 
d="M35 0l140 497h-135v16h156l-140 -497h134v-16h-155z" />
    <glyph glyph-name="braceleft" unicode="{" horiz-adv-x="186" 
d="M185 -36c-22 0 -40.833 7.83398 -56.5 23.501s-23.167 34.5 -22.5 56.5c0 38 -0.166992 76.333 -0.5 115s-0.5 77 -0.5 115c0 18 -6.5 33.333 -19.5 46s-29.167 19 -48.5 19v16c19.333 0 35.5 6.5 48.5 19.5s19.833 28.167 20.5 45.5c0 38 -0.166992 76.167 -0.5 114.5
s-0.5 76.5 -0.5 114.5c0 10.667 2.16699 21 6.5 31s10.333 18.667 18 26s16.667 13.166 27 17.499s21.5 6.5 33.5 6.5v-16c-19.333 0 -35.5 -6.5 -48.5 -19.5s-19.5 -28.167 -19.5 -45.5v-229c0 -16 -4.16699 -30.333 -12.5 -43s-19.166 -22.667 -32.499 -30
c13.333 -7.33301 24.166 -17.333 32.499 -30s12.5 -27 12.5 -43v-230c0 -17.333 6.5 -32.5 19.5 -45.5s29.167 -19.5 48.5 -19.5v-11z" />
    <glyph glyph-name="bar" unicode="|" horiz-adv-x="88" 
d="M36 -40v770h16v-770h-16z" />
    <glyph glyph-name="braceright" unicode="}" horiz-adv-x="181" 
d="M80 45l1.00098 -1.00098c0 -22 -8.33301 -40.833 -25 -56.5s-36.667 -23.5 -60 -23.5v15c19.333 0 35.5 6.5 48.5 19.5s19.5 28.167 19.5 45.5v230c0 16 4 30.5 12 43.5s18.667 22.833 32 29.5c-13.333 6.66699 -24 16.5 -32 29.5s-12 27.5 -12 43.5v229
c0 17.333 -6.5 32.5 -19.5 45.5s-29.167 19.5 -48.5 19.5v16c11.333 0 22.166 -2.16699 32.499 -6.5s19.333 -10.166 27 -17.499s13.667 -16 18 -26s6.5 -20.333 6.5 -31c0 -38 0.166992 -76.167 0.5 -114.5s0.5 -76.5 0.5 -114.5c0 -17.333 6.5 -32.5 19.5 -45.5
s29.167 -19.5 48.5 -19.5v-16c-19.333 0 -35.5 -6.33301 -48.5 -19s-19.833 -28 -20.5 -46v-229z" />
    <glyph glyph-name="asciitilde" unicode="~" horiz-adv-x="293" 
d="M141 527c-13.333 11.333 -27.6709 17 -43.0039 17c-8.66699 0 -17.667 -2.16699 -27 -6.5s-17.666 -10.5 -24.999 -18.5l-10 10c8.66699 10.667 18.334 18.667 29.001 24s21.667 8 33 8c19.333 0 37 -7 53 -21c12 -10 26.333 -15 43 -15c8.66699 0 17.667 1.83301 27 5.5
s18 10.167 26 19.5l10 -10c-8.66699 -10.667 -18.667 -18.667 -30 -24s-22.666 -8 -33.999 -8c-19.333 0 -36.666 6.33301 -51.999 19z" />
    <glyph glyph-name="exclamdown" unicode="&#xa1;" horiz-adv-x="88" 
d="M36 -40v546h16v-546h-16zM36 592v58h16v-58h-16z" />
    <glyph glyph-name="cent" unicode="&#xa2;" 
d="M108 -56v56c-20 2 -36.833 10.667 -50.5 26s-20.5 33.666 -20.5 54.999v288c0 21.333 6.83301 39.666 20.5 54.999s30.5 24 50.5 26v56h16v-56c20 -2 36.833 -10.667 50.5 -26s20.5 -33.666 20.5 -54.999v-54h-16v54c0 17.333 -6.16699 32.5 -18.5 45.5
s-27.166 19.5 -44.499 19.5s-32.166 -6.5 -44.499 -19.5s-18.5 -28.167 -18.5 -45.5v-288c0 -18 6.16699 -33.333 18.5 -46s27.166 -19 44.499 -19s32.166 6.33301 44.499 19s18.5 28 18.5 46v53h16v-53c0 -21.333 -6.83301 -39.666 -20.5 -54.999s-30.5 -24 -50.5 -26v-56
h-16z" />
    <glyph glyph-name="sterling" unicode="&#xa3;" 
d="M37 0l-0.00195312 609c0 22.667 7.66699 41.834 23 57.501s34 23.5 56 23.5s40.667 -7.83301 56 -23.5s23 -34.834 23 -57.501v-53h-16v53c0 18 -6.16699 33.333 -18.5 46s-27.166 19 -44.499 19s-32.166 -6.33301 -44.499 -19s-18.5 -28 -18.5 -46v-221h111v-15h-111
v-357h134v-16h-150z" />
    <glyph glyph-name="currency" unicode="&#xa4;" horiz-adv-x="316" 
d="M234 275c-19.333 -29.333 -44.667 -44.0029 -76 -44.0029c-32.667 0 -58 15.667 -76 47l-44 -44v23l34 36c-9.33301 22 -14 46.333 -14 73c0 27.333 4.66699 51.333 14 72c-6 5.33301 -11.833 10.833 -17.5 16.5l-16.5 16.5v24l42 -42c20 33.333 46 50 78 50
c16 0 30.333 -4.16699 43 -12.5s23.667 -20.166 33 -35.499l44 44v-24l-35 -35c5.33301 -11.333 9.33301 -23.166 12 -35.499s4 -25.166 4 -38.499c0 -27.333 -5.66699 -52.333 -17 -75l36 -37v-23zM241.999 365.997c0 16.667 -2.16699 32.334 -6.5 47.001
s-10.333 27.5 -18 38.5s-16.667 19.667 -27 26s-21.166 9.5 -32.499 9.5s-22 -3.16699 -32 -9.5s-18.833 -15 -26.5 -26s-13.667 -23.833 -18 -38.5s-6.5 -30.334 -6.5 -47.001s2.16699 -32.334 6.5 -47.001s10.333 -27.5 18 -38.5s16.5 -19.667 26.5 -26
s20.667 -9.5 32 -9.5s22.166 3.16699 32.499 9.5s19.333 15 27 26s13.667 23.833 18 38.5s6.5 30.334 6.5 47.001z" />
    <glyph glyph-name="yen" unicode="&#xa5;" horiz-adv-x="192" 
d="M88 0v197h-65v16h65v60h-65v16h65v34l-35.5 184l-35.5 183h15l64 -325c11.333 54 22 108.167 32 162.5s20.667 108.5 32 162.5h15l-71 -367v-34h69v-16h-69v-60h69v-16h-69v-197h-16z" />
    <glyph glyph-name="brokenbar" unicode="&#xa6;" horiz-adv-x="88" 
d="M36 354v327h16v-327h-16zM36 -73v327h16v-327h-16z" />
    <glyph glyph-name="section" unicode="&#xa7;" horiz-adv-x="235" 
d="M39 95l15.999 0.00292969v-54c0 -17.333 6.16699 -32.5 18.5 -45.5s27.166 -19.5 44.499 -19.5s32.333 6.5 45 19.5s19 28.167 19 45.5v80c0 21.333 -9.33301 39.333 -28 54c-2 2.66699 -5.33301 5 -10 7s-9.66699 4 -15 6l-5 2.5c-2 1 -5.33301 2.16699 -10 3.5
c-9.33301 4 -17.333 7.66699 -24 11s-13 7.66602 -19 12.999c-9.33301 7.33301 -17 16.333 -23 27s-9 22.334 -9 35.001v19c0 13.333 3 25.666 9 36.999s14.333 20.666 25 27.999c-1.33301 1.33301 -3 2.66602 -5 3.99902s-3.33301 2.66602 -4 3.99902h1
c-8.66699 7.33301 -15.5 16.166 -20.5 26.499s-7.5 22.166 -7.5 35.499v80c0 22.667 7.66699 41.834 23 57.501s34 23.5 56 23.5s40.667 -7.83301 56 -23.5s23 -34.834 23 -57.501v-54h-16v54c0 18 -6.16699 33.333 -18.5 46s-27.166 19 -44.499 19
s-32.166 -6.33301 -44.499 -19s-18.5 -28 -18.5 -46v-80c0 -22 7.33301 -38.667 22 -50c3.33301 -3.33301 8 -6.66602 14 -9.99902s12.333 -6.33301 19 -9h1c0 -0.666992 3.66699 -2.33398 11 -5.00098v1c10 -4 18.167 -7.66699 24.5 -11s12.833 -7.66602 19.5 -12.999
c9.33301 -7.33301 16.833 -16.166 22.5 -26.499s8.5 -22.166 8.5 -35.499v-19c0 -13.333 -2.83301 -25.833 -8.5 -37.5s-14.167 -21.167 -25.5 -28.5c3.33301 -1.33301 5.33301 -2.5 6 -3.5s1.66699 -2.16699 3 -3.5h-1c19.333 -15.333 29 -36 29 -62v-80
c0 -22.667 -7.83301 -41.667 -23.5 -57s-34.5 -23 -56.5 -23c-21.333 0 -39.833 7.66699 -55.5 23s-23.5 34.333 -23.5 57v54zM54.999 280.003c0 -20 8.33301 -36.333 25 -49c10 -9.33301 23 -16.333 39 -21c2 -1.33301 5.33301 -3 10 -5s9.66699 -4.33301 15 -7
c10 5.33301 18.333 13 25 23s10 21.667 10 35v19c0 10 -2.33301 19.167 -7 27.5s-10.667 15.5 -18 21.5c-4.66699 4 -10.334 7.83301 -17.001 11.5s-13.667 6.83398 -21 9.50098c-4 1.33301 -7.16699 2.16602 -9.5 2.49902s-8.16602 3.16602 -17.499 8.49902
c-10 -5.33301 -18.167 -13.166 -24.5 -23.499s-9.5 -21.5 -9.5 -33.5v-19v0zM144.999 198.003c1.33301 -1.33301 2.66699 -2 4 -2l-2 2h-1h-1zM86 358.003c0 -0.666992 0.333008 -1 1 -1z" />
    <glyph glyph-name="dieresis" unicode="&#xa8;" horiz-adv-x="133" 
d="M81 648v44h16v-44h-16zM36 648v44h16v-44h-16z" />
    <glyph glyph-name="copyright" unicode="&#xa9;" horiz-adv-x="206" 
d="M169 430c0 -20.667 -6.33301 -37.834 -19 -51.501s-28.334 -20.5 -47.001 -20.5c-18 0 -33.5 6.83301 -46.5 20.5s-19.5 30.834 -19.5 51.501v180c0 19.333 6.5 36 19.5 50s28.5 21 46.5 21c18.667 0 34.334 -7 47.001 -21s19 -30.667 19 -50v-180v0zM52 430
c0 -16 4.83301 -29.5 14.5 -40.5s21.834 -16.5 36.501 -16.5s27 5.5 37 16.5s15 24.5 15 40.5v180c0 15.333 -5 28.5 -15 39.5s-22.333 16.5 -37 16.5s-26.834 -5.5 -36.501 -16.5s-14.5 -24.167 -14.5 -39.5v-180v0zM145 437c0 -12 -4 -22.333 -12 -31s-18 -13 -30 -13
c-12.667 0 -23 4.33301 -31 13s-12 19 -12 31v173c0 12 4 22.167 12 30.5s18.333 12.5 31 12.5c12 0 22 -4.16699 30 -12.5s12 -18.5 12 -30.5v-31h-14v31c0 7.33301 -2.83301 13.833 -8.5 19.5s-12.167 8.5 -19.5 8.5c-8 0 -14.833 -2.83301 -20.5 -8.5
s-8.5 -12.167 -8.5 -19.5v-173c0 -8 2.83301 -14.833 8.5 -20.5s12.5 -8.5 20.5 -8.5c7.33301 0 13.833 2.83301 19.5 8.5s8.5 12.5 8.5 20.5v29h14v-29v0z" />
    <glyph glyph-name="ordfeminine" unicode="&#xaa;" 
d="M179 305v31.001c-15.333 -20.667 -36.333 -31 -63 -31c-22 0 -40.667 7.66699 -56 23s-23 34.333 -23 57v222c0 23.333 7.66699 42.666 23 57.999s34 23 56 23c12.667 0 24.5 -3 35.5 -9s20.167 -13.667 27.5 -23v23h16v-374h-16zM53 385.001
c0 -18 6.16699 -33.333 18.5 -46s27.166 -19 44.499 -19s32.166 6.33301 44.499 19s18.5 28 18.5 46v222c0 18 -6.16699 33.333 -18.5 46s-27.166 19 -44.499 19s-32.166 -6.33301 -44.499 -19s-18.5 -28 -18.5 -46v-222v0z" />
    <glyph glyph-name="guillemotleft" unicode="&#xab;" horiz-adv-x="221" 
d="M168 93l-64 119l62 121l20 -1l-63 -120l32 -59.5l32 -59.5h-19zM100 93l-63 119l60 121l21 -1l-63 -120l32 -59.5l32 -59.5h-19z" />
    <glyph glyph-name="logicalnot" unicode="&#xac;" horiz-adv-x="236" 
d="M183 168v65h-146v15h161v-80h-15z" />
    <glyph glyph-name="minus" unicode="&#xad;" horiz-adv-x="236" 
d="M37 233v15h161v-15h-161z" />
    <glyph glyph-name="registered" unicode="&#xae;" horiz-adv-x="206" 
d="M169 430c0 -20.667 -6.33301 -37.834 -19 -51.501s-28.334 -20.5 -47.001 -20.5c-18 0 -33.5 6.83301 -46.5 20.5s-19.5 30.834 -19.5 51.501v180c0 19.333 6.5 36 19.5 50s28.5 21 46.5 21c18.667 0 34.334 -7 47.001 -21s19 -30.667 19 -50v-180v0zM103 373
c15.333 0 27.333 5.33301 36 16h-6v98c0 7.33301 -2.83301 14 -8.5 20s-12.167 9 -19.5 9h-25v-127h-13c8.66699 -10.667 20.667 -16 36 -16zM133 608c0 8 -2.83301 14.667 -8.5 20s-12.167 8 -19.5 8h-25v-106h25c7.33301 0 13.833 2.83301 19.5 8.5s8.5 12.5 8.5 20.5v49z
M52 430c0 -16.667 4.33301 -29.6689 13 -39.002v257c-4.66699 -5.33301 -8 -11.166 -10 -17.499s-3 -13.166 -3 -20.499v-180v0zM103 665.998c-14 0 -25.668 -4.66895 -35.001 -14.002h37c12.667 0 23 -4.33301 31 -13s12 -19 12 -31v-49c0 -17.333 -6 -29.333 -18 -36
c4.66699 -4 8.83398 -9.16699 12.501 -15.5s5.5 -13.166 5.5 -20.499v-86c2 4.66699 3.66699 9.33398 5 14.001s2 9.66699 2 15v180c0 15.333 -5 28.5 -15 39.5s-22.333 16.5 -37 16.5z" />
    <glyph glyph-name="macron" unicode="&#xaf;" horiz-adv-x="186" 
d="M37 645v15h112v-15h-112z" />
    <glyph glyph-name="degree" unicode="&#xb0;" 
d="M195 602c0 -22 -7.66699 -40.833 -23 -56.5s-34 -23.5 -56 -23.5s-40.667 7.83301 -56 23.5s-23 34.5 -23 56.5c0 23.333 7.66699 42.833 23 58.5s34 23.5 56 23.5s40.667 -7.83301 56 -23.5s23 -35.167 23 -58.5zM179 602c0 18.667 -6.16699 34.334 -18.5 47.001
s-27.166 19 -44.499 19s-32.166 -6.33301 -44.499 -19s-18.5 -28.334 -18.5 -47.001c0 -17.333 6.16699 -32.5 18.5 -45.5s27.166 -19.5 44.499 -19.5s32.166 6.5 44.499 19.5s18.5 28.167 18.5 45.5z" />
    <glyph glyph-name="plusminus" unicode="&#xb1;" horiz-adv-x="224" 
d="M120 233v-167h-16v167h-67v15h67v169h16v-169h67v-15h-67zM37 13v16h150v-16h-150z" />
    <glyph glyph-name="twosuperior" unicode="&#xb2;" 
d="M37 411c0 13.333 2.83105 25.168 8.49805 35.501s13.167 19.166 22.5 26.499c6.66699 5.33301 13.167 9.66602 19.5 12.999s14.5 7 24.5 11v-1c6.66699 3.33301 10.167 5.16602 10.5 5.49902s0.5 0.166016 0.5 -0.500977l20 9c6 2.66699 10.667 6 14 10
c14.667 11.333 22 28 22 50v31c0 18 -6.16699 33.333 -18.5 46s-27.166 19 -44.499 19s-32.166 -6.33301 -44.499 -19s-18.5 -28 -18.5 -46v-21h-16v21c0 22.667 7.66699 41.667 23 57s34 23 56 23s40.667 -7.66699 56 -23s23 -34.333 23 -57v-31
c0 -13.333 -2.5 -25.166 -7.5 -35.499s-11.833 -19.166 -20.5 -26.499c-7.33301 -5.33301 -13.833 -9.66602 -19.5 -12.999s-14.167 -7.33301 -25.5 -12v1l-6 -3l-20.5 -10.5c-7 -3.66699 -12.833 -7.16699 -17.5 -10.5c-7.33301 -6 -13.333 -13.167 -18 -21.5
s-7 -17.5 -7 -27.5v-113h134v-16l-150 3v126z" />
    <glyph glyph-name="threesuperior" unicode="&#xb3;" 
d="M116 282c-22 0 -40.667 8.16504 -56 24.498s-23 36.833 -23 61.5h16c0 -19.333 6.16699 -35.833 18.5 -49.5s27.166 -20.5 44.499 -20.5s32.166 6.33301 44.499 19s18.5 28 18.5 46v77c0 17.333 -6.16699 32.5 -18.5 45.5s-27.166 19.5 -44.499 19.5h-35v16h35
c17.333 0 32.166 6.33301 44.499 19s18.5 28.334 18.5 47.001v14c0 18 -6.16699 33.333 -18.5 46s-27.166 19 -44.499 19s-32.166 -6.83301 -44.499 -20.5s-18.5 -30.167 -18.5 -49.5h-16c0 24 7.66699 44.167 23 60.5s34 24.5 56 24.5s40.667 -7.66699 56 -23
s23 -34.333 23 -57v-14c0 -16 -4.16699 -30.667 -12.5 -44s-19.166 -23.333 -32.499 -30c13.333 -7.33301 24.166 -17.5 32.499 -30.5s12.5 -27.167 12.5 -42.5v-77c0 -23.333 -7.66699 -42.666 -23 -57.999s-34 -23 -56 -23z" />
    <glyph glyph-name="acute" unicode="&#xb4;" horiz-adv-x="140" 
d="M50 616h-18l57 69h20z" />
    <glyph glyph-name="mu" unicode="&#xb5;" horiz-adv-x="239" 
d="M198 -42c-18.667 -4.66699 -33.165 -4.5 -43.498 0.5s-15.5 15.167 -15.5 30.5c0 6 1 11 3 15c-7.33301 -2.66699 -16 -4 -26 -4c-13.333 0 -25.333 3 -36 9s-19.667 13.667 -27 23v-166h-16v647h16v-432c0 -18 6.16699 -33.333 18.5 -46s27.166 -19 44.499 -19
s32.166 6.33301 44.499 19s18.5 28 18.5 46v432h16v-432c0 -17.333 -4.66699 -33 -14 -47l-1 -2l-3 -3v1c-4.66699 -6.66699 -9.66699 -13.334 -15 -20.001c-2 -3.33301 -3.83301 -6.83301 -5.5 -10.5s-2.5 -7.16699 -2.5 -10.5c0 -9.33301 4.5 -15.166 13.5 -17.499
s20.5 -1.5 34.5 2.5v-11z" />
    <glyph glyph-name="paragraph" unicode="&#xb6;" horiz-adv-x="255" 
d="M214 674v-730.001h-16v730h-34v-730h-15v456h-33c-22 0 -40.667 8 -56 24s-23 35.333 -23 58v127c0 22.667 7.66699 41.834 23 57.501s34 23.5 56 23.5h127v-16h-29z" />
    <glyph glyph-name="periodcentered" unicode="&#xb7;" horiz-adv-x="88" 
d="M36 343v58h16v-58h-16z" />
    <glyph glyph-name="periodcentered" unicode="&#x2219;" horiz-adv-x="88" 
d="M36 343v58h16v-58h-16z" />
    <glyph glyph-name="cedilla" unicode="&#xb8;" horiz-adv-x="134" 
d="M98 -37c0 -15.333 -6 -28.168 -18 -38.501s-26.667 -15.5 -44 -15.5v15c13.333 0 24.5 3.83301 33.5 11.5s13.5 16.834 13.5 27.501c0 9.33301 -4.16699 17.833 -12.5 25.5s-18.5 12.167 -30.5 13.5v15c16.667 -1.33301 30.5 -7 41.5 -17s16.5 -22.333 16.5 -37z" />
    <glyph glyph-name="onesuperior" unicode="&#xb9;" horiz-adv-x="151" 
d="M100 282v368l-26 -46l-25 -45l-15 1l69 123h11v-401h-14z" />
    <glyph glyph-name="ordmasculine" unicode="&#xba;" 
d="M195 451c0 -23.333 -7.66699 -42.666 -23 -57.999s-34 -23 -56 -23s-40.667 7.66699 -56 23s-23 34.666 -23 57.999v157c0 22.667 7.66699 41.834 23 57.501s34 23.5 56 23.5s40.667 -7.83301 56 -23.5s23 -34.834 23 -57.501v-157v0zM53 451
c0 -18 6.16699 -33.5 18.5 -46.5s27.166 -19.5 44.499 -19.5s32.166 6.5 44.499 19.5s18.5 28.5 18.5 46.5v157c0 18 -6.16699 33.333 -18.5 46s-27.166 19 -44.499 19s-32.166 -6.33301 -44.499 -19s-18.5 -28 -18.5 -46v-157v0z" />
    <glyph glyph-name="guillemotright" unicode="&#xbb;" horiz-adv-x="221" 
d="M120 93h-19l65 119l-32 60l-32 60l20 1l62 -121zM53 93h-19l64 119l-31.5 60l-31.5 60l19 1l62 -121z" />
    <glyph glyph-name="onequarter" unicode="&#xbc;" horiz-adv-x="402" 
d="M337 80v-80h-16v80h-112l113 321h15v-305h27v-16h-27zM321 96v255l-45 -127.5l-45 -127.5h90zM129 0h-16l149 690h15zM101 282v368l-25 -46l-25 -45l-16 1l69 123h12v-401h-15z" />
    <glyph glyph-name="onehalf" unicode="&#xbd;" horiz-adv-x="443" 
d="M247 129c0 25.333 9.99902 46.001 29.999 62.001c6 5.33301 12.5 9.83301 19.5 13.5s15.167 7.16699 24.5 10.5c2.66699 1.33301 5.33398 2.33301 8.00098 3s5 1.66699 7 3c6 2 11.333 4.16699 16 6.5s9.66699 5.83301 15 10.5c14.667 11.333 22 28 22 50v31
c0 18 -6.33301 33.5 -19 46.5s-27.667 19.5 -45 19.5s-32.333 -6.5 -45 -19.5s-19 -28.5 -19 -46.5v-21h-14v21c0 22.667 7.5 41.667 22.5 57s33.5 23 55.5 23s40.667 -7.66699 56 -23s23 -34.333 23 -57v-31c0 -25.333 -9 -46 -27 -62
c-6 -4.66699 -11.5 -8.33398 -16.5 -11.001s-11.167 -5.66699 -18.5 -9c-4 -1.33301 -9.33301 -3.5 -16 -6.5s-9 -3.83301 -7 -2.5c-5.33301 -1.33301 -10.833 -3.83301 -16.5 -7.5l-16.5 -10.5c-7.33301 -6 -13.333 -13.333 -18 -22s-7 -18 -7 -28v-113h135v-16l-149 3v126
zM128.999 0.000976562h-15l148 690h15zM101.999 282.001v368l-26 -46l-25 -45l-15 1l69 123h11v-401h-14z" />
    <glyph glyph-name="threequarters" unicode="&#xbe;" horiz-adv-x="452" 
d="M387 80v-80h-16v80h-112l113 321h15v-305h26v-16h-26zM118 282c-22.667 0 -41.5 8.16504 -56.5 24.498s-22.5 36.833 -22.5 61.5h15c0 -19.333 6.33301 -35.833 19 -49.5s27.667 -20.5 45 -20.5s32.166 6.33301 44.499 19s18.5 28 18.5 46v77
c0 17.333 -6.16699 32.5 -18.5 45.5s-27.166 19.5 -44.499 19.5h-36v16h36c17.333 0 32.166 6.33301 44.499 19s18.5 28.334 18.5 47.001v14c0 18 -6.16699 33.333 -18.5 46s-27.166 19 -44.499 19s-32.333 -6.83301 -45 -20.5s-19 -30.167 -19 -49.5h-15
c0 24 7.5 44.167 22.5 60.5s33.833 24.5 56.5 24.5c22 0 40.5 -7.66699 55.5 -23s22.5 -34.333 22.5 -57v-14c0 -16 -4.16699 -30.667 -12.5 -44s-19.166 -23.333 -32.499 -30c13.333 -7.33301 24.166 -17.5 32.499 -30.5s12.5 -27.167 12.5 -42.5v-77
c0 -23.333 -7.5 -42.666 -22.5 -57.999s-33.5 -23 -55.5 -23zM371 95.998v254l-46.5 -126.5l-46.5 -127.5h93zM179 -0.00195312h-16l149 690h15z" />
    <glyph glyph-name="questiondown" unicode="&#xbf;" 
d="M195 40c0 -22.667 -7.66504 -41.665 -22.998 -56.998s-34 -23 -56 -23s-40.667 7.66699 -56 23s-23 34.333 -23 57v169c0 23.333 6 42 18 56c4.66699 5.33301 8.5 9.5 11.5 12.5s7.16699 6.5 12.5 10.5h-1c1.33301 1.33301 2.33301 2.16602 3 2.49902
s1.66699 1.16602 3 2.49902c9.33301 4 18 11 26 21s12 25.667 12 47v145h15v-145c0 -12.667 -1 -23.667 -3 -33s-6 -17.333 -12 -24c-3.33301 -4 -6.83301 -7.5 -10.5 -10.5l-10.5 -8.5c-1.33301 -0.666992 -3 -1.66699 -5 -3s-3.66699 -2.33301 -5 -3h1
c-8.66699 -6.66699 -17 -14.667 -25 -24c-5.33301 -6.66699 -9 -13.5 -11 -20.5s-3 -15.5 -3 -25.5v-169c0 -17.333 6.16699 -32.5 18.5 -45.5s27.166 -19.5 44.499 -19.5s32.166 6.5 44.499 19.5s18.5 28.167 18.5 45.5v54h16v-54v0zM122.002 592.002v58h15v-58h-15z" />
    <glyph glyph-name="Agrave" unicode="&#xc0;" horiz-adv-x="189" 
d="M60 282c-4.66699 -46 -9.16797 -93 -13.501 -141s-9.16602 -95 -14.499 -141h-17l72 690h15l71 -690h-15l-29 282h-69zM127.999 298c-3.33301 28.667 -6.16699 55.668 -8.5 81.001s-4.83301 50.166 -7.5 74.499l-8 75l-9 82.5l-16 -156l-17 -157h66zM114.998 710.001
l-59 68h20l58 -68h-19z" />
    <glyph glyph-name="Aacute" unicode="&#xc1;" horiz-adv-x="189" 
d="M60 282c-4.66699 -46 -9.16797 -93 -13.501 -141s-9.16602 -95 -14.499 -141h-17l72 690h15l71 -690h-15l-29 282h-69zM127.999 298c-3.33301 28.667 -6.16699 55.668 -8.5 81.001s-4.83301 50.166 -7.5 74.499l-8 75l-9 82.5l-16 -156l-17 -157h66zM73.998 710.001h-19
l58 68h20z" />
    <glyph glyph-name="Acircumflex" unicode="&#xc2;" horiz-adv-x="189" 
d="M60 282c-4.66699 -46 -9.16797 -93 -13.501 -141s-9.16602 -95 -14.499 -141h-17l72 690h15l71 -690h-15l-29 282h-69zM127.999 298c-3.33301 28.667 -6.16699 55.668 -8.5 81.001s-4.83301 50.166 -7.5 74.499l-8 75l-9 82.5l-16 -156l-17 -157h66zM51.998 714.001h-21
l58 64h12l57 -64h-20l-43 48z" />
    <glyph glyph-name="Atilde" unicode="&#xc3;" horiz-adv-x="189" 
d="M59 282c-5.33301 -46 -10.168 -93 -14.501 -141s-9.16602 -95 -14.499 -141h-16l71 690h15l71 -690h-15l-28 282h-69zM125.998 298l-9 81c-2.66699 24.667 -5.16699 49 -7.5 73s-4.83301 48.333 -7.5 73l-9 82l-16 -154.5l-16 -154.5h65zM181.998 743
c-13.333 -13.333 -29.3301 -20 -47.9971 -20c-14.667 0 -28.667 4.66699 -42 14c-4.66699 3.33301 -9.83398 6 -15.501 8s-11.167 3 -16.5 3c-12.667 0 -25.334 -6 -38.001 -18l-13 11c16 16 33 24 51 24c16 0 30 -5 42 -15c10 -8 20.667 -12 32 -12
c13.333 0 26.666 6.66699 39.999 20l8 -8v-7z" />
    <glyph glyph-name="Adieresis" unicode="&#xc4;" horiz-adv-x="189" 
d="M60 282c-4.66699 -46 -9.16797 -93 -13.501 -141s-9.16602 -95 -14.499 -141h-17l72 690h15l71 -690h-15l-29 282h-69zM127.999 298c-3.33301 28.667 -6.16699 55.668 -8.5 81.001s-4.83301 50.166 -7.5 74.499l-8 75l-9 82.5l-16 -156l-17 -157h66zM108.998 724.001v45
h16v-45h-16zM63.998 724.001v45h16v-45h-16z" />
    <glyph glyph-name="Aring" unicode="&#xc5;" horiz-adv-x="189" 
d="M60 282c-4.66699 -46 -9.16797 -93 -13.501 -141s-9.16602 -95 -14.499 -141h-17l72 690h15l71 -690h-15l-29 282h-69zM127.999 298c-3.33301 28.667 -6.16699 55.668 -8.5 81.001s-4.83301 50.166 -7.5 74.499l-8 75l-9 82.5l-16 -156l-17 -157h66zM146.998 745.001
c0 -14.667 -5 -27.167 -15 -37.5s-22.667 -15.5 -38 -15.5s-28 5.16699 -38 15.5s-15 22.833 -15 37.5c0 15.333 5 28.333 15 39s22.667 16 38 16s28 -5.33301 38 -16s15 -23.667 15 -39zM129.998 745.001c0 10.667 -3.5 19.834 -10.5 27.501s-15.5 11.5 -25.5 11.5
s-18.667 -3.83301 -26 -11.5s-11 -16.834 -11 -27.501c0 -10 3.66699 -18.667 11 -26s16 -11 26 -11s18.5 3.66699 25.5 11s10.5 16 10.5 26z" />
    <glyph glyph-name="AE" unicode="&#xc6;" horiz-adv-x="326" 
d="M175 0v345h-62l-40 -172.5l-40 -172.5h-16l159 690h132v-16h-117v-314h97v-15h-97v-329h117v-16h-133zM116 360h59v257z" />
    <glyph glyph-name="Ccedilla" unicode="&#xc7;" 
d="M156 -37c0 -15.333 -5.83203 -28.168 -17.499 -38.501s-26.167 -15.5 -43.5 -15.5v15c13.333 0 24.5 3.83301 33.5 11.5s13.5 16.834 13.5 27.501c0 8 -3 15.5 -9 22.5s-13 11.833 -21 14.5c-20.667 1.33301 -38.334 9.66602 -53.001 24.999s-22 34 -22 56v528
c0 22.667 7.66699 41.834 23 57.501s34 23.5 56 23.5s40.667 -7.83301 56 -23.5s23 -34.834 23 -57.501v-53h-16v53c0 18 -6.16699 33.333 -18.5 46s-27.166 19 -44.499 19s-32.166 -6.33301 -44.499 -19s-18.5 -28 -18.5 -46v-528c0 -18 6.16699 -33.333 18.5 -46
s27.166 -19 44.499 -19s32.166 6.33301 44.499 19s18.5 28 18.5 46v53h16v-53c0 -19.333 -5.16699 -36.166 -15.5 -50.499s-24.166 -23.5 -41.499 -27.5c5.33301 -5.33301 9.66602 -11.5 12.999 -18.5s5 -14.167 5 -21.5z" />
    <glyph glyph-name="Egrave" unicode="&#xc8;" horiz-adv-x="224" 
d="M37 0v690h150v-16h-134v-314h114v-15h-114v-329h134v-16h-150zM132 710l-59 68h21l57 -68h-19z" />
    <glyph glyph-name="Eacute" unicode="&#xc9;" horiz-adv-x="224" 
d="M37 0v690h150v-16h-134v-314h114v-15h-114v-329h134v-16h-150zM93 710h-20l58 68h20z" />
    <glyph glyph-name="Ecircumflex" unicode="&#xca;" horiz-adv-x="224" 
d="M37 0v690h150v-16h-134v-314h114v-15h-114v-329h134v-16h-150zM69 714h-20l58 64h11l58 -64h-21l-43 48z" />
    <glyph glyph-name="Edieresis" unicode="&#xcb;" horiz-adv-x="224" 
d="M37 0v690h150v-16h-134v-314h114v-15h-114v-329h134v-16h-150zM127 724v45h15v-45h-15zM82 724v45h15v-45h-15z" />
    <glyph glyph-name="Igrave" unicode="&#xcc;" horiz-adv-x="88" 
d="M36 0v691h16v-691h-16zM64 710l-59 68h20l58 -68h-19z" />
    <glyph glyph-name="Iacute" unicode="&#xcd;" horiz-adv-x="88" 
d="M36 0v691h16v-691h-16zM24 710h-19l58 68h20z" />
    <glyph glyph-name="Icircumflex" unicode="&#xce;" horiz-adv-x="88" 
d="M36 0v691h16v-691h-16zM1 714h-21l58 64h12l57 -64h-20l-43 47z" />
    <glyph glyph-name="Idieresis" unicode="&#xcf;" horiz-adv-x="88" 
d="M36 0v691h16v-691h-16zM13 724v45h17v-45h-17zM59 724v45h16v-45h-16z" />
    <glyph glyph-name="Eth" unicode="&#xd0;" horiz-adv-x="225" 
d="M37 690l72 0.000976562c22 0 40.667 -8 56 -24s23 -35 23 -57v-528c0 -22.667 -7.66699 -41.834 -23 -57.501s-34 -23.5 -56 -23.5h-72v690zM109 16.001c18 0 33 6.5 45 19.5s18 28.167 18 45.5v528c0 17.333 -6 32.5 -18 45.5s-27 19.5 -45 19.5h-56v-314h56v-15h-56
v-329h56z" />
    <glyph glyph-name="Ntilde" unicode="&#xd1;" horiz-adv-x="245" 
d="M44 0v690h15l127 -611v611h15v-690h-14l-127 610v-610h-16zM207 743c-13.333 -13.333 -29.332 -20 -47.999 -20c-14.667 0 -28.667 4.66699 -42 14c-4.66699 3.33301 -9.83398 6 -15.501 8s-11.167 3 -16.5 3c-13.333 0 -26 -6 -38 -18l-13 11c16 16 33 24 51 24
c16 0 30 -5 42 -15c10 -8 20.667 -12 32 -12c14 0 27 6.66699 39 20l9 -8v-7z" />
    <glyph glyph-name="Ograve" unicode="&#xd2;" 
d="M195 81c0 -23.333 -7.66699 -42.666 -23 -57.999s-34 -23 -56 -23s-40.667 7.66699 -56 23s-23 34.666 -23 57.999v528c0 22.667 7.66699 41.834 23 57.501s34 23.5 56 23.5s40.667 -7.83301 56 -23.5s23 -34.834 23 -57.501v-528v0zM53 81
c0 -18 6.16699 -33.333 18.5 -46s27.166 -19 44.499 -19s32.166 6.33301 44.499 19s18.5 28 18.5 46v528c0 18 -6.16699 33.333 -18.5 46s-27.166 19 -44.499 19s-32.166 -6.33301 -44.499 -19s-18.5 -28 -18.5 -46v-528v0zM136 710l-59 68h21l57 -68h-19z" />
    <glyph glyph-name="Oacute" unicode="&#xd3;" 
d="M195 81c0 -23.333 -7.66699 -42.666 -23 -57.999s-34 -23 -56 -23s-40.667 7.66699 -56 23s-23 34.666 -23 57.999v528c0 22.667 7.66699 41.834 23 57.501s34 23.5 56 23.5s40.667 -7.83301 56 -23.5s23 -34.834 23 -57.501v-528v0zM53 81
c0 -18 6.16699 -33.333 18.5 -46s27.166 -19 44.499 -19s32.166 6.33301 44.499 19s18.5 28 18.5 46v528c0 18 -6.16699 33.333 -18.5 46s-27.166 19 -44.499 19s-32.166 -6.33301 -44.499 -19s-18.5 -28 -18.5 -46v-528v0zM97 710h-20l58 68h20z" />
    <glyph glyph-name="Ocircumflex" unicode="&#xd4;" 
d="M195 81c0 -23.333 -7.66699 -42.666 -23 -57.999s-34 -23 -56 -23s-40.667 7.66699 -56 23s-23 34.666 -23 57.999v528c0 22.667 7.66699 41.834 23 57.501s34 23.5 56 23.5s40.667 -7.83301 56 -23.5s23 -34.834 23 -57.501v-528v0zM53 81
c0 -18 6.16699 -33.333 18.5 -46s27.166 -19 44.499 -19s32.166 6.33301 44.499 19s18.5 28 18.5 46v528c0 18 -6.16699 33.333 -18.5 46s-27.166 19 -44.499 19s-32.166 -6.33301 -44.499 -19s-18.5 -28 -18.5 -46v-528v0zM73 714h-20l58 64h11l58 -64h-20l-44 47z" />
    <glyph glyph-name="Otilde" unicode="&#xd5;" horiz-adv-x="245" 
d="M202 81c0 -23.333 -7.83398 -42.668 -23.501 -58.001s-34.167 -23 -55.5 -23c-22 0 -40.833 7.66699 -56.5 23s-23.5 34.666 -23.5 57.999v528c0 22.667 7.83301 41.834 23.5 57.501s34.5 23.5 56.5 23.5c10.667 0 20.834 -2.16699 30.501 -6.5s18 -10.166 25 -17.499
s12.667 -15.833 17 -25.5s6.5 -20.167 6.5 -31.5v-528v0zM58.999 80.998c0 -18 6.16699 -33.333 18.5 -46s27.5 -19 45.5 -19c17.333 0 32.166 6.33301 44.499 19s18.5 28 18.5 46v528c0 18 -6.16699 33.333 -18.5 46s-27.166 19 -44.499 19
c-18 0 -33.167 -6.33301 -45.5 -19s-18.5 -28 -18.5 -46v-528v0zM206.999 742.998c-13.333 -13.333 -29.332 -20 -47.999 -20c-14.667 0 -28.667 4.66699 -42 14c-4.66699 3.33301 -9.83398 6 -15.501 8s-11.167 3 -16.5 3c-13.333 0 -26 -6 -38 -18l-13 11
c16 16 33 24 51 24c16 0 30 -5 42 -15c10 -8 20.667 -12 32 -12c14 0 27 6.66699 39 20l9 -8v-7z" />
    <glyph glyph-name="Odieresis" unicode="&#xd6;" 
d="M195 81c0 -23.333 -7.66699 -42.666 -23 -57.999s-34 -23 -56 -23s-40.667 7.66699 -56 23s-23 34.666 -23 57.999v528c0 22.667 7.66699 41.834 23 57.501s34 23.5 56 23.5s40.667 -7.83301 56 -23.5s23 -34.834 23 -57.501v-528v0zM53 81
c0 -18 6.16699 -33.333 18.5 -46s27.166 -19 44.499 -19s32.166 6.33301 44.499 19s18.5 28 18.5 46v528c0 18 -6.16699 33.333 -18.5 46s-27.166 19 -44.499 19s-32.166 -6.33301 -44.499 -19s-18.5 -28 -18.5 -46v-528v0zM131 724v45h15v-45h-15zM86 724v45h15v-45h-15z
" />
    <glyph glyph-name="multiply" unicode="&#xd7;" horiz-adv-x="231" 
d="M124 243l36.5 -86.5l36.5 -86.5h-17l-65 151l-32 -76l-31 -75h-18l73 173l-36.5 85.5l-36.5 85.5h18l63 -151l32.5 76.5l32.5 74.5h17z" />
    <glyph glyph-name="Oslash" unicode="&#xd8;" horiz-adv-x="252" 
d="M205 81c0 -23.333 -7.83301 -42.667 -23.5 -58s-34.167 -23 -55.5 -23c-13.333 0 -25.333 3 -36 9s-19.667 14 -27 24c-1.33301 -8 -3.16602 -16.333 -5.49902 -25s-4.16602 -16.667 -5.49902 -24h-16l15 68c-1.33301 4 -2.33301 8.5 -3 13.5s-1 10.167 -1 15.5v528
c0 22.667 7.66699 41.834 23 57.501s34 23.5 56 23.5c14 0 26.167 -2.83301 36.5 -8.5s19.166 -13.834 26.499 -24.501l6.5 24.5c2.33301 9 4.16602 17.167 5.49902 24.5h15l-15 -69c2.66699 -8 4 -17.333 4 -28v-528v0zM62 99.999l61 266.5l62 267.5
c-5.33301 11.333 -13.5 20.833 -24.5 28.5s-22.5 11.5 -34.5 11.5c-17.333 0 -32.333 -6.33301 -45 -19s-19 -28 -19 -46v-509zM189 587.999l-60.999 -267l-60 -267c5.33301 -11.333 13 -20.5 23 -27.5s21.667 -10.5 35 -10.5c17.333 0 32.166 6.33301 44.499 19
s18.5 28 18.5 46v507v0z" />
    <glyph glyph-name="Ugrave" unicode="&#xd9;" 
d="M195 81c0 -23.333 -7.66504 -42.666 -22.998 -57.999s-34 -23 -56 -23s-40.667 7.66699 -56 23s-23 34.666 -23 57.999v606h16v-606c0 -18 6.16699 -33.333 18.5 -46s27.166 -19 44.499 -19s32.166 6.33301 44.499 19s18.5 28 18.5 46v606h16v-606v0zM136.002 710l-59 68
h21l57 -68h-19z" />
    <glyph glyph-name="Uacute" unicode="&#xda;" 
d="M195 81c0 -23.333 -7.66504 -42.666 -22.998 -57.999s-34 -23 -56 -23s-40.667 7.66699 -56 23s-23 34.666 -23 57.999v606h16v-606c0 -18 6.16699 -33.333 18.5 -46s27.166 -19 44.499 -19s32.166 6.33301 44.499 19s18.5 28 18.5 46v606h16v-606v0zM97.002 710h-20
l58 68h20z" />
    <glyph glyph-name="Ucircumflex" unicode="&#xdb;" 
d="M195 81c0 -23.333 -7.66504 -42.666 -22.998 -57.999s-34 -23 -56 -23s-40.667 7.66699 -56 23s-23 34.666 -23 57.999v606h16v-606c0 -18 6.16699 -33.333 18.5 -46s27.166 -19 44.499 -19s32.166 6.33301 44.499 19s18.5 28 18.5 46v606h16v-606v0zM73.002 714h-20
l58 64h11l58 -64h-20l-44 47z" />
    <glyph glyph-name="Udieresis" unicode="&#xdc;" 
d="M195 81c0 -23.333 -7.66504 -42.666 -22.998 -57.999s-34 -23 -56 -23s-40.667 7.66699 -56 23s-23 34.666 -23 57.999v606h16v-606c0 -18 6.16699 -33.333 18.5 -46s27.166 -19 44.499 -19s32.166 6.33301 44.499 19s18.5 28 18.5 46v606h16v-606v0zM131.002 724v45h15
v-45h-15zM86.002 724v45h15v-45h-15z" />
    <glyph glyph-name="Yacute" unicode="&#xdd;" horiz-adv-x="190" 
d="M88 0v323l-36 184l-36 183h16l63 -323l32.5 162l32.5 161h15l-71 -367v-323h-16zM76 710h-19l57 68h21z" />
    <glyph glyph-name="Thorn" unicode="&#xde;" horiz-adv-x="233" 
d="M53 217v-217.001h-16v691h16v-168h63c22 0 40.833 -8 56.5 -24s23.5 -35 23.5 -57v-144c0 -23.333 -7.83301 -42.666 -23.5 -57.999s-34.5 -23 -56.5 -23h-63zM116 231.999c17.333 0 32.166 6.33203 44.499 18.999s18.5 28.334 18.5 47.001v144
c0 17.333 -6.16699 32.5 -18.5 45.5s-27.166 19.5 -44.499 19.5h-63v-275h63z" />
    <glyph glyph-name="germandbls" unicode="&#xdf;" 
d="M195 81c0 -23.333 -7.66504 -42.6709 -22.998 -58.0039s-34 -23 -56 -23h-30v16h30c17.333 0 32.166 6.33301 44.499 19s18.5 28 18.5 46v191c0 10 -2.33301 19.333 -7 28s-10.667 16 -18 22c-2.66699 2.66699 -6 5 -10 7h1c-1.33301 0 -3.33301 0.666992 -6 2
c-1.33301 0.666992 -2.33301 1.33398 -3 2.00098h1l-25.5 13.5c-3 1.66699 -5.16699 3.16699 -6.5 4.5h1c-18 16 -27 36.667 -27 62c0 24.667 9 45 27 61h-1c1.33301 1.33301 3.5 2.83301 6.5 4.5l25.5 13.5l6 3c2 0.666992 4.66699 2.66699 8 6
c8.66699 7.33301 15.5 15 20.5 23s7.5 17.667 7.5 29v56c0 18 -6.16699 33.333 -18.5 46s-27.166 19 -44.499 19s-32.166 -6.33301 -44.499 -19s-18.5 -28 -18.5 -46v-609h-16v609c0 22.667 7.66699 41.834 23 57.501s34 23.5 56 23.5s40.667 -7.83301 56 -23.5
s23 -34.834 23 -57.501v-56c0 -13.333 -2.83301 -25.166 -8.5 -35.499s-13.167 -19.166 -22.5 -26.499c-10 -7.33301 -17.333 -12 -22 -14c-12 -6 -18.667 -9.66699 -20 -11c-18.667 -14.667 -28 -32.667 -28 -54c0 -19.333 7.66699 -35.666 23 -48.999
c5.33301 -4.66699 13.666 -9.66699 24.999 -15c1.33301 -0.666992 2.16602 -1.16699 2.49902 -1.5s1.16602 -0.833008 2.49902 -1.5c2 -1.33301 4.66699 -3 8 -5s6.33301 -3.66699 9 -5c9.33301 -7.33301 16.833 -16.333 22.5 -27s8.5 -22.667 8.5 -36v-191v0z" />
    <glyph glyph-name="agrave" unicode="&#xe0;" 
d="M179 0l-0.00195312 32.001c-16 -21.333 -37 -32 -63 -32c-22 0 -40.667 7.66699 -56 23s-23 34.666 -23 57.999v145c0 22 7.66699 41 23 57s34 24 56 24c13.333 0 25.333 -3 36 -9s19.667 -14 27 -24v158c0 17.333 -6.16699 32.5 -18.5 45.5s-27.166 19.5 -44.499 19.5
s-32.166 -6.5 -44.499 -19.5s-18.5 -28.167 -18.5 -45.5v-53h-16v53c0 22 7.66699 41 23 57s34 24 56 24s40.667 -8 56 -24s23 -35 23 -57v-432h-16zM52.998 81.001c0 -18 6.16699 -33.333 18.5 -46s27.166 -19 44.499 -19s32.166 6.33301 44.499 19s18.5 28 18.5 46v145
c0 17.333 -6.16699 32.5 -18.5 45.5s-27.166 19.5 -44.499 19.5s-32.166 -6.5 -44.499 -19.5s-18.5 -28.167 -18.5 -45.5v-145v0zM135.998 543.001l-59 69h20l57 -69h-18z" />
    <glyph glyph-name="aacute" unicode="&#xe1;" 
d="M179 0l-0.00195312 32.001c-16 -21.333 -37 -32 -63 -32c-22 0 -40.667 7.66699 -56 23s-23 34.666 -23 57.999v145c0 22 7.66699 41 23 57s34 24 56 24c13.333 0 25.333 -3 36 -9s19.667 -14 27 -24v158c0 17.333 -6.16699 32.5 -18.5 45.5s-27.166 19.5 -44.499 19.5
s-32.166 -6.5 -44.499 -19.5s-18.5 -28.167 -18.5 -45.5v-53h-16v53c0 22 7.66699 41 23 57s34 24 56 24s40.667 -8 56 -24s23 -35 23 -57v-432h-16zM52.998 81.001c0 -18 6.16699 -33.333 18.5 -46s27.166 -19 44.499 -19s32.166 6.33301 44.499 19s18.5 28 18.5 46v145
c0 17.333 -6.16699 32.5 -18.5 45.5s-27.166 19.5 -44.499 19.5s-32.166 -6.5 -44.499 -19.5s-18.5 -28.167 -18.5 -45.5v-145v0zM95.998 543.001h-18l57 69h20z" />
    <glyph glyph-name="acircumflex" unicode="&#xe2;" 
d="M179 0l-0.00195312 32.001c-16 -21.333 -37 -32 -63 -32c-22 0 -40.667 7.66699 -56 23s-23 34.666 -23 57.999v145c0 22 7.66699 41 23 57s34 24 56 24c13.333 0 25.333 -3 36 -9s19.667 -14 27 -24v158c0 17.333 -6.16699 32.5 -18.5 45.5s-27.166 19.5 -44.499 19.5
s-32.166 -6.5 -44.499 -19.5s-18.5 -28.167 -18.5 -45.5v-53h-16v53c0 22 7.66699 41 23 57s34 24 56 24s40.667 -8 56 -24s23 -35 23 -57v-432h-16zM52.998 81.001c0 -18 6.16699 -33.333 18.5 -46s27.166 -19 44.499 -19s32.166 6.33301 44.499 19s18.5 28 18.5 46v145
c0 17.333 -6.16699 32.5 -18.5 45.5s-27.166 19.5 -44.499 19.5s-32.166 -6.5 -44.499 -19.5s-18.5 -28.167 -18.5 -45.5v-145v0zM72.998 547.001h-20l58 64h11l58 -64h-20l-44 48z" />
    <glyph glyph-name="atilde" unicode="&#xe3;" 
d="M179 0l-0.00292969 32.0029c-16 -21.333 -37.333 -32 -64 -32c-21.333 0 -39.833 7.66699 -55.5 23s-23.5 34.666 -23.5 57.999v145c0 10.667 2.16699 21 6.5 31s10 18.667 17 26s15.333 13.166 25 17.499s19.834 6.5 30.501 6.5c13.333 0 25.5 -3 36.5 -9
s20.167 -14 27.5 -24v158c0 17.333 -6.33301 32.5 -19 45.5s-27.667 19.5 -45 19.5s-32.166 -6.5 -44.499 -19.5s-18.5 -28.167 -18.5 -45.5v-53h-16v53c0 11.333 2.16699 21.833 6.5 31.5s10 18.167 17 25.5s15.333 13.166 25 17.499s19.834 6.5 30.501 6.5
c22 0 40.667 -8 56 -24s23 -35 23 -57v-432h-15zM51.9971 81.0029c0 -18 6.16699 -33.333 18.5 -46s27.166 -19 44.499 -19s32.333 6.33301 45 19s19 28 19 46v145c0 17.333 -6.33301 32.5 -19 45.5s-27.667 19.5 -45 19.5s-32.166 -6.5 -44.499 -19.5
s-18.5 -28.167 -18.5 -45.5v-145v0zM199.997 578.003c-13.333 -14.667 -29.668 -22 -49.001 -22c-15.333 0 -29 5 -41 15c-10 8 -20.667 12 -32 12c-12.667 0 -25.667 -6.66699 -39 -20l-13 13c15.333 15.333 32.666 23 51.999 23c14.667 0 28.667 -5 42 -15
c4.66699 -3.33301 9.83398 -6 15.501 -8s10.834 -3 15.501 -3c6 0 12.5 1.5 19.5 4.5s13.833 7.83301 20.5 14.5l9 -7v-7z" />
    <glyph glyph-name="adieresis" unicode="&#xe4;" 
d="M179 0l-0.00195312 32.001c-16 -21.333 -37 -32 -63 -32c-22 0 -40.667 7.66699 -56 23s-23 34.666 -23 57.999v145c0 22 7.66699 41 23 57s34 24 56 24c13.333 0 25.333 -3 36 -9s19.667 -14 27 -24v158c0 17.333 -6.16699 32.5 -18.5 45.5s-27.166 19.5 -44.499 19.5
s-32.166 -6.5 -44.499 -19.5s-18.5 -28.167 -18.5 -45.5v-53h-16v53c0 22 7.66699 41 23 57s34 24 56 24s40.667 -8 56 -24s23 -35 23 -57v-432h-16zM52.998 81.001c0 -18 6.16699 -33.333 18.5 -46s27.166 -19 44.499 -19s32.166 6.33301 44.499 19s18.5 28 18.5 46v145
c0 17.333 -6.16699 32.5 -18.5 45.5s-27.166 19.5 -44.499 19.5s-32.166 -6.5 -44.499 -19.5s-18.5 -28.167 -18.5 -45.5v-145v0zM85.998 559.001v44h15v-44h-15zM130.998 559.001v44h15v-44h-15z" />
    <glyph glyph-name="aring" unicode="&#xe5;" 
d="M179 0l-0.00195312 32.001c-16 -21.333 -37 -32 -63 -32c-22 0 -40.667 7.66699 -56 23s-23 34.666 -23 57.999v145c0 22 7.66699 41 23 57s34 24 56 24c13.333 0 25.333 -3 36 -9s19.667 -14 27 -24v158c0 17.333 -6.16699 32.5 -18.5 45.5s-27.166 19.5 -44.499 19.5
s-32.166 -6.5 -44.499 -19.5s-18.5 -28.167 -18.5 -45.5v-53h-16v53c0 22 7.66699 41 23 57s34 24 56 24s40.667 -8 56 -24s23 -35 23 -57v-432h-16zM52.998 81.001c0 -18 6.16699 -33.333 18.5 -46s27.166 -19 44.499 -19s32.166 6.33301 44.499 19s18.5 28 18.5 46v145
c0 17.333 -6.16699 32.5 -18.5 45.5s-27.166 19.5 -44.499 19.5s-32.166 -6.5 -44.499 -19.5s-18.5 -28.167 -18.5 -45.5v-145v0zM168.998 577.001c0 -15.333 -5 -28.166 -15 -38.499s-22.667 -15.5 -38 -15.5s-27.833 5.16699 -37.5 15.5s-14.5 23.166 -14.5 38.499
s4.83301 28.166 14.5 38.499s22.167 15.5 37.5 15.5s28 -5.16699 38 -15.5s15 -23.166 15 -38.499zM151.998 577.001c0 10.667 -3.33301 19.5 -10 26.5s-15.334 10.5 -26.001 10.5c-10 0 -18.5 -3.5 -25.5 -10.5s-10.5 -15.833 -10.5 -26.5s3.5 -19.667 10.5 -27
s15.5 -11 25.5 -11c10.667 0 19.334 3.66699 26.001 11s10 16.333 10 27z" />
    <glyph glyph-name="ae" unicode="&#xe6;" horiz-adv-x="377" 
d="M339 81c0 -23.333 -7.83398 -42.6689 -23.501 -58.002s-34.167 -23 -55.5 -23c-16 0 -30.333 4.16699 -43 12.5s-22.334 19.166 -29.001 32.499c-6.66699 -13.333 -16.334 -24.166 -29.001 -32.499s-26.667 -12.5 -42 -12.5c-22 0 -40.667 7.66699 -56 23
s-23 34.666 -23 57.999v145c0 22 7.66699 41 23 57s34 24 56 24c12.667 0 24.5 -3 35.5 -9s20.167 -13.667 27.5 -23v162c-1.33301 16.667 -7.83301 30.834 -19.5 42.501s-26.167 17.5 -43.5 17.5s-32.166 -6.5 -44.499 -19.5s-18.5 -28.167 -18.5 -45.5v-53h-16v53
c0 22 7.66699 41 23 57s34 24 56 24c15.333 0 29.333 -4.33301 42 -13s22.334 -19.667 29.001 -33c6.66699 13.333 16.334 24.333 29.001 33s27 13 43 13c10.667 0 20.834 -2.16699 30.501 -6.5s18 -10.166 25 -17.499s12.667 -16 17 -26s6.5 -20.333 6.5 -31v-158h-143
v-198c1.33301 -17.333 8 -31.666 20 -42.999s26.667 -17 44 -17s32.166 6.33301 44.499 19s18.5 28 18.5 46v53h16v-53v0zM180.999 79.9971l-0.999023 1.00098v151c0 16 -6.33301 29.833 -19 41.5s-27.334 17.5 -44.001 17.5c-17.333 0 -32.166 -6.5 -44.499 -19.5
s-18.5 -28.167 -18.5 -45.5v-145c0 -18 6.16699 -33.333 18.5 -46s27.166 -19 44.499 -19s31.833 5.66699 43.5 17s18.167 25.666 19.5 42.999zM323 431.998c0 17.333 -6.16797 32.501 -18.501 45.501s-27.166 19.5 -44.499 19.5s-32 -5.83301 -44 -17.5
s-18.667 -25.834 -20 -42.501v-148h127v143z" />
    <glyph glyph-name="ccedilla" unicode="&#xe7;" 
d="M156 -37c0 -15.333 -5.83203 -28.168 -17.499 -38.501s-26.167 -15.5 -43.5 -15.5v15c13.333 0 24.5 3.83301 33.5 11.5s13.5 16.834 13.5 27.501c0 8 -3 15.5 -9 22.5s-13 11.833 -21 14.5c-20.667 1.33301 -38.334 9.66602 -53.001 24.999s-22 34 -22 56v351
c0 22 7.66699 41 23 57s34 24 56 24s40.667 -8 56 -24s23 -35 23 -57v-53h-16v53c0 17.333 -6.16699 32.5 -18.5 45.5s-27.166 19.5 -44.499 19.5s-32.166 -6.5 -44.499 -19.5s-18.5 -28.167 -18.5 -45.5v-351c0 -18 6.16699 -33.333 18.5 -46s27.166 -19 44.499 -19
s32.166 6.33301 44.499 19s18.5 28 18.5 46v53h16v-53c0 -19.333 -5.16699 -36.166 -15.5 -50.499s-24.166 -23.5 -41.499 -27.5c5.33301 -5.33301 9.66602 -11.5 12.999 -18.5s5 -14.167 5 -21.5z" />
    <glyph glyph-name="egrave" unicode="&#xe8;" 
d="M195 81c0 -23.333 -7.66504 -42.666 -22.998 -57.999s-34 -23 -56 -23s-40.667 7.66699 -56 23s-23 34.666 -23 57.999v351c0 22 7.66699 41 23 57s34 24 56 24s40.667 -8 56 -24s23 -35 23 -57v-158h-142v-193c0 -18 6.16699 -33.333 18.5 -46s27.166 -19 44.499 -19
s32.166 6.33301 44.499 19s18.5 28 18.5 46v53h16v-53v0zM53.002 289h125.998v143c0 17.333 -6.16699 32.5 -18.5 45.5s-27.166 19.5 -44.499 19.5s-32.166 -6.5 -44.499 -19.5s-18.5 -28.167 -18.5 -45.5v-143zM136 543l-59 69h20l57 -69h-18z" />
    <glyph glyph-name="eacute" unicode="&#xe9;" 
d="M195 81c0 -23.333 -7.66504 -42.666 -22.998 -57.999s-34 -23 -56 -23s-40.667 7.66699 -56 23s-23 34.666 -23 57.999v351c0 22 7.66699 41 23 57s34 24 56 24s40.667 -8 56 -24s23 -35 23 -57v-158h-142v-193c0 -18 6.16699 -33.333 18.5 -46s27.166 -19 44.499 -19
s32.166 6.33301 44.499 19s18.5 28 18.5 46v53h16v-53v0zM53.002 289h125.998v143c0 17.333 -6.16699 32.5 -18.5 45.5s-27.166 19.5 -44.499 19.5s-32.166 -6.5 -44.499 -19.5s-18.5 -28.167 -18.5 -45.5v-143zM96 543h-18l57 69h20z" />
    <glyph glyph-name="ecircumflex" unicode="&#xea;" 
d="M195 81c0 -23.333 -7.66504 -42.666 -22.998 -57.999s-34 -23 -56 -23s-40.667 7.66699 -56 23s-23 34.666 -23 57.999v351c0 22 7.66699 41 23 57s34 24 56 24s40.667 -8 56 -24s23 -35 23 -57v-158h-142v-193c0 -18 6.16699 -33.333 18.5 -46s27.166 -19 44.499 -19
s32.166 6.33301 44.499 19s18.5 28 18.5 46v53h16v-53v0zM53.002 289h125.998v143c0 17.333 -6.16699 32.5 -18.5 45.5s-27.166 19.5 -44.499 19.5s-32.166 -6.5 -44.499 -19.5s-18.5 -28.167 -18.5 -45.5v-143zM73 547h-20l58 64h11l58 -64h-20l-44 48z" />
    <glyph glyph-name="edieresis" unicode="&#xeb;" 
d="M195 81c0 -23.333 -7.66504 -42.666 -22.998 -57.999s-34 -23 -56 -23s-40.667 7.66699 -56 23s-23 34.666 -23 57.999v351c0 22 7.66699 41 23 57s34 24 56 24s40.667 -8 56 -24s23 -35 23 -57v-158h-142v-193c0 -18 6.16699 -33.333 18.5 -46s27.166 -19 44.499 -19
s32.166 6.33301 44.499 19s18.5 28 18.5 46v53h16v-53v0zM53.002 289h125.998v143c0 17.333 -6.16699 32.5 -18.5 45.5s-27.166 19.5 -44.499 19.5s-32.166 -6.5 -44.499 -19.5s-18.5 -28.167 -18.5 -45.5v-143zM131 559v44h15v-44h-15zM86 559v44h15v-44h-15z" />
    <glyph glyph-name="igrave" unicode="&#xec;" horiz-adv-x="88" 
d="M36 0v513h16v-513h-16zM64 543l-59 69h20l57 -69h-18z" />
    <glyph glyph-name="iacute" unicode="&#xed;" horiz-adv-x="88" 
d="M36 0v513h16v-513h-16zM24 543h-18l57 69h20z" />
    <glyph glyph-name="icircumflex" unicode="&#xee;" horiz-adv-x="88" 
d="M36 0v513h16v-513h-16zM1 547h-21l58 64h12l57 -64h-20l-43 48z" />
    <glyph glyph-name="idieresis" unicode="&#xef;" horiz-adv-x="88" 
d="M36 0v513h15v-513h-15zM58 559v44h16v-44h-16zM14 559v44h15v-44h-15z" />
    <glyph glyph-name="eth" unicode="&#xf0;" 
d="M195 81c0 -23.333 -7.66797 -42.666 -23.001 -57.999s-34 -23 -56 -23s-40.667 7.66699 -56 23s-23 34.666 -23 57.999v314c0 23.333 7.66699 42.666 23 57.999s34 23 56 23c17.333 0 32 -4.33301 44 -13c-5.33301 17.333 -11.166 34.5 -17.499 51.5l-18.5 51.5h-81v16
h76l-19.5 54.5c-7 19 -13.167 36.833 -18.5 53.5h16l39 -108h53v-16h-48l25 -71.5l25 -71.5c2.66699 -7.33301 4 -16.666 4 -27.999v-314v0zM52.999 81c0 -18 6.16699 -33.333 18.5 -46s27.166 -19 44.499 -19s32.166 6.33301 44.499 19s18.5 28 18.5 46v314
c0 18 -6.16699 33.333 -18.5 46s-27.166 19 -44.499 19s-32.166 -6.33301 -44.499 -19s-18.5 -28 -18.5 -46v-314v0z" />
    <glyph glyph-name="ntilde" unicode="&#xf1;" horiz-adv-x="245" 
d="M43 0l-0.00195312 512.999h16v-32c7.33301 9.33301 16.5 17 27.5 23s23.167 9 36.5 9c10.667 0 20.834 -2.16699 30.501 -6.5s18 -10.166 25 -17.499s12.667 -16 17 -26s6.5 -20.333 6.5 -31v-432h-16v432c0 17.333 -6.16699 32.5 -18.5 45.5s-27.166 19.5 -44.499 19.5
c-18 0 -33.167 -6.5 -45.5 -19.5s-18.5 -28.167 -18.5 -45.5v-432h-16zM206.998 577.999c-13.333 -14.667 -29.667 -22 -49 -22c-15.333 0 -29 5 -41 15c-10 8 -20.667 12 -32 12c-13.333 0 -26 -6.66699 -38 -20l-13 13c15.333 15.333 32.333 23 51 23
c14.667 0 28.667 -5 42 -15c4.66699 -3.33301 10 -6 16 -8s11.333 -3 16 -3c14 0 27 6.33301 39 19l9 -7v-7z" />
    <glyph glyph-name="ograve" unicode="&#xf2;" 
d="M195 81c0 -23.333 -7.66699 -42.666 -23 -57.999s-34 -23 -56 -23s-40.667 7.66699 -56 23s-23 34.666 -23 57.999v351c0 22 7.66699 41 23 57s34 24 56 24s40.667 -8 56 -24s23 -35 23 -57v-351v0zM53 81c0 -18 6.16699 -33.333 18.5 -46s27.166 -19 44.499 -19
s32.166 6.33301 44.499 19s18.5 28 18.5 46v351c0 17.333 -6.16699 32.5 -18.5 45.5s-27.166 19.5 -44.499 19.5s-32.166 -6.5 -44.499 -19.5s-18.5 -28.167 -18.5 -45.5v-351v0zM136 543l-59 69h20l57 -69h-18z" />
    <glyph glyph-name="oacute" unicode="&#xf3;" 
d="M195 81c0 -23.333 -7.66699 -42.666 -23 -57.999s-34 -23 -56 -23s-40.667 7.66699 -56 23s-23 34.666 -23 57.999v351c0 22 7.66699 41 23 57s34 24 56 24s40.667 -8 56 -24s23 -35 23 -57v-351v0zM53 81c0 -18 6.16699 -33.333 18.5 -46s27.166 -19 44.499 -19
s32.166 6.33301 44.499 19s18.5 28 18.5 46v351c0 17.333 -6.16699 32.5 -18.5 45.5s-27.166 19.5 -44.499 19.5s-32.166 -6.5 -44.499 -19.5s-18.5 -28.167 -18.5 -45.5v-351v0zM96 543h-18l57 69h20z" />
    <glyph glyph-name="ocircumflex" unicode="&#xf4;" 
d="M195 81c0 -23.333 -7.66699 -42.666 -23 -57.999s-34 -23 -56 -23s-40.667 7.66699 -56 23s-23 34.666 -23 57.999v351c0 22 7.66699 41 23 57s34 24 56 24s40.667 -8 56 -24s23 -35 23 -57v-351v0zM53 81c0 -18 6.16699 -33.333 18.5 -46s27.166 -19 44.499 -19
s32.166 6.33301 44.499 19s18.5 28 18.5 46v351c0 17.333 -6.16699 32.5 -18.5 45.5s-27.166 19.5 -44.499 19.5s-32.166 -6.5 -44.499 -19.5s-18.5 -28.167 -18.5 -45.5v-351v0zM73 547h-20l58 64h11l58 -64h-20l-44 48z" />
    <glyph glyph-name="otilde" unicode="&#xf5;" horiz-adv-x="245" 
d="M202 81c0 -23.333 -7.83398 -42.667 -23.501 -58s-34.167 -23 -55.5 -23c-22 0 -40.833 7.66699 -56.5 23s-23.5 34.666 -23.5 57.999v351c0 22 7.83301 41 23.5 57s34.5 24 56.5 24c10.667 0 20.834 -2.16699 30.501 -6.5s18 -10.166 25 -17.499s12.667 -16 17 -26
s6.5 -20.333 6.5 -31v-351v0zM58.999 80.999c0 -18 6.16699 -33.333 18.5 -46s27.5 -19 45.5 -19c17.333 0 32.166 6.33301 44.499 19s18.5 28 18.5 46v351c0 17.333 -6.16699 32.5 -18.5 45.5s-27.166 19.5 -44.499 19.5c-18 0 -33.167 -6.5 -45.5 -19.5
s-18.5 -28.167 -18.5 -45.5v-351v0zM206.999 577.999c-13.333 -14.667 -29.667 -22 -49 -22c-15.333 0 -29 5 -41 15c-10 8 -20.667 12 -32 12c-13.333 0 -26 -6.66699 -38 -20l-13 13c15.333 15.333 32.333 23 51 23c14.667 0 28.667 -5 42 -15
c4.66699 -3.33301 10 -6 16 -8s11.333 -3 16 -3c14 0 27 6.33301 39 19l9 -7v-7z" />
    <glyph glyph-name="odieresis" unicode="&#xf6;" 
d="M195 81c0 -23.333 -7.66699 -42.666 -23 -57.999s-34 -23 -56 -23s-40.667 7.66699 -56 23s-23 34.666 -23 57.999v351c0 22 7.66699 41 23 57s34 24 56 24s40.667 -8 56 -24s23 -35 23 -57v-351v0zM53 81c0 -18 6.16699 -33.333 18.5 -46s27.166 -19 44.499 -19
s32.166 6.33301 44.499 19s18.5 28 18.5 46v351c0 17.333 -6.16699 32.5 -18.5 45.5s-27.166 19.5 -44.499 19.5s-32.166 -6.5 -44.499 -19.5s-18.5 -28.167 -18.5 -45.5v-351v0zM131 559v44h15v-44h-15zM86 559v44h15v-44h-15z" />
    <glyph glyph-name="divide" unicode="&#xf7;" horiz-adv-x="224" 
d="M37 233v15h150v-15h-150zM102 91v58h16v-58h-16zM102 335v58h16v-58h-16z" />
    <glyph glyph-name="oslash" unicode="&#xf8;" 
d="M195 81c0 -23.333 -7.66602 -42.666 -22.999 -57.999s-34 -23 -56 -23c-10.667 0 -20.334 2 -29.001 6s-16.667 9 -24 15c-1.33301 -6 -3 -12.333 -5 -19s-3.66699 -12.667 -5 -18h-17l14 51c-8.66699 12.667 -13 28 -13 46v351c0 22 7.66699 41 23 57s34 24 56 24
c10.667 0 20.5 -2 29.5 -6s17.167 -9 24.5 -15c1.33301 6.66699 3 13.667 5 21s3.66699 13.666 5 18.999h15l-15 -54c10 -12.667 15 -28 15 -46v-351v0zM175.001 456l-53.999 -209.499l-54 -208.5c6 -6.66699 13.167 -12 21.5 -16s17.5 -6 27.5 -6
c17.333 0 32.166 6.33301 44.499 19s18.5 28 18.5 46v351c0 5.33301 -0.166992 9.66602 -0.5 12.999s-1.5 7 -3.5 11zM53.002 81.001c0 -8.66699 0.999023 -16.333 2.99902 -23l54.5 208l54.5 208c-6 6.66699 -13.333 12.167 -22 16.5s-17.667 6.5 -27 6.5
c-17.333 0 -32.166 -6.5 -44.499 -19.5s-18.5 -28.167 -18.5 -45.5v-351v0z" />
    <glyph glyph-name="ugrave" unicode="&#xf9;" 
d="M195 81c0 -23.333 -7.66504 -42.666 -22.998 -57.999s-34 -23 -56 -23s-40.667 7.66699 -56 23s-23 34.666 -23 57.999v432h16v-432c0 -18 6.16699 -33.333 18.5 -46s27.166 -19 44.499 -19s32.166 6.33301 44.499 19s18.5 28 18.5 46v432h16v-432v0zM136.002 543l-59 69
h20l57 -69h-18z" />
    <glyph glyph-name="uacute" unicode="&#xfa;" 
d="M195 81c0 -23.333 -7.66504 -42.666 -22.998 -57.999s-34 -23 -56 -23s-40.667 7.66699 -56 23s-23 34.666 -23 57.999v432h16v-432c0 -18 6.16699 -33.333 18.5 -46s27.166 -19 44.499 -19s32.166 6.33301 44.499 19s18.5 28 18.5 46v432h16v-432v0zM96.002 543h-18
l57 69h20z" />
    <glyph glyph-name="ucircumflex" unicode="&#xfb;" 
d="M195 81c0 -23.333 -7.66504 -42.666 -22.998 -57.999s-34 -23 -56 -23s-40.667 7.66699 -56 23s-23 34.666 -23 57.999v432h16v-432c0 -18 6.16699 -33.333 18.5 -46s27.166 -19 44.499 -19s32.166 6.33301 44.499 19s18.5 28 18.5 46v432h16v-432v0zM73.002 547h-20
l58 64h11l58 -64h-20l-44 48z" />
    <glyph glyph-name="udieresis" unicode="&#xfc;" 
d="M195 81c0 -23.333 -7.66504 -42.666 -22.998 -57.999s-34 -23 -56 -23s-40.667 7.66699 -56 23s-23 34.666 -23 57.999v432h16v-432c0 -18 6.16699 -33.333 18.5 -46s27.166 -19 44.499 -19s32.166 6.33301 44.499 19s18.5 28 18.5 46v432h16v-432v0zM131.002 559v44h15
v-44h-15zM86.002 559v44h15v-44h-15z" />
    <glyph glyph-name="yacute" unicode="&#xfd;" 
d="M195 -97c0 -22 -7.66309 -40.832 -22.9961 -56.499s-34 -23.5 -56 -23.5s-40.667 8.33301 -56 25s-23 36.667 -23 60h16c0 -19.333 6.16699 -35.833 18.5 -49.5s27.166 -20.5 44.499 -20.5s32.166 6.5 44.499 19.5s18.5 28.167 18.5 45.5v129
c-7.33301 -9.33301 -16.5 -17 -27.5 -23s-22.833 -9 -35.5 -9c-22 0 -40.667 7.66699 -56 23s-23 34.666 -23 57.999v432h16v-432c0 -18 6.16699 -33.333 18.5 -46s27.166 -19 44.499 -19s32.166 6.33301 44.499 19s18.5 28 18.5 46v432h16v-610v0zM103.004 543.001h-20
l60 69h20z" />
    <glyph glyph-name="thorn" unicode="&#xfe;" 
d="M195 81c0 -23.333 -7.66699 -42.666 -23 -57.999s-34 -23 -56 -23c-12.667 0 -24.5 3 -35.5 9s-20.167 13.667 -27.5 23v-209h-16v859h16v-202c7.33301 9.33301 16.5 17.166 27.5 23.499s22.833 9.5 35.5 9.5c22 0 40.667 -8 56 -24s23 -35 23 -57v-351v0zM53 81
c0 -18 6.16699 -33.333 18.5 -46s27.166 -19 44.499 -19s32.166 6.33301 44.499 19s18.5 28 18.5 46v351c0 17.333 -6.16699 32.5 -18.5 45.5s-27.166 19.5 -44.499 19.5s-32.166 -6.5 -44.499 -19.5s-18.5 -28.167 -18.5 -45.5v-351v0z" />
    <glyph glyph-name="ydieresis" unicode="&#xff;" 
d="M195 -97c0 -22 -7.66309 -40.832 -22.9961 -56.499s-34 -23.5 -56 -23.5s-40.667 8.33301 -56 25s-23 36.667 -23 60h16c0 -19.333 6.16699 -35.833 18.5 -49.5s27.166 -20.5 44.499 -20.5s32.166 6.5 44.499 19.5s18.5 28.167 18.5 45.5v129
c-7.33301 -9.33301 -16.5 -17 -27.5 -23s-22.833 -9 -35.5 -9c-22 0 -40.667 7.66699 -56 23s-23 34.666 -23 57.999v432h16v-432c0 -18 6.16699 -33.333 18.5 -46s27.166 -19 44.499 -19s32.166 6.33301 44.499 19s18.5 28 18.5 46v432h16v-610v0zM138.004 559.001v44h15
v-44h-15zM93.0039 559.001v44h16v-44h-16z" />
    <glyph glyph-name="OE" unicode="&#x152;" horiz-adv-x="363" 
d="M117 0c-22 0 -40.667 7.66699 -56 23s-23 34.666 -23 57.999v528c0 22.667 7.66699 41.834 23 57.501s34 23.5 56 23.5h208v-16h-135v-314h115v-15h-115v-329h135v-16h-208v0zM54 81c0 -18 6.16699 -33.333 18.5 -46s27.166 -19 44.499 -19h58v658h-58
c-17.333 0 -32.166 -6.33301 -44.499 -19s-18.5 -28 -18.5 -46v-528v0z" />
    <glyph glyph-name="oe" unicode="&#x153;" horiz-adv-x="377" 
d="M260 0c-16 0 -30.333 4.16602 -43 12.499s-22.334 19.166 -29.001 32.499c-6.66699 -13.333 -16.334 -24.166 -29.001 -32.499s-26.667 -12.5 -42 -12.5c-22 0 -40.667 7.66699 -56 23s-23 34.666 -23 57.999v351c0 22 7.66699 41 23 57s34 24 56 24
c15.333 0 29.333 -4.5 42 -13.5s22.334 -20.167 29.001 -33.5c6.66699 14 16.334 25.333 29.001 34s27 13 43 13c10.667 0 20.834 -2.16699 30.501 -6.5s18 -10.166 25 -17.499s12.667 -16 17 -26s6.5 -20.333 6.5 -31v-158h-143v-193c0 -18 6.16699 -33.333 18.5 -46
s27.5 -19 45.5 -19c17.333 0 32.166 6.33301 44.499 19s18.5 28 18.5 46v53h16v-53c0 -23.333 -7.83301 -42.666 -23.5 -57.999s-34.167 -23 -55.5 -23zM54 80.999c0 -18 6.16699 -33.333 18.5 -46s27.166 -19 44.499 -19s32.166 6.33301 44.499 19s18.5 28 18.5 46v351
c0 17.333 -6.16699 32.5 -18.5 45.5s-27.166 19.5 -44.499 19.5s-32.166 -6.5 -44.499 -19.5s-18.5 -28.167 -18.5 -45.5v-351v0zM196 288.999h126.999v143c0 17.333 -6.16699 32.5 -18.5 45.5s-27.166 19.5 -44.499 19.5c-18 0 -33.167 -6.5 -45.5 -19.5
s-18.5 -28.167 -18.5 -45.5v-143z" />
    <glyph glyph-name="Scaron" unicode="&#x160;" 
d="M37 134h16v-53c0 -18 6.16699 -33.333 18.5 -46s27.166 -19 44.499 -19s32.166 6.33301 44.499 19s18.5 28 18.5 46v201c0 10 -2.33301 19.167 -7 27.5s-10.667 15.833 -18 22.5c-3.33301 3.33301 -8.16602 6.5 -14.499 9.5l-19.5 9.5h1h-2c-0.666992 0 -1 0.333008 -1 1
c-1.33301 0.666992 -2.66602 1.16699 -3.99902 1.5s-2.66602 0.833008 -3.99902 1.5v-1c-11.333 4.66699 -19.833 8.66699 -25.5 12s-12.167 7.66602 -19.5 12.999c-8.66699 7.33301 -15.5 16.166 -20.5 26.499s-7.5 22.166 -7.5 35.499v168
c0 22.667 7.66699 41.834 23 57.501s34 23.5 56 23.5s40.667 -7.83301 56 -23.5s23 -34.834 23 -57.501v-53h-16v53c0 18 -6.16699 33.333 -18.5 46s-27.166 19 -44.499 19s-32.166 -6.33301 -44.499 -19s-18.5 -28 -18.5 -46v-168c0 -21.333 7.33301 -38.333 22 -51
c4 -4 8.66699 -7.16699 14 -9.5s11.666 -4.83301 18.999 -7.5c2 -1.33301 4 -2.16602 6 -2.49902s4 -1.16602 6 -2.49902v1c9.33301 -4 17.166 -7.66699 23.499 -11s13.166 -7.66602 20.499 -12.999c9.33301 -7.33301 16.833 -16.333 22.5 -27s8.5 -22.667 8.5 -36v-201
c0 -23.333 -7.66699 -42.666 -23 -57.999s-34 -23 -56 -23s-40.667 7.66699 -56 23s-23 34.666 -23 57.999v53zM111 714l-58.001 64h20l43 -47l22.5 23c7.66699 8 14.834 16 21.501 24h20l-58 -64h-11z" />
    <glyph glyph-name="scaron" unicode="&#x161;" 
d="M37 133l16.001 0.000976562v-53c0 -18 6.16699 -33.333 18.5 -46s27.166 -19 44.499 -19s32.166 6.33301 44.499 19s18.5 28 18.5 46v106c0 10 -2.33301 19.333 -7 28s-10.667 16.334 -18 23.001c-3.33301 3.33301 -8.16602 6.33301 -14.499 9s-12.833 5.66699 -19.5 9h1
h-2c-0.666992 0 -1 0.333008 -1 1c-1.33301 0.666992 -2.66602 1.16699 -3.99902 1.5s-2.66602 0.833008 -3.99902 1.5v-1c-11.333 4.66699 -19.833 8.66699 -25.5 12s-12.167 7.66602 -19.5 12.999c-8.66699 7.33301 -15.5 16.166 -20.5 26.499s-7.5 22.166 -7.5 35.499v87
c0 22 7.66699 41 23 57s34 24 56 24s40.667 -8 56 -24s23 -35 23 -57v-53h-16v53c0 17.333 -6.16699 32.5 -18.5 45.5s-27.166 19.5 -44.499 19.5s-32.166 -6.5 -44.499 -19.5s-18.5 -28.167 -18.5 -45.5v-87c0 -20.667 7.33301 -37.334 22 -50.001
c5.33301 -4 11.166 -7.66699 17.499 -11s13.166 -6.66602 20.499 -9.99902c1.33301 -0.666992 3.16602 -1.5 5.49902 -2.5s4.16602 -1.83301 5.49902 -2.5c-0.666992 0 1 -0.333008 5 -1l18 -9c5.33301 -2.66699 11 -6.33398 17 -11.001
c9.33301 -7.33301 16.833 -16.166 22.5 -26.499s8.5 -22.166 8.5 -35.499v-106c0 -22.667 -7.66699 -41.834 -23 -57.501s-34 -23.5 -56 -23.5s-40.667 7.83301 -56 23.5s-23 34.834 -23 57.501v53zM111.001 547.001l-58.001 64h20l43 -47l22.5 23.5
c7.66699 7.66699 14.834 15.5 21.501 23.5h20l-58 -64h-11z" />
    <glyph glyph-name="Ydieresis" unicode="&#x178;" horiz-adv-x="186" 
d="M85 0v323l-35.5 184l-35.5 183h15l64 -325c11.333 54 22 108.167 32 162.5s20.667 108.5 32 162.5h15l-71 -367v-323h-16zM107 724v45h16v-45h-16zM63 724v45h15v-45h-15z" />
    <glyph glyph-name="florin" unicode="&#x192;" horiz-adv-x="180" 
d="M28 -61c-1.33301 -11.333 -4.83203 -21.833 -10.499 -31.5s-12.834 -18 -21.501 -25s-18.334 -12.667 -29.001 -17s-22 -6.5 -34 -6.5l1 16c19.333 0 36.666 6.33301 51.999 19s24.333 28.334 27 47.001l78 559h-34l1 15h35l6.5 47.5l6.5 47.5
c2 10.667 5.83301 21 11.5 31s12.834 18.5 21.501 25.5s18.334 12.667 29.001 17s21.667 6.5 33 6.5l-1 -16c-18.667 0 -35.667 -6.33301 -51 -19s-24.333 -28.334 -27 -47.001c-2 -16 -4.33301 -31.5 -7 -46.5s-5 -30.5 -7 -46.5h44l-1 -15h-45l-39 -280.5z" />
    <glyph glyph-name="circumflex" unicode="&#x2c6;" horiz-adv-x="189" 
d="M51 620h-20l58 65h11l58 -65h-20l-44 48z" />
    <glyph glyph-name="tilde" unicode="&#x2dc;" horiz-adv-x="245" 
d="M207 667c-14 -14 -29.9971 -21 -47.9971 -21c-15.333 0 -29.333 5 -42 15c-9.33301 7.33301 -20 11 -32 11c-12.667 0 -25.334 -6.33301 -38.001 -19l-13 12c15.333 15.333 32.333 23 51 23c15.333 0 29.666 -5 42.999 -15c9.33301 -6.66699 19.666 -10 30.999 -10
c14.667 0 27.667 6 39 18l9 -7v-7z" />
    <glyph glyph-name="endash" unicode="&#x2013;" horiz-adv-x="263" 
d="M37 233v15h189v-15h-189z" />
    <glyph glyph-name="emdash" unicode="&#x2014;" horiz-adv-x="321" 
d="M38 233v15h244v-15h-244z" />
    <glyph glyph-name="quoteleft" unicode="&#x2018;" horiz-adv-x="110" 
d="M52 652v-52l-16 -1v56l23 57h18z" />
    <glyph glyph-name="quoteright" unicode="&#x2019;" horiz-adv-x="110" 
d="M51 600h-17l24 61v51h16v-55z" />
    <glyph glyph-name="quotesinglbase" unicode="&#x201a;" horiz-adv-x="110" 
d="M51 -54h-18l25 61v51h16v-55z" />
    <glyph glyph-name="quotedblleft" unicode="&#x201c;" horiz-adv-x="165" 
d="M52 652v-53h-15v56l22 57h18zM107 652v-52l-16 -1v56l23 57h17z" />
    <glyph glyph-name="quotedblright" unicode="&#x201d;" horiz-adv-x="165" 
d="M106 600h-17l24 61v51h15v-55zM51 600h-16l24 61v51h15v-55z" />
    <glyph glyph-name="quotedblbase" unicode="&#x201e;" horiz-adv-x="163" 
d="M104 -54h-18l25 61v51h15v-55zM51 -54h-17l24 61v51h16v-55z" />
    <glyph glyph-name="dagger" unicode="&#x2020;" horiz-adv-x="192" 
d="M88 0v571h-51v16h51v104h16v-104h51v-16h-51v-571h-16z" />
    <glyph glyph-name="daggerdbl" unicode="&#x2021;" horiz-adv-x="192" 
d="M104 105v-105h-16v105h-51v15h51v451h-51v16h51v104h16v-104h51v-16h-51v-451h51v-15h-51z" />
    <glyph glyph-name="bullet" unicode="&#x2022;" horiz-adv-x="104" 
d="M36 343v58h32v-58h-32z" />
    <glyph glyph-name="ellipsis" unicode="&#x2026;" horiz-adv-x="202" 
d="M149 0v58h16v-58h-16zM37 0v58h16v-58h-16zM94 0v58h16v-58h-16z" />
    <glyph glyph-name="perthousand" unicode="&#x2030;" horiz-adv-x="521" 
d="M482 71c0 -19.333 -6.5 -36 -19.5 -50s-28.833 -21 -47.5 -21s-34.334 7 -47.001 21s-19 30.667 -19 50v107c0 20.667 6.33301 37.834 19 51.501s28.334 20.5 47.001 20.5s34.5 -6.83301 47.5 -20.5s19.5 -30.834 19.5 -51.501v-107v0zM171 502
c0 -20.667 -6.16699 -37.834 -18.5 -51.501s-28.166 -20.5 -47.499 -20.5c-18 0 -33.5 6.83301 -46.5 20.5s-19.5 30.834 -19.5 51.501v108c0 19.333 6.5 36 19.5 50s28.5 21 46.5 21c19.333 0 35.166 -7 47.499 -21s18.5 -30.667 18.5 -50v-108v0zM332 71
c0 -19.333 -6.33301 -36 -19 -50s-28.334 -21 -47.001 -21s-34.334 7 -47.001 21s-19 30.667 -19 50v107c0 20.667 6.33301 37.834 19 51.501s28.334 20.5 47.001 20.5s34.334 -6.83301 47.001 -20.5s19 -30.834 19 -51.501v-107v0zM54 502c0 -15.333 5 -28.5 15 -39.5
s22 -16.5 36 -16.5c14.667 0 27 5.5 37 16.5s15 24.167 15 39.5v108c0 15.333 -5 28.5 -15 39.5s-22.333 16.5 -37 16.5c-14 0 -26 -5.5 -36 -16.5s-15 -24.167 -15 -39.5v-108v0zM215 71c0 -15.333 4.83301 -28.5 14.5 -39.5s21.834 -16.5 36.501 -16.5s27 5.5 37 16.5
s15 24.167 15 39.5v107c0 16 -5 29.667 -15 41s-22.333 17 -37 17s-26.834 -5.66699 -36.501 -17s-14.5 -25 -14.5 -41v-107v0zM364 71c0 -15.333 5 -28.5 15 -39.5s22 -16.5 36 -16.5s26.167 5.5 36.5 16.5s15.5 24.167 15.5 39.5v107c0 16 -5.16699 29.667 -15.5 41
s-22.5 17 -36.5 17s-26 -5.66699 -36 -17s-15 -25 -15 -41v-107v0zM117 0h-16l146 674h15z" />
    <glyph glyph-name="guilsinglleft" unicode="&#x2039;" horiz-adv-x="152" 
d="M100 93l-63 119l60 121l20 -1l-63 -120l32.5 -59.5c11.667 -21 22.167 -40.833 31.5 -59.5h-18z" />
    <glyph glyph-name="guilsinglright" unicode="&#x203a;" horiz-adv-x="152" 
d="M52 93h-18.001l64 119l-32 60c-11.333 20.667 -21.666 40.667 -30.999 60l18 1l62 -121z" />
    <glyph glyph-name="Euro" unicode="&#x20ac;" 
d="M195 81c0 -23.333 -7.66699 -42.666 -23 -57.999s-34 -23 -56 -23s-40.667 7.66699 -56 23s-23 34.666 -23 57.999v528c0 22.667 7.66699 41.834 23 57.501s34 23.5 56 23.5s40.667 -7.83301 56 -23.5s23 -34.834 23 -57.501v-53h-16v53c0 18 -6.16699 33.333 -18.5 46
s-27.166 19 -44.499 19s-32.166 -6.33301 -44.499 -19s-18.5 -28 -18.5 -46v-183h121v-16h-121v-104h103v-15h-103v-210c0 -18 6.16699 -33.333 18.5 -46s27.166 -19 44.499 -19s32.166 6.33301 44.499 19s18.5 28 18.5 46v53h16v-53v0z" />
    <glyph glyph-name="trademark" unicode="&#x2122;" horiz-adv-x="386" 
d="M174 371l-0.00195312 278h15l72 -246l36.5 123.5l36.5 122.5h14v-278h-15v222c-11.333 -36.667 -22.166 -73.667 -32.499 -111s-21.166 -74 -32.499 -110h-14l-64 218v-219h-16zM98.998 370v304h-61v16h137v-16h-60v-304h-16z" />
    <glyph glyph-name=".null" horiz-adv-x="0" 
 />
    <glyph glyph-name="nonmarkingreturn" horiz-adv-x="179" 
 />
    <glyph glyph-name="AEacute" horiz-adv-x="366" 
d="M195 0v345h-63l-40 -172.5l-39 -172.5h-16l159 690h131v-16h-116v-314h97v-15h-97v-329h116v-16h-132zM136 360h59v254zM244 710h-21l59 68h20z" />
    <glyph glyph-name="Alpha" horiz-adv-x="190" 
d="M61 282c-4 -46 -8.5 -93 -13.5 -141l-14.5 -141h-17l72 690h15l71 -690h-15l-29 282h-69zM129 298l-9 82c-2.66699 24.667 -5.16699 49 -7.5 73s-5 48.5 -8 73.5s-5.83301 52.5 -8.5 82.5l-16.5 -155l-16.5 -156h66z" />
    <glyph glyph-name="Aogonek" horiz-adv-x="190" 
d="M187 -77c-18.667 -5.33301 -33.168 -5.16699 -43.501 0.5s-15.166 16.167 -14.499 31.5c0 5.33301 0.833008 10.166 2.5 14.499s4.16699 8.83301 7.5 13.5c1.33301 2 3 4.16699 5 6.5s3.66699 4.5 5 6.5l5 6.5c1.33301 1.66699 2.66602 3.16699 3.99902 4.5
c-5.33301 47.333 -10.166 93.166 -14.499 137.499l-13.5 137.5h-69c-5.33301 -46 -10.166 -93 -14.499 -141s-9.16602 -95 -14.499 -141h-17l72 690h15l71 -686c-2.66699 -4 -5.33398 -7.66699 -8.00098 -11c-2 -3.33301 -4.33301 -6.66602 -7 -9.99902l-7 -9
c-2.66699 -3.33301 -4.83398 -6.5 -6.50098 -9.5s-2.5 -6.16699 -2.5 -9.5c0 -10 4.83301 -16.167 14.5 -18.5s21.167 -1.16602 34.5 3.50098v-12zM127.999 297.999l-9 82c-2.66699 24.667 -5.16699 49 -7.5 73s-5 48.5 -8 73.5s-5.83301 52.5 -8.5 82.5l-16 -155l-16 -156
h65z" />
    <glyph glyph-name="Beta" horiz-adv-x="225" 
d="M37 0l-0.000976562 689.998h72c10.667 0 20.834 -2.16699 30.501 -6.5s18 -10.166 25 -17.499s12.667 -15.833 17 -25.5s6.5 -20.167 6.5 -31.5v-184c0 -16 -4.16699 -30.333 -12.5 -43s-19.166 -22.667 -32.499 -30c13.333 -7.33301 24.166 -17.333 32.499 -30
s12.5 -27 12.5 -43v-198c0 -23.333 -7.83301 -42.666 -23.5 -57.999s-34.167 -23 -55.5 -23h-72zM108.999 15.998c17.333 0 32.166 6.33301 44.499 19s18.5 28 18.5 46v198c0 18 -6.16699 33.333 -18.5 46s-27.166 19 -44.499 19h-56v-328h56zM108.999 359.998
c17.333 0 32.166 6.16699 44.499 18.5s18.5 27.833 18.5 46.5v184c0 18 -6.16699 33.333 -18.5 46s-27.166 19 -44.499 19h-56v-314h56z" />
    <glyph glyph-name="Cacute" 
d="M195 81c0 -23.333 -7.66699 -42.666 -23 -57.999s-34 -23 -56 -23s-40.667 7.66699 -56 23s-23 34.666 -23 57.999v528c0 22.667 7.66699 41.834 23 57.501s34 23.5 56 23.5s40.667 -7.83301 56 -23.5s23 -34.834 23 -57.501v-53h-16v53c0 18 -6.16699 33.333 -18.5 46
s-27.166 19 -44.499 19s-32.166 -6.33301 -44.499 -19s-18.5 -28 -18.5 -46v-528c0 -18 6.16699 -33.333 18.5 -46s27.166 -19 44.499 -19s32.166 6.33301 44.499 19s18.5 28 18.5 46v53h16v-53v0zM96 710h-19l58 68h20z" />
    <glyph glyph-name="Ccaron" 
d="M195 81c0 -23.333 -7.66699 -42.666 -23 -57.999s-34 -23 -56 -23s-40.667 7.66699 -56 23s-23 34.666 -23 57.999v528c0 22.667 7.66699 41.834 23 57.501s34 23.5 56 23.5s40.667 -7.83301 56 -23.5s23 -34.834 23 -57.501v-53h-16v53c0 18 -6.16699 33.333 -18.5 46
s-27.166 19 -44.499 19s-32.166 -6.33301 -44.499 -19s-18.5 -28 -18.5 -46v-528c0 -18 6.16699 -33.333 18.5 -46s27.166 -19 44.499 -19s32.166 6.33301 44.499 19s18.5 28 18.5 46v53h16v-53v0zM110 714l-58.001 64h20l44 -47l22.5 23c7.66699 8 14.834 16 21.501 24h21
l-60 -64h-11z" />
    <glyph glyph-name="Ccircumflex" 
d="M195 81c0 -23.333 -7.66699 -42.666 -23 -57.999s-34 -23 -56 -23s-40.667 7.66699 -56 23s-23 34.666 -23 57.999v528c0 22.667 7.66699 41.834 23 57.501s34 23.5 56 23.5s40.667 -7.83301 56 -23.5s23 -34.834 23 -57.501v-53h-16v53c0 18 -6.16699 33.333 -18.5 46
s-27.166 19 -44.499 19s-32.166 -6.33301 -44.499 -19s-18.5 -28 -18.5 -46v-528c0 -18 6.16699 -33.333 18.5 -46s27.166 -19 44.499 -19s32.166 6.33301 44.499 19s18.5 28 18.5 46v53h16v-53v0zM72 714h-21l60 64h10l60 -64h-21l-44 47z" />
    <glyph glyph-name="Cdot" 
d="M195 81c0 -23.333 -7.66699 -42.666 -23 -57.999s-34 -23 -56 -23s-40.667 7.66699 -56 23s-23 34.666 -23 57.999v528c0 22.667 7.66699 41.834 23 57.501s34 23.5 56 23.5s40.667 -7.83301 56 -23.5s23 -34.834 23 -57.501v-53h-16v53c0 18 -6.16699 33.333 -18.5 46
s-27.166 19 -44.499 19s-32.166 -6.33301 -44.499 -19s-18.5 -28 -18.5 -46v-528c0 -18 6.16699 -33.333 18.5 -46s27.166 -19 44.499 -19s32.166 6.33301 44.499 19s18.5 28 18.5 46v53h16v-53v0zM108 724v45h16v-45h-16z" />
    <glyph glyph-name="Dcaron" horiz-adv-x="225" 
d="M37 690l72 0.000976562c22 0 40.667 -8 56 -24s23 -35 23 -57v-528c0 -22.667 -7.66699 -41.834 -23 -57.501s-34 -23.5 -56 -23.5h-72v690zM109 16.001c18 0 33 6.5 45 19.5s18 28.167 18 45.5v528c0 17.333 -6 32.5 -18 45.5s-27 19.5 -45 19.5h-56v-658h56z
M107 714.001l-58 64h20l43 -47l22 23l21 24h21l-58 -64h-11z" />
    <glyph glyph-name="Delta" horiz-adv-x="190" 
d="M88 690h15l71 -690h-158zM157 16l-15.5 151.5l-15 144l-15 144l-15.5 152.5l-31 -295.5l-31 -296.5h123z" />
    <glyph glyph-name="Dslash" horiz-adv-x="225" 
d="M37 690l72 0.000976562c22 0 40.667 -8 56 -24s23 -35 23 -57v-528c0 -22.667 -7.66699 -41.834 -23 -57.501s-34 -23.5 -56 -23.5h-72v690zM109 16.001c18 0 33 6.5 45 19.5s18 28.167 18 45.5v528c0 17.333 -6 32.5 -18 45.5s-27 19.5 -45 19.5h-56v-314h56v-15h-56
v-329h56z" />
    <glyph glyph-name="Ebreve" horiz-adv-x="224" 
d="M37 0v690h150v-16h-134v-314h114v-15h-114v-329h134v-16h-150zM186 773c0 -22 -6.83301 -38.667 -20.5 -50s-31.5 -17 -53.5 -17s-39.833 6 -53.5 18s-20.5 30 -20.5 54h15c0 -19.333 5.5 -33.5 16.5 -42.5s25.167 -13.5 42.5 -13.5s31.333 4.5 42 13.5
s16 23.167 16 42.5h11z" />
    <glyph glyph-name="Ecaron" horiz-adv-x="224" 
d="M37 0v690h150v-16h-134v-314h114v-15h-114v-329h134v-16h-150zM107 714l-59.999 64.001h21l44 -48c7.33301 7.33301 14.666 15.166 21.999 23.499l21 24.5h22l-60 -64h-10z" />
    <glyph glyph-name="Edot" horiz-adv-x="224" 
d="M37 0v690h150v-16h-134v-314h114v-15h-114v-329h134v-16h-150zM104 724v45h16v-45h-16z" />
    <glyph glyph-name="Emacron" horiz-adv-x="224" 
d="M37 0v690h150v-16h-134v-314h114v-15h-114v-329h134v-16h-150zM56 738v16h112v-16h-112z" />
    <glyph glyph-name="Eng" horiz-adv-x="233" 
d="M195 82l0.998047 -1.00098c0 -23.333 -8.33301 -42.666 -25 -57.999s-36.667 -23 -60 -23v16c19.333 0 35.5 6.33301 48.5 19s19.5 28 19.5 46v529c0 18 -6.16699 33.333 -18.5 46s-27.166 19 -44.499 19s-32.166 -6.33301 -44.499 -19s-18.5 -28 -18.5 -46v-610h-16v690
h16v-31c7.33301 9.33301 16.5 16.833 27.5 22.5s22.833 8.5 35.5 8.5c22 0 40.667 -7.66699 56 -23s23 -34.333 23 -57v-528z" />
    <glyph glyph-name="Eogonek" horiz-adv-x="224" 
d="M166 -77c-18 -5.33301 -32.3311 -5.16797 -42.998 0.499023s-15.667 16.167 -15 31.5c0 9.33301 3.66699 18.666 11 27.999c1.33301 2 3.83301 5.33301 7.5 10s5.16699 6.33398 4.5 5.00098l1 2h-95v690h150v-16h-134v-314h114v-15h-114v-329h134v-16h-37
c-1.33301 -2.66699 -4 -6.66699 -8 -12s-7.66699 -10 -11 -14c-2.66699 -3.33301 -4.83398 -6.5 -6.50098 -9.5s-2.5 -6.16699 -2.5 -9.5c0 -10 4.66699 -16.167 14 -18.5s20.666 -1.16602 33.999 3.50098v-12z" />
    <glyph glyph-name="Epsilon" horiz-adv-x="224" 
d="M37 0v690h150v-16h-134v-314h114v-15h-114v-329h134v-16h-150z" />
    <glyph glyph-name="Eta" horiz-adv-x="231" 
d="M37 0v690h16v-330h126v330h15v-690h-15v345h-126v-345h-16z" />
    <glyph glyph-name="Gamma" horiz-adv-x="224" 
d="M37 0v690h150v-16h-134v-674h-16z" />
    <glyph glyph-name="Gbreve" 
d="M195 81c0 -23.333 -7.66699 -42.666 -23 -57.999s-34 -23 -56 -23s-40.667 7.66699 -56 23s-23 34.666 -23 57.999v528c0 22.667 7.66699 41.834 23 57.501s34 23.5 56 23.5s40.667 -7.83301 56 -23.5s23 -34.834 23 -57.501v-53h-16v53c0 18 -6.16699 33.333 -18.5 46
s-27.166 19 -44.499 19s-32.166 -6.33301 -44.499 -19s-18.5 -28 -18.5 -46v-528c0 -18 6.16699 -33.333 18.5 -46s27.166 -19 44.499 -19s32.166 6.33301 44.499 19s18.5 28 18.5 46v259h-67v15h83v-274v0zM190 773c0 -22 -6.83301 -38.667 -20.5 -50s-31.5 -17 -53.5 -17
s-39.833 6 -53.5 18s-20.5 30 -20.5 54h15c0 -19.333 5.5 -33.5 16.5 -42.5s25.167 -13.5 42.5 -13.5s31.5 4.5 42.5 13.5s16.5 23.167 16.5 42.5h10z" />
    <glyph glyph-name="Gcedilla" 
d="M156 -37c0 -15.333 -5.83203 -28.168 -17.499 -38.501s-26.167 -15.5 -43.5 -15.5v15c13.333 0 24.5 3.83301 33.5 11.5s13.5 16.834 13.5 27.501c0 8 -3 15.5 -9 22.5s-13 11.833 -21 14.5c-20.667 1.33301 -38.334 9.66602 -53.001 24.999s-22 34 -22 56v528
c0 22.667 7.66699 41.834 23 57.501s34 23.5 56 23.5s40.667 -7.83301 56 -23.5s23 -34.834 23 -57.501v-53h-16v53c0 18 -6.16699 33.333 -18.5 46s-27.166 19 -44.499 19s-32.166 -6.33301 -44.499 -19s-18.5 -28 -18.5 -46v-528c0 -18 6.16699 -33.333 18.5 -46
s27.166 -19 44.499 -19s32.166 6.33301 44.499 19s18.5 28 18.5 46v259h-67v15h83v-274c0 -19.333 -5.16699 -36.166 -15.5 -50.499s-24.166 -23.5 -41.499 -27.5c5.33301 -5.33301 9.66602 -11.5 12.999 -18.5s5 -14.167 5 -21.5z" />
    <glyph glyph-name="Gcircumflex" 
d="M195 81c0 -23.333 -7.66699 -42.666 -23 -57.999s-34 -23 -56 -23s-40.667 7.66699 -56 23s-23 34.666 -23 57.999v528c0 22.667 7.66699 41.834 23 57.501s34 23.5 56 23.5s40.667 -7.83301 56 -23.5s23 -34.834 23 -57.501v-53h-16v53c0 18 -6.16699 33.333 -18.5 46
s-27.166 19 -44.499 19s-32.166 -6.33301 -44.499 -19s-18.5 -28 -18.5 -46v-528c0 -18 6.16699 -33.333 18.5 -46s27.166 -19 44.499 -19s32.166 6.33301 44.499 19s18.5 28 18.5 46v259h-67v15h83v-274v0zM72 714h-21l60 64h10l60 -64h-21l-44 47z" />
    <glyph glyph-name="Gdot" 
d="M195 81c0 -23.333 -7.66699 -42.666 -23 -57.999s-34 -23 -56 -23s-40.667 7.66699 -56 23s-23 34.666 -23 57.999v528c0 22.667 7.66699 41.834 23 57.501s34 23.5 56 23.5s40.667 -7.83301 56 -23.5s23 -34.834 23 -57.501v-53h-16v53c0 18 -6.16699 33.333 -18.5 46
s-27.166 19 -44.499 19s-32.166 -6.33301 -44.499 -19s-18.5 -28 -18.5 -46v-528c0 -18 6.16699 -33.333 18.5 -46s27.166 -19 44.499 -19s32.166 6.33301 44.499 19s18.5 28 18.5 46v259h-67v15h83v-274v0zM108 724v45h16v-45h-16z" />
    <glyph glyph-name="Hbar" horiz-adv-x="253" 
d="M48 0v583h-30v14h30v93h16v-93h126v93h15v-93h31v-14h-31v-583h-15v345h-126v-345h-16zM64 360h126v223h-126v-223z" />
    <glyph glyph-name="Hcircumflex" horiz-adv-x="231" 
d="M37 0v690h16v-330h126v330h15v-690h-15v345h-126v-345h-16zM72 714h-22l60 64h10l60 -64h-21l-44 48z" />
    <glyph glyph-name="IJ" horiz-adv-x="279" 
d="M83 134h16.001v-53c0 -18 6.16699 -33.333 18.5 -46s27.5 -19 45.5 -19c17.333 0 32.166 6.33301 44.499 19s18.5 28 18.5 46v606h16v-606c0 -23.333 -7.83301 -42.666 -23.5 -57.999s-34.167 -23 -55.5 -23c-22.667 0 -41.667 7.66699 -57 23s-23 34.666 -23 57.999v53z
M37.001 0v691h16v-691h-16z" />
    <glyph glyph-name="Ibreve" horiz-adv-x="88" 
d="M36 0v691h15v-691h-15zM118 773c0 -22 -6.83301 -38.667 -20.5 -50s-31.5 -17 -53.5 -17s-39.833 6 -53.5 18s-20.5 30 -20.5 54h15c0 -19.333 5.5 -33.5 16.5 -42.5s25.167 -13.5 42.5 -13.5s31.333 4.5 42 13.5s16 23.167 16 42.5h11z" />
    <glyph glyph-name="Imacron" horiz-adv-x="88" 
d="M36 0v691h16v-691h-16zM-12 738v16h112v-16h-112z" />
    <glyph glyph-name="Iogonek" 
d="M168 21c-1.33301 -1.33301 -3.66113 -3.99902 -6.99414 -7.99902l-11 -13.5l-11.5 -14.5l-8.5 -11c-2.66699 -3.33301 -5 -6.5 -7 -9.5s-3 -6.16699 -3 -9.5c0 -10 4.66699 -16.167 14 -18.5s20.666 -1.16602 33.999 3.50098v-16
c-18.667 -5.33301 -33.834 -5.33301 -45.501 0s-17.167 15.666 -16.5 30.999c0 5.33301 1.16699 10.333 3.5 15s5.16602 9 8.49902 13c2 3.33301 3.83301 6 5.5 8l9.5 11c-6.66699 -1.33301 -12.334 -2 -17.001 -2c-22 0 -40.667 7.66699 -56 23s-23 34.666 -23 57.999v53
h16v-53c0 -18 6.16699 -33.333 18.5 -46s27.166 -19 44.499 -19s32.166 6.33301 44.499 19s18.5 28 18.5 46v606h16v-606c0 -25.333 -9 -45.333 -27 -60z" />
    <glyph glyph-name="Iota" horiz-adv-x="88" 
d="M36 0v691h16v-691h-16z" />
    <glyph glyph-name="Itilde" horiz-adv-x="88" 
d="M36 0v691h16v-691h-16zM128 743c-13.333 -13.333 -29.3311 -20 -47.998 -20c-14.667 0 -28.667 4.66699 -42 14c-4.66699 3.33301 -9.83398 6 -15.501 8s-10.834 3 -15.501 3c-14 0 -27 -6 -39 -18l-12 11c16 16 33 24 51 24c14.667 0 28.667 -5 42 -15
c10 -8 20.667 -12 32 -12c13.333 0 26 6.66699 38 20l9 -8v-7z" />
    <glyph glyph-name="Jcircumflex" horiz-adv-x="244" 
d="M38 134h15.002v-53c0 -18 6.16699 -33.333 18.5 -46s27.166 -19 44.499 -19s32.166 6.33301 44.499 19s18.5 28 18.5 46v606h16v-606c0 -23.333 -7.5 -42.666 -22.5 -57.999s-33.833 -23 -56.5 -23c-22 0 -40.5 7.66699 -55.5 23s-22.5 34.666 -22.5 57.999v53z
M144.002 714h-20l58 64h11l58 -64h-20l-44 47z" />
    <glyph glyph-name="Kappa" horiz-adv-x="205" 
d="M180 0l-127 298v-298h-16v690h16v-325l127 325h17l-141 -360l70.5 -165l70.5 -165h-17z" />
    <glyph glyph-name="Kcedilla" horiz-adv-x="211" 
d="M180 0l-127 298v-298h-16v690h16v-325l127 325h17l-141 -360l70.5 -165l70.5 -165h-17zM150 -37c0 -15.333 -5.99902 -28.168 -17.999 -38.501s-27 -15.5 -45 -15.5v15c13.333 0 24.666 3.83301 33.999 11.5s14 16.834 14 27.501c0 9.33301 -4.33301 17.833 -13 25.5
s-19 12.167 -31 13.5v15c16 -1.33301 29.833 -7 41.5 -17s17.5 -22.333 17.5 -37z" />
    <glyph glyph-name="Lacute" horiz-adv-x="224" 
d="M37 0v690h16v-674h134v-16h-150zM104 621h-19l58 69h20z" />
    <glyph glyph-name="Lambda" horiz-adv-x="192" 
d="M33 0h-16l72 690h14l71 -690h-15l-63 611z" />
    <glyph glyph-name="Lcaron" horiz-adv-x="224" 
d="M37 0v690h16v-674h134v-16h-150zM115 578h-18l25 61v51h16v-55z" />
    <glyph glyph-name="Ldot" horiz-adv-x="224" 
d="M37 0v690h16v-674h134v-16h-150zM117 322v59h15v-59h-15z" />
    <glyph glyph-name="Mu" horiz-adv-x="281" 
d="M37 -2v692h15l88 -629l44.5 315l44.5 314h14v-692h-15v578l-40.5 -288.5l-40.5 -287.5h-14l-80 577v-579h-16z" />
    <glyph glyph-name="Nacute" horiz-adv-x="231" 
d="M37 0v690h15l127 -611v611h15v-690h-14l-127 610v-610h-16zM96 710h-20l58 68h20z" />
    <glyph glyph-name="Ncaron" horiz-adv-x="231" 
d="M37 0v690h15l127 -611v611h15v-690h-14l-127 610v-610h-16zM110 714l-60.001 64h22l43 -48l22.5 23.5c7.66699 8.33301 14.834 16.5 21.501 24.5h21l-60 -64h-10z" />
    <glyph glyph-name="Nu" horiz-adv-x="231" 
d="M37 0v690h15l127 -611v611h15v-690h-14l-127 610v-610h-16z" />
    <glyph glyph-name="Obreve" 
d="M195 81c0 -23.333 -7.66699 -42.666 -23 -57.999s-34 -23 -56 -23s-40.667 7.66699 -56 23s-23 34.666 -23 57.999v528c0 22.667 7.66699 41.834 23 57.501s34 23.5 56 23.5s40.667 -7.83301 56 -23.5s23 -34.834 23 -57.501v-528v0zM53 81
c0 -18 6.16699 -33.333 18.5 -46s27.166 -19 44.499 -19s32.166 6.33301 44.499 19s18.5 28 18.5 46v528c0 18 -6.16699 33.333 -18.5 46s-27.166 19 -44.499 19s-32.166 -6.33301 -44.499 -19s-18.5 -28 -18.5 -46v-528v0zM190 773c0 -22 -6.83301 -38.667 -20.5 -50
s-31.5 -17 -53.5 -17s-39.833 6 -53.5 18s-20.5 30 -20.5 54h15c0 -19.333 5.5 -33.5 16.5 -42.5s25.167 -13.5 42.5 -13.5s31.5 4.5 42.5 13.5s16.5 23.167 16.5 42.5h10z" />
    <glyph glyph-name="Odblacute" 
d="M195 81c0 -23.333 -7.66699 -42.666 -23 -57.999s-34 -23 -56 -23s-40.667 7.66699 -56 23s-23 34.666 -23 57.999v528c0 22.667 7.66699 41.834 23 57.501s34 23.5 56 23.5s40.667 -7.83301 56 -23.5s23 -34.834 23 -57.501v-528v0zM53 81
c0 -18 6.16699 -33.333 18.5 -46s27.166 -19 44.499 -19s32.166 6.33301 44.499 19s18.5 28 18.5 46v528c0 18 -6.16699 33.333 -18.5 46s-27.166 19 -44.499 19s-32.166 -6.33301 -44.499 -19s-18.5 -28 -18.5 -46v-528v0zM127 710h-20l57 68h22zM68 710h-21l58 68h21z" />
    <glyph glyph-name="Omacron" 
d="M195 81c0 -23.333 -7.66699 -42.666 -23 -57.999s-34 -23 -56 -23s-40.667 7.66699 -56 23s-23 34.666 -23 57.999v528c0 22.667 7.66699 41.834 23 57.501s34 23.5 56 23.5s40.667 -7.83301 56 -23.5s23 -34.834 23 -57.501v-528v0zM53 81
c0 -18 6.16699 -33.333 18.5 -46s27.166 -19 44.499 -19s32.166 6.33301 44.499 19s18.5 28 18.5 46v528c0 18 -6.16699 33.333 -18.5 46s-27.166 19 -44.499 19s-32.166 -6.33301 -44.499 -19s-18.5 -28 -18.5 -46v-528v0zM61 738l-1 16h112v-16h-111z" />
    <glyph glyph-name="Omega" horiz-adv-x="238" 
d="M228 1c-5.33301 2.66699 -11 4.83789 -17 6.50488s-11.667 2.5 -17 2.5c-9.33301 0 -21.333 -3.66699 -36 -11v17c16.667 13.333 25 30.333 25 51v542c0 18 -6.33301 33.333 -19 46s-27.667 19 -45 19s-32.166 -6.33301 -44.499 -19s-18.5 -28 -18.5 -46v-542
c0 -10 2.16699 -19.333 6.5 -28s10.166 -16.334 17.499 -23.001v-17c-14.667 7.33301 -26.667 11 -36 11c-6 0 -12.667 -1.16699 -20 -3.5s-14.333 -5.16602 -21 -8.49902v18c8 3.33301 16.167 6.16602 24.5 8.49902s16.166 3.16602 23.499 2.49902
c-7.33301 11.333 -11 24.666 -11 39.999v542c0 11.333 2.16699 21.833 6.5 31.5s10 18.167 17 25.5s15.333 13.166 25 17.499s19.834 6.5 30.501 6.5c22 0 40.667 -7.83301 56 -23.5s23 -34.834 23 -57.501v-542c0 -16.667 -3.66699 -30 -11 -40
c9.33301 1.33301 17.833 0.833008 25.5 -1.5s15.167 -5.5 22.5 -9.5v-10z" />
    <glyph glyph-name="Omicron" 
d="M195 81c0 -23.333 -7.66699 -42.666 -23 -57.999s-34 -23 -56 -23s-40.667 7.66699 -56 23s-23 34.666 -23 57.999v528c0 22.667 7.66699 41.834 23 57.501s34 23.5 56 23.5s40.667 -7.83301 56 -23.5s23 -34.834 23 -57.501v-528v0zM53 81
c0 -18 6.16699 -33.333 18.5 -46s27.166 -19 44.499 -19s32.166 6.33301 44.499 19s18.5 28 18.5 46v528c0 18 -6.16699 33.333 -18.5 46s-27.166 19 -44.499 19s-32.166 -6.33301 -44.499 -19s-18.5 -28 -18.5 -46v-528v0z" />
    <glyph glyph-name="Pi" horiz-adv-x="224" 
d="M37 0v690h150v-690h-16v674h-118v-674h-16z" />
    <glyph glyph-name="Psi" horiz-adv-x="239" 
d="M112 0l-0.000976562 310c-21.333 1.33301 -39.166 9.66602 -53.499 24.999s-21.5 33.666 -21.5 54.999v300h16v-300c0 -16.667 5.66699 -31.167 17 -43.5s25.333 -19.833 42 -22.5v367h16v-367c15.333 1.33301 28.833 8.33301 40.5 21s17.5 27.667 17.5 45v300h16v-300
c0 -21.333 -7.33301 -39.666 -22 -54.999s-32 -23.666 -52 -24.999v-310h-16z" />
    <glyph glyph-name="Racute" horiz-adv-x="225" 
d="M37 0l-0.00195312 689.999h72c10.667 0 20.834 -2.16699 30.501 -6.5s18 -10.166 25 -17.499s12.667 -15.833 17 -25.5s6.5 -20.167 6.5 -31.5v-184c0 -16 -4.16699 -30.333 -12.5 -43s-19.166 -22.667 -32.499 -30c13.333 -7.33301 24.166 -17.333 32.499 -30
s12.5 -27 12.5 -43v-279h-16v279c0 18 -6.16699 33.333 -18.5 46s-27.166 19 -44.499 19h-56v-344h-16zM108.998 359.999c17.333 0 32.166 6.16699 44.499 18.5s18.5 27.833 18.5 46.5v184c0 18 -6.16699 33.333 -18.5 46s-27.166 19 -44.499 19h-56v-314h56z
M92.998 709.999h-20l58 68h20z" />
    <glyph glyph-name="Rcaron" horiz-adv-x="225" 
d="M37 0l-0.00195312 689.999h72c10.667 0 20.834 -2.16699 30.501 -6.5s18 -10.166 25 -17.499s12.667 -15.833 17 -25.5s6.5 -20.167 6.5 -31.5v-184c0 -16 -4.16699 -30.333 -12.5 -43s-19.166 -22.667 -32.499 -30c13.333 -7.33301 24.166 -17.333 32.499 -30
s12.5 -27 12.5 -43v-279h-16v279c0 18 -6.16699 33.333 -18.5 46s-27.166 19 -44.499 19h-56v-344h-16zM108.998 359.999c17.333 0 32.166 6.16699 44.499 18.5s18.5 27.833 18.5 46.5v184c0 18 -6.16699 33.333 -18.5 46s-27.166 19 -44.499 19h-56v-314h56z
M106.998 713.999l-58 64h20l43 -47l22 23l21 24h21l-58 -64h-11z" />
    <glyph glyph-name="Rho" horiz-adv-x="225" 
d="M37 0v689.998h72c10.667 0 20.834 -2.16699 30.501 -6.5s18 -10.166 25 -17.499s12.667 -15.833 17 -25.5s6.5 -20.167 6.5 -31.5v-184c0 -11.333 -2.16699 -21.833 -6.5 -31.5s-10 -18.167 -17 -25.5s-15.333 -13.166 -25 -17.499s-19.834 -6.5 -30.501 -6.5h-56v-344
h-16zM109 359.998c17.333 0 32.166 6.16699 44.499 18.5s18.5 27.833 18.5 46.5v184c0 18 -6.16699 33.333 -18.5 46s-27.166 19 -44.499 19h-56v-314h56z" />
    <glyph glyph-name="Sacute" 
d="M37 134h16v-53c0 -18 6.16699 -33.333 18.5 -46s27.166 -19 44.499 -19s32.166 6.33301 44.499 19s18.5 28 18.5 46v201c0 10 -2.33301 19.167 -7 27.5s-10.667 15.833 -18 22.5c-3.33301 3.33301 -8.16602 6.5 -14.499 9.5l-19.5 9.5h1h-2c-0.666992 0 -1 0.333008 -1 1
c-1.33301 0.666992 -2.66602 1.16699 -3.99902 1.5s-2.66602 0.833008 -3.99902 1.5v-1c-11.333 4.66699 -19.833 8.66699 -25.5 12s-12.167 7.66602 -19.5 12.999c-8.66699 7.33301 -15.5 16.166 -20.5 26.499s-7.5 22.166 -7.5 35.499v168
c0 22.667 7.66699 41.834 23 57.501s34 23.5 56 23.5s40.667 -7.83301 56 -23.5s23 -34.834 23 -57.501v-53h-16v53c0 18 -6.16699 33.333 -18.5 46s-27.166 19 -44.499 19s-32.166 -6.33301 -44.499 -19s-18.5 -28 -18.5 -46v-168c0 -21.333 7.33301 -38.333 22 -51
c4 -4 8.66699 -7.16699 14 -9.5s11.666 -4.83301 18.999 -7.5c2 -1.33301 4 -2.16602 6 -2.49902s4 -1.16602 6 -2.49902v1c9.33301 -4 17.166 -7.66699 23.499 -11s13.166 -7.66602 20.499 -12.999c9.33301 -7.33301 16.833 -16.333 22.5 -27s8.5 -22.667 8.5 -36v-201
c0 -23.333 -7.66699 -42.666 -23 -57.999s-34 -23 -56 -23s-40.667 7.66699 -56 23s-23 34.666 -23 57.999v53zM96 710h-19l58 68h20z" />
    <glyph glyph-name="Scedilla" 
d="M156 -37c0 -15.333 -5.83203 -28.168 -17.499 -38.501s-26.167 -15.5 -43.5 -15.5v15c13.333 0 24.5 3.83301 33.5 11.5s13.5 16.834 13.5 27.501c0 8 -3 15.5 -9 22.5s-13 11.833 -21 14.5c-20.667 1.33301 -38.334 9.66602 -53.001 24.999s-22 34 -22 56v53h16v-53
c0 -18 6.16699 -33.333 18.5 -46s27.166 -19 44.499 -19s32.166 6.33301 44.499 19s18.5 28 18.5 46v201c0 10 -2.33301 19.167 -7 27.5s-10.667 15.833 -18 22.5c-3.33301 3.33301 -8.16602 6.5 -14.499 9.5l-19.5 9.5h1h-2c-0.666992 0 -1 0.333008 -1 1
c-1.33301 0.666992 -2.66602 1.16699 -3.99902 1.5s-2.66602 0.833008 -3.99902 1.5v-1c-11.333 4.66699 -19.833 8.66699 -25.5 12s-12.167 7.66602 -19.5 12.999c-8.66699 7.33301 -15.5 16.166 -20.5 26.499s-7.5 22.166 -7.5 35.499v168
c0 22.667 7.66699 41.834 23 57.501s34 23.5 56 23.5s40.667 -7.83301 56 -23.5s23 -34.834 23 -57.501v-53h-16v53c0 18 -6.16699 33.333 -18.5 46s-27.166 19 -44.499 19s-32.166 -6.33301 -44.499 -19s-18.5 -28 -18.5 -46v-168c0 -21.333 7.33301 -38.333 22 -51
c4 -4 8.66699 -7.16699 14 -9.5s11.666 -4.83301 18.999 -7.5c2 -1.33301 4 -2.16602 6 -2.49902s4 -1.16602 6 -2.49902v1c9.33301 -4 17.166 -7.66699 23.499 -11s13.166 -7.66602 20.499 -12.999c9.33301 -7.33301 16.833 -16.333 22.5 -27s8.5 -22.667 8.5 -36v-201
c0 -19.333 -5.16699 -36.166 -15.5 -50.499s-24.166 -23.5 -41.499 -27.5c5.33301 -5.33301 9.66602 -11.5 12.999 -18.5s5 -14.167 5 -21.5z" />
    <glyph glyph-name="Scircumflex" 
d="M37 134h16v-53c0 -18 6.16699 -33.333 18.5 -46s27.166 -19 44.499 -19s32.166 6.33301 44.499 19s18.5 28 18.5 46v201c0 10 -2.33301 19.167 -7 27.5s-10.667 15.833 -18 22.5c-3.33301 3.33301 -8.16602 6.5 -14.499 9.5l-19.5 9.5h1h-2c-0.666992 0 -1 0.333008 -1 1
c-1.33301 0.666992 -2.66602 1.16699 -3.99902 1.5s-2.66602 0.833008 -3.99902 1.5v-1c-11.333 4.66699 -19.833 8.66699 -25.5 12s-12.167 7.66602 -19.5 12.999c-8.66699 7.33301 -15.5 16.166 -20.5 26.499s-7.5 22.166 -7.5 35.499v168
c0 22.667 7.66699 41.834 23 57.501s34 23.5 56 23.5s40.667 -7.83301 56 -23.5s23 -34.834 23 -57.501v-53h-16v53c0 18 -6.16699 33.333 -18.5 46s-27.166 19 -44.499 19s-32.166 -6.33301 -44.499 -19s-18.5 -28 -18.5 -46v-168c0 -21.333 7.33301 -38.333 22 -51
c4 -4 8.66699 -7.16699 14 -9.5s11.666 -4.83301 18.999 -7.5c2 -1.33301 4 -2.16602 6 -2.49902s4 -1.16602 6 -2.49902v1c9.33301 -4 17.166 -7.66699 23.499 -11s13.166 -7.66602 20.499 -12.999c9.33301 -7.33301 16.833 -16.333 22.5 -27s8.5 -22.667 8.5 -36v-201
c0 -23.333 -7.66699 -42.666 -23 -57.999s-34 -23 -56 -23s-40.667 7.66699 -56 23s-23 34.666 -23 57.999v53zM72 714h-21l60 64h10l60 -64h-21l-44 49z" />
    <glyph glyph-name="Sigma" horiz-adv-x="227" 
d="M34 0l125 345l-61.5 172.5l-62.5 172.5h155v-16h-133l59.5 -164.5l59.5 -164.5l-119 -329h133v-16h-156z" />
    <glyph glyph-name="Tau" horiz-adv-x="183" 
d="M84 0v674h-68v16h151v-16h-67v-674h-16z" />
    <glyph glyph-name="Tbar" horiz-adv-x="182" 
d="M84 0v415h-53v15h53v244h-68v16h150v-16h-67v-244h52v-15h-52v-415h-15z" />
    <glyph glyph-name="Tcaron" horiz-adv-x="184" 
d="M85 0v674h-68v16h150v-16h-67v-674h-15zM87 714l-58.001 64h20l43 -47l22.5 23c7.66699 8 14.834 16 21.501 24h20l-58 -64h-11z" />
    <glyph glyph-name="Theta" 
d="M195 81c0 -23.333 -7.66699 -42.666 -23 -57.999s-34 -23 -56 -23s-40.667 7.66699 -56 23s-23 34.666 -23 57.999v528c0 22.667 7.66699 41.834 23 57.501s34 23.5 56 23.5s40.667 -7.83301 56 -23.5s23 -34.834 23 -57.501v-528v0zM53 81
c0 -18 6.16699 -33.333 18.5 -46s27.166 -19 44.499 -19s32.166 6.33301 44.499 19s18.5 28 18.5 46v528c0 18 -6.16699 33.333 -18.5 46s-27.166 19 -44.499 19s-32.166 -6.33301 -44.499 -19s-18.5 -28 -18.5 -46v-528v0zM108 322v59h16v-59h-16z" />
    <glyph glyph-name="Ubreve" 
d="M195 81c0 -23.333 -7.66504 -42.666 -22.998 -57.999s-34 -23 -56 -23s-40.667 7.66699 -56 23s-23 34.666 -23 57.999v606h16v-606c0 -18 6.16699 -33.333 18.5 -46s27.166 -19 44.499 -19s32.166 6.33301 44.499 19s18.5 28 18.5 46v606h16v-606v0zM110.002 714
l-58.001 64h20l44 -47l22.5 23c7.66699 8 14.834 16 21.501 24h21l-60 -64h-11z" />
    <glyph glyph-name="Umacron" 
d="M195 81c0 -23.333 -7.66504 -42.666 -22.998 -57.999s-34 -23 -56 -23s-40.667 7.66699 -56 23s-23 34.666 -23 57.999v606h16v-606c0 -18 6.16699 -33.333 18.5 -46s27.166 -19 44.499 -19s32.166 6.33301 44.499 19s18.5 28 18.5 46v606h16v-606v0zM61.002 738l-1 16
h112v-16h-111z" />
    <glyph glyph-name="Upsilon" horiz-adv-x="192" 
d="M89 0v323l-36 184l-36 183h15l64 -325c11.333 54 22 108.167 32 162.5s20.667 108.5 32 162.5h15l-71 -367v-323h-15z" />
    <glyph glyph-name="Utilde" horiz-adv-x="245" 
d="M202 81c0 -23.333 -7.83203 -42.666 -23.499 -57.999s-34.167 -23 -55.5 -23c-22 0 -40.833 7.66699 -56.5 23s-23.5 34.666 -23.5 57.999v606h16v-606c0 -18 6.16699 -33.333 18.5 -46s27.5 -19 45.5 -19c17.333 0 32.166 6.33301 44.499 19s18.5 28 18.5 46v606h16
v-606v0zM207.001 743c-13.333 -13.333 -29.332 -20 -47.999 -20c-14.667 0 -28.667 4.66699 -42 14c-4.66699 3.33301 -9.83398 6 -15.501 8s-11.167 3 -16.5 3c-13.333 0 -26 -6 -38 -18l-13 11c16 16 33 24 51 24c16 0 30 -5 42 -15c10 -8 20.667 -12 32 -12
c6 0 12.5 1.66699 19.5 5s13.5 8.33301 19.5 15l9 -8v-7z" />
    <glyph glyph-name="Xi" horiz-adv-x="224" 
d="M37 674v16h150v-16h-150zM37 0v16h150v-16h-150zM104 322v59h16v-59h-16z" />
    <glyph glyph-name="Zacute" horiz-adv-x="231" 
d="M36 0l140 674h-136v16h155l-140 -674h135v-16h-154zM96 710h-19l57 68h21z" />
    <glyph glyph-name="Zdot" horiz-adv-x="231" 
d="M36 0l140 674h-136v16h155l-140 -674h135v-16h-154zM107 724v45h16v-45h-16z" />
    <glyph glyph-name="Zeta" horiz-adv-x="231" 
d="M36 0l140 674h-136v16h155l-140 -674h135v-16h-154z" />
    <glyph glyph-name="abreve" 
d="M179 0l-0.00195312 32.001c-16 -21.333 -37 -32 -63 -32c-22 0 -40.667 7.66699 -56 23s-23 34.666 -23 57.999v145c0 22 7.66699 41 23 57s34 24 56 24c13.333 0 25.333 -3 36 -9s19.667 -14 27 -24v158c0 17.333 -6.16699 32.5 -18.5 45.5s-27.166 19.5 -44.499 19.5
s-32.166 -6.5 -44.499 -19.5s-18.5 -28.167 -18.5 -45.5v-53h-16v53c0 22 7.66699 41 23 57s34 24 56 24s40.667 -8 56 -24s23 -35 23 -57v-432h-16zM52.998 81.001c0 -18 6.16699 -33.333 18.5 -46s27.166 -19 44.499 -19s32.166 6.33301 44.499 19s18.5 28 18.5 46v145
c0 17.333 -6.16699 32.5 -18.5 45.5s-27.166 19.5 -44.499 19.5s-32.166 -6.5 -44.499 -19.5s-18.5 -28.167 -18.5 -45.5v-145v0zM189.998 607.001c0 -22 -6.83301 -38.667 -20.5 -50s-31.5 -17 -53.5 -17s-39.833 6 -53.5 18s-20.5 30 -20.5 54h15
c0 -19.333 5.5 -33.5 16.5 -42.5s25.167 -13.5 42.5 -13.5s31.5 4.5 42.5 13.5s16.5 23.167 16.5 42.5h10z" />
    <glyph glyph-name="aeacute" horiz-adv-x="377" 
d="M339 81c0 -23.333 -7.83398 -42.6689 -23.501 -58.002s-34.167 -23 -55.5 -23c-16 0 -30.333 4.16699 -43 12.5s-22.334 19.166 -29.001 32.499c-6.66699 -13.333 -16.334 -24.166 -29.001 -32.499s-26.667 -12.5 -42 -12.5c-22 0 -40.667 7.66699 -56 23
s-23 34.666 -23 57.999v145c0 22 7.66699 41 23 57s34 24 56 24c12.667 0 24.5 -3 35.5 -9s20.167 -13.667 27.5 -23v162c-1.33301 16.667 -7.83301 30.834 -19.5 42.501s-26.167 17.5 -43.5 17.5s-32.166 -6.5 -44.499 -19.5s-18.5 -28.167 -18.5 -45.5v-53h-16v53
c0 22 7.66699 41 23 57s34 24 56 24c15.333 0 29.333 -4.33301 42 -13s22.334 -19.667 29.001 -33c6.66699 13.333 16.334 24.333 29.001 33s27 13 43 13c10.667 0 20.834 -2.16699 30.501 -6.5s18 -10.166 25 -17.499s12.667 -16 17 -26s6.5 -20.333 6.5 -31v-158h-143
v-198c1.33301 -17.333 8 -31.666 20 -42.999s26.667 -17 44 -17s32.166 6.33301 44.499 19s18.5 28 18.5 46v53h16v-53v0zM180.999 79.9971l-0.999023 1.00098v151c0 16 -6.33301 29.833 -19 41.5s-27.334 17.5 -44.001 17.5c-17.333 0 -32.166 -6.5 -44.499 -19.5
s-18.5 -28.167 -18.5 -45.5v-145c0 -18 6.16699 -33.333 18.5 -46s27.166 -19 44.499 -19s31.833 5.66699 43.5 17s18.167 25.666 19.5 42.999zM323 431.998c0 17.333 -6.16797 32.501 -18.501 45.501s-27.166 19.5 -44.499 19.5s-32 -5.83301 -44 -17.5
s-18.667 -25.834 -20 -42.501v-148h127v143zM171.999 542.999h-19l58 69h20z" />
    <glyph glyph-name="afii08941" 
d="M37 0l-0.00195312 609c0 22.667 7.66699 41.834 23 57.501s34 23.5 56 23.5s40.667 -7.83301 56 -23.5s23 -34.834 23 -57.501v-53h-16v53c0 18 -6.16699 33.333 -18.5 46s-27.166 19 -44.499 19s-32.166 -6.33301 -44.499 -19s-18.5 -28 -18.5 -46v-205h111v-15h-111
v-113h111v-16h-111v-244h134v-16h-150z" />
    <glyph glyph-name="afii10024" horiz-adv-x="239" 
d="M37 0v273c0 16 4.33301 30.5 13 43.5s19.667 23.167 33 30.5c-13.333 7.33301 -24.333 17.333 -33 30s-13 27.334 -13 44.001v269h16v-269c0 -17.333 5.66699 -32 17 -44s25.333 -19.333 42 -22v336h16v-336c15.333 1.33301 28.833 8.33301 40.5 21s17.5 27.667 17.5 45
v269h16v-269c0 -16.667 -4.33301 -31.334 -13 -44.001s-19.667 -22.667 -33 -30c13.333 -7.33301 24.333 -17.5 33 -30.5s13 -27.5 13 -43.5v-273h-16v273c0 17.333 -5.83301 32.333 -17.5 45s-25.167 19.667 -40.5 21v-339h-16v338c-16.667 -2 -30.667 -9 -42 -21
s-17 -26.667 -17 -44v-273h-16z" />
    <glyph glyph-name="afii10025" 
d="M116 0c-22 0 -40.667 8.16602 -56 24.499s-23 36.833 -23 61.5h16c0 -19.333 6.16699 -35.833 18.5 -49.5s27.166 -20.5 44.499 -20.5s32.166 6.33301 44.499 19s18.5 28 18.5 46v222c0 17.333 -6.16699 32.5 -18.5 45.5s-27.166 19.5 -44.499 19.5h-35v16h35
c17.333 0 32.166 6.33301 44.499 19s18.5 28.334 18.5 47.001v159c0 18 -6.16699 33.333 -18.5 46s-27.166 19 -44.499 19s-32.166 -6.83301 -44.499 -20.5s-18.5 -30.167 -18.5 -49.5h-16c0 23.333 7.66699 43.5 23 60.5s34 25.5 56 25.5s40.667 -7.83301 56 -23.5
s23 -34.834 23 -57.501v-159c0 -16 -4.16699 -30.667 -12.5 -44s-19.166 -23.333 -32.499 -30c13.333 -6.66699 24.166 -16.5 32.499 -29.5s12.5 -27.5 12.5 -43.5v-222c0 -23.333 -7.66699 -42.666 -23 -57.999s-34 -23 -56 -23z" />
    <glyph glyph-name="afii10026" horiz-adv-x="231" 
d="M37 1v689h15v-611l64 305.5l63 305.5h15v-690h-16v610l-63.5 -305l-63.5 -305z" />
    <glyph glyph-name="afii10047" 
d="M37 134h16v-53c0 -18 6.16699 -33.333 18.5 -46s27.166 -19 44.499 -19s32.166 6.33301 44.499 19s18.5 28 18.5 46v264h-129v15h129v249c0 18 -6.16699 33.333 -18.5 46s-27.166 19 -44.499 19s-32.166 -6.33301 -44.499 -19s-18.5 -28 -18.5 -46v-53h-16v53
c0 22.667 7.66699 41.834 23 57.501s34 23.5 56 23.5s40.667 -7.83301 56 -23.5s23 -34.834 23 -57.501v-528c0 -23.333 -7.66699 -42.666 -23 -57.999s-34 -23 -56 -23s-40.667 7.66699 -56 23s-23 34.666 -23 57.999v53z" />
    <glyph glyph-name="afii10048" horiz-adv-x="257" 
d="M220 81c0 -23.333 -4.83301 -42.666 -14.5 -57.999s-25.834 -23 -48.501 -23c-23.333 0 -39.833 7.66699 -49.5 23s-14.5 34.666 -14.5 57.999v264h-40v-345h-16v690h16v-330h40v249c0 22.667 4.83301 41.834 14.5 57.501s26.167 23.5 49.5 23.5
c22.667 0 38.834 -7.83301 48.501 -23.5s14.5 -34.834 14.5 -57.501v-528v0zM109 81c0 -18 3.66699 -33.333 11 -46s19.666 -19 36.999 -19c16.667 0 28.667 6.33301 36 19s11 28 11 46v528c0 18 -3.66699 33.333 -11 46s-19.333 19 -36 19
c-17.333 0 -29.666 -6.33301 -36.999 -19s-11 -28 -11 -46v-528v0z" />
    <glyph glyph-name="afii10049" horiz-adv-x="225" 
d="M52 0l-16 -0.000976562l74 344c-21.333 1.33301 -38.833 9.83301 -52.5 25.5s-20.5 34.167 -20.5 55.5v184c0 22.667 7.66699 41.834 23 57.501s34 23.5 56 23.5h72v-690h-16v344h-46zM53 424.999c0 -18.667 6.16699 -34.167 18.5 -46.5s27.166 -18.5 44.499 -18.5h56
v314h-56c-17.333 0 -32.166 -6.33301 -44.499 -19s-18.5 -28 -18.5 -46v-184v0z" />
    <glyph glyph-name="afii10053" 
d="M195 81c0 -23.333 -7.66699 -42.666 -23 -57.999s-34 -23 -56 -23s-40.667 7.66699 -56 23s-23 34.666 -23 57.999v528c0 22.667 7.66699 41.834 23 57.501s34 23.5 56 23.5s40.667 -7.83301 56 -23.5s23 -34.834 23 -57.501v-53h-16v53c0 18 -6.16699 33.333 -18.5 46
s-27.166 19 -44.499 19s-32.166 -6.33301 -44.499 -19s-18.5 -28 -18.5 -46v-249h94v-15h-94v-264c0 -18 6.16699 -33.333 18.5 -46s27.166 -19 44.499 -19s32.166 6.33301 44.499 19s18.5 28 18.5 46v53h16v-53v0z" />
    <glyph glyph-name="afii10054" 
d="M37 134h16v-53c0 -18 6.16699 -33.333 18.5 -46s27.166 -19 44.499 -19s32.166 6.33301 44.499 19s18.5 28 18.5 46v201c0 10 -2.33301 19.167 -7 27.5s-10.667 15.833 -18 22.5c-3.33301 3.33301 -8.16602 6.5 -14.499 9.5l-19.5 9.5h1h-2c-0.666992 0 -1 0.333008 -1 1
c-1.33301 0.666992 -2.66602 1.16699 -3.99902 1.5s-2.66602 0.833008 -3.99902 1.5v-1c-11.333 4.66699 -19.833 8.66699 -25.5 12s-12.167 7.66602 -19.5 12.999c-8.66699 7.33301 -15.5 16.166 -20.5 26.499s-7.5 22.166 -7.5 35.499v168
c0 22.667 7.66699 41.834 23 57.501s34 23.5 56 23.5s40.667 -7.83301 56 -23.5s23 -34.834 23 -57.501v-53h-16v53c0 18 -6.16699 33.333 -18.5 46s-27.166 19 -44.499 19s-32.166 -6.33301 -44.499 -19s-18.5 -28 -18.5 -46v-168c0 -21.333 7.33301 -38.333 22 -51
c4 -4 8.66699 -7.16699 14 -9.5s11.666 -4.83301 18.999 -7.5c2 -1.33301 4 -2.16602 6 -2.49902s4 -1.16602 6 -2.49902v1c9.33301 -4 17.166 -7.66699 23.499 -11s13.166 -7.66602 20.499 -12.999c9.33301 -7.33301 16.833 -16.333 22.5 -27s8.5 -22.667 8.5 -36v-201
c0 -23.333 -7.66699 -42.666 -23 -57.999s-34 -23 -56 -23s-40.667 7.66699 -56 23s-23 34.666 -23 57.999v53z" />
    <glyph glyph-name="afii10059" horiz-adv-x="376" 
d="M338 81c0 -23.333 -7.83398 -42.668 -23.501 -58.001s-34.167 -23 -55.5 -23c-28 0 -49.333 11 -64 33v-33h-15v345h-126v-345h-16v690h16v-330h126v330h15v-372c7.33301 10 16.5 18 27.5 24s23.167 9 36.5 9c10.667 0 20.834 -2.16699 30.501 -6.5
s18 -10.166 25 -17.499s12.667 -15.833 17 -25.5s6.5 -20.167 6.5 -31.5v-189v0zM194.999 80.998c0 -18 6.16699 -33.333 18.5 -46s27.5 -19 45.5 -19c17.333 0 32.166 6.33301 44.499 19s18.5 28 18.5 46v189c0 18 -6.16699 33.333 -18.5 46s-27.166 19 -44.499 19
c-18 0 -33.167 -6.33301 -45.5 -19s-18.5 -28 -18.5 -46v-189v0z" />
    <glyph glyph-name="afii10060" horiz-adv-x="273" 
d="M227 0l0.000976562 373.001c0 18 -6.33301 33.333 -19 46s-27.667 19 -45 19s-32.333 -6.33301 -45 -19s-19 -28 -19 -46v-373h-15v674h-67v16h149v-16h-67v-252c7.33301 9.33301 16.666 17 27.999 23s23.333 9 36 9c22 0 40.667 -7.83301 56 -23.5
s23 -34.834 23 -57.501v-373h-15z" />
    <glyph glyph-name="afii10145" horiz-adv-x="224" 
d="M104 0v248h-67v442h16v-427h118v427h16v-442h-67v-248h-16z" />
    <glyph glyph-name="afii61248" horiz-adv-x="428" 
d="M388 81c0 -23.333 -7.5 -42.666 -22.5 -57.999s-33.5 -23 -55.5 -23s-40.667 7.66699 -56 23s-23 34.666 -23 57.999v158c0 22 7.66699 40.833 23 56.5s34 23.5 56 23.5s40.5 -7.83301 55.5 -23.5s22.5 -34.5 22.5 -56.5v-158v0zM247 81c0 -18 6.16699 -33.333 18.5 -46
s27.166 -19 44.499 -19s32.333 6.33301 45 19s19 28 19 46v158c0 17.333 -6.33301 32.5 -19 45.5s-27.667 19.5 -45 19.5s-32.166 -6.5 -44.499 -19.5s-18.5 -28.167 -18.5 -45.5v-158v0zM196 448c0 -22.667 -7.5 -41.665 -22.5 -56.998s-33.833 -23 -56.5 -23
c-22 0 -40.667 7.66699 -56 23s-23 34.333 -23 57v157c0 23.333 7.66699 42.666 23 57.999s34 23 56 23c22.667 0 41.5 -8.16699 56.5 -24.5s22.5 -36.833 22.5 -61.5h-16c0 20 -6.16699 36.833 -18.5 50.5s-27.166 20.5 -44.499 20.5s-32.166 -6.33301 -44.499 -19
s-18.5 -28.334 -18.5 -47.001v-157c0 -18 6.16699 -33.333 18.5 -46s27.166 -19 44.499 -19s32.166 6.83301 44.499 20.5s18.5 30.167 18.5 49.5h11zM152 161.002h-19l149 367h18z" />
    <glyph glyph-name="afii61289" horiz-adv-x="262" 
d="M154 0c-22.667 0 -41.667 7.66797 -57 23.001s-23 34.666 -23 57.999v197l-37 -36v23l37 37v299c0 23.333 7.66699 42.666 23 57.999s34.333 23 57 23c21.333 0 38.5 -7.66699 51.5 -23s19.5 -34.666 19.5 -57.999v-144c0 -10 -2.16699 -19.833 -6.5 -29.5
s-10.166 -18.167 -17.499 -25.5l-111 -108v-213c0 -18 6.66699 -33.333 20 -46s29.666 -19 48.999 -19v-11zM90 316.001l50 49l50 48c6 5.33301 10.667 12 14 20s5 16 5 24v144c0 18.667 -4.83301 34.167 -14.5 46.5s-23.167 18.5 -40.5 18.5
c-18 0 -33.167 -6.16699 -45.5 -18.5s-18.5 -27.833 -18.5 -46.5v-285z" />
    <glyph glyph-name="afii61352" horiz-adv-x="424" 
d="M38 0v690h15l127 -611v611h15v-690h-14l-127 610v-610h-16zM386 603c0 -22 -7.66699 -40.833 -23 -56.5s-34 -23.5 -56 -23.5c-22.667 0 -41.5 7.83301 -56.5 23.5s-22.5 34.5 -22.5 56.5c0 23.333 7.5 42.833 22.5 58.5s33.833 23.5 56.5 23.5
c22 0 40.667 -7.83301 56 -23.5s23 -35.167 23 -58.5zM370 603c0 18.667 -6.16699 34.334 -18.5 47.001s-27.166 19 -44.499 19s-32.166 -6.33301 -44.499 -19s-18.5 -28.334 -18.5 -47.001c0 -17.333 6.16699 -32.5 18.5 -45.5s27.166 -19.5 44.499 -19.5
s32.166 6.5 44.499 19.5s18.5 28.167 18.5 45.5zM232 482v15h150v-15h-150z" />
    <glyph glyph-name="alpha" horiz-adv-x="235" 
d="M229 2c-20.667 8 -34.9971 21.3311 -42.9971 39.998c-7.33301 -12 -17 -22 -29 -30s-25.667 -12 -41 -12c-22 0 -40.667 7.66699 -56 23s-23 34.666 -23 57.999v351c0 22 7.66699 41 23 57s34 24 56 24c15.333 0 29.166 -4.16699 41.499 -12.5
s22.166 -19.166 29.499 -32.499c4.66699 10.667 11.167 19.5 19.5 26.5s18.166 13.167 29.499 18.5v-19c-12 -5.33301 -21.833 -13.666 -29.5 -24.999s-11.5 -23.666 -11.5 -36.999v-354c0 -13.333 3.83301 -25.333 11.5 -36s17.5 -18.667 29.5 -24v-11zM179.003 431.998
c0 17.333 -6.16699 32.5 -18.5 45.5s-27.166 19.5 -44.499 19.5s-32.166 -6.5 -44.499 -19.5s-18.5 -28.167 -18.5 -45.5v-351c0 -18 6.16699 -33.333 18.5 -46s27.166 -19 44.499 -19s32.166 6.33301 44.499 19s18.5 28 18.5 46v351z" />
    <glyph glyph-name="alphatonos" horiz-adv-x="234" 
d="M229 2c-20.667 8 -34.9971 21.3311 -42.9971 39.998c-7.33301 -12 -17 -22 -29 -30s-25.667 -12 -41 -12c-22 0 -40.667 7.66699 -56 23s-23 34.666 -23 57.999v351c0 22 7.66699 41 23 57s34 24 56 24c15.333 0 29.166 -4.16699 41.499 -12.5
s22.166 -19.166 29.499 -32.499c4.66699 10.667 11.167 19.5 19.5 26.5s18.166 13.167 29.499 18.5v-19c-12 -5.33301 -21.833 -13.666 -29.5 -24.999s-11.5 -23.666 -11.5 -36.999v-354c0 -13.333 3.83301 -25.333 11.5 -36s17.5 -18.667 29.5 -24v-11zM179.003 431.998
c0 17.333 -6.16699 32.5 -18.5 45.5s-27.166 19.5 -44.499 19.5s-32.166 -6.5 -44.499 -19.5s-18.5 -28.167 -18.5 -45.5v-351c0 -18 6.16699 -33.333 18.5 -46s27.166 -19 44.499 -19s32.166 6.33301 44.499 19s18.5 28 18.5 46v351zM117.003 542.998h-18l57 69h20z" />
    <glyph glyph-name="aogonek" horiz-adv-x="250" 
d="M209 -77c-18.667 -5.33301 -33.1689 -5.16797 -43.502 0.499023s-15.5 16.167 -15.5 31.5c0 5.33301 1.5 10.5 4.5 15.5l7.5 12.5l9.5 13.5l7.5 10.5v25c-7.33301 -9.33301 -16.5 -17 -27.5 -23s-22.833 -9 -35.5 -9c-22 0 -40.667 7.66699 -56 23s-23 34.666 -23 57.999
v145c0 22 7.66699 41 23 57s34 24 56 24c13.333 0 25.333 -3 36 -9s19.667 -14 27 -24v158c0 17.333 -6.16699 32.5 -18.5 45.5s-27.166 19.5 -44.499 19.5s-32.166 -6.5 -44.499 -19.5s-18.5 -28.167 -18.5 -45.5v-53h-16v53c0 22 7.66699 41 23 57s34 24 56 24
s40.667 -8 56 -24s23 -35 23 -57v-429l-8 -10c-2 -3.33301 -4.16699 -6.66602 -6.5 -9.99902l-6.5 -9c-2.66699 -3.33301 -5 -6.5 -7 -9.5s-3 -6.16699 -3 -9.5c0 -10 4.83301 -16.167 14.5 -18.5s21.167 -1.16602 34.5 3.50098v-12zM52.998 80.998
c0 -18 6.16699 -33.333 18.5 -46s27.166 -19 44.499 -19s32.166 6.33301 44.499 19s18.5 28 18.5 46v145c0 17.333 -6.16699 32.5 -18.5 45.5s-27.166 19.5 -44.499 19.5s-32.166 -6.5 -44.499 -19.5s-18.5 -28.167 -18.5 -45.5v-145v0z" />
    <glyph glyph-name="cacute" 
d="M195 81c0 -23.333 -7.66699 -42.666 -23 -57.999s-34 -23 -56 -23s-40.667 7.66699 -56 23s-23 34.666 -23 57.999v351c0 22 7.66699 41 23 57s34 24 56 24s40.667 -8 56 -24s23 -35 23 -57v-53h-16v53c0 17.333 -6.16699 32.5 -18.5 45.5s-27.166 19.5 -44.499 19.5
s-32.166 -6.5 -44.499 -19.5s-18.5 -28.167 -18.5 -45.5v-351c0 -18 6.16699 -33.333 18.5 -46s27.166 -19 44.499 -19s32.166 6.33301 44.499 19s18.5 28 18.5 46v53h16v-53v0zM96 543h-19l59 69h19z" />
    <glyph glyph-name="ccaron" 
d="M195 81c0 -23.333 -7.66699 -42.666 -23 -57.999s-34 -23 -56 -23s-40.667 7.66699 -56 23s-23 34.666 -23 57.999v351c0 22 7.66699 41 23 57s34 24 56 24s40.667 -8 56 -24s23 -35 23 -57v-53h-16v53c0 17.333 -6.16699 32.5 -18.5 45.5s-27.166 19.5 -44.499 19.5
s-32.166 -6.5 -44.499 -19.5s-18.5 -28.167 -18.5 -45.5v-351c0 -18 6.16699 -33.333 18.5 -46s27.166 -19 44.499 -19s32.166 6.33301 44.499 19s18.5 28 18.5 46v53h16v-53v0zM110 547l-58.001 64h20l44 -47l22.5 23.5c7.66699 7.66699 14.834 15.5 21.501 23.5h21
l-60 -64h-11z" />
    <glyph glyph-name="ccircumflex" 
d="M195 81c0 -23.333 -7.66699 -42.666 -23 -57.999s-34 -23 -56 -23s-40.667 7.66699 -56 23s-23 34.666 -23 57.999v351c0 22 7.66699 41 23 57s34 24 56 24s40.667 -8 56 -24s23 -35 23 -57v-53h-16v53c0 17.333 -6.16699 32.5 -18.5 45.5s-27.166 19.5 -44.499 19.5
s-32.166 -6.5 -44.499 -19.5s-18.5 -28.167 -18.5 -45.5v-351c0 -18 6.16699 -33.333 18.5 -46s27.166 -19 44.499 -19s32.166 6.33301 44.499 19s18.5 28 18.5 46v53h16v-53v0zM72 547h-21l60 64h10l60 -64h-21l-44 48z" />
    <glyph glyph-name="cdot" 
d="M195 81c0 -23.333 -7.66699 -42.666 -23 -57.999s-34 -23 -56 -23s-40.667 7.66699 -56 23s-23 34.666 -23 57.999v351c0 22 7.66699 41 23 57s34 24 56 24s40.667 -8 56 -24s23 -35 23 -57v-53h-16v53c0 17.333 -6.16699 32.5 -18.5 45.5s-27.166 19.5 -44.499 19.5
s-32.166 -6.5 -44.499 -19.5s-18.5 -28.167 -18.5 -45.5v-351c0 -18 6.16699 -33.333 18.5 -46s27.166 -19 44.499 -19s32.166 6.33301 44.499 19s18.5 28 18.5 46v53h16v-53v0zM108 559v44h16v-44h-16z" />
    <glyph glyph-name="dcaron" horiz-adv-x="274" 
d="M180 0l0.000976562 32c-16 -21.333 -37 -32 -63 -32c-22.667 0 -41.5 7.66699 -56.5 23s-22.5 34.666 -22.5 57.999v351c0 22 7.5 41 22.5 57s33.833 24 56.5 24c12 0 23.667 -3.16699 35 -9.5s20.666 -14.166 27.999 -23.499v210h16l34 -46l17.5 23l17.5 23h19l-49 -65
h-12l-27 38v-663h-16zM54.001 81c0 -18 6.16699 -33.333 18.5 -46s27.166 -19 44.499 -19s32.166 6.33301 44.499 19s18.5 28 18.5 46v351c0 17.333 -6.16699 32.5 -18.5 45.5s-27.166 19.5 -44.499 19.5s-32.166 -6.5 -44.499 -19.5s-18.5 -28.167 -18.5 -45.5v-351v0z" />
    <glyph glyph-name="delta" 
d="M195 81c0 -23.333 -7.66797 -42.6641 -23.001 -57.9971s-34 -23 -56 -23s-40.667 7.66699 -56 23s-23 34.666 -23 57.999v351c0 19.333 6.33301 36.666 19 51.999s28 24.666 46 27.999c-9.33301 28.667 -19.166 57.167 -29.499 85.5s-20.166 56.833 -29.499 85.5h3
c-0.666992 2 -1 4.33301 -1 7h149v-16h-135l30.5 -80.5l30.5 -80.5c21.333 -1.33301 39.166 -9.83301 53.499 -25.5s21.5 -34.167 21.5 -55.5v-351v0zM178.999 432.002c0 17.333 -6.16699 32.5 -18.5 45.5s-27.166 19.5 -44.499 19.5s-32.166 -6.5 -44.499 -19.5
s-18.5 -28.167 -18.5 -45.5v-351c0 -18 6.16699 -33.333 18.5 -46s27.166 -19 44.499 -19s32.166 6.33301 44.499 19s18.5 28 18.5 46v351z" />
    <glyph glyph-name="dmacron" 
d="M179 0v32.002c-14.667 -21.333 -35.667 -32 -63 -32c-22 0 -40.667 7.66699 -56 23s-23 34.666 -23 57.999v235c0 23.333 7.66699 42.666 23 57.999s34 23 56 23c12.667 0 24.5 -3 35.5 -9s20.167 -13.667 27.5 -23v132h-80v16h80v177h16v-177h32v-16h-32v-497h-16z
M53 81.002c0 -18 6.16699 -33.333 18.5 -46s27.166 -19 44.499 -19s32.166 6.33301 44.499 19s18.5 28 18.5 46v235c0 18 -6.16699 33.5 -18.5 46.5s-27.166 19.5 -44.499 19.5s-32.166 -6.5 -44.499 -19.5s-18.5 -28.5 -18.5 -46.5v-235v0z" />
    <glyph glyph-name="ebreve" 
d="M195 81c0 -23.333 -7.66504 -42.666 -22.998 -57.999s-34 -23 -56 -23s-40.667 7.66699 -56 23s-23 34.666 -23 57.999v351c0 22 7.66699 41 23 57s34 24 56 24s40.667 -8 56 -24s23 -35 23 -57v-158h-142v-193c0 -18 6.16699 -33.333 18.5 -46s27.166 -19 44.499 -19
s32.166 6.33301 44.499 19s18.5 28 18.5 46v53h16v-53v0zM53.002 289h125.998v143c0 17.333 -6.16699 32.5 -18.5 45.5s-27.166 19.5 -44.499 19.5s-32.166 -6.5 -44.499 -19.5s-18.5 -28.167 -18.5 -45.5v-143zM190 607c0 -22 -6.83301 -38.667 -20.5 -50
s-31.5 -17 -53.5 -17s-39.833 6 -53.5 18s-20.5 30 -20.5 54h15c0 -19.333 5.5 -33.5 16.5 -42.5s25.167 -13.5 42.5 -13.5s31.5 4.5 42.5 13.5s16.5 23.167 16.5 42.5h10z" />
    <glyph glyph-name="ecaron" 
d="M195 81c0 -23.333 -7.66504 -42.666 -22.998 -57.999s-34 -23 -56 -23s-40.667 7.66699 -56 23s-23 34.666 -23 57.999v351c0 22 7.66699 41 23 57s34 24 56 24s40.667 -8 56 -24s23 -35 23 -57v-158h-142v-193c0 -18 6.16699 -33.333 18.5 -46s27.166 -19 44.499 -19
s32.166 6.33301 44.499 19s18.5 28 18.5 46v53h16v-53v0zM53.002 289h125.998v143c0 17.333 -6.16699 32.5 -18.5 45.5s-27.166 19.5 -44.499 19.5s-32.166 -6.5 -44.499 -19.5s-18.5 -28.167 -18.5 -45.5v-143zM111 547l-60.001 64h21l44 -48l22.5 24
c7.66699 8 14.834 16 21.501 24h21l-60 -64h-10z" />
    <glyph glyph-name="edot" 
d="M195 81c0 -23.333 -7.66504 -42.666 -22.998 -57.999s-34 -23 -56 -23s-40.667 7.66699 -56 23s-23 34.666 -23 57.999v351c0 22 7.66699 41 23 57s34 24 56 24s40.667 -8 56 -24s23 -35 23 -57v-158h-142v-193c0 -18 6.16699 -33.333 18.5 -46s27.166 -19 44.499 -19
s32.166 6.33301 44.499 19s18.5 28 18.5 46v53h16v-53v0zM53.002 289h125.998v143c0 17.333 -6.16699 32.5 -18.5 45.5s-27.166 19.5 -44.499 19.5s-32.166 -6.5 -44.499 -19.5s-18.5 -28.167 -18.5 -45.5v-143zM109 559v44h15v-44h-15z" />
    <glyph glyph-name="eightinferior" 
d="M116 0c-22 0 -40.667 7.66699 -56 23s-23 34.666 -23 57.999v77c0 16 4.16699 30.5 12.5 43.5s19.166 22.833 32.499 29.5c-13.333 7.33301 -24.166 17.5 -32.499 30.5s-12.5 27.5 -12.5 43.5v14c0 22.667 7.66699 41.667 23 57s34 23 56 23s40.667 -7.66699 56 -23
s23 -34.333 23 -57v-14c0 -16 -4.16699 -30.5 -12.5 -43.5s-19.166 -23.167 -32.499 -30.5c13.333 -6.66699 24.166 -16.5 32.499 -29.5s12.5 -27.5 12.5 -43.5v-77c0 -23.333 -7.66699 -42.666 -23 -57.999s-34 -23 -56 -23zM53 81c0 -18 6.16699 -33.333 18.5 -46
s27.166 -19 44.499 -19s32.166 6.33301 44.499 19s18.5 28 18.5 46v77c0 17.333 -6.16699 32.5 -18.5 45.5s-27.166 19.5 -44.499 19.5s-32.166 -6.5 -44.499 -19.5s-18.5 -28.167 -18.5 -45.5v-77v0zM53 305c0 -18.667 6.16699 -34.334 18.5 -47.001s27.166 -19 44.499 -19
s32.166 6.33301 44.499 19s18.5 28.334 18.5 47.001v14c0 18 -6.16699 33.5 -18.5 46.5s-27.166 19.5 -44.499 19.5s-32.166 -6.5 -44.499 -19.5s-18.5 -28.5 -18.5 -46.5v-14v0z" />
    <glyph glyph-name="eightsuperior" 
d="M116 282c-22 0 -40.667 7.66699 -56 23s-23 34.666 -23 57.999v77c0 15.333 4.16699 29.5 12.5 42.5s19.166 23.167 32.499 30.5c-13.333 6.66699 -24.166 16.667 -32.499 30s-12.5 28 -12.5 44v14c0 22.667 7.66699 41.667 23 57s34 23 56 23s40.667 -7.66699 56 -23
s23 -34.333 23 -57v-14c0 -16 -4.16699 -30.667 -12.5 -44s-19.166 -23.333 -32.499 -30c13.333 -7.33301 24.166 -17.5 32.499 -30.5s12.5 -27.167 12.5 -42.5v-77c0 -23.333 -7.66699 -42.666 -23 -57.999s-34 -23 -56 -23zM53 363c0 -18 6.16699 -33.333 18.5 -46
s27.166 -19 44.499 -19s32.166 6.33301 44.499 19s18.5 28 18.5 46v77c0 17.333 -6.16699 32.5 -18.5 45.5s-27.166 19.5 -44.499 19.5s-32.166 -6.5 -44.499 -19.5s-18.5 -28.167 -18.5 -45.5v-77v0zM53 587c0 -18.667 6.16699 -34.334 18.5 -47.001s27.166 -19 44.499 -19
s32.166 6.33301 44.499 19s18.5 28.334 18.5 47.001v14c0 18 -6.16699 33.333 -18.5 46s-27.166 19 -44.499 19s-32.166 -6.33301 -44.499 -19s-18.5 -28 -18.5 -46v-14v0z" />
    <glyph glyph-name="emacron" 
d="M195 81c0 -23.333 -7.66504 -42.666 -22.998 -57.999s-34 -23 -56 -23s-40.667 7.66699 -56 23s-23 34.666 -23 57.999v351c0 22 7.66699 41 23 57s34 24 56 24s40.667 -8 56 -24s23 -35 23 -57v-158h-142v-193c0 -18 6.16699 -33.333 18.5 -46s27.166 -19 44.499 -19
s32.166 6.33301 44.499 19s18.5 28 18.5 46v53h16v-53v0zM53.002 289h125.998v143c0 17.333 -6.16699 32.5 -18.5 45.5s-27.166 19.5 -44.499 19.5s-32.166 -6.5 -44.499 -19.5s-18.5 -28.167 -18.5 -45.5v-143zM61 568l-1 16h112v-16h-111z" />
    <glyph glyph-name="eng" horiz-adv-x="233" 
d="M195 6l0.998047 -1c0 -11.333 -2.16699 -21.833 -6.5 -31.5s-10.333 -18.167 -18 -25.5s-16.667 -13.166 -27 -17.499s-21.5 -6.5 -33.5 -6.5v16c19.333 0 35.5 6.33301 48.5 19s19.5 28 19.5 46v427c0 17.333 -6.16699 32.5 -18.5 45.5s-27.166 19.5 -44.499 19.5
s-32.166 -6.5 -44.499 -19.5s-18.5 -28.167 -18.5 -45.5v-432h-16v513h16v-33c7.33301 9.33301 16.5 17.166 27.5 23.499s22.833 9.5 35.5 9.5c22 0 40.667 -8 56 -24s23 -35 23 -57v-426z" />
    <glyph glyph-name="eogonek" 
d="M154 -77c-17.333 -5.33301 -31.4961 -5.16992 -42.4961 0.49707s-16.167 16.167 -15.5 31.5c0 5.33301 1.16699 10.333 3.5 15s5.16602 9 8.49902 13l5 7.5c2 3 4 5.5 6 7.5c0.666992 0.666992 1 1.33398 1 2.00098h-4c-22 0 -40.667 7.66699 -56 23
s-23 34.666 -23 57.999v351c0 22 7.66699 41 23 57s34 24 56 24s40.667 -8 56 -24s23 -35 23 -57v-158h-142v-193c0 -18 6.16699 -33.333 18.5 -46s27.166 -19 44.499 -19s32.166 6.33301 44.499 19s18.5 28 18.5 46v53h16v-53c0 -17.333 -5 -33.166 -15 -47.499
s-22.667 -24.166 -38 -29.499l-11 -15.5c-4 -5.66699 -7.66699 -10.5 -11 -14.5c-2.66699 -3.33301 -5 -6.5 -7 -9.5s-3 -6.16699 -3 -9.5c0 -10 4.66699 -16.167 14 -18.5s20.666 -1.16602 33.999 3.50098v-12zM53.0039 288.996h125.998v143
c0 17.333 -6.16699 32.5 -18.5 45.5s-27.166 19.5 -44.499 19.5s-32.166 -6.5 -44.499 -19.5s-18.5 -28.167 -18.5 -45.5v-143zM121.002 -0.00390625c-1.33301 -1.33301 -1.66699 -1.5 -1 -0.5s0.666992 1.16699 0 0.5h1z" />
    <glyph glyph-name="epsilontonos" 
d="M116 0c-22 0 -40.668 7.66699 -56.001 23s-23 34.666 -23 57.999v110c0 16 4.16699 30.333 12.5 43s19.166 22.667 32.499 30c-13.333 7.33301 -24.166 17.5 -32.499 30.5s-12.5 27.167 -12.5 42.5v95c0 22 7.66699 41 23 57s34 24 56 24
c10.667 0 20.834 -2.33301 30.501 -7s18.167 -11 25.5 -19s13 -17.167 17 -27.5s6 -21.166 6 -32.499h-16c0 19.333 -6.16699 35.833 -18.5 49.5s-27.166 20.5 -44.499 20.5s-32.166 -6.5 -44.499 -19.5s-18.5 -28.167 -18.5 -45.5v-95c0 -18 6.16699 -33.333 18.5 -46
s27.166 -19 44.499 -19h35v-16h-35c-17.333 0 -32.166 -6.33301 -44.499 -19s-18.5 -28 -18.5 -46v-110c0 -18 6.16699 -33.333 18.5 -46s27.166 -19 44.499 -19s32.166 6.83301 44.499 20.5s18.5 30.167 18.5 49.5h16c0 -24.667 -7.66699 -45.167 -23 -61.5
s-34 -24.5 -56 -24.5zM96.999 543h-19l57 69h20z" />
    <glyph glyph-name="etatonos" 
d="M37 0l-0.00195312 513.001h16v-33c7.33301 9.33301 16.5 17.166 27.5 23.499s22.833 9.5 35.5 9.5c22 0 40.667 -8 56 -24s23 -35 23 -57v-509h-16v509c0 17.333 -6.16699 32.5 -18.5 45.5s-27.166 19.5 -44.499 19.5s-32.166 -6.5 -44.499 -19.5
s-18.5 -28.167 -18.5 -45.5v-432h-16zM95.998 543.001h-18l57 69h20z" />
    <glyph glyph-name="exclamdbl" horiz-adv-x="162" 
d="M110 143v547h15v-547h-15zM37 143v547h15v-547h-15zM110 0v58h15v-58h-15zM37 0v58h15v-58h-15z" />
    <glyph glyph-name="fi2" horiz-adv-x="265" 
d="M37 0l-0.00195312 608.999c0 22.667 7.66699 41.834 23 57.501s34 23.5 56 23.5c22.667 0 41.5 -8.5 56.5 -25.5s22.5 -37.167 22.5 -60.5h-16c0 19.333 -6.16699 35.833 -18.5 49.5s-27.166 20.5 -44.499 20.5s-32.166 -6.33301 -44.499 -19s-18.5 -28 -18.5 -46v-96
h175v-513h-16v497h-159v-497h-16z" />
    <glyph glyph-name="fiveeighths" horiz-adv-x="469" 
d="M351 0c-22 0 -40.667 7.66699 -56 23s-23 34.666 -23 57.999v77c0 16 4.33301 30.5 13 43.5s19.667 22.833 33 29.5c-13.333 7.33301 -24.333 17.5 -33 30.5s-13 27.5 -13 43.5v14c0 22.667 7.66699 41.667 23 57s34 23 56 23c22.667 0 41.5 -7.66699 56.5 -23
s22.5 -34.333 22.5 -57v-14c0 -16 -4.16699 -30.5 -12.5 -43.5s-19.166 -23.167 -32.499 -30.5c13.333 -6.66699 24.166 -16.5 32.499 -29.5s12.5 -27.5 12.5 -43.5v-77c0 -23.333 -7.5 -42.666 -22.5 -57.999s-33.833 -23 -56.5 -23zM287 81c0 -18 6.33301 -33.333 19 -46
s27.667 -19 45 -19s32.166 6.33301 44.499 19s18.5 28 18.5 46v77c0 17.333 -6.16699 32.5 -18.5 45.5s-27.166 19.5 -44.499 19.5s-32.333 -6.5 -45 -19.5s-19 -28.167 -19 -45.5v-77v0zM287 305c0 -18.667 6.33301 -34.334 19 -47.001s27.667 -19 45 -19
s32.166 6.33301 44.499 19s18.5 28.334 18.5 47.001v14c0 18 -6.16699 33.5 -18.5 46.5s-27.166 19.5 -44.499 19.5s-32.333 -6.5 -45 -19.5s-19 -28.5 -19 -46.5v-14v0zM118 282c-22.667 0 -41.5 8.16699 -56.5 24.5s-22.5 36.833 -22.5 61.5h16
c0 -19.333 6.16699 -35.833 18.5 -49.5s27.166 -20.5 44.499 -20.5s32.166 6.33301 44.499 19s18.5 28 18.5 46v125c0 18 -6.16699 33.333 -18.5 46s-27.166 19 -44.499 19s-32.166 -6.83301 -44.499 -20.5s-18.5 -30.167 -18.5 -49.5l-16 2v196h153v-15h-137v-129
c7.33301 9.33301 16.5 17 27.5 23s22.833 9 35.5 9c22 0 40.667 -7.83301 56 -23.5s23 -34.834 23 -57.501v-125c0 -23.333 -7.66699 -42.666 -23 -57.999s-34 -23 -56 -23zM171 0h-16l149 690h15z" />
    <glyph glyph-name="fiveinferior" 
d="M116 0c-22 0 -40.667 8.16699 -56 24.5s-23 36.833 -23 61.5h16c0 -19.333 6.16699 -35.833 18.5 -49.5s27.166 -20.5 44.499 -20.5s32.166 6.33301 44.499 19s18.5 28 18.5 46v125c0 18 -6.16699 33.333 -18.5 46s-27.166 19 -44.499 19s-32.166 -6.83301 -44.499 -20.5
s-18.5 -30.167 -18.5 -49.5l-16 2v196h153v-14h-137v-130c7.33301 9.33301 16.5 17 27.5 23s22.833 9 35.5 9c22 0 40.667 -7.83301 56 -23.5s23 -34.834 23 -57.501v-125c0 -23.333 -7.66699 -42.666 -23 -57.999s-34 -23 -56 -23z" />
    <glyph glyph-name="fivesuperior" 
d="M116 282c-22 0 -40.667 8.16699 -56 24.5s-23 36.833 -23 61.5h16c0 -19.333 6.16699 -35.833 18.5 -49.5s27.166 -20.5 44.499 -20.5s32.166 6.33301 44.499 19s18.5 28 18.5 46v125c0 18 -6.16699 33.333 -18.5 46s-27.166 19 -44.499 19
s-32.166 -6.83301 -44.499 -20.5s-18.5 -30.167 -18.5 -49.5l-16 2v196h153v-15h-137v-129c7.33301 9.33301 16.5 17 27.5 23s22.833 9 35.5 9c22 0 40.667 -7.83301 56 -23.5s23 -34.834 23 -57.501v-125c0 -23.333 -7.66699 -42.666 -23 -57.999s-34 -23 -56 -23z" />
    <glyph glyph-name="fl2" horiz-adv-x="265" 
d="M37 0l-0.00195312 608.999c0 22.667 7.66699 41.834 23 57.501s34 23.5 56 23.5c22.667 0 41.5 -8.5 56.5 -25.5s22.5 -37.167 22.5 -60.5h-16c0 19.333 -6.16699 35.833 -18.5 49.5s-27.166 20.5 -44.499 20.5s-32.166 -6.33301 -44.499 -19s-18.5 -28 -18.5 -46v-96
h159v177h16v-690h-16v497h-159v-497h-16z" />
    <glyph glyph-name="fourinferior" horiz-adv-x="227" 
d="M163 80v-80h-15v80h-113l114 321h14v-305h27v-16h-27zM148 96v254l-46 -126.5l-46 -127.5h92z" />
    <glyph glyph-name="foursuperior" horiz-adv-x="227" 
d="M163 362v-80h-15v80h-113l114 321h14v-305h27v-16h-27zM148 378v254l-46 -126.5l-46 -127.5h92z" />
    <glyph glyph-name="gbreve" 
d="M195 -97c0 -22 -7.66504 -40.833 -22.998 -56.5s-34 -23.5 -56 -23.5s-40.667 8.33301 -56 25s-23 36.667 -23 60h16c0 -19.333 6.16699 -35.833 18.5 -49.5s27.166 -20.5 44.499 -20.5s32.166 6.5 44.499 19.5s18.5 28.167 18.5 45.5v129
c-7.33301 -9.33301 -16.5 -17 -27.5 -23s-22.833 -9 -35.5 -9c-22 0 -40.667 7.66699 -56 23s-23 34.666 -23 57.999v351c0 22 7.66699 41 23 57s34 24 56 24c12.667 0 24.5 -3.16699 35.5 -9.5s20.167 -14.166 27.5 -23.499v33h16v-610v0zM53.002 81
c0 -18 6.16699 -33.333 18.5 -46s27.166 -19 44.499 -19s32.166 6.33301 44.499 19s18.5 28 18.5 46v351c0 17.333 -6.16699 32.5 -18.5 45.5s-27.166 19.5 -44.499 19.5s-32.166 -6.5 -44.499 -19.5s-18.5 -28.167 -18.5 -45.5v-351v0zM194.002 607
c0 -22 -7 -38.667 -21 -50s-32 -17 -54 -17c-21.333 0 -39 6 -53 18s-21 30 -21 54h17c0 -19.333 5.33301 -33.5 16 -42.5s24.667 -13.5 42 -13.5s31.5 4.5 42.5 13.5s16.5 23.167 16.5 42.5h10z" />
    <glyph glyph-name="gcedilla" 
d="M195 -102c-1.33301 -21.333 -9.49805 -39.167 -24.498 -53.5s-33.167 -21.5 -54.5 -21.5c-22 0 -40.667 8.33301 -56 25s-23 36.667 -23 60h16c0 -19.333 6.16699 -35.833 18.5 -49.5s27.166 -20.5 44.499 -20.5s32.166 6.83301 44.499 20.5s18.5 30.167 18.5 49.5v124
c-16 -21.333 -37 -32 -63 -32c-20.667 -0 -38.334 7.33301 -53.001 22s-23.334 32.667 -26.001 54v6v4v351c2.66699 20.667 11.334 38.5 26.001 53.5s32.334 22.5 53.001 22.5c13.333 0 25.333 -3.16699 36 -9.5s19.667 -14.833 27 -25.5v35h16v-83v-3v-524v-3v-2v0z
M116.002 496.999c-17.333 0 -31.832 -6.33301 -43.499 -19s-18.167 -27.667 -19.5 -45v-347c0 -19.333 6.16699 -35.833 18.5 -49.5s27.166 -20.5 44.499 -20.5s32.166 6.83301 44.499 20.5s18.5 30.167 18.5 49.5v341c0 19.333 -6.16699 35.833 -18.5 49.5
s-27.166 20.5 -44.499 20.5zM120.003 590.999v-52h-16v56l24 57h17z" />
    <glyph glyph-name="gcircumflex" 
d="M195 -97c0 -22 -7.66504 -40.833 -22.998 -56.5s-34 -23.5 -56 -23.5s-40.667 8.33301 -56 25s-23 36.667 -23 60h16c0 -19.333 6.16699 -35.833 18.5 -49.5s27.166 -20.5 44.499 -20.5s32.166 6.5 44.499 19.5s18.5 28.167 18.5 45.5v129
c-7.33301 -9.33301 -16.5 -17 -27.5 -23s-22.833 -9 -35.5 -9c-22 0 -40.667 7.66699 -56 23s-23 34.666 -23 57.999v351c0 22 7.66699 41 23 57s34 24 56 24c12.667 0 24.5 -3.16699 35.5 -9.5s20.167 -14.166 27.5 -23.499v33h16v-610v0zM53.002 81
c0 -18 6.16699 -33.333 18.5 -46s27.166 -19 44.499 -19s32.166 6.33301 44.499 19s18.5 28 18.5 46v351c0 17.333 -6.16699 32.5 -18.5 45.5s-27.166 19.5 -44.499 19.5s-32.166 -6.5 -44.499 -19.5s-18.5 -28.167 -18.5 -45.5v-351v0zM75.002 547h-20l58 64h11l58 -64h-20
l-44 48z" />
    <glyph glyph-name="gdot" 
d="M195 -97c0 -22 -7.66504 -40.833 -22.998 -56.5s-34 -23.5 -56 -23.5s-40.667 8.33301 -56 25s-23 36.667 -23 60h16c0 -19.333 6.16699 -35.833 18.5 -49.5s27.166 -20.5 44.499 -20.5s32.166 6.5 44.499 19.5s18.5 28.167 18.5 45.5v129
c-7.33301 -9.33301 -16.5 -17 -27.5 -23s-22.833 -9 -35.5 -9c-22 0 -40.667 7.66699 -56 23s-23 34.666 -23 57.999v351c0 22 7.66699 41 23 57s34 24 56 24c12.667 0 24.5 -3.16699 35.5 -9.5s20.167 -14.166 27.5 -23.499v33h16v-610v0zM53.002 81
c0 -18 6.16699 -33.333 18.5 -46s27.166 -19 44.499 -19s32.166 6.33301 44.499 19s18.5 28 18.5 46v351c0 17.333 -6.16699 32.5 -18.5 45.5s-27.166 19.5 -44.499 19.5s-32.166 -6.5 -44.499 -19.5s-18.5 -28.167 -18.5 -45.5v-351v0zM112.002 559v44h16v-44h-16z" />
    <glyph glyph-name="hbar" horiz-adv-x="225" 
d="M40 0l-0.00195312 583h-32v14h32v93h15v-93h109v-14h-109v-103c7.33301 9.33301 16.5 17.166 27.5 23.499s23.167 9.5 36.5 9.5c10.667 0 20.834 -2.16699 30.501 -6.5s18 -10.166 25 -17.499s12.667 -16 17 -26s6.5 -20.333 6.5 -31v-432h-16v432
c0 17.333 -6.16699 32.5 -18.5 45.5s-27.166 19.5 -44.499 19.5c-18 0 -33.167 -6.5 -45.5 -19.5s-18.5 -28.167 -18.5 -45.5v-432h-15z" />
    <glyph glyph-name="hcircumflex" horiz-adv-x="235" 
d="M37 0l-0.00195312 690.001h16v-210c7.33301 9.33301 16.5 17.166 27.5 23.499s22.833 9.5 35.5 9.5c22 0 40.667 -8 56 -24s23 -35 23 -57v-432h-16v432c0 17.333 -6.16699 32.5 -18.5 45.5s-27.166 19.5 -44.499 19.5s-32.166 -6.5 -44.499 -19.5
s-18.5 -28.167 -18.5 -45.5v-432h-16zM95.998 547.001h-19l57 64h12l58 -64h-21l-43 48z" />
    <glyph glyph-name="ibreve" horiz-adv-x="88" 
d="M36 0v513h15v-513h-15zM118 607c0 -22 -6.83301 -38.667 -20.5 -50s-31.5 -17 -53.5 -17s-39.833 6 -53.5 18s-20.5 30 -20.5 54h15c0 -19.333 5.5 -33.5 16.5 -42.5s25.167 -13.5 42.5 -13.5s31.333 4.5 42 13.5s16 23.167 16 42.5h11z" />
    <glyph glyph-name="ij" horiz-adv-x="171" 
d="M134 -94c0 -22.667 -8.16699 -41.833 -24.5 -57.5s-36.166 -23.5 -59.499 -23.5v15c19.333 0 35.666 6.5 48.999 19.5s20 28.5 20 46.5v607h15v-607v0zM37 0.000976562v513h15v-513h-15zM119 565.001v81h15v-81h-15zM37 565.001v81h15v-81h-15z" />
    <glyph glyph-name="imacron" horiz-adv-x="88" 
d="M36 0v513h16v-513h-16zM-12 568v16h112v-16h-112z" />
    <glyph glyph-name="iogonek" horiz-adv-x="99" 
d="M58 -94c0 -10 -1.99902 -19.832 -5.99902 -29.499s-9 -18.167 -15 -25.5c-0.666992 -1.33301 -1.5 -3.5 -2.5 -6.5s-1.5 -5.16699 -1.5 -6.5c0 -9.33301 4.66699 -15 14 -17s20.666 -0.666992 33.999 4v-17c-19.333 -4.66699 -34.5 -4.83398 -45.5 -0.500977
s-16.5 13.833 -16.5 28.5c-13.333 -7.33301 -28.333 -11 -45 -11v15c18.667 0 34.667 6.5 48 19.5s20 28.5 20 46.5v607h16v-607v0zM42.001 565.001v81h16v-81h-16z" />
    <glyph glyph-name="iotatonos" horiz-adv-x="89" 
d="M36 0v513h16v-513h-16zM24 543h-19l59 69h20z" />
    <glyph glyph-name="itilde" horiz-adv-x="88" 
d="M36 0v513h15v-513h-15zM129 578c-13.333 -14.667 -29.668 -22 -49.001 -22c-15.333 0 -29.333 5 -42 15c-10 8 -20.333 12 -31 12c-12.667 0 -25.667 -6.66699 -39 -20l-13 13c15.333 15.333 32.666 23 51.999 23c14.667 0 28.667 -5 42 -15
c4.66699 -3.33301 9.83398 -6 15.501 -8s10.834 -3 15.501 -3c14 0 27.333 6.33301 40 19l9 -7v-7z" />
    <glyph glyph-name="jcircumflex" horiz-adv-x="124" 
d="M76 -94c0 -22.667 -8.16797 -41.833 -24.501 -57.5s-36.166 -23.5 -59.499 -23.5v15c18.667 0 34.667 6.5 48 19.5s20 28.5 20 46.5v607h16v-607v0zM24.999 547.001h-20l58 64h11l58 -64h-21l-43 48z" />
    <glyph glyph-name="kcedilla" horiz-adv-x="210" 
d="M182 0l-129 234v-234h-16v688h16v-404l64.5 115l64.5 114h15l-142 -254l71 -129.5l71 -129.5h-15zM150 -37c0 -15.333 -5.83203 -28.168 -17.499 -38.501s-26.5 -15.5 -44.5 -15.5v15c13.333 0 24.666 3.83301 33.999 11.5s14 16.834 14 27.501
c0 9.33301 -4.33301 17.833 -13 25.5s-19 12.167 -31 13.5v15c16.667 -1.33301 30.5 -7 41.5 -17s16.5 -22.333 16.5 -37z" />
    <glyph glyph-name="kgreenlandic" horiz-adv-x="211" 
d="M181 0l-128 217v-217h-16v513h16v-243l64.5 122l64.5 121h15l-141 -269l71 -122.5l71 -121.5h-17z" />
    <glyph glyph-name="lacute" horiz-adv-x="140" 
d="M62 0v691h16v-691h-16zM50 710h-19l58 68h20z" />
    <glyph glyph-name="lambda" horiz-adv-x="195" 
d="M33 0h-16l73 445l-14 79.5l-14 79.5h16l100 -598h-15l-66 389z" />
    <glyph glyph-name="lcaron" horiz-adv-x="125" 
d="M37 0v690h15v-690h-15zM103 578h-18l25 61v51h15v-55z" />
    <glyph glyph-name="ldot" horiz-adv-x="122" 
d="M37 0v690h15v-690h-15zM100 322v59h15v-59h-15z" />
    <glyph glyph-name="male" horiz-adv-x="233" 
 />
    <glyph glyph-name="periodcentered" horiz-adv-x="88" 
d="M36 322v59h16v-59h-16z" />
    <glyph glyph-name="minute" horiz-adv-x="88" 
d="M36 582v101h16v-101h-16z" />
    <glyph glyph-name="mu1" horiz-adv-x="239" 
d="M198 -42c-18.667 -4.66699 -33.165 -4.5 -43.498 0.5s-15.5 15.167 -15.5 30.5c0 6 1 11 3 15c-7.33301 -2.66699 -16 -4 -26 -4c-13.333 0 -25.333 3 -36 9s-19.667 13.667 -27 23v-166h-16v647h16v-432c0 -18 6.16699 -33.333 18.5 -46s27.166 -19 44.499 -19
s32.166 6.33301 44.499 19s18.5 28 18.5 46v432h16v-432c0 -17.333 -4.66699 -33 -14 -47l-1 -2l-3 -3v1c-4.66699 -6.66699 -9.66699 -13.334 -15 -20.001c-2 -3.33301 -3.83301 -6.83301 -5.5 -10.5s-2.5 -7.16699 -2.5 -10.5c0 -9.33301 4.5 -15.166 13.5 -17.499
s20.5 -1.5 34.5 2.5v-11z" />
    <glyph glyph-name="nacute" 
d="M37 0l-0.00195312 513.001h16v-33c7.33301 9.33301 16.5 17.166 27.5 23.499s22.833 9.5 35.5 9.5c22 0 40.667 -8 56 -24s23 -35 23 -57v-432h-16v432c0 17.333 -6.16699 32.5 -18.5 45.5s-27.166 19.5 -44.499 19.5s-32.166 -6.5 -44.499 -19.5
s-18.5 -28.167 -18.5 -45.5v-432h-16zM95.998 543.001h-19l59 69h19z" />
    <glyph glyph-name="nonbreakingspace" horiz-adv-x="233" 
 />
    <glyph glyph-name="ncaron" 
d="M37 0l-0.00195312 513.001h16v-33c7.33301 9.33301 16.5 17.166 27.5 23.499s22.833 9.5 35.5 9.5c22 0 40.667 -8 56 -24s23 -35 23 -57v-432h-16v432c0 17.333 -6.16699 32.5 -18.5 45.5s-27.166 19.5 -44.499 19.5s-32.166 -6.5 -44.499 -19.5
s-18.5 -28.167 -18.5 -45.5v-432h-16zM110.998 547.001l-60.001 64h21l44 -48l22.5 24c7.66699 8 14.834 16 21.501 24h21l-60 -64h-10z" />
    <glyph glyph-name="nineinferior" 
d="M116 0c-22 0 -40.665 7.66602 -55.998 22.999s-23 34.666 -23 57.999v35h16v-35c0 -18 6.16699 -33.333 18.5 -46s27.166 -19 44.499 -19s32.166 6.33301 44.499 19s18.5 28 18.5 46v104c-7.33301 -9.33301 -16.333 -17 -27 -23s-22.667 -9 -36 -9
c-22 0 -40.667 7.83301 -56 23.5s-23 34.834 -23 57.501v85c0 22.667 7.66699 41.667 23 57s34 23 56 23s40.667 -7.66699 56 -23s23 -34.333 23 -57v-238c0 -23.333 -7.66699 -42.666 -23 -57.999s-34 -23 -56 -23zM53.002 233.999c0 -18 6.16699 -33.333 18.5 -46
s27.166 -19 44.499 -19s32.166 6.33301 44.499 19s18.5 28 18.5 46v85c0 18 -6.16699 33.5 -18.5 46.5s-27.166 19.5 -44.499 19.5s-32.166 -6.5 -44.499 -19.5s-18.5 -28.5 -18.5 -46.5v-85v0z" />
    <glyph glyph-name="ninesuperior" 
d="M116 282c-22 0 -40.665 7.66797 -55.998 23.001s-23 34.666 -23 57.999v35h16v-35c0 -18 6.16699 -33.333 18.5 -46s27.166 -19 44.499 -19s32.166 6.33301 44.499 19s18.5 28 18.5 46v103c-7.33301 -9.33301 -16.333 -16.833 -27 -22.5s-22.667 -8.5 -36 -8.5
c-22 0 -40.667 7.66699 -56 23s-23 34.666 -23 57.999v85c0 22.667 7.66699 41.667 23 57s34 23 56 23s40.667 -7.66699 56 -23s23 -34.333 23 -57v-238c0 -23.333 -7.66699 -42.666 -23 -57.999s-34 -23 -56 -23zM53.002 516.001c0 -18 6.16699 -33.333 18.5 -46
s27.166 -19 44.499 -19s32.166 6.33301 44.499 19s18.5 28 18.5 46v85c0 18 -6.16699 33.333 -18.5 46s-27.166 19 -44.499 19s-32.166 -6.33301 -44.499 -19s-18.5 -28 -18.5 -46v-85v0z" />
    <glyph glyph-name="obreve" 
d="M195 81c0 -23.333 -7.66699 -42.666 -23 -57.999s-34 -23 -56 -23s-40.667 7.66699 -56 23s-23 34.666 -23 57.999v351c0 22 7.66699 41 23 57s34 24 56 24s40.667 -8 56 -24s23 -35 23 -57v-351v0zM53 81c0 -18 6.16699 -33.333 18.5 -46s27.166 -19 44.499 -19
s32.166 6.33301 44.499 19s18.5 28 18.5 46v351c0 17.333 -6.16699 32.5 -18.5 45.5s-27.166 19.5 -44.499 19.5s-32.166 -6.5 -44.499 -19.5s-18.5 -28.167 -18.5 -45.5v-351v0zM190 607c0 -22 -6.83301 -38.667 -20.5 -50s-31.5 -17 -53.5 -17s-39.833 6 -53.5 18
s-20.5 30 -20.5 54h15c0 -19.333 5.5 -33.5 16.5 -42.5s25.167 -13.5 42.5 -13.5s31.5 4.5 42.5 13.5s16.5 23.167 16.5 42.5h10z" />
    <glyph glyph-name="odblacute" 
d="M195 81c0 -23.333 -7.66699 -42.666 -23 -57.999s-34 -23 -56 -23s-40.667 7.66699 -56 23s-23 34.666 -23 57.999v351c0 22 7.66699 41 23 57s34 24 56 24s40.667 -8 56 -24s23 -35 23 -57v-351v0zM53 81c0 -18 6.16699 -33.333 18.5 -46s27.166 -19 44.499 -19
s32.166 6.33301 44.499 19s18.5 28 18.5 46v351c0 17.333 -6.16699 32.5 -18.5 45.5s-27.166 19.5 -44.499 19.5s-32.166 -6.5 -44.499 -19.5s-18.5 -28.167 -18.5 -45.5v-351v0zM126 543h-19l57 69h22zM67 543h-21l59 69h20z" />
    <glyph glyph-name="omacron" 
d="M195 81c0 -23.333 -7.66699 -42.666 -23 -57.999s-34 -23 -56 -23s-40.667 7.66699 -56 23s-23 34.666 -23 57.999v351c0 22 7.66699 41 23 57s34 24 56 24s40.667 -8 56 -24s23 -35 23 -57v-351v0zM53 81c0 -18 6.16699 -33.333 18.5 -46s27.166 -19 44.499 -19
s32.166 6.33301 44.499 19s18.5 28 18.5 46v351c0 17.333 -6.16699 32.5 -18.5 45.5s-27.166 19.5 -44.499 19.5s-32.166 -6.5 -44.499 -19.5s-18.5 -28.167 -18.5 -45.5v-351v0zM61 568l-1 16h112v-16h-111z" />
    <glyph glyph-name="omega" horiz-adv-x="379" 
d="M260 0c-15.333 0 -29.3311 4.16699 -41.998 12.5s-22.334 19.166 -29.001 32.499c-6.66699 -13.333 -16.334 -24.166 -29.001 -32.499s-26.667 -12.5 -42 -12.5c-22 0 -40.667 7.66699 -56 23s-23 34.666 -23 57.999l-1 351c0 22 8.16699 41 24.5 57s36.5 24 60.5 24v-16
c-19.333 0 -35.666 -6.5 -48.999 -19.5s-20 -28.167 -20 -45.5v-351c0 -18 6.33301 -33.333 19 -46s27.667 -19 45 -19s32.166 6.33301 44.499 19s18.5 28 18.5 46v326h16v-326c0 -18 6.16699 -33.333 18.5 -46s27.166 -19 44.499 -19s32.333 6.33301 45 19s19 28 19 46v351
c0 17.333 -6.66699 32.5 -20 45.5s-29.666 19.5 -48.999 19.5v16c24 0 44.167 -8 60.5 -24s24.5 -35 24.5 -57v-351c0 -23.333 -7.83301 -42.666 -23.5 -57.999s-34.5 -23 -56.5 -23z" />
    <glyph glyph-name="oneeighth" horiz-adv-x="428" 
d="M310 0c-22 0 -40.667 7.66895 -56 23.002s-23 34.666 -23 57.999v77c0 16 4.16699 30.5 12.5 43.5s19.166 22.833 32.499 29.5c-13.333 7.33301 -24.166 17.5 -32.499 30.5s-12.5 27.5 -12.5 43.5v14c0 22.667 7.66699 41.667 23 57s34 23 56 23s40.5 -7.66699 55.5 -23
s22.5 -34.333 22.5 -57v-14c0 -16.667 -4.16699 -31.5 -12.5 -44.5s-19.166 -22.833 -32.499 -29.5c13.333 -6.66699 24.166 -16.334 32.499 -29.001s12.5 -27.334 12.5 -44.001v-77c0 -23.333 -7.5 -42.666 -22.5 -57.999s-33.5 -23 -55.5 -23zM247 81.002
c0 -18 6.16699 -33.333 18.5 -46s27.166 -19 44.499 -19s32.333 6.33301 45 19s19 28 19 46v77c0 17.333 -6.33301 32.5 -19 45.5s-27.667 19.5 -45 19.5s-32.166 -6.5 -44.499 -19.5s-18.5 -28.167 -18.5 -45.5v-77v0zM247 305.002c0 -18.667 6.16699 -34.334 18.5 -47.001
s27.166 -19 44.499 -19s32.333 6.33301 45 19s19 28.334 19 47.001v14c0 18 -6.33301 33.5 -19 46.5s-27.667 19.5 -45 19.5s-32.166 -6.5 -44.499 -19.5s-18.5 -28.5 -18.5 -46.5v-14v0zM129 0.00195312h-16l149 690h15zM102 282.002v368l-26 -46l-25 -45l-15 1l69 123h11
v-401h-14z" />
    <glyph glyph-name="oneinferior" horiz-adv-x="151" 
d="M100 0v368l-26 -46l-25 -45l-15 1l69 123h11v-401h-14z" />
    <glyph glyph-name="onethird" horiz-adv-x="436" 
d="M318 0c-22 0 -40.667 8.16602 -56 24.499s-23 36.833 -23 61.5h15c0 -19.333 6.33301 -35.833 19 -49.5s27.667 -20.5 45 -20.5s32.333 6.33301 45 19s19 28 19 46v77c0 17.333 -6.33301 32.5 -19 45.5s-27.667 19.5 -45 19.5h-36v16h36c17.333 0 32.333 6.33301 45 19
s19 28.334 19 47.001v14c0 18 -6.33301 33.5 -19 46.5s-27.667 19.5 -45 19.5s-32.333 -6.83301 -45 -20.5s-19 -30.167 -19 -49.5h-15c0 23.333 7.66699 43.166 23 59.499s34 24.5 56 24.5s40.667 -7.66699 56 -23s23 -34.333 23 -57v-14
c0 -16.667 -4.33301 -31.5 -13 -44.5s-19.667 -22.833 -33 -29.5c13.333 -6.66699 24.333 -16.5 33 -29.5s13 -27.5 13 -43.5v-77c0 -23.333 -7.66699 -42.666 -23 -57.999s-34 -23 -56 -23zM129 -0.000976562h-16l149 690h15zM102 281.999v368l-26 -46l-25 -45l-15 1
l69 123h11v-401h-14z" />
    <glyph glyph-name="macron" horiz-adv-x="218" 
d="M37 738v16h144v-16h-144z" />
    <glyph glyph-name="peseta" horiz-adv-x="571" 
d="M40 0v690.001h71c22 0 40.667 -7.83301 56 -23.5s23 -34.834 23 -57.501v-168c0 -22.667 -7.66699 -42 -23 -58s-34 -24 -56 -24h-56v-359h-15zM111 375.001c17.333 0 32.333 6.33203 45 18.999s19 28.334 19 47.001v168c0 18 -6.33301 33.333 -19 46s-27.667 19 -45 19
h-56v-299h56zM531 81c0 -23.333 -7.50098 -42.6689 -22.501 -58.002s-33.5 -23 -55.5 -23c-22.667 0 -41.5 8.16699 -56.5 24.5s-22.5 36.833 -22.5 61.5h16c0 -19.333 6.16699 -35.833 18.5 -49.5s27.166 -20.5 44.499 -20.5s32.166 6.33301 44.499 19s18.5 28 18.5 46
c0 11.333 -2.16699 21 -6.5 29s-10.166 15 -17.499 21c-4 3.33301 -9 6.33301 -15 9s-11.667 5.33398 -17 8.00098l-1 1c-1.33301 0.666992 -3.33301 1.5 -6 2.5s-4.66699 1.83301 -6 2.5v-1c-11.333 4.66699 -20 8.5 -26 11.5s-12.667 7.16699 -20 12.5
c-8 7.33301 -14.5 16.333 -19.5 27s-7.5 22.667 -7.5 36c0 22 7.5 40.833 22.5 56.5s33.833 23.5 56.5 23.5c22 0 40.5 -8.33301 55.5 -25s22.5 -36.667 22.5 -60h-15c0 19.333 -6.16699 35.833 -18.5 49.5s-27.166 20.5 -44.499 20.5s-32.166 -6.5 -44.499 -19.5
s-18.5 -28.167 -18.5 -45.5c0 -22 7 -39 21 -51c4.66699 -4 10.334 -7.33301 17.001 -10l21 -8c0.666992 -0.666992 2 -1.5 4 -2.5s3.66699 -1.5 5 -1.5c8.66699 -4 16.167 -7.66699 22.5 -11s13.166 -7.66602 20.499 -12.999c20 -16 30 -36.667 30 -62z
M330.999 -0.00292969c-22 0 -40.666 7.66797 -55.999 23.001s-23 34.666 -23 57.999v225h-44v14h44v128h15v-128h68v-14h-68v-225c0 -18 6.66699 -33.333 20 -46s29.666 -19 48.999 -19v-11z" />
    <glyph glyph-name="pi" horiz-adv-x="249" 
d="M43 0l-0.00292969 502.002c-3.33301 -2 -6.5 -4.5 -9.5 -7.5l-9.5 -9.5l-10 11c8.66699 10.667 18.334 18.5 29.001 23.5s21.667 7.5 33 7.5c9.33301 0 18.5 -1.5 27.5 -4.5s17.5 -7.83301 25.5 -14.5c13.333 -11.333 28 -17 44 -17c18.667 0 36 8.66699 52 26l10 -10
c-13.333 -14.667 -24 -23.667 -32 -27v-480h-16v475c-11.333 -1.33301 -23.166 -0.5 -35.499 2.5s-23.166 8.83301 -32.499 17.5c-8.66699 7.33301 -18.167 12.166 -28.5 14.499s-20.833 2.16602 -31.5 -0.500977v-509h-16z" />
    <glyph glyph-name="psi" horiz-adv-x="239" 
d="M202 82c0 -22 -7.33398 -40.832 -22.001 -56.499s-32 -24.167 -52 -25.5v-165h-16v165c-21.333 1.33301 -39.166 9.66602 -53.499 24.999s-21.5 34.333 -21.5 57v431h16v-431c0 -17.333 5.66699 -32 17 -44s25.333 -19.333 42 -22v498h16v-498
c15.333 1.33301 28.833 8.33301 40.5 21s17.5 27.667 17.5 45v431h16v-431v0z" />
    <glyph glyph-name="racute" horiz-adv-x="208" 
d="M37 0l-0.00292969 513h16v-33c7.33301 9.33301 16.5 17.166 27.5 23.499s22.833 9.5 35.5 9.5c10.667 0 20.834 -2.33301 30.501 -7s18.167 -11 25.5 -19s13 -17.167 17 -27.5s6 -21.166 6 -32.499h-16c0 19.333 -6.16699 35.833 -18.5 49.5s-27.166 20.5 -44.499 20.5
s-32.166 -6.5 -44.499 -19.5s-18.5 -28.167 -18.5 -45.5v-432h-16zM95.9971 543h-19l59 69h19z" />
    <glyph glyph-name="rcaron" horiz-adv-x="211" 
d="M37 0l-0.00292969 513h16v-33c7.33301 9.33301 16.5 17.166 27.5 23.499s22.833 9.5 35.5 9.5c10.667 0 20.834 -2.33301 30.501 -7s18.167 -11 25.5 -19s13 -17.167 17 -27.5s6 -21.166 6 -32.499h-16c0 19.333 -6.16699 35.833 -18.5 49.5s-27.166 20.5 -44.499 20.5
s-32.166 -6.5 -44.499 -19.5s-18.5 -28.167 -18.5 -45.5v-432h-16zM110.997 547l-60.001 64h21l44 -48l22.5 24c7.66699 8 14.834 16 21.501 24h21l-60 -64h-10z" />
    <glyph glyph-name="sacute" 
d="M37 133l15.999 0.000976562v-53c0 -18 6.16699 -33.333 18.5 -46s27.166 -19 44.499 -19s32.166 6.33301 44.499 19s18.5 28 18.5 46v106c0 10 -2.33301 19.333 -7 28s-10.667 16.334 -18 23.001c-3.33301 3.33301 -8.16602 6.33301 -14.499 9s-12.833 5.66699 -19.5 9h1
h-2c-0.666992 0 -1 0.333008 -1 1c-1.33301 0.666992 -2.66602 1.16699 -3.99902 1.5s-2.66602 0.833008 -3.99902 1.5v-1c-11.333 4.66699 -19.833 8.66699 -25.5 12s-12.167 7.66602 -19.5 12.999c-8.66699 7.33301 -15.5 16.166 -20.5 26.499s-7.5 22.166 -7.5 35.499v87
c0 22 7.66699 41 23 57s34 24 56 24s40.667 -8 56 -24s23 -35 23 -57v-53h-16v53c0 17.333 -6.16699 32.5 -18.5 45.5s-27.166 19.5 -44.499 19.5s-32.166 -6.5 -44.499 -19.5s-18.5 -28.167 -18.5 -45.5v-87c0 -20.667 7.33301 -37.334 22 -50.001
c5.33301 -4 11.166 -7.66699 17.499 -11s13.166 -6.66602 20.499 -9.99902l10 -5c0.666992 0 1.5 -0.166992 2.5 -0.5s2.16699 -0.5 3.5 -0.5l18 -9c5.33301 -2.66699 11 -6.33398 17 -11.001c9.33301 -7.33301 16.833 -16.166 22.5 -26.499s8.5 -22.166 8.5 -35.499v-106
c0 -22.667 -7.66699 -41.834 -23 -57.501s-34 -23.5 -56 -23.5s-40.667 7.83301 -56 23.5s-23 34.834 -23 57.501v53zM95.999 543.001h-19l59 69h19z" />
    <glyph glyph-name="scedilla" 
d="M159 -39c0 -15.333 -5.83594 -28.165 -17.5029 -38.498s-26.167 -15.5 -43.5 -15.5v16c13.333 0 24.5 3.66699 33.5 11s13.5 16.333 13.5 27c0 9.33301 -3.16699 17.666 -9.5 24.999s-14.166 11.666 -23.499 12.999c-21.333 1.33301 -39.166 9.66602 -53.499 24.999
s-21.5 34 -21.5 56v53h16v-53c0 -18 6.16699 -33.333 18.5 -46s27.166 -19 44.499 -19s32.166 6.33301 44.499 19s18.5 28 18.5 46v106c0 10 -2.33301 19.333 -7 28s-10.667 16.334 -18 23.001c-3.33301 3.33301 -8.16602 6.33301 -14.499 9s-12.833 5.66699 -19.5 9h1h-2
c-0.666992 0 -1 0.333008 -1 1c-1.33301 0.666992 -2.66602 1.16699 -3.99902 1.5s-2.66602 0.833008 -3.99902 1.5v-1c-11.333 4.66699 -19.833 8.66699 -25.5 12s-12.167 7.66602 -19.5 12.999c-8.66699 7.33301 -15.5 16.166 -20.5 26.499s-7.5 22.166 -7.5 35.499v87
c0 22 7.66699 41 23 57s34 24 56 24s40.667 -8 56 -24s23 -35 23 -57v-53h-16v53c0 17.333 -6.16699 32.5 -18.5 45.5s-27.166 19.5 -44.499 19.5s-32.166 -6.5 -44.499 -19.5s-18.5 -28.167 -18.5 -45.5v-87c0 -20.667 7.33301 -37.334 22 -50.001
c5.33301 -4 11.166 -7.66699 17.499 -11s13.166 -6.66602 20.499 -9.99902l10 -5c0.666992 0 1.5 -0.166992 2.5 -0.5s2.16699 -0.5 3.5 -0.5l18 -9c5.33301 -2.66699 11 -6.33398 17 -11.001c9.33301 -7.33301 16.833 -16.166 22.5 -26.499s8.5 -22.166 8.5 -35.499v-106
c0 -18.667 -5.33301 -35 -16 -49s-23.667 -23.667 -39 -29c5.33301 -5.33301 9.83301 -11.666 13.5 -18.999s5.5 -14.666 5.5 -21.999z" />
    <glyph glyph-name="scircumflex" 
d="M37 133l16.001 0.000976562v-53c0 -18 6.16699 -33.333 18.5 -46s27.166 -19 44.499 -19s32.166 6.33301 44.499 19s18.5 28 18.5 46v106c0 10 -2.33301 19.333 -7 28s-10.667 16.334 -18 23.001c-3.33301 3.33301 -8.16602 6.33301 -14.499 9s-12.833 5.66699 -19.5 9h1
h-2c-0.666992 0 -1 0.333008 -1 1c-1.33301 0.666992 -2.66602 1.16699 -3.99902 1.5s-2.66602 0.833008 -3.99902 1.5v-1c-11.333 4.66699 -19.833 8.66699 -25.5 12s-12.167 7.66602 -19.5 12.999c-8.66699 7.33301 -15.5 16.166 -20.5 26.499s-7.5 22.166 -7.5 35.499v87
c0 22 7.66699 41 23 57s34 24 56 24s40.667 -8 56 -24s23 -35 23 -57v-53h-16v53c0 17.333 -6.16699 32.5 -18.5 45.5s-27.166 19.5 -44.499 19.5s-32.166 -6.5 -44.499 -19.5s-18.5 -28.167 -18.5 -45.5v-87c0 -20.667 7.33301 -37.334 22 -50.001
c5.33301 -4 11.166 -7.66699 17.499 -11s13.166 -6.66602 20.499 -9.99902c1.33301 -0.666992 3.16602 -1.5 5.49902 -2.5s4.16602 -1.83301 5.49902 -2.5c-0.666992 0 1 -0.333008 5 -1l18 -9c5.33301 -2.66699 11 -6.33398 17 -11.001
c9.33301 -7.33301 16.833 -16.166 22.5 -26.499s8.5 -22.166 8.5 -35.499v-106c0 -22.667 -7.66699 -41.834 -23 -57.501s-34 -23.5 -56 -23.5s-40.667 7.83301 -56 23.5s-23 34.834 -23 57.501v53zM72.001 547.001h-21l60 64h10l60 -64h-21l-44 48z" />
    <glyph glyph-name="second" horiz-adv-x="137" 
d="M85 582v101h16v-101h-16zM36 582v101h16v-101h-16z" />
    <glyph glyph-name="seveneighths" horiz-adv-x="442" 
d="M325 0c-22.667 0 -41.5 7.66699 -56.5 23s-22.5 34.666 -22.5 57.999v77c0 16 4.16699 30.5 12.5 43.5s19.166 22.833 32.499 29.5c-13.333 7.33301 -24.166 17.5 -32.499 30.5s-12.5 27.5 -12.5 43.5v14c0 22.667 7.5 41.667 22.5 57s33.833 23 56.5 23
c22 0 40.5 -7.66699 55.5 -23s22.5 -34.333 22.5 -57v-14c0 -16 -4.16699 -30.5 -12.5 -43.5s-19.166 -23.167 -32.499 -30.5c13.333 -6.66699 24.166 -16.5 32.499 -29.5s12.5 -27.5 12.5 -43.5v-77c0 -23.333 -7.5 -42.666 -22.5 -57.999s-33.5 -23 -55.5 -23zM261 81
c0 -18 6.33301 -33.333 19 -46s27.667 -19 45 -19s32.166 6.33301 44.499 19s18.5 28 18.5 46v77c0 17.333 -6.16699 32.5 -18.5 45.5s-27.166 19.5 -44.499 19.5s-32.333 -6.5 -45 -19.5s-19 -28.167 -19 -45.5v-77v0zM261 305c0 -18.667 6.33301 -34.334 19 -47.001
s27.667 -19 45 -19s32.166 6.33301 44.499 19s18.5 28.334 18.5 47.001v14c0 18 -6.16699 33.5 -18.5 46.5s-27.166 19.5 -44.499 19.5s-32.333 -6.5 -45 -19.5s-19 -28.5 -19 -46.5v-14v0zM144 0h-16l149 690h15zM82 282h-17l109 376h-135v15h154z" />
    <glyph glyph-name="seveninferior" horiz-adv-x="227" 
d="M80 0h-16l108 377h-135v14h155z" />
    <glyph glyph-name="sevensuperior" horiz-adv-x="227" 
d="M80 282h-16l108 376h-135v15h155z" />
    <glyph glyph-name="sixinferior" 
d="M116 0c-22 0 -40.6689 7.66699 -56.002 23s-23 34.666 -23 57.999v238c0 22.667 7.66699 41.667 23 57s34 23 56 23s40.667 -7.66699 56 -23s23 -34.333 23 -57v-35h-16v35c0 18 -6.16699 33.5 -18.5 46.5s-27.166 19.5 -44.499 19.5s-32.166 -6.5 -44.499 -19.5
s-18.5 -28.5 -18.5 -46.5v-104c7.33301 9.33301 16.5 16.833 27.5 22.5s22.833 8.5 35.5 8.5c22 0 40.667 -7.66699 56 -23s23 -34.333 23 -57v-85c0 -23.333 -7.66699 -42.666 -23 -57.999s-34 -23 -56 -23zM52.998 81c0 -18 6.16699 -33.333 18.5 -46
s27.166 -19 44.499 -19s32.166 6.33301 44.499 19s18.5 28 18.5 46v85c0 18 -6.16699 33.333 -18.5 46s-27.166 19 -44.499 19s-32.166 -6.33301 -44.499 -19s-18.5 -28 -18.5 -46v-85v0z" />
    <glyph glyph-name="sixsuperior" 
d="M116 282c-22 0 -40.6689 7.66699 -56.002 23s-23 34.666 -23 57.999v238c0 22.667 7.66699 41.667 23 57s34 23 56 23s40.667 -7.66699 56 -23s23 -34.333 23 -57v-35h-16v35c0 18 -6.16699 33.333 -18.5 46s-27.166 19 -44.499 19s-32.166 -6.33301 -44.499 -19
s-18.5 -28 -18.5 -46v-104c7.33301 9.33301 16.5 16.833 27.5 22.5s22.833 8.5 35.5 8.5c22 0 40.667 -7.66699 56 -23s23 -34.333 23 -57v-85c0 -23.333 -7.66699 -42.666 -23 -57.999s-34 -23 -56 -23zM52.998 363c0 -18 6.16699 -33.333 18.5 -46s27.166 -19 44.499 -19
s32.166 6.33301 44.499 19s18.5 28 18.5 46v85c0 18 -6.16699 33.333 -18.5 46s-27.166 19 -44.499 19s-32.166 -6.33301 -44.499 -19s-18.5 -28 -18.5 -46v-85v0z" />
    <glyph glyph-name="tbar" horiz-adv-x="164" 
d="M147 0c-22 0 -40.666 7.66797 -55.999 23.001s-23 34.666 -23 57.999v334h-44v15h44v67h-44v16h44v125h15v-125h68v-16h-68v-67h68v-15h-68v-334c0 -18 6.66699 -33.333 20 -46s29.666 -19 48.999 -19v-11z" />
    <glyph glyph-name="theta" 
d="M195 81c0 -23.333 -7.66699 -42.666 -23 -57.999s-34 -23 -56 -23s-40.667 7.66699 -56 23s-23 34.666 -23 57.999v528c0 22.667 7.66699 41.834 23 57.501s34 23.5 56 23.5s40.667 -7.83301 56 -23.5s23 -34.834 23 -57.501v-528v0zM53 81
c0 -18 6.16895 -33.333 18.502 -46s27.166 -19 44.499 -19s32.166 6.33301 44.499 19s18.5 28 18.5 46v264h-126v-264v0zM53.002 360h125.998v249c0 18 -6.16699 33.333 -18.5 46s-27.166 19 -44.499 19s-32.166 -6.33301 -44.499 -19s-18.5 -28 -18.5 -46v-249z" />
    <glyph glyph-name="threeeighths" horiz-adv-x="477" 
d="M359 0c-22 0 -40.667 7.66699 -56 23s-23 34.666 -23 57.999v77c0 16 4.33301 30.5 13 43.5s19.667 22.833 33 29.5c-13.333 7.33301 -24.333 17.5 -33 30.5s-13 27.5 -13 43.5v14c0 22.667 7.66699 41.667 23 57s34 23 56 23c22.667 0 41.5 -7.66699 56.5 -23
s22.5 -34.333 22.5 -57v-14c0 -16 -4.16699 -30.5 -12.5 -43.5s-19.166 -23.167 -32.499 -30.5c13.333 -6.66699 24.166 -16.5 32.499 -29.5s12.5 -27.5 12.5 -43.5v-77c0 -23.333 -7.5 -42.666 -22.5 -57.999s-33.833 -23 -56.5 -23zM296 81
c0 -18 6.16699 -33.333 18.5 -46s27.166 -19 44.499 -19c18 0 33.167 6.33301 45.5 19s18.5 28 18.5 46v77c0 17.333 -6.16699 32.5 -18.5 45.5s-27.5 19.5 -45.5 19.5c-17.333 0 -32.166 -6.5 -44.499 -19.5s-18.5 -28.167 -18.5 -45.5v-77v0zM296 305
c0 -18.667 6.16699 -34.334 18.5 -47.001s27.166 -19 44.499 -19c18 0 33.167 6.33301 45.5 19s18.5 28.334 18.5 47.001v14c0 18 -6.16699 33.5 -18.5 46.5s-27.5 19.5 -45.5 19.5c-17.333 0 -32.166 -6.5 -44.499 -19.5s-18.5 -28.5 -18.5 -46.5v-14v0zM118 282
c-22.667 0 -41.5 8.16504 -56.5 24.498s-22.5 36.833 -22.5 61.5h16c0 -19.333 6.16699 -35.833 18.5 -49.5s27.166 -20.5 44.499 -20.5s32.166 6.33301 44.499 19s18.5 28 18.5 46v77c0 17.333 -6.16699 32.5 -18.5 45.5s-27.166 19.5 -44.499 19.5h-36v16h36
c17.333 0 32.166 6.33301 44.499 19s18.5 28.334 18.5 47.001v14c0 18 -6.16699 33.333 -18.5 46s-27.166 19 -44.499 19s-32.166 -6.83301 -44.499 -20.5s-18.5 -30.167 -18.5 -49.5h-16c0 24 7.5 44.167 22.5 60.5s33.833 24.5 56.5 24.5c22 0 40.667 -7.66699 56 -23
s23 -34.333 23 -57v-14c0 -16 -4.33301 -30.667 -13 -44s-19.667 -23.333 -33 -30c13.333 -7.33301 24.333 -17.5 33 -30.5s13 -27.167 13 -42.5v-77c0 -23.333 -7.66699 -42.666 -23 -57.999s-34 -23 -56 -23zM179 -0.00195312h-16l149 690h15z" />
    <glyph glyph-name="threeinferior" 
d="M116 0c-22 0 -40.667 8.16602 -56 24.499s-23 36.833 -23 61.5h16c0 -19.333 6.16699 -35.833 18.5 -49.5s27.166 -20.5 44.499 -20.5s32.166 6.33301 44.499 19s18.5 28 18.5 46v77c0 17.333 -6.16699 32.5 -18.5 45.5s-27.166 19.5 -44.499 19.5h-35v16h35
c17.333 0 32.166 6.33301 44.499 19s18.5 28.334 18.5 47.001v14c0 18 -6.16699 33.5 -18.5 46.5s-27.166 19.5 -44.499 19.5s-32.166 -6.83301 -44.499 -20.5s-18.5 -30.167 -18.5 -49.5h-16c0 23.333 7.66699 43.166 23 59.499s34 24.5 56 24.5s40.667 -7.66699 56 -23
s23 -34.333 23 -57v-14c0 -16 -4.16699 -30.5 -12.5 -43.5s-19.166 -23.167 -32.499 -30.5c13.333 -6.66699 24.166 -16.5 32.499 -29.5s12.5 -27.5 12.5 -43.5v-77c0 -23.333 -7.66699 -42.666 -23 -57.999s-34 -23 -56 -23z" />
    <glyph glyph-name="triagdn" horiz-adv-x="278" 
d="M141 208l-109 132h213z" />
    <glyph glyph-name="triaglf" horiz-adv-x="187" 
d="M35 274l114 129v-254z" />
    <glyph glyph-name="triagrt" horiz-adv-x="187" 
d="M37 149v254l114 -129z" />
    <glyph glyph-name="triagup" horiz-adv-x="278" 
d="M32 211l109 132l104 -132h-213z" />
    <glyph glyph-name="twoinferior" 
d="M37 129c0 13.333 2.8291 25.168 8.49609 35.501s13.167 19.166 22.5 26.499c6.66699 5.33301 13.167 9.66602 19.5 12.999s14.5 7 24.5 11v-1c6.66699 3.33301 10.167 5.16602 10.5 5.49902s0.5 0.166016 0.5 -0.500977l20 9c6 2.66699 10.667 6 14 10
c14.667 11.333 22 28 22 50v31c0 18 -6.16699 33.5 -18.5 46.5s-27.166 19.5 -44.499 19.5s-32.166 -6.5 -44.499 -19.5s-18.5 -28.5 -18.5 -46.5v-21h-16v21c0 22.667 7.66699 41.667 23 57s34 23 56 23s40.667 -7.66699 56 -23s23 -34.333 23 -57v-31
c0 -13.333 -2.5 -25.166 -7.5 -35.499s-11.833 -19.166 -20.5 -26.499c-7.33301 -5.33301 -13.833 -9.66602 -19.5 -12.999s-14.167 -7.33301 -25.5 -12v1c-1.33301 -0.666992 -2.66602 -1.16699 -3.99902 -1.5s-2.66602 -0.833008 -3.99902 -1.5
c-0.666992 0 -1.16699 -0.166992 -1.5 -0.5s-0.833008 -0.5 -1.5 -0.5h1c-7.33301 -3.33301 -14 -6.5 -20 -9.5s-10.667 -6.16699 -14 -9.5c-7.33301 -6 -13.333 -13.333 -18 -22s-7 -18 -7 -28v-113h134v-16l-150 3v126z" />
    <glyph glyph-name="twothirds" horiz-adv-x="462" 
d="M344 0c-22 0 -40.667 8.16602 -56 24.499s-23 36.833 -23 61.5h15c0 -19.333 6.33301 -35.833 19 -49.5s27.667 -20.5 45 -20.5s32.166 6.33301 44.499 19s18.5 28 18.5 46v77c0 17.333 -6.16699 32.5 -18.5 45.5s-27.166 19.5 -44.499 19.5h-35v16h35
c17.333 0 32.166 6.33301 44.499 19s18.5 28.334 18.5 47.001v14c0 18 -6.16699 33.5 -18.5 46.5s-27.166 19.5 -44.499 19.5s-32.333 -6.83301 -45 -20.5s-19 -30.167 -19 -49.5h-15c0 23.333 7.66699 43.166 23 59.499s34 24.5 56 24.5s40.667 -7.66699 56 -23
s23 -34.333 23 -57v-14c0 -16 -4.16699 -30.5 -12.5 -43.5s-19.166 -23.167 -32.499 -30.5c13.333 -6.66699 24.166 -16.5 32.499 -29.5s12.5 -27.5 12.5 -43.5v-77c0 -23.333 -7.66699 -42.666 -23 -57.999s-34 -23 -56 -23zM39 410.999
c0 13.333 2.66699 25.1699 8 35.5029s12.666 19.166 21.999 26.499c7.33301 5.33301 14.166 9.66602 20.499 12.999s14.5 7 24.5 11v-1c6 3.33301 9.33301 5.16602 10 5.49902s1 0.166016 1 -0.500977c6.66699 3.33301 13 6.33301 19 9s11 6 15 10
c14.667 11.333 22 28 22 50v31c0 18 -6.16699 33.333 -18.5 46s-27.166 19 -44.499 19s-32.166 -6.33301 -44.499 -19s-18.5 -28 -18.5 -46v-21h-16v21c0 22.667 7.5 41.667 22.5 57s33.833 23 56.5 23c22 0 40.5 -7.66699 55.5 -23s22.5 -34.333 22.5 -57v-31
c0 -25.333 -9 -46 -27 -62c-7.33301 -5.33301 -14 -9.66602 -20 -12.999s-14.333 -7.33301 -25 -12v1l-6 -3l-20.5 -10.5c-7 -3.66699 -13.167 -7.16699 -18.5 -10.5c-16 -12.667 -24 -29 -24 -49v-113h134v-16l-150 3v126zM155 0.00292969h-15l148 690h15z" />
    <glyph glyph-name="ubreve" 
d="M195 81c0 -23.333 -7.66504 -42.666 -22.998 -57.999s-34 -23 -56 -23s-40.667 7.66699 -56 23s-23 34.666 -23 57.999v432h16v-432c0 -18 6.16699 -33.333 18.5 -46s27.166 -19 44.499 -19s32.166 6.33301 44.499 19s18.5 28 18.5 46v432h16v-432v0zM110.002 547
l-58.001 64h20l44 -47l22.5 23.5c7.66699 7.66699 14.834 15.5 21.501 23.5h21l-60 -64h-11z" />
    <glyph glyph-name="umacron" 
d="M195 81c0 -23.333 -7.66504 -42.666 -22.998 -57.999s-34 -23 -56 -23s-40.667 7.66699 -56 23s-23 34.666 -23 57.999v432h16v-432c0 -18 6.16699 -33.333 18.5 -46s27.166 -19 44.499 -19s32.166 6.33301 44.499 19s18.5 28 18.5 46v432h16v-432v0zM61.002 568l-1 16
h112v-16h-111z" />
    <glyph glyph-name="upsilondieresistonos" 
d="M195 81c0 -23.333 -7.66504 -42.666 -22.998 -57.999s-34 -23 -56 -23s-40.667 7.66699 -56 23s-23 34.666 -23 57.999v432h16v-432c0 -18 6.16699 -33.333 18.5 -46s27.166 -19 44.499 -19s32.166 6.33301 44.499 19s18.5 28 18.5 46v432h16v-432v0zM96.002 543h-18
l57 69h20zM58.002 543v46h17v-46h-17zM158.002 543v46h16v-46h-16z" />
    <glyph glyph-name="utilde" horiz-adv-x="245" 
d="M202 81c0 -23.333 -7.83203 -42.666 -23.499 -57.999s-34.167 -23 -55.5 -23c-22 0 -40.833 7.66699 -56.5 23s-23.5 34.666 -23.5 57.999v432h16v-432c0 -18 6.16699 -33.333 18.5 -46s27.5 -19 45.5 -19c17.333 0 32.166 6.33301 44.499 19s18.5 28 18.5 46v432h16
v-432v0zM207.001 578c-13.333 -14.667 -29.667 -22 -49 -22c-15.333 0 -29 5 -41 15c-10 8 -20.667 12 -32 12c-13.333 0 -26 -6.66699 -38 -20l-13 13c15.333 15.333 32.333 23 51 23c14.667 0 28.667 -5 42 -15c4.66699 -3.33301 10 -6 16 -8s11.333 -3 16 -3
c14 0 27 6.33301 39 19l9 -7v-7z" />
    <glyph glyph-name="zacute" horiz-adv-x="231" 
d="M35 0l140 497h-135v16h156l-140 -497h134v-16h-155zM103 543h-19l58 69h20z" />
    <glyph glyph-name="zdot" horiz-adv-x="231" 
d="M35 0l140 497h-135v16h156l-140 -497h134v-16h-155zM115 559v44h16v-44h-16z" />
    <glyph glyph-name="zeroinferior" 
d="M195 56c0 -22.667 -7.66699 -37.667 -23 -45s-34 -11 -56 -11s-40.667 3.66699 -56 11s-23 22.333 -23 45v287c0 22.667 7.66699 37.667 23 45s34 11 56 11s40.667 -3.66699 56 -11s23 -22.333 23 -45v-287v0zM53 56c0 -17.333 6.16699 -28.333 18.5 -33
s27.166 -7 44.499 -7s32.166 2.33301 44.499 7s18.5 15.667 18.5 33v287c0 17.333 -6.16699 28.666 -18.5 33.999s-27.166 8 -44.499 8s-32.166 -2.66699 -44.499 -8s-18.5 -16.666 -18.5 -33.999v-287v0z" />
    <glyph glyph-name="zerosuperior" 
d="M195 338c0 -22.667 -7.66699 -37.667 -23 -45s-34 -11 -56 -11s-40.667 3.66699 -56 11s-23 22.333 -23 45v287c0 22.667 7.66699 37.667 23 45s34 11 56 11s40.667 -3.66699 56 -11s23 -22.333 23 -45v-287v0zM53 338c0 -17.333 6.16699 -28.333 18.5 -33
s27.166 -7 44.499 -7s32.166 2.33301 44.499 7s18.5 15.667 18.5 33v287c0 17.333 -6.16699 28.5 -18.5 33.5s-27.166 7.5 -44.499 7.5s-32.166 -2.5 -44.499 -7.5s-18.5 -16.167 -18.5 -33.5v-287v0z" />
    </font>
</defs>
</svg>
