<?xml version="1.0" standalone="no"?>
<!DOCTYPE svg PUBLIC "-//W3C//DTD SVG 1.1//EN" "http://www.w3.org/Graphics/SVG/1.1/DTD/svg11.dtd" >
<svg xmlns="http://www.w3.org/2000/svg">
<metadata></metadata>
<defs>
<font id="cassiaextralight" horiz-adv-x="528" >
<font-face units-per-em="1000" ascent="745" descent="-255" />
<missing-glyph horiz-adv-x="225" />
<glyph unicode="&#xfb01;" horiz-adv-x="594" d="M276 -2q-108 4 -131 4t-56 -2t-47 -2v36q12 -1 27 -1q39 0 48 16q6 13 6 56q0 36 0.5 150t0.5 175q-30 0 -70 -2v38q40 0 49 3q11 3 16 13t10 43q13 85 47 134q27 39 72 61.5t99 22.5q69 0 98 -25.5t29 -58.5q0 -21 -11.5 -31t-27.5 -10q-35 0 -39 30q-1 12 -3.5 20 t-9 17t-20.5 13.5t-35 4.5q-41 0 -72.5 -21.5t-45.5 -50.5q-27 -53 -33 -163q166 0 215 3t85 15l8 -10q-9 -86 -9 -225q0 -97 1 -138q2 -58 7 -68q8 -12 42 -12q17 0 33 1v-36q-92 4 -106 4q-24 0 -65.5 -2t-43.5 -2v36q12 -1 27 -1q41 0 47 13q4 7 6 67q1 49 1 135 q0 134 -6 160q-5 22 -56 22q-31 0 -91 0.5t-96 0.5q-1 -41 -1 -126q0 -127 2 -200q1 -50 7 -60q8 -12 49 -12q27 0 43 1v-36z" />
<glyph unicode="&#xfb02;" horiz-adv-x="596" d="M276 -2q-108 4 -131 4t-56 -2t-47 -2v36q12 -1 27 -1q42 0 48 16q6 15 6 56q1 80 1 325q-30 0 -70 -2v38q40 0 49 3q11 3 16 13t10 43q12 93 47 144q53 77 167 77q42 0 83 -13q28 4 49 10l10 -12q-6 -56 -7 -358q0 -155 2 -266q1 -50 8 -61q8 -13 41 -13q16 0 32 1v-36 q-8 0 -27 1.5t-38 2t-38 0.5q-24 0 -62.5 -2t-50.5 -2v36q13 -1 26 -1q38 0 47 13q8 10 8 61q1 80 1 255q0 206 -2 262q-2 46 -19.5 64t-67.5 18q-46 0 -79 -20t-47 -46q-30 -57 -35 -172q83 0 122 3v-41q-33 1 -123 1q-1 -41 -1 -126q0 -127 2 -200q1 -50 7 -60 q8 -12 49 -12q27 0 43 1v-36z" />
<glyph unicode="&#xfb03;" horiz-adv-x="901" d="M276 -2q-108 4 -131 4t-56 -2t-47 -2v36q12 -1 26 -1q42 0 49 15q6 14 6 57q1 80 1 325q-30 0 -70 -2v38q40 0 49 3q11 4 17.5 14t10.5 42q11 84 39 126q50 75 148 75q43 0 68 -17.5t25 -44.5q0 -33 -35 -33q-26 0 -33 22q-6 18 -17 25.5t-35 7.5q-26 0 -51 -17.5 t-36 -40.5q-27 -59 -27 -159q23 -1 102 -1q112 0 131 6q11 4 16.5 13t9.5 38q11 82 47 134q27 39 72 61.5t99 22.5q69 0 98 -25.5t29 -58.5q0 -21 -11.5 -31t-27.5 -10q-35 0 -39 30q-1 12 -3.5 20t-9 17t-20.5 13.5t-35 4.5q-41 0 -71.5 -21.5t-45.5 -50.5 q-28 -55 -34 -163q166 0 215 3t85 15l8 -10q-9 -86 -9 -225q0 -97 1 -138q2 -58 7 -68q7 -12 42 -12q17 0 33 1v-36q-92 4 -106 4q-24 0 -65.5 -2t-43.5 -2v36q12 -1 27 -1q41 0 47 13q4 7 6 67q1 49 1 135q0 134 -6 160q-6 22 -56 22q-73 1 -187 1q-1 -41 -1 -126 q0 -127 2 -200q1 -50 7 -60q7 -12 49 -12q27 0 43 1v-36q-108 4 -131 4t-56 -2t-47 -2v36q12 -1 27 -1q39 0 47 14q7 16 7 58q1 80 1 326h-255q-1 -41 -1 -126q0 -127 2 -200q1 -50 7 -60q8 -12 46 -12q30 0 46 1v-36z" />
<glyph unicode="&#xfb04;" horiz-adv-x="903" d="M276 -2q-108 4 -131 4t-56 -2t-47 -2v36q12 -1 27 -1q39 0 47 14q7 16 7 58q1 80 1 325q-30 0 -70 -2v38q40 0 49 3q11 4 17.5 14t10.5 42q11 84 39 126q50 75 148 75q43 0 68 -17.5t25 -44.5q0 -33 -35 -33q-26 0 -33 22q-6 18 -17 25.5t-35 7.5q-25 0 -49.5 -17.5 t-35.5 -40.5q-29 -63 -29 -159q23 -1 102 -1q112 0 131 6q12 4 17.5 13t8.5 38q12 89 48 142q54 79 166 79q42 0 83 -13q28 4 49 10l10 -12q-6 -56 -7 -358q0 -155 2 -266q1 -50 8 -61q8 -13 41 -13q16 0 32 1v-36q-8 0 -27 1.5t-38 2t-38 0.5q-23 0 -62 -2t-51 -2v36 q13 -1 26 -1q38 0 47 13q8 10 8 61q1 80 1 255q0 206 -2 262q-2 46 -19.5 64t-67.5 18q-46 0 -77.5 -20t-46.5 -46q-33 -61 -37 -172q83 0 122 3v-41q-33 1 -123 1q-1 -41 -1 -126q0 -127 2 -200q1 -50 7 -60q7 -12 49 -12q27 0 43 1v-36q-108 4 -131 4t-56 -2t-47 -2v36 q12 -1 27 -1q40 0 47 14q7 13 7 58q1 80 1 326h-255q-1 -41 -1 -126q0 -127 2 -200q1 -50 7 -60q8 -12 49 -12q27 0 43 1v-36z" />
<glyph horiz-adv-x="1000" />
<glyph horiz-adv-x="1000" />
<glyph unicode="&#xd;" horiz-adv-x="1000" />
<glyph unicode=" "  horiz-adv-x="225" />
<glyph unicode="&#x09;" horiz-adv-x="225" />
<glyph unicode="&#xa0;" horiz-adv-x="225" />
<glyph unicode="!" horiz-adv-x="316" d="M198 195h-39q-1 86 -11 251t-10 184q0 58 42 58q22 0 31.5 -13t9.5 -44q0 -23 -10.5 -188t-12.5 -248zM180 -7q-20 0 -33.5 13.5t-13.5 37.5q0 22 14 35.5t34 13.5q21 0 33.5 -13.5t12.5 -36.5t-13 -36.5t-34 -13.5z" />
<glyph unicode="&#x22;" horiz-adv-x="296" d="M119 665q0 -6 -10 -91t-12 -126h-32q-2 42 -12.5 127.5t-10.5 90.5q0 38 41 38q36 0 36 -39zM254 665q0 -6 -10 -91t-12 -126h-32q-2 42 -12.5 127.5t-10.5 90.5q0 38 41 38q36 0 36 -39z" />
<glyph unicode="#" horiz-adv-x="622" d="M194 -10h-45l34 244h-140v57h148l17 115h-140v57h148l32 227h45l-32 -227h140l32 227h45l-32 -227h133v-57h-141l-17 -115h135v-57h-143l-34 -244h-45l34 244h-140zM236 291h140l17 115h-140z" />
<glyph unicode="$" horiz-adv-x="490" d="M259 724v-83h15q68 0 105.5 -23.5t37.5 -61.5q0 -49 -46 -49q-15 0 -25.5 9t-10.5 23q0 57 -76 60v-247l49 -27q126 -70 126 -158q0 -72 -48.5 -119t-126.5 -56v-89h-40v87q-84 1 -138.5 37.5t-54.5 87.5q0 24 14 37t32 13t30.5 -12t12.5 -29q0 -90 104 -91v269l-39 22 q-63 35 -90 68t-27 87q0 58 39.5 102t116.5 56v87h40zM264 278l-5 2v-245q54 7 82 36t28 69q0 46 -22.5 76t-82.5 62zM123 494q0 -43 21.5 -67t74.5 -53v222q-45 -7 -70.5 -34t-25.5 -68z" />
<glyph unicode="%" horiz-adv-x="792" d="M331 442q0 -102 -40 -159.5t-118 -57.5q-70 0 -108.5 54.5t-38.5 138.5q0 97 41 156.5t121 59.5q64 0 103.5 -53t39.5 -139zM280 418q0 181 -102 181q-46 0 -75.5 -42.5t-29.5 -116.5q0 -89 28.5 -134.5t81.5 -45.5q44 0 70.5 39t26.5 119zM516 629h45l-281 -629h-46z M766 207q0 -102 -40 -159.5t-118 -57.5q-70 0 -108.5 54.5t-38.5 138.5q0 97 41 156.5t121 59.5q64 0 103.5 -53t39.5 -139zM715 183q0 181 -102 181q-46 0 -75.5 -42.5t-29.5 -116.5q0 -89 28.5 -134.5t81.5 -45.5q44 0 70.5 39t26.5 119z" />
<glyph unicode="&#x26;" horiz-adv-x="757" d="M477 353v38q38 -2 120 -2q46 0 112 2v-37q-4 0 -10 0.5t-9 0.5q-26 0 -40 -12q-9 -8 -53 -98q-35 -71 -85 -129q63 -72 103 -72q24 0 40.5 8.5t37.5 36.5l27 -19q-55 -80 -113 -80q-33 0 -59 15t-75 65q-91 -86 -208 -86q-97 0 -160 58t-63 155q0 85 50 137t130 75 q-32 63 -32 117q0 70 48.5 114t125.5 44q58 0 91 -21.5t33 -54.5q0 -16 -10.5 -27t-27.5 -11q-19 0 -26.5 10t-12.5 33q-8 33 -65 33q-38 0 -68.5 -26t-30.5 -73q0 -31 9 -61.5t41 -84.5q27 -47 80.5 -120t106.5 -134q84 101 84 174q0 22 -15.5 27.5t-56.5 5.5q-3 0 -9 -0.5 t-10 -0.5zM443 101q-113 128 -185 248q-10 17 -25 17q-16 0 -31 -5q-41 -13 -72 -53.5t-31 -90.5q0 -81 50.5 -132.5t144.5 -51.5q39 0 80 20t69 48z" />
<glyph unicode="'" horiz-adv-x="161" d="M119 665q0 -6 -10 -91t-12 -126h-32q-2 42 -12.5 127.5t-10.5 90.5q0 38 41 38q36 0 36 -39z" />
<glyph unicode="(" horiz-adv-x="289" d="M284 -155l-23 -22q-96 79 -151 200t-55 254q0 130 52.5 252t153.5 205l23 -21q-86 -104 -125 -202.5t-39 -233.5q0 -239 164 -432z" />
<glyph unicode=")" horiz-adv-x="289" d="M5 712l23 22q96 -79 151 -200t55 -254q0 -130 -52.5 -252t-153.5 -205l-23 21q86 104 125 202.5t39 233.5q0 239 -164 432z" />
<glyph unicode="*" horiz-adv-x="349" d="M196 529q24 -10 55 -20q43 -12 51 -17q9 -4 9 -16q0 -15 -10.5 -28t-21.5 -13q-9 0 -17 6.5t-33 33.5q-16 17 -43 35q1 -26 9 -55q12 -50 12 -57q0 -24 -32 -24q-33 0 -33 22q0 6 2.5 16.5t6.5 24.5t6 22q5 23 6 51q-17 -11 -62 -58q-18 -20 -30 -20q-13 0 -23.5 13 t-10.5 27q0 19 21 25q67 19 95 31q-24 13 -84 29q-21 5 -27.5 10t-6.5 16q0 12 11 27t23 15q5 0 8.5 -1.5t8.5 -5.5t8 -7.5t10.5 -12t13.5 -14.5q20 -22 45 -37q-3 37 -9 59q-12 42 -12 53q0 23 33 23q32 0 32 -23q0 -3 -11 -54q-9 -34 -10 -58q18 12 68 63q15 15 27 15 t22 -13.5t10 -27.5q0 -13 -16 -20q-10 -4 -46.5 -15t-54.5 -20z" />
<glyph unicode="+" horiz-adv-x="577" d="M313 57h-47v210h-212v47h212v211h47v-211h211v-47h-211v-210z" />
<glyph unicode="," horiz-adv-x="215" d="M49 -134l-11 31q26 8 44 21q31 23 31 53q0 21 -21 32q-30 14 -30 46q0 18 13 31t35 13q23 0 40.5 -18.5t17.5 -61.5q0 -105 -119 -147z" />
<glyph unicode="-" horiz-adv-x="322" d="M51 283q23 -2 108 -2q75 0 112 2v-61q-29 1 -111 1q-71 0 -109 -1v61z" />
<glyph unicode="." horiz-adv-x="204" d="M102 -7q-20 0 -33.5 13.5t-13.5 37.5q0 22 14 35.5t34 13.5q21 0 33.5 -13.5t12.5 -36.5t-13 -36.5t-34 -13.5z" />
<glyph unicode="/" horiz-adv-x="385" d="M353 738l-300 -853h-51l300 853h51z" />
<glyph unicode="0" d="M492 332q0 -162 -60 -253.5t-176 -91.5q-104 0 -162 85.5t-58 220.5q0 157 62 251.5t181 94.5q95 0 154 -84.5t59 -222.5zM428 295q0 56 -7 103.5t-24 94t-51 73.5t-83 27q-72 0 -120 -73t-48 -190q0 -141 46.5 -218t129.5 -77q70 0 113.5 67.5t43.5 192.5z" />
<glyph unicode="1" d="M394 -2q-116 4 -125 4q-24 0 -74 -2t-57 -2v37q11 -1 30 -1q49 0 62 16q9 11 9 58q1 67 1 204q0 126 -1 185q-1 54 -13 62q-10 6 -26 6q-23 0 -61 -9l-6 37q56 10 161 54l11 -9q-8 -67 -8 -283q0 -193 1 -247q1 -50 8 -61q8 -13 48 -13q24 0 40 1v-37z" />
<glyph unicode="2" d="M444 -1q-61 2 -210 2q-131 0 -211 -2l-6 42q192 152 269 245.5t77 180.5q0 58 -30 94t-95 36q-34 0 -56 -8.5t-32 -24t-13.5 -29.5t-3.5 -33q0 -31 -36 -31q-37 0 -37 43q0 46 50.5 85.5t130.5 39.5q191 0 191 -174q0 -33 -11 -66t-42 -83t-101 -116t-174 -142 q48 -2 83 -2q120 0 156.5 3t50.5 14q17 14 29 73l36 -3q-8 -57 -15 -144z" />
<glyph unicode="3" d="M292 337q77 -5 120 -45t43 -113q0 -90 -64 -141t-155 -51q-57 0 -97.5 12t-59.5 31t-27 37t-8 36q0 47 41 47q36 0 36 -39q0 -81 113 -81q73 0 114.5 41.5t41.5 101.5q0 67 -48.5 103t-125.5 36q-29 0 -44 -1v41q8 -1 32 -1q70 0 110 39t40 103q0 42 -30 74.5t-84 32.5 q-47 0 -68.5 -16t-21.5 -52q0 -41 -38 -41q-36 0 -36 41q0 42 48 75t122 33q85 0 129 -38.5t44 -102.5q0 -69 -33.5 -105.5t-93.5 -56.5z" />
<glyph unicode="4" d="M476 -3q-112 4 -126 4q-20 0 -134 -3v37q13 -1 33 -1q47 0 60 16q10 14 11 56q1 21 1 76q-190 0 -281 -2l-9 22q185 258 308 440h41q-2 -102 -2 -156v-253q67 0 107 1l-6 -53q-39 1 -101 1q0 -17 0.5 -42.5t0.5 -32.5q1 -50 9 -61q8 -13 48 -13q24 0 40 1v-37zM321 234 l1 303q-9 -13 -91.5 -132t-119.5 -171h210z" />
<glyph unicode="5" d="M180 558l-26 -181q46 24 109 24q80 0 132 -49t52 -149q0 -89 -59 -152t-164 -63q-92 0 -137 40t-45 83q0 23 11 34t28 11q35 0 37 -40q2 -83 108 -83q76 0 117.5 47.5t41.5 119.5q0 68 -36 110t-105 42q-78 0 -126 -41l-20 12q9 59 41 291q40 -1 133 -1q66 0 156 2 l-9 -58q-50 1 -239 1z" />
<glyph unicode="6" d="M121 314q22 41 69.5 67t107.5 26q79 0 128 -52.5t49 -139.5q0 -113 -54 -172t-149 -59q-101 0 -156 75t-55 218q0 166 72.5 267.5t191.5 101.5q69 0 101.5 -24t32.5 -61q0 -39 -41 -39q-32 0 -39 35q-5 25 -21 34.5t-45 9.5q-66 0 -124 -70.5t-68 -216.5zM127 211 q0 -72 39 -127t110 -55q64 0 102 45t38 125q0 77 -35.5 118t-104.5 41q-59 0 -104 -44.5t-45 -102.5z" />
<glyph unicode="7" d="M411 557h-163q-61 0 -83.5 -4t-34.5 -14q-18 -17 -28 -73l-38 4q11 71 15 144q30 0 107.5 -0.5t114.5 -0.5q42 0 170 2l12 -18q-170 -348 -260 -596q-9 -24 -31 -24q-33 0 -33 25q0 12 9 36q122 294 243 519z" />
<glyph unicode="8" d="M198 333q-117 57 -117 158q0 69 52 112t138 43q77 0 124.5 -40t47.5 -107q0 -97 -124 -163q144 -65 144 -172q0 -76 -58 -128t-153 -52q-90 0 -144 49t-54 124q0 58 31.5 100t112.5 76zM238 309q-124 -49 -124 -146q0 -61 40 -98t105 -37q59 0 100 34.5t41 85.5 q0 56 -32 87t-130 74zM275 356q107 60 107 136q0 53 -31 81.5t-84 28.5q-55 0 -90.5 -28t-35.5 -73q0 -49 28.5 -79.5t105.5 -65.5z" />
<glyph unicode="9" d="M408 316q-50 -87 -171 -87q-79 0 -131.5 55t-52.5 144q0 100 58.5 159t148.5 59q208 0 208 -293q0 -172 -63 -270.5t-192 -98.5q-64 0 -103.5 27t-39.5 61q0 20 11.5 30.5t29.5 10.5q35 0 39 -36q3 -27 23 -36.5t55 -9.5q163 0 180 285zM405 421q0 71 -39 125.5 t-108 54.5q-65 0 -105.5 -42t-40.5 -120q0 -76 39.5 -118.5t107.5 -42.5q57 0 101.5 42.5t44.5 100.5z" />
<glyph unicode=":" horiz-adv-x="224" d="M122 -7q-20 0 -33.5 13.5t-13.5 37.5q0 22 14 35.5t34 13.5q21 0 33.5 -13.5t12.5 -36.5t-13 -36.5t-34 -13.5zM122 335q-20 0 -33.5 13.5t-13.5 37.5q0 22 14 35.5t34 13.5q21 0 33.5 -13.5t12.5 -36.5t-13 -36.5t-34 -13.5z" />
<glyph unicode=";" horiz-adv-x="224" d="M58 -134l-11 31q26 8 44 21q31 23 31 53q0 21 -21 32q-30 14 -30 46q0 18 13 31t35 13q23 0 40.5 -18.5t17.5 -61.5q0 -105 -119 -147zM122 335q-20 0 -33.5 13.5t-13.5 37.5q0 22 14 35.5t34 13.5q21 0 33.5 -13.5t12.5 -36.5t-13 -36.5t-34 -13.5z" />
<glyph unicode="&#x3c;" horiz-adv-x="600" d="M481 70l-386 190v53l386 194v-54l-337 -165l337 -162v-56z" />
<glyph unicode="=" horiz-adv-x="600" d="M523 346h-446v47h446v-47zM523 191h-446v48h446v-48z" />
<glyph unicode="&#x3e;" horiz-adv-x="600" d="M120 507l385 -190v-52l-385 -195v55l335 165l-335 161v56z" />
<glyph unicode="?" horiz-adv-x="432" d="M220 192l-35 -12q-18 40 -18 87q0 42 19.5 68.5t75.5 67.5q41 30 58 61t17 71q0 50 -29 80t-81 30q-59 0 -80 -24t-21 -68q0 -36 -37 -36q-36 0 -36 43q0 48 50 89t133 41q75 0 123 -41.5t48 -106.5q0 -57 -24.5 -95.5t-94.5 -88.5q-26 -18 -39.5 -29.5t-26 -33 t-12.5 -45.5q0 -28 10 -58zM202 -7q-20 0 -33.5 13.5t-13.5 37.5q0 22 14 35.5t34 13.5q21 0 33.5 -13.5t12.5 -36.5t-13 -36.5t-34 -13.5z" />
<glyph unicode="@" horiz-adv-x="830" d="M725 -37q-53 -41 -135 -65t-170 -24q-161 0 -260 96.5t-99 256.5q0 183 119 306t294 123q142 0 223 -76t81 -220q0 -113 -68.5 -204t-152.5 -91q-34 0 -48.5 18.5t-14.5 45.5q0 45 17 115q-114 -181 -222 -181q-32 0 -50 21.5t-18 60.5q0 131 106 250q71 81 157 81 q52 0 86 -9l13 24l44 2q-29 -83 -53 -180q-30 -122 -30 -167q0 -12 7.5 -23t23.5 -11q56 0 102 76.5t46 168.5q0 126 -63.5 192t-184.5 66q-153 0 -255 -113t-102 -279q0 -138 87.5 -221.5t227.5 -83.5q142 0 267 82zM538 409q0 28 -69 28q-29 0 -63.5 -25t-60.5 -64 q-66 -100 -66 -188q0 -42 31 -42q75 0 182 162q24 35 40 93q6 22 6 36z" />
<glyph unicode="A" horiz-adv-x="674" d="M228 -2q-55 4 -109 4q-47 0 -115 -4v37q1 0 7.5 -0.5t8.5 -0.5q32 0 49.5 18t38.5 68q208 485 235 563h38q19 -63 214 -596q12 -34 24.5 -43.5t37.5 -9.5q2 0 8 0.5t7 0.5v-36q-39 3 -108 3q-63 0 -116 -4v37q12 -1 39 -1q25 0 34.5 5t9.5 19q0 22 -55 173q-5 15 -16 17 q-13 3 -121 3q-75 0 -105 -1q-16 0 -23 -16q-63 -157 -63 -176q0 -24 39 -24q28 0 41 1v-37zM354 582q-90 -213 -110 -266q-4 -9 -4 -15q0 -5 6 -8q10 -3 94 -3q69 0 98 1q11 0 11 10q0 2 -3 14q-86 249 -92 267z" />
<glyph unicode="B" horiz-adv-x="641" d="M380 358q94 -4 142 -47.5t48 -116.5q0 -197 -266 -197q-30 0 -82.5 2.5t-71.5 2.5q-24 0 -58.5 -2t-47.5 -2v37q12 -1 34 -1q38 0 44 13q6 11 6 61q1 80 1 245q0 46 -0.5 128t-0.5 88q0 48 -6 59q-6 13 -44 13q-20 0 -32 -1v37q8 0 43.5 -1.5t60.5 -1.5q17 0 77 1.5 t79 1.5q225 0 225 -155q0 -130 -151 -164zM186 402q0 -22 10 -26q12 -4 58 -4q208 0 208 147q0 60 -54 91t-145 31q-57 0 -67 -14q-10 -13 -10 -225zM186 302q0 -106 3 -159.5t8 -68.5t15 -22q21 -17 109 -17q86 0 132.5 38.5t46.5 112.5q0 76 -66 111t-169 35q-62 0 -71 -6 q-8 -5 -8 -24z" />
<glyph unicode="C" horiz-adv-x="644" d="M608 147q-96 -162 -269 -162q-133 0 -211 95.5t-78 241.5q0 166 90.5 266.5t240.5 100.5q45 0 87 -15q5 -2 14.5 -5.5t16.5 -6t11 -2.5q16 0 16 20l39 3q4 -51 19 -179l-37 -5q-15 73 -58.5 108.5t-131.5 35.5q-104 0 -174.5 -85.5t-70.5 -213.5q0 -142 67 -223.5 t172 -81.5q138 0 220 130z" />
<glyph unicode="D" horiz-adv-x="745" d="M46 -2v37q12 -1 32 -1q38 0 44 13q6 11 6 61q1 80 1 245q0 191 -1 216q-2 52 -6 59q-6 13 -44 13q-20 0 -32 -1v37q11 0 55.5 -2t66.5 -2q17 0 66 1.5t70 1.5q360 0 360 -328q0 -156 -96 -252.5t-270 -96.5q-29 0 -73.5 1.5t-56.5 1.5q-24 0 -68 -2t-54 -2zM187 349 q0 -149 3 -230q1 -37 14 -56q17 -20 107 -20q137 0 210.5 81.5t73.5 226.5q0 38 -6 71t-19.5 65.5t-37.5 58t-57 45.5t-81 30.5t-107 10.5q-73 0 -85 -11q-12 -8 -13 -48q-2 -50 -2 -224z" />
<glyph unicode="E" horiz-adv-x="606" d="M543 0q-140 1 -390 1q-18 0 -36 -0.5t-39 -1.5t-34 -1v37q12 -1 34 -1q37 0 43 14q7 12 7 61q1 80 1 244q0 46 -0.5 128t-0.5 88q0 48 -6 59q-6 13 -44 13q-20 0 -32 -1v37q8 0 56.5 -2t73.5 -2q197 0 327 2q5 -77 14 -153l-34 -3q-14 77 -41 96q-15 10 -44 13t-118 3 q-47 0 -68 -2q-19 -1 -21 -19q-5 -28 -5 -199q0 -24 8 -29q10 -6 76 -6q72 0 95.5 4t35.5 16q14 15 17 63h33q-3 -78 -3 -105q0 -58 2 -104h-34q-4 53 -23 67q-23 18 -125 18q-65 0 -74 -7q-8 -6 -8 -35q0 -197 14 -225q7 -14 28 -20t80 -6q137 0 175 23q29 19 48 104l36 -3 q-12 -65 -24 -166z" />
<glyph unicode="F" horiz-adv-x="559" d="M285 -2q-112 4 -126 4q-24 0 -62.5 -2t-50.5 -2v38q12 -1 31 -1q40 0 45 12q6 12 6 61q1 80 1 245q0 46 -0.5 128t-0.5 88q0 48 -6 59q-6 13 -44 13q-20 0 -32 -1v37q8 0 56.5 -2t73.5 -2q205 0 335 2q5 -77 14 -153l-34 -3q-14 77 -41 96q-15 10 -43 13t-117 3 q-57 0 -78 -2q-19 -1 -21 -19q-5 -29 -5 -225q0 -15 10 -18q16 -4 74 -4q72 0 94.5 4t34.5 16q14 15 17 63h33q-3 -78 -3 -105q0 -58 2 -104h-34q-4 53 -23 67q-23 18 -123 18q-66 0 -74 -6q-8 -5 -8 -23q0 -150 2 -186q3 -45 14 -60q9 -12 44 -12q23 0 39 1v-38z" />
<glyph unicode="G" horiz-adv-x="709" d="M612 8l-39 -6q-2 9 -9 25q-6 14 -19 14q-8 0 -25 -10q-77 -48 -160 -48q-135 0 -222.5 92.5t-87.5 245.5q0 169 92 268.5t243 99.5q53 0 101 -16q39 -13 43 -13q14 0 16 20l39 3q2 -33 19 -179l-37 -5q-28 144 -201 144q-109 0 -181 -84t-72 -208q0 -153 73 -234t192 -81 q47 0 91.5 19t60.5 54q12 28 12 105q0 39 -8 52q-10 13 -51 13q-22 0 -35 -1v37q72 -3 116 -3q55 0 106 3v-37q-7 1 -24 1q-26 0 -35 -11q-8 -10 -8 -56q0 -156 10 -204z" />
<glyph unicode="H" horiz-adv-x="761" d="M273 -2q-108 4 -115 4q-24 0 -63.5 -2t-50.5 -2v37q6 0 18 -0.5t16 -0.5q38 0 44 13q5 11 5 61q1 80 1 244q0 47 -0.5 129t-0.5 88q0 48 -5 58q-6 14 -44 14q-20 0 -32 -1v37q12 0 50.5 -2t61.5 -2q5 0 113 4v-37q-15 1 -36 1q-30 0 -38 -13q-9 -12 -9 -62 q0 -5 -0.5 -26.5t-1 -58t-0.5 -76.5q0 -23 10 -26q11 -3 183 -3q171 0 182 3q9 3 9 26q0 39 -0.5 99t-0.5 64q0 49 -6 59q-8 14 -44 14q-19 0 -31 -1v37q14 0 49.5 -2t59.5 -2q9 0 117 4v-37q-16 1 -36 1q-31 0 -39 -13q-8 -10 -9 -60q-2 -80 -2 -212q0 -176 2 -248 q1 -52 9 -62q7 -12 39 -12q3 0 16 0.5t22 0.5v-37q-108 4 -119 4q-24 0 -61.5 -2t-49.5 -2v37q7 0 18.5 -0.5t14.5 -0.5q37 0 44 13q6 11 6 61q1 57 1 196q0 19 -7 24q-8 5 -184 5q-174 0 -186 -5q-7 -5 -7 -24q0 -140 2 -196q1 -52 9 -62q8 -12 38 -12q3 0 16.5 0.5 t21.5 0.5v-37z" />
<glyph unicode="I" horiz-adv-x="317" d="M273 -2q-108 4 -115 4q-24 0 -63.5 -2t-50.5 -2v37q6 0 18 -0.5t16 -0.5q38 0 44 13q5 11 5 61q0 40 0.5 135t0.5 109q0 190 -1 217q-2 53 -5 59q-6 14 -44 14q-20 0 -32 -1v36q12 0 50.5 -2t61.5 -2q5 0 113 4v-36q-15 1 -36 1q-30 0 -38 -13q-8 -10 -9 -62 q-2 -74 -2 -203q0 -184 2 -256q1 -52 9 -62q8 -12 38 -12q3 0 16.5 0.5t21.5 0.5v-37z" />
<glyph unicode="J" horiz-adv-x="309" d="M269 640q-13 1 -30 1q-37 0 -44 -13q-8 -13 -8 -57q0 -6 -0.5 -89t-0.5 -129q0 -14 0.5 -98t0.5 -129q0 -109 -28 -170q-25 -53 -65.5 -81t-80.5 -28q-32 0 -52 14t-20 36q0 16 10 26t25 10q24 0 37 -17q11 -14 28 -14q41 0 59 42q16 37 22 123.5t6 289.5q0 130 -2 212 q-1 46 -9 59q-7 13 -39 13q-26 0 -40 -1v37q8 0 30 -1.5t42.5 -2t38.5 -0.5q24 0 66 2t54 2v-37z" />
<glyph unicode="K" horiz-adv-x="640" d="M271 -2q-112 4 -113 4q-24 0 -62.5 -2t-50.5 -2v38q12 -1 31 -1q40 0 45 12q6 12 6 61q1 80 1 245q0 46 -0.5 129t-0.5 89q0 46 -6 58q-5 12 -45 12q-19 0 -31 -1v37q12 0 50.5 -2t62.5 -2q1 0 113 4v-37q-16 1 -37 1q-31 0 -38 -11t-8 -59q-2 -72 -2 -175q0 -25 23 -25 q37 0 80 43q70 71 106.5 115t44.5 59.5t8 29.5q0 22 -50 22h-22v37q49 -4 139 -4q47 0 105 4v-37h-13q-49 0 -86 -42q-70 -77 -230 -247q55 -69 128 -153.5t112 -121.5q24 -23 44.5 -31.5t49.5 -8.5h15v-37q-36 2 -71 2q-36 0 -60 -3q-21 19 -82 90t-119 147 q-46 61 -67.5 80t-39.5 19q-15 0 -15 -20q0 -146 2 -206q1 -51 8 -62t38 -11q21 0 37 1v-38z" />
<glyph unicode="L" horiz-adv-x="588" d="M543 0q-140 1 -390 1q-18 0 -36 -0.5t-39 -1.5t-34 -1v37q12 -1 34 -1q37 0 43 14q7 12 7 61q1 80 1 244q0 46 -0.5 128t-0.5 88q0 48 -5 58q-6 14 -45 14q-20 0 -32 -1v37q12 0 50.5 -2t61.5 -2q14 0 122 4v-37q-15 1 -43 1q-30 0 -39 -14q-9 -11 -10 -61 q-2 -84 -2 -199q0 -267 14 -299q7 -14 28 -20t80 -6q137 0 175 23q29 19 48 104l36 -3q-8 -42 -24 -166z" />
<glyph unicode="M" horiz-adv-x="880" d="M264 -2q-108 4 -113 4q-24 0 -65 -2t-51 -2v37q6 0 18 -0.5t16 -0.5q36 0 44 15t11 61q24 381 24 463q0 25 -7 41q-12 27 -56 27q-19 0 -20 -1v37q4 0 37 -2t57 -2q47 0 78 3q7 -34 19 -64q14 -39 84.5 -218t90.5 -231q181 424 186 439q13 36 21 74q40 -2 69 -2 q26 0 107 3v-37q-16 1 -36 1q-31 0 -39 -13q-8 -10 -9 -60q0 -56 16 -460q1 -48 12 -62q7 -12 44 -12q3 0 13 0.5t19 0.5v-37q-108 4 -122 4q-24 0 -60.5 -2t-49.5 -2v37q7 0 18.5 -0.5t14.5 -0.5q33 0 41 14q6 11 6 60q0 150 -12 486q-224 -516 -232 -536h-29 q-38 104 -210 538q-16 -404 -17 -508q0 -34 9 -43q11 -11 40 -11q3 0 14 0.5t19 0.5v-37z" />
<glyph unicode="N" horiz-adv-x="763" d="M276 -2q-108 4 -119 4q-24 0 -66 -2t-52 -2v37q6 0 18 -0.5t16 -0.5q36 0 44 15q8 14 8 61q2 142 2 462q0 25 -7 41q-4 9 -22 18t-44 9q-9 0 -20 -1v38q84 -4 91 -4q35 0 67 3q9 -20 48 -76q19 -26 96 -134t142.5 -197t113.5 -152q0 12 -1 104t-2.5 186t-3.5 158 q-1 44 -11 61q-8 15 -44 15q-28 0 -39 -1v36q8 0 54 -2t70 -2q8 0 116 4v-36q-14 1 -33 1q-29 0 -40 -11q-12 -12 -13 -43q-4 -129 -4 -365q0 -167 2 -229l-37 -7q-325 458 -428 590q0 -322 6 -488q2 -32 13 -43t40 -11q3 0 17 0.5t22 0.5v-37z" />
<glyph unicode="O" horiz-adv-x="743" d="M693 353q0 -166 -91 -267.5t-244 -101.5q-138 0 -223 99t-85 246q0 161 91.5 261.5t246.5 100.5q133 0 219 -96t86 -242zM630 316q0 42 -8 85t-28 87.5t-50 78t-77 55t-105 21.5q-109 0 -180 -80t-71 -201q0 -148 75.5 -238.5t198.5 -90.5q107 0 176 78.5t69 204.5z" />
<glyph unicode="P" horiz-adv-x="564" d="M284 -2q-112 4 -117 4q-24 0 -68 -2t-54 -2v37q12 -1 31 -1q40 0 45 12q6 12 6 61q1 80 1 246q0 188 -1 217q-2 53 -6 59q-8 12 -45 12q-18 0 -30 -1v37q114 -3 121 -3q17 0 56 1.5t58 1.5q118 0 177 -41t59 -131q0 -108 -73.5 -159.5t-202.5 -51.5q-29 0 -55 3 q0 -106 3 -190q1 -50 11 -62q9 -11 40 -11q29 0 44 1v-37zM186 373q0 -28 20 -34q24 -4 48 -4q106 0 151 40.5t45 122.5q0 64 -46 101t-141 37q-57 0 -66 -11q-6 -7 -9 -67q-2 -32 -2 -185z" />
<glyph unicode="Q" horiz-adv-x="743" d="M693 353q0 -141 -66.5 -237t-183.5 -122q109 -71 162 -97q60 -30 93 -30q24 0 55 19l19 -30q-53 -29 -98 -55q-101 23 -322 183q-136 2 -219 100.5t-83 244.5q0 161 91.5 261.5t246.5 100.5q133 0 219 -96t86 -242zM630 316q0 42 -8 85t-28 87.5t-50 78t-77 55t-105 21.5 q-109 0 -180 -80t-71 -201q0 -148 75.5 -238.5t198.5 -90.5q107 0 176 78.5t69 204.5z" />
<glyph unicode="R" horiz-adv-x="625" d="M268 -2q-108 4 -119 4q-23 0 -55.5 -2t-45.5 -2v37q12 -1 30 -1q38 0 43 12q6 11 6 61q1 80 1 245q0 47 -0.5 129.5t-0.5 88.5q0 47 -6 58q-6 13 -43 13q-18 0 -30 -1v36q6 0 43 -1.5t61 -1.5q18 0 62.5 0.5t70.5 0.5q229 0 229 -175q0 -111 -101 -161q-18 -9 -28 -12 t-10 -10q0 -5 4 -13q5 -10 27 -46q89 -142 126 -186q20 -24 36 -30.5t46 -6.5h11v-36q-24 3 -66 3q-28 0 -52 -3q-20 25 -38 51t-39.5 59t-34 53.5t-39.5 65t-38 63.5q-6 11 -15 13.5t-30 2.5q-7 0 -34 0.5t-31 0.5q-10 0 -16 -2q-6 -4 -6 -26q0 -122 1 -172q1 -51 8 -62 t37 -11q20 0 36 1v-37zM186 371q0 -21 15 -23q19 -3 56 -3q88 0 139 32t51 115q0 141 -184 141q-25 0 -35.5 -0.5t-21 -4t-13.5 -10.5q-5 -13 -5 -43q-2 -57 -2 -204z" />
<glyph unicode="S" horiz-adv-x="518" d="M93 -4l-40 -2q-5 105 -16 184l38 5q15 -64 65 -107.5t120 -43.5q77 0 118.5 37.5t41.5 98.5q0 39 -26.5 70.5t-112.5 71.5l-78 36q-74 34 -105.5 74t-31.5 97q0 73 56 123.5t156 50.5q32 0 67 -11q45 -15 48 -15q13 0 14 19l40 3q2 -47 18 -170l-38 -5 q-14 68 -49.5 100.5t-108.5 32.5q-69 0 -106 -34t-37 -78q0 -47 23.5 -75.5t97.5 -62.5l73 -33q54 -24 88 -48t49 -49t19.5 -43.5t4.5 -44.5q0 -82 -59 -136.5t-162 -54.5q-68 0 -114 26q-21 12 -32 12q-21 0 -21 -28z" />
<glyph unicode="T" horiz-adv-x="605" d="M423 -2q-10 0 -55.5 2t-68.5 2q-8 0 -112 -4v37q8 0 22 -0.5t17 -0.5q32 0 40 12q8 13 8 62q1 76 1 247q0 173 -3 235q-1 29 -7 35q-9 10 -62 10q-80 0 -105 -21t-42 -101l-34 4q11 82 16 160q67 -4 257 -4q221 0 280 4q0 -16 10 -159l-34 -4q-12 81 -35.5 101t-109.5 20 q-61 0 -66 -10q-7 -8 -7 -35q-1 -44 -1 -233q0 -89 2 -249q0 -50 6 -60q9 -14 50 -14q3 0 14.5 0.5t18.5 0.5v-37z" />
<glyph unicode="U" horiz-adv-x="756" d="M730 640q-11 1 -28 1q-36 0 -45 -11q-13 -16 -13 -64q-1 -90 -1 -300q0 -139 -62.5 -211t-200.5 -72q-261 0 -261 246q0 73 0.5 193t0.5 147q0 48 -8 61q-7 11 -44 11q-21 0 -31 -1v37q70 -4 108 -4q59 0 127 4v-37q-11 1 -31 1q-36 0 -48 -12q-11 -11 -13 -63 q-2 -97 -2 -303q0 -114 46.5 -172.5t158.5 -58.5q111 0 160.5 59t49.5 177q0 267 -2 301q-3 49 -13 61q-10 11 -44 11q-24 0 -34 -1v37q70 -4 118 -4q44 0 112 4v-37z" />
<glyph unicode="V" horiz-adv-x="665" d="M346 -7h-41q-37 112 -230 596q-13 32 -24 42t-33 10q-2 0 -8.5 -0.5t-9.5 -0.5v36q37 -3 106 -3q76 0 113 3v-36q-11 1 -38 1q-23 0 -31 -5.5t-8 -20.5q0 -21 34 -113q21 -56 76.5 -201t80.5 -210q132 335 146 372q48 126 48 149q0 16 -8 22t-29 7q-26 0 -38 -1v36 q51 -4 104 -4q44 0 109 4v-36q-5 1 -20 1q-25 0 -38.5 -18t-32.5 -66q-23 -57 -113.5 -278.5t-114.5 -285.5z" />
<glyph unicode="W" horiz-adv-x="938" d="M269 -7h-40q-58 254 -154 596q-9 31 -22.5 41.5t-39.5 10.5q-7 0 -13 -1v36q37 -3 102 -3q82 0 119 3v-36q-1 0 -16.5 0.5t-23.5 0.5q-23 0 -32 -6t-9 -22q0 -7 23 -108q20 -87 99 -390q147 407 195 559h41q22 -80 90 -288t88 -271q51 188 93 349q30 119 30 147 q0 29 -40 30q-6 0 -21.5 -0.5t-16.5 -0.5v36q51 -4 107 -4q43 0 110 4v-36q-5 1 -17 1q-28 0 -42.5 -18t-27.5 -64q-37 -129 -86 -305.5t-73 -260.5h-41q-19 66 -181 566q-29 -85 -104 -294.5t-97 -271.5z" />
<glyph unicode="X" horiz-adv-x="676" d="M338 307q-118 -161 -142 -198q-25 -38 -25 -53q1 -13 12.5 -17t41.5 -4q8 0 22 0.5t15 0.5v-38q-37 3 -133 3q-86 0 -121 -3v38q8 -1 18 -1q26 0 43.5 11t38.5 37q24 29 198 266q-97 135 -176 243q-37 49 -72 49q-16 0 -21 -1v36q36 -3 119 -3q87 0 123 3v-36 q-1 0 -14 0.5t-21 0.5q-27 0 -37 -4.5t-10 -15.5t32 -62q9 -15 116 -164q98 139 110 157q32 47 32 69q0 11 -10 15t-43 5q-7 0 -20 -0.5t-14 -0.5v36q36 -3 125 -3q77 0 114 3v-36q-5 1 -17 1q-21 0 -35.5 -11t-34.5 -38q-54 -68 -177 -236q177 -250 195 -274 q20 -27 36.5 -37.5t40.5 -10.5q13 0 19 1v-37q-37 3 -134 3q-80 0 -116 -3v38q14 -1 38 -1q27 0 37 4.5t10 17.5q-1 11 -33 62q-15 24 -130 188z" />
<glyph unicode="Y" horiz-adv-x="615" d="M419 35v-37q-11 0 -51 2t-63 2q-6 0 -114 -4v37q21 -1 37 -1q32 0 39 13t7 58q0 14 0.5 75.5t0.5 107.5q-51 88 -186 304q-17 28 -32 38.5t-37 10.5q-13 0 -20 -1v36q37 -3 118 -3q90 0 127 3v-36h-15q-14 1 -22 1q-48 0 -49 -23q0 -19 25 -63q10 -17 127 -211 q19 31 50 79.5t52.5 83t32.5 53.5q20 34 20 55q0 13 -10.5 19t-38.5 7q-8 0 -23 -1h-16v36q37 -3 129 -3q71 0 108 3v-36q-5 1 -15 1q-23 0 -37.5 -11.5t-33.5 -37.5q-47 -67 -196 -302q0 -13 2 -185q0 -45 6 -56q8 -15 45 -15q20 0 33 1z" />
<glyph unicode="Z" horiz-adv-x="597" d="M547 -2q-67 4 -303 4q-104 0 -212 -2l-8 17q48 67 136 190.5t160.5 226.5t137.5 196q-185 0 -223 -1q-74 -2 -99 -22.5t-39 -94.5l-38 4q11 75 20 161q65 -4 232 -4q129 0 235 2l8 -17q-90 -127 -226.5 -316.5t-208.5 -290.5q45 -3 206 -3q40 0 58 0.5t44.5 4t38.5 11 t27 21.5t22.5 35.5t13.5 52.5l38 -4q-13 -84 -20 -171z" />
<glyph unicode="[" horiz-adv-x="275" d="M263 -159q-30 2 -80 2q-56 0 -94 -2q3 68 3 436q0 367 -3 435q48 -2 94 -2q50 0 82 2v-41q-74 2 -111 2q-2 -33 -2 -397q0 -363 2 -396q71 0 109 1v-40z" />
<glyph unicode="\" horiz-adv-x="385" d="M326 -115l-300 853h51l300 -853h-51z" />
<glyph unicode="]" horiz-adv-x="275" d="M12 712q30 -2 80 -2q56 0 94 2q-3 -68 -3 -436t3 -435q-48 2 -94 2q-50 0 -82 -2v41q74 -2 111 -2q2 33 2 397q0 363 -2 396q-71 0 -109 -1v40z" />
<glyph unicode="^" horiz-adv-x="509" d="M426 358h-53l-117 259l-119 -259h-55l149 310h52z" />
<glyph unicode="_" horiz-adv-x="496" d="M498 -121h-500v48h500v-48z" />
<glyph unicode="`" horiz-adv-x="280" d="M56 694l65 33q45 -90 107 -184l-21 -11q-113 117 -151 162z" />
<glyph unicode="a" horiz-adv-x="493" d="M326 60q-76 -72 -159 -72q-55 0 -95 36.5t-40 96.5q0 73 87 103q17 6 38.5 11.5t37 8.5t46.5 8.5t47 8.5q30 6 38 15t8 38q0 71 -24.5 101.5t-83.5 30.5q-47 0 -69 -18q-18 -13 -18 -49q0 -30 -36 -30q-31 0 -31 36q0 43 48.5 72.5t130.5 29.5q134 0 134 -132 q0 -17 -3 -105t-3 -131q0 -54 10.5 -70.5t34.5 -16.5q16 0 41 10l12 -32q-40 -19 -75 -19q-34 0 -52.5 14t-23.5 55zM331 198q0 27 -20 27q-24 0 -76 -11t-83 -22q-65 -22 -65 -72q0 -39 28 -62.5t66 -23.5q28 0 60.5 13t51.5 31q23 18 30.5 43.5t7.5 76.5z" />
<glyph unicode="b" horiz-adv-x="554" d="M146 28l-23 -48l-32 5q9 91 9 377q0 120 -2 248q-1 50 -13 65.5t-47 15.5q-15 0 -24 -1v37q77 0 132 16l10 -12q-8 -48 -9 -340q35 41 90 68.5t106 27.5q76 0 121.5 -61t45.5 -165q0 -121 -60.5 -196t-162.5 -75q-75 0 -141 38zM147 214q0 -56 11 -104q9 -36 47 -58.5 t86 -22.5q69 0 117.5 55t48.5 145q0 99 -38.5 154t-109.5 55q-46 0 -96 -36t-57 -78q-9 -43 -9 -110z" />
<glyph unicode="c" horiz-adv-x="444" d="M434 107q-67 -122 -196 -122q-90 0 -142 63t-52 166q0 122 66.5 197.5t171.5 75.5q59 0 93 -23t34 -58q0 -46 -39 -46q-32 0 -35 28q-4 35 -19.5 46.5t-53.5 11.5q-67 0 -115 -57.5t-48 -144.5q0 -99 42 -155.5t117 -56.5q39 0 79.5 25t63.5 68z" />
<glyph unicode="d" horiz-adv-x="585" d="M553 3q-79 -2 -135 -14l-10 11q3 26 6 82q-85 -94 -183 -94q-82 0 -134.5 58t-52.5 162q0 131 72 205t171 74q82 0 129 -30q0 106 -4 190q-1 29 -14 37t-45 8q-16 0 -23 -1v37q77 0 132 16l9 -12q-7 -50 -8 -353q0 -165 2 -248q2 -62 10 -78.5t37 -16.5q21 0 41 2v-35z M415 281q0 80 -17 113q-30 55 -114 55q-79 0 -132.5 -62.5t-53.5 -154.5q0 -94 43 -144t111 -50q36 0 74.5 19.5t59.5 48.5q29 40 29 175z" />
<glyph unicode="e" horiz-adv-x="465" d="M442 107q-31 -56 -81.5 -89t-114.5 -33q-97 0 -149.5 64.5t-52.5 171.5q0 121 62 193.5t163 72.5q75 0 117 -46t42 -125q0 -22 -8 -30.5t-29 -10.5q-60 -3 -293 -3q-3 -20 -3 -38q1 -94 46.5 -147t122.5 -53q40 0 79.5 23.5t65.5 67.5zM109 322q0 -13 12 -13q20 -1 79 -1 q130 0 150 8q15 7 15 30q0 52 -31 76.5t-81 24.5q-40 0 -78.5 -24t-58.5 -73q-7 -19 -7 -28z" />
<glyph unicode="f" horiz-adv-x="307" d="M276 -2q-108 4 -131 4t-56 -2t-47 -2v36q12 -1 27 -1q39 0 47 15q7 16 7 57q1 80 1 325q-30 0 -70 -2v38q40 0 49 3q11 3 16 13t10 43q14 104 45 147q53 74 144 74q36 0 60 -18t24 -44q0 -18 -10.5 -27t-24.5 -9q-28 0 -34 22q-5 20 -13.5 28t-28.5 8q-27 0 -50 -17 t-35 -41q-30 -59 -30 -180q84 0 123 3v-41q-33 1 -124 1q-1 -41 -1 -126q0 -127 2 -200q1 -50 7 -60q7 -12 46 -12q31 0 47 1v-36z" />
<glyph unicode="g" horiz-adv-x="488" d="M133 8q-98 12 -98 86q0 30 18.5 54.5t66.5 52.5q-47 39 -47 115q0 72 52 121.5t128 49.5t121 -47q5 33 26 54t52 21q40 0 40 -31q0 -30 -28 -30q-9 0 -19.5 3.5t-17.5 3.5q-9 0 -16 -11t-7 -29t5 -40q8 -28 8 -52q0 -77 -51.5 -126t-125.5 -49q-39 0 -78 13q-8 2 -16 2 q-12 0 -22 -6q-38 -22 -38 -60q0 -26 20 -37t69 -11q28 0 89 1.5t74 1.5q134 0 134 -104q0 -94 -76 -151t-190 -57q-82 0 -131.5 35.5t-49.5 89.5q0 77 108 137zM415 -76q0 45 -25 65.5t-103 20.5q-53 0 -70 -2q-47 -6 -83 -34q-53 -41 -53 -92q0 -46 39 -69t105 -23 q77 0 133.5 38.5t56.5 95.5zM361 314q0 56 -29.5 94t-85.5 38q-57 0 -86.5 -31t-29.5 -84q0 -137 113 -137q56 0 87 30.5t31 89.5z" />
<glyph unicode="h" horiz-adv-x="608" d="M254 -2q-1 0 -41 2t-65 2q-23 0 -59.5 -2t-49.5 -2v36q12 -1 27 -1q38 0 47 16q7 14 7 58q0 27 0.5 134.5t0.5 120.5q0 134 -2 262q-1 47 -13 57t-48 10q-14 0 -23 -1v37q79 0 134 16l10 -12q-6 -55 -7 -335q98 90 199 90q81 0 104 -84q13 -51 13 -157v-138q0 -51 7 -62 q6 -12 42 -12q15 0 32 1v-36q-9 0 -30 1.5t-41.5 2t-38.5 0.5q-24 0 -58 -2t-48 -2v36q13 -1 27 -1q36 0 45 16q14 22 14 114q0 186 -26 235q-21 40 -79 40q-36 0 -78 -21.5t-64 -55.5q-21 -31 -21 -104q0 -109 1 -150q1 -52 8 -62q6 -12 42 -12q16 0 32 1v-36z" />
<glyph unicode="i" horiz-adv-x="297" d="M262 -2q-92 4 -106 4q-24 0 -65.5 -2t-43.5 -2v36q12 -1 27 -1q41 0 47 13q4 7 6 67q1 49 1 135q0 126 -6 162q-5 24 -50 24q-16 0 -28 -1v36q71 0 136 17l8 -10q-9 -86 -9 -225q0 -97 1 -138q2 -58 7 -68q7 -12 42 -12q17 0 33 1v-36zM186 658q0 -20 -13 -33.5 t-32 -13.5q-18 0 -30.5 13.5t-12.5 32.5q0 20 12 33.5t32 13.5t32 -13.5t12 -32.5z" />
<glyph unicode="j" horiz-adv-x="278" d="M183 476q-9 -86 -9 -225q0 -12 1 -124t1 -134q0 -96 -24 -153q-37 -89 -127 -89q-31 0 -49 13.5t-18 35.5q0 15 11 24t22 9q23 0 36 -25q7 -12 22 -12q38 0 53 41q21 58 21 355q0 188 -7 216q-3 14 -12.5 20t-36.5 6q-16 0 -28 -1v36q72 0 137 17zM181 658 q0 -20 -13 -33.5t-32 -13.5q-18 0 -30.5 13.5t-12.5 32.5q0 20 12 33.5t32 13.5t32 -13.5t12 -32.5z" />
<glyph unicode="k" horiz-adv-x="526" d="M253 -2q-8 0 -27 1.5t-38 2t-38 0.5q-23 0 -61.5 -2t-50.5 -2v36q13 -1 26 -1q41 0 48 13q5 9 7 61q1 40 1 255q0 134 -2 262q-1 47 -13 57t-48 10q-14 0 -23 -1v37q80 0 135 16l10 -12q-8 -49 -8 -430q0 -21 3 -26q5 -7 20 -7q32 0 66 33q92 88 92 120q0 14 -26 14 q-16 0 -34 -1v37q44 -4 109 -4q20 0 96 4v-37q-9 1 -21 1q-36 0 -67 -34q-69 -75 -142 -148q99 -124 165 -185q22 -21 34.5 -27.5t34.5 -6.5q16 0 25 1v-36q-28 2 -51 2q-30 0 -57 -3q-27 26 -135 154q-44 53 -62 69t-34 16t-16 -19q0 -75 2 -111q3 -54 9 -62q6 -12 39 -12 q16 0 32 1v-36z" />
<glyph unicode="l" horiz-adv-x="289" d="M254 -2q-8 0 -27 1.5t-38 2t-38 0.5q-23 0 -62 -2t-51 -2v36q13 -1 26 -1q38 0 47 13q8 10 8 61q1 80 1 255q0 134 -2 262q-1 47 -13 57t-48 10q-14 0 -23 -1v37q79 0 134 16l10 -12q-5 -45 -6 -358q0 -155 1 -266q0 -48 8 -61t41 -13q16 0 32 1v-36z" />
<glyph unicode="m" horiz-adv-x="909" d="M259 -2l-116 4q-23 0 -54 -2t-45 -2v37q12 -1 27 -1q39 0 47 14q5 9 7 60q1 49 1 133q0 133 -6 169q-3 24 -51 24q-15 0 -25 -1v36q68 0 129 17l10 -12q-2 -20 -6 -81q96 93 194 93q80 0 103 -96q43 43 99.5 69.5t102.5 26.5q85 0 107 -87q11 -45 11 -154v-137 q0 -52 7 -62q6 -12 42 -12q15 0 32 1v-37q-9 0 -30 1.5t-41.5 2t-38.5 0.5q-24 0 -58 -2t-48 -2v37q13 -1 27 -1q38 0 45 16q14 22 14 118q0 185 -22 225q-24 41 -76 41q-40 0 -79.5 -19.5t-61.5 -51.5q-21 -31 -21 -99v-156q0 -47 8 -61q7 -13 41 -13q16 0 32 1v-37 q-9 0 -30.5 1.5t-42 2t-38.5 0.5q-24 0 -56 -2t-47 -2v37q13 -1 26 -1q39 0 47 14q10 17 10 120q0 112 -3.5 153t-16.5 67q-23 45 -75 45q-37 0 -80 -18.5t-64 -58.5q-20 -36 -20 -101q0 -106 1 -147q1 -52 8 -62q6 -12 42 -12q16 0 32 1v-37z" />
<glyph unicode="n" horiz-adv-x="608" d="M259 -2q-1 0 -41 2t-65 2q-23 0 -59.5 -2t-49.5 -2v36q12 -1 27 -1q38 0 47 16q7 14 7 58q0 27 0.5 77.5t0.5 63.5q0 126 -6 162q-3 24 -51 24q-15 0 -25 -1v36q69 0 129 17l10 -12q-5 -51 -6 -82q45 45 98.5 69.5t100.5 24.5q81 0 104 -84q13 -51 13 -157v-138 q0 -51 7 -62q6 -12 42 -12q15 0 32 1v-36q-9 0 -30 1.5t-41.5 2t-38.5 0.5q-24 0 -58 -2t-48 -2v36q13 -1 27 -1q36 0 46 16q13 22 13 114q0 186 -26 235q-19 36 -79 36q-36 0 -78 -21.5t-64 -55.5q-21 -31 -21 -100q0 -109 1 -150q1 -52 8 -62q6 -12 42 -12q16 0 32 1v-36z " />
<glyph unicode="o" horiz-adv-x="533" d="M489 253q0 -119 -64.5 -193.5t-173.5 -74.5q-92 0 -149.5 67.5t-57.5 169.5q0 115 67 190t172 75q93 0 149.5 -65t56.5 -169zM434 222q0 57 -14 103.5t-53 81.5t-100 35q-74 0 -120.5 -54t-46.5 -134q0 -107 47.5 -165.5t122.5 -58.5q68 0 116 52t48 140z" />
<glyph unicode="p" horiz-adv-x="566" d="M254 -242l-116 4q-23 0 -59.5 -2t-49.5 -2v36q12 -1 27 -1q40 0 47 17q5 13 7 57q1 49 1 291q0 187 -3 232q-1 24 -10 33q-11 11 -43 11q-15 0 -25 -1v36q69 0 129 17l10 -12q-5 -54 -6 -78q39 39 92 65t100 26q76 0 121.5 -61t45.5 -165q0 -121 -60.5 -196t-162.5 -75 q-73 0 -139 38q0 -90 2 -161q1 -44 12 -60q7 -14 48 -14q16 0 32 1v-36zM159 214q0 -53 11 -101q9 -36 47 -58.5t86 -22.5q69 0 116.5 54.5t47.5 142.5q0 99 -37.5 152t-108.5 53q-46 0 -91.5 -31t-57.5 -69q-13 -41 -13 -120z" />
<glyph unicode="q" horiz-adv-x="557" d="M547 -242q-5 0 -46.5 2t-66.5 2q-23 0 -58.5 -2t-53.5 -2v35q16 -1 41 -1q34 1 43 13q9 15 10 60q3 80 3 224q-91 -100 -192 -100q-79 0 -131.5 61t-52.5 162q0 123 70.5 199t171.5 76q78 0 137 -33l23 50l32 -4q-8 -86 -8 -381q0 -172 1 -254q2 -52 7 -60q8 -13 42 -13 q14 0 28 1v-35zM415 268q0 100 -20 128q-36 51 -113 51q-75 0 -130 -60.5t-55 -157.5q0 -87 43 -138t108 -51q41 0 79 21.5t61 53.5q17 24 22 53.5t5 99.5z" />
<glyph unicode="r" horiz-adv-x="396" d="M271 -2q-63 4 -128 4q-19 0 -99 -4v36q12 -1 26 -1q37 0 48 17q7 11 7 57q0 27 0.5 77.5t0.5 63.5q0 128 -7 162q-3 24 -47 24q-16 0 -28 -1v36q76 0 127 17l12 -11q-4 -49 -6 -95q37 53 78 80t75 27q23 0 37 -11t14 -32q0 -22 -11.5 -34t-30.5 -12t-31 14q-7 9 -21 9 q-19 0 -47 -23.5t-45 -62.5q-19 -42 -19 -92q0 -95 1 -136q1 -48 9 -62q8 -12 42 -12q26 0 43 1v-36z" />
<glyph unicode="s" horiz-adv-x="384" d="M246 250q103 -51 103 -126q0 -61 -45.5 -100t-130.5 -39q-66 0 -106 26t-40 65q0 18 9 27.5t23 9.5q29 0 34 -31q9 -59 90 -59q58 0 86 25t28 58q0 34 -18.5 55t-66.5 45l-71 34q-48 23 -68 48.5t-20 68.5q0 54 45 91.5t120 37.5q60 0 89 -22t29 -56q0 -31 -33 -31 q-27 0 -31 27q-9 42 -67 42q-47 0 -74.5 -22t-27.5 -60q0 -28 17 -45.5t62 -38.5z" />
<glyph unicode="t" horiz-adv-x="310" d="M299 15q-48 -24 -103 -24q-52 0 -71 39q-14 24 -14 98q0 56 1.5 161.5t1.5 140.5q-48 0 -71 -2v33q39 4 58 21q24 22 39 105h30q-3 -109 -3 -119q83 0 120 3v-41q-29 1 -122 1q-1 -167 -1 -236q0 -47 5 -105q3 -31 15.5 -44.5t40.5 -13.5q23 0 62 15z" />
<glyph unicode="u" horiz-adv-x="610" d="M568 3q-47 0 -128 -14l-8 7q1 8 4 75q-91 -85 -183 -85q-68 0 -103.5 37t-35.5 131q0 22 2 101t2 107q0 45 -8 57q-11 15 -39 15q-18 0 -33 -1v36q76 0 135 17l9 -11q-14 -105 -14 -275q0 -96 19 -125q24 -38 89 -38q38 0 80 21.5t62 58.5q19 37 19 100q0 111 -1 145 q-1 45 -8 57q-9 15 -40 15q-20 0 -31 -1v36q76 0 133 17l8 -10q-11 -94 -11 -260q0 -128 7 -155q3 -13 10 -18t23 -5q15 0 41 2v-37z" />
<glyph unicode="v" horiz-adv-x="505" d="M265 -7h-41q-39 121 -146 381q-17 40 -28 50.5t-31 10.5q-9 0 -18 -1v37q57 -4 112 -4q43 0 92 4v-37q-8 1 -29 1q-26 0 -36 -5.5t-10 -20.5q0 -24 35 -113q14 -36 43 -109t44 -114q23 56 57 135.5t45 107.5q29 76 29 93q0 15 -10 20.5t-34 5.5q-15 0 -29 -1v37 q59 -4 96 -4q56 0 99 4v-37q-8 1 -21 1q-15 0 -27.5 -11.5t-28.5 -49.5q-110 -247 -163 -381z" />
<glyph unicode="w" horiz-adv-x="737" d="M232 -7h-41q-69 231 -117 381q-12 40 -24 50.5t-32 10.5q-9 0 -18 -1v37q57 -4 112 -4q43 0 92 4v-37q-11 1 -25 1q-50 0 -50 -27q0 -20 25 -111q16 -56 36.5 -126t28.5 -98q112 318 136 396h39q11 -42 25.5 -89.5t27.5 -84t36.5 -104.5t40.5 -117q6 22 33.5 114 t36.5 124q21 79 21 96q0 27 -47 27q-15 0 -29 -1v37q59 -4 95 -4q59 0 102 4v-37q-8 1 -21 1q-15 0 -27.5 -12t-25.5 -50q-1 -4 -123 -380h-41q-15 48 -130 370q-22 -62 -69.5 -189.5t-66.5 -180.5z" />
<glyph unicode="x" horiz-adv-x="524" d="M211 -2q-9 0 -40.5 2t-50.5 2q-23 0 -61 -2t-49 -2v36q8 -1 16 -1q24 0 38 10.5t43 44.5l121 144l-128 158q-24 29 -34.5 37t-26.5 8q-6 0 -18 -1v37q55 -4 113 -4q54 0 101 4v-37q-10 1 -32 1q-27 0 -36.5 -4t-9.5 -15q0 -10 32 -51l77 -97l80 101q24 30 24 47 q0 19 -50 19q-19 0 -29 -1v37q47 -4 97 -4q46 0 101 4v-37q-6 1 -13 1q-26 0 -61 -43l-125 -152l142 -163q16 -18 23 -25t17.5 -13t22.5 -6t20 1v-36q-11 0 -52 2t-64 2q-20 0 -53 -2t-42 -2v36q11 -1 24 -1q44 0 44 19q0 11 -18 33l-100 120l-88 -112q-22 -28 -22 -41 q0 -19 35 -19q22 0 32 1v-36z" />
<glyph unicode="y" horiz-adv-x="500" d="M233 7q-29 74 -158 371q-17 39 -28 48t-27 9q-13 0 -20 -1v37q43 -3 102 -3q66 0 103 3v-37q-11 1 -30 1q-25 0 -35 -6.5t-10 -22.5q0 -18 40 -113q55 -132 94 -220q49 123 82 216q36 103 36 118q0 16 -10 22t-35 6q-15 0 -29 -1v37q59 -4 98 -4q51 0 94 4v-37 q-8 1 -16 1q-20 0 -35 -21t-47 -104q-72 -186 -177 -430q-28 -64 -60 -98t-79 -34q-50 0 -50 40q0 37 38 37q5 0 15 -3.5t19 -3.5q30 0 56 44q21 34 69 145z" />
<glyph unicode="z" horiz-adv-x="471" d="M410 -1q-156 2 -196 2q-27 0 -70 -0.5t-75 -1t-33 -0.5l-7 15q198 260 311 418q-133 0 -171.5 -3.5t-53.5 -16.5q-22 -19 -34 -70l-36 5q17 68 25 125q44 0 92 -1.5t84 -1.5q104 0 166 3l8 -17q-194 -259 -307 -414q48 -2 126 -2q61 0 89 5q33 5 51 25t33 72l37 -8 q-25 -79 -39 -134z" />
<glyph unicode="{" horiz-adv-x="309" d="M25 258v35q58 3 75 31.5t17 108.5v121q0 85 36 125.5t146 40.5v-35q-71 0 -95.5 -23.5t-24.5 -102.5v-135q0 -70 -18 -102.5t-72 -45.5q53 -11 72 -41t19 -99v-146q0 -72 25 -96.5t94 -24.5v-36q-102 0 -141 33.5t-39 120.5v142q0 68 -19 98t-75 31z" />
<glyph unicode="|" horiz-adv-x="231" d="M142 722v-903h-54v903h54z" />
<glyph unicode="}" horiz-adv-x="309" d="M284 295v-35q-58 -3 -75 -31.5t-17 -108.5v-121q0 -85 -36 -125.5t-146 -40.5v35q71 0 95.5 23.5t24.5 102.5v135q0 70 18 102.5t72 45.5q-53 11 -72 41t-19 99v146q0 72 -25 96.5t-94 24.5v36q102 0 141 -33.5t39 -120.5v-142q0 -68 19 -98t75 -31z" />
<glyph unicode="~" horiz-adv-x="576" d="M93 231l-36 33q58 86 134 86q24 0 45 -8t67 -35q56 -31 83 -31q51 0 98 72l35 -33q-58 -86 -134 -86q-41 0 -98 33q-44 25 -61.5 32.5t-36.5 7.5q-54 0 -96 -71z" />
<glyph unicode="&#xa1;" horiz-adv-x="316" d="M118 277h39q1 -86 11 -251t10 -184q0 -58 -42 -58q-22 0 -31.5 13t-9.5 44q0 23 10.5 188t12.5 248zM136 479q20 0 33.5 -13.5t13.5 -37.5q0 -22 -14 -35.5t-34 -13.5q-21 0 -33.5 13.5t-12.5 36.5t13 36.5t34 13.5z" />
<glyph unicode="&#xa2;" horiz-adv-x="462" d="M447 112q-60 -108 -170 -120v-89h-40v88q-84 4 -132 65t-48 160q0 101 49 171.5t131 90.5v93h40v-87q6 1 18 1q59 0 93 -23t34 -58q0 -42 -40 -42q-31 0 -34 28q-4 33 -19.5 42t-51.5 9v-404q38 2 76.5 26.5t60.5 66.5zM115 240q0 -177 122 -200v395q-52 -16 -87 -69.5 t-35 -125.5z" />
<glyph unicode="&#xa3;" horiz-adv-x="552" d="M492 -2q-144 3 -249 3q-167 0 -219 -2l3 36q46 12 84 46q58 54 58 188h-102v42h102q0 16 -0.5 55.5t-0.5 57.5q0 104 56.5 163.5t147.5 59.5q60 0 96.5 -25t36.5 -60q0 -50 -50 -50q-14 0 -25 10.5t-12 28.5q-1 30 -18 42t-50 12q-46 0 -78 -31.5t-34 -108.5 q-2 -54 -2 -154h149v-42h-151q-4 -66 -22 -116.5t-70 -96.5h130q133 0 162 14q17 8 26.5 26t15.5 62l39 -4q-12 -64 -23 -156z" />
<glyph unicode="&#xa4;" horiz-adv-x="531" d="M451 73l-61 65q-53 -41 -125 -41q-75 0 -123 38l-63 -62l-35 35l63 65q-44 55 -44 129t43 128l-61 64l34 35l62 -64q52 43 125 43q71 0 123 -42l61 63l35 -35l-61 -64q42 -53 42 -128q0 -74 -42 -128l63 -66zM411 302q0 67 -41 112t-104 45q-65 0 -106.5 -44.5 t-41.5 -110.5q0 -70 41 -115t107 -45q63 0 104 45.5t41 112.5z" />
<glyph unicode="&#xa5;" horiz-adv-x="633" d="M282 208h-182v38h182v20l-38 62h-144v38h120l-113 178q-29 45 -66 45q-13 0 -19 -1v37q35 -3 114 -3q88 0 124 3v-37h-14q-14 1 -22 1q-46 0 -47 -21q0 -17 24 -58q9 -15 27.5 -45t47 -74t45.5 -72q25 40 70.5 108.5t56.5 86.5q19 32 19 51q0 23 -47 24q-8 0 -22 -1h-15 v37q35 -3 125 -3q68 0 103 3v-37q-4 1 -14 1q-22 0 -36 -10.5t-32 -34.5q-26 -35 -123 -178h121v-38h-146l-39 -60v-22h185v-38h-184v-108q0 -41 6 -52q7 -14 43 -14q20 0 32 1v-37q-10 0 -49.5 2t-61.5 2q-8 0 -112 -4v37q20 -1 36 -1q30 0 37 12q7 13 7 54q0 62 1 108z " />
<glyph unicode="&#xa6;" horiz-adv-x="231" d="M142 722v-383h-54v383h54zM142 202v-383h-54v383h54z" />
<glyph unicode="&#xa7;" horiz-adv-x="458" d="M313 79q64 -72 64 -132q0 -56 -50 -99t-130 -43q-63 0 -101.5 24.5t-38.5 64.5q0 17 10.5 27.5t27.5 10.5t25 -8t14 -34q9 -41 74 -41q53 0 81 26.5t28 65.5q0 32 -26.5 70t-106.5 110q-78 70 -110.5 113.5t-32.5 84.5q0 93 112 143q-48 48 -48 107q0 62 50.5 102 t127.5 40q58 0 91.5 -22.5t33.5 -62.5q0 -41 -35 -41q-17 0 -26 9t-10 21q-2 31 -16.5 42.5t-53.5 11.5q-45 0 -76 -25t-31 -62t19 -63.5t96 -89.5q89 -73 118.5 -113t29.5 -80q0 -95 -110 -157zM366 217q0 20 -5.5 37t-35.5 52.5t-87 81.5q-8 7 -25 20t-24 19q-6 5 -14 5 q-9 0 -17 -5q-60 -36 -60 -89q0 -35 22.5 -69t84.5 -91q48 -43 64 -56q10 -8 19 -8q12 0 20 6q58 39 58 97z" />
<glyph unicode="&#xa8;" horiz-adv-x="277" d="M59 575q-16 0 -27.5 11t-11.5 29q0 17 11.5 28t28.5 11q16 0 27 -11t11 -28t-11 -28.5t-28 -11.5zM218 575q-16 0 -27 11t-11 29q0 17 11 28t28 11q16 0 27 -11t11 -28t-11 -28.5t-28 -11.5z" />
<glyph unicode="&#xa9;" horiz-adv-x="849" d="M54 352q0 156 106 262t263 106q159 0 265.5 -105.5t106.5 -262.5q0 -156 -106 -261t-265 -105t-264.5 105t-105.5 261zM93 352q0 -141 94 -236t237 -95t237.5 94.5t94.5 236.5t-95 237.5t-238 95.5q-142 0 -236 -95.5t-94 -237.5zM603 234q-69 -105 -192 -105 q-93 0 -147.5 61.5t-54.5 156.5q0 108 61.5 174.5t165.5 66.5q34 0 62 -10q25 -9 30 -9q11 0 11 13l32 3q3 -40 15 -130l-35 -5q-11 49 -39 73t-88 24q-70 0 -114 -51.5t-44 -134.5q0 -89 44.5 -138t108.5 -49q91 0 150 83z" />
<glyph unicode="&#xaa;" horiz-adv-x="395" d="M260 358q-56 -53 -121 -53q-45 0 -76 28t-31 72q0 57 68 81q17 5 36.5 9t48 9t45.5 8q22 4 28.5 11t6.5 27q0 49 -18 70t-60 21q-34 0 -50 -13q-11 -9 -13 -35q-1 -23 -31 -23q-29 0 -29 31q0 33 39 55.5t104 22.5q109 0 109 -100q0 -13 -2.5 -75.5t-2.5 -94.5 q0 -39 8.5 -51t26.5 -12q14 0 30 6l9 -31q-30 -14 -64 -14q-27 0 -42 10t-19 41zM263 460q0 19 -16 19q-44 0 -112 -22q-47 -14 -47 -51q0 -26 19.5 -42t46.5 -16q43 0 80 29q17 14 23 31.5t6 51.5z" />
<glyph unicode="&#xab;" horiz-adv-x="421" d="M235 82l-23 -20q-98 98 -190 176v16q116 94 191 170l22 -21q-44 -54 -139 -155q115 -135 139 -166zM402 82l-23 -20q-98 98 -190 176v16q116 94 191 170l22 -21q-44 -54 -139 -155q115 -135 139 -166z" />
<glyph unicode="&#xac;" horiz-adv-x="600" d="M514 29h-48v198h-398v48h446v-246z" />
<glyph unicode="&#xad;" horiz-adv-x="322" d="M51 283q23 -2 108 -2q75 0 112 2v-61q-29 1 -111 1q-71 0 -109 -1v61z" />
<glyph unicode="&#xae;" horiz-adv-x="849" d="M54 352q0 156 106 262t263 106q159 0 265.5 -105.5t106.5 -262.5q0 -156 -106 -261t-265 -105t-264.5 105t-105.5 261zM93 352q0 -141 94 -236t237 -95t237.5 94.5t94.5 236.5t-95 237.5t-238 95.5q-142 0 -236 -95.5t-94 -237.5zM408 136q-51 3 -85 3q-4 0 -79 -3v31 l9 -1h12q25 0 29 9q4 8 4 40q1 53 1 155q0 30 -0.5 80t-0.5 54q0 33 -4 38q-8 9 -28 9q-10 0 -21 -1v33q12 0 39 -1t41 -1q12 0 44 0.5t49 0.5q75 0 118.5 -28.5t43.5 -86.5q0 -67 -53 -101q-19 -11 -33 -18q-9 -4 -9 -12q0 -7 8 -19q77 -115 85 -126q12 -16 24 -20t34 -4h8 v-31q-22 2 -45 2q-25 0 -47 -2q-45 57 -117 187q-6 10 -30 10q-5 0 -19.5 0.5t-17.5 0.5q-10 0 -13 -2q-4 -2 -4 -20q0 -56 1 -93q2 -39 5 -45q5 -8 25 -8q3 0 14 0.5t12 0.5v-31zM351 386q0 -13 10 -15q18 -2 38 -2q55 0 88 19.5t33 73.5q0 85 -117 85q-39 0 -46 -10 q-5 -7 -5 -28q-1 -38 -1 -123z" />
<glyph unicode="&#xaf;" horiz-adv-x="277" d="M17 573v50h243v-50h-243z" />
<glyph unicode="&#xb0;" horiz-adv-x="306" d="M281 585q0 -57 -37 -93t-92 -36q-57 0 -93 34.5t-36 93.5q0 56 39 92t94 36q57 0 91 -34.5t34 -92.5zM238 584q0 42 -24 66t-61 24q-35 0 -59.5 -25t-24.5 -67q0 -41 24.5 -64.5t60.5 -23.5q37 0 60.5 24.5t23.5 65.5z" />
<glyph unicode="&#xb1;" horiz-adv-x="600" d="M325 168h-49v195h-199v46h199v195h49v-195h198v-46h-198v-195zM523 45h-446v47h446v-47z" />
<glyph unicode="&#xb2;" horiz-adv-x="357" d="M302 459q-40 2 -138 2q-87 0 -139 -2l-4 33q127 95 174.5 149.5t47.5 108.5q0 33 -20 53.5t-57 20.5q-21 0 -34.5 -4t-19.5 -13t-8 -17t-2 -21q-1 -23 -29 -23q-26 0 -26 29t34.5 56.5t86.5 27.5q125 0 125 -111q0 -23 -6 -42.5t-25.5 -49t-64 -68t-113.5 -85.5 q16 -1 55 -1q78 0 97.5 1.5t28.5 8.5q12 8 20 46l27 -2q-5 -36 -10 -97z" />
<glyph unicode="&#xb3;" horiz-adv-x="357" d="M204 669q102 -11 102 -97q0 -56 -42.5 -89t-102.5 -33q-71 0 -99 23.5t-28 50.5q0 33 27 33q24 0 26 -24q2 -25 18 -36.5t55 -11.5q48 0 72 22.5t24 59.5q0 83 -104 83q-5 0 -17.5 -0.5t-15.5 -0.5v33q5 -1 28 -1q88 0 88 85q0 25 -17.5 41.5t-54.5 16.5q-59 0 -59 -46 q0 -26 -25 -26q-24 0 -24 26q0 31 29.5 56t82.5 25q56 0 86 -25t30 -65q0 -42 -19.5 -63t-59.5 -37z" />
<glyph unicode="&#xb4;" horiz-adv-x="280" d="M159 723l69 -29q-62 -69 -155 -162l-21 11q76 115 107 180z" />
<glyph unicode="&#xb5;" horiz-adv-x="610" d="M176 -209h-58v571q0 45 -8 57q-11 15 -39 15q-18 0 -33 -1v36q77 0 136 17l9 -11q-13 -97 -13 -275q0 -98 18 -125q24 -38 88 -38q38 0 80 21.5t62 58.5q19 37 19 100q0 111 -1 145q-1 45 -8 57q-9 15 -40 15q-20 0 -31 -1v36q76 0 133 17l8 -10q-11 -94 -11 -260 q0 -87 1 -109q1 -28 3 -41t11 -24t27 -11q20 0 49 12l16 -31q-36 -21 -79 -21q-42 0 -59 17.5t-20 62.5q-91 -85 -178 -85q-61 0 -87 30q3 -176 5 -225z" />
<glyph unicode="&#xb6;" horiz-adv-x="582" d="M447 283q0 -14 0.5 -73t0.5 -104q0 -133 -25 -196q-24 -62 -72 -97.5t-106 -35.5q-36 0 -59 14t-23 36q0 17 9.5 28t25.5 11q25 0 38 -20q9 -14 49 -14q26 0 46.5 19.5t30.5 53.5q13 45 18.5 91t6.5 81t2 117q-21 -9 -83 -9q-45 0 -84.5 12.5t-74 39t-55 74t-20.5 110.5 q0 253 323 253q37 0 127 4v-36q-51 0 -64 -12.5t-13 -71.5q0 -37 2 -275zM234 419q0 -106 33.5 -148.5t93.5 -42.5q22 0 25 16q3 15 3 43q0 210 -5 292q-3 51 -46 51t-68 -36q-36 -51 -36 -175z" />
<glyph unicode="&#xb7;" horiz-adv-x="204" d="M102 195q-20 0 -33.5 13.5t-13.5 37.5q0 22 14 35.5t34 13.5q21 0 33.5 -13.5t12.5 -36.5t-13 -36.5t-34 -13.5z" />
<glyph unicode="&#xb8;" horiz-adv-x="277" d="M55 -249v35q115 0 115 65q0 22 -18.5 34.5t-51.5 12.5l-7 14q13 30 37 90h32q-5 -12 -23 -60q83 -10 83 -76q0 -31 -17 -54.5t-43.5 -36t-53.5 -18.5t-53 -6z" />
<glyph unicode="&#xb9;" horiz-adv-x="357" d="M278 459q-8 0 -38.5 1t-45.5 1q-14 0 -48 -1t-46 -1v28q7 -1 21 -1q34 0 41 10q5 6 5 36q1 47 1 121q0 19 -0.5 56t-0.5 55q0 33 -8 38q-7 4 -17 4q-22 0 -45 -5l-3 27q50 8 115 33l9 -7q-6 -44 -6 -174q0 -115 1 -148q1 -30 6 -37q6 -9 31 -9q17 0 28 1v-28z" />
<glyph unicode="&#xba;" horiz-adv-x="397" d="M366 503q0 -89 -50.5 -144t-136.5 -55q-72 0 -117 50t-45 126q0 87 52.5 143t134.5 56q73 0 117.5 -49t44.5 -127zM311 480q0 42 -9.5 75.5t-37.5 59t-72 25.5q-54 0 -87.5 -39.5t-33.5 -97.5q0 -78 34 -119t89 -41q49 0 83 36.5t34 100.5z" />
<glyph unicode="&#xbb;" horiz-adv-x="421" d="M189 404l23 20q98 -98 190 -176v-16q-116 -94 -191 -170l-22 21q44 54 139 155q-115 135 -139 166zM22 404l23 20q98 -98 190 -176v-16q-116 -94 -191 -170l-22 21q44 54 139 155q-115 135 -139 166z" />
<glyph unicode="&#xbc;" horiz-adv-x="792" d="M516 629h45l-281 -629h-46zM278 234q-8 0 -38.5 1t-45.5 1q-14 0 -48 -1t-46 -1v28q7 -1 21 -1q34 0 41 10q5 6 5 36q1 47 1 121q0 19 -0.5 56t-0.5 55q0 33 -8 38q-7 4 -17 4q-22 0 -45 -5l-3 27q50 8 115 33l9 -7q-6 -44 -6 -174q0 -115 1 -148q1 -30 6 -37q6 -9 31 -9 q17 0 28 1v-28zM723 -2q-57 3 -88 3q-14 0 -45.5 -1t-43.5 -1v28q9 -1 22 -1q32 0 40 10q7 10 7 39v36q-127 0 -187 -1l-6 20q74 92 205 268h32q-1 -44 -1 -108v-143q44 0 71 1l-4 -38q-26 1 -67 1v-35q0 -35 7 -42q9 -9 31 -9q16 0 27 1v-28zM615 148l1 182 q-72 -102 -136 -182h135z" />
<glyph unicode="&#xbd;" horiz-adv-x="792" d="M516 629h45l-281 -629h-46zM268 234q-8 0 -38.5 1t-45.5 1q-14 0 -48 -1t-46 -1v28q7 -1 21 -1q34 0 41 10q5 6 5 36q1 47 1 121q0 19 -0.5 56t-0.5 55q0 33 -8 38q-7 4 -17 4q-22 0 -45 -5l-3 27q50 8 115 33l9 -7q-6 -44 -6 -174q0 -115 1 -148q1 -30 6 -37q6 -9 31 -9 q17 0 28 1v-28zM744 -1q-40 2 -138 2q-87 0 -139 -2l-4 33q127 95 174.5 149.5t47.5 108.5q0 33 -20 53.5t-57 20.5q-21 0 -34.5 -4t-19.5 -13t-8 -17t-2 -21q-1 -23 -29 -23q-26 0 -26 29t34.5 56.5t86.5 27.5q125 0 125 -111q0 -23 -6 -42.5t-25.5 -49t-64 -68 t-113.5 -85.5q16 -1 55 -1q78 0 97.5 1.5t28.5 8.5q12 8 20 46l27 -2q-5 -36 -10 -97z" />
<glyph unicode="&#xbe;" horiz-adv-x="792" d="M538 629h45l-281 -629h-46zM741 -2q-57 3 -88 3q-14 0 -45.5 -1t-43.5 -1v28q9 -1 22 -1q32 0 40 10q7 10 7 39v36q-127 0 -187 -1l-6 20q74 92 205 268h32q-1 -44 -1 -108v-143q44 0 71 1l-4 -38q-26 1 -67 1v-35q0 -35 7 -42q9 -9 31 -9q16 0 27 1v-28zM633 148l1 182 q-72 -102 -136 -182h135zM226 444q102 -11 102 -97q0 -56 -42.5 -89t-102.5 -33q-71 0 -99 23.5t-28 50.5q0 33 27 33q24 0 26 -24q2 -25 18 -36.5t55 -11.5q48 0 72 22.5t24 59.5q0 83 -104 83q-5 0 -17.5 -0.5t-15.5 -0.5v33q5 -1 28 -1q88 0 88 85q0 25 -17.5 41.5 t-54.5 16.5q-59 0 -59 -46q0 -26 -25 -26q-24 0 -24 26q0 31 29.5 56t82.5 25q56 0 86 -25t30 -65q0 -42 -19.5 -63t-59.5 -37z" />
<glyph unicode="&#xbf;" horiz-adv-x="432" d="M212 280l35 12q18 -40 18 -87q0 -42 -19.5 -68.5t-75.5 -67.5q-41 -30 -58 -61t-17 -71q0 -50 29 -80t81 -30q59 0 80 24t21 68q0 36 37 36q36 0 36 -43q0 -48 -50 -89t-133 -41q-75 0 -123 41.5t-48 106.5q0 57 24.5 95.5t94.5 88.5q26 18 39.5 29.5t26 33t12.5 45.5 q0 28 -10 58zM230 479q20 0 33.5 -13.5t13.5 -37.5q0 -22 -14 -35.5t-34 -13.5q-21 0 -33.5 13.5t-12.5 36.5t13 36.5t34 13.5z" />
<glyph unicode="&#xc0;" horiz-adv-x="674" d="M228 -2q-55 4 -109 4q-47 0 -115 -4v37q1 0 7.5 -0.5t8.5 -0.5q32 0 49.5 18t38.5 68q208 485 235 563h38q19 -63 214 -596q12 -34 24.5 -43.5t37.5 -9.5q2 0 8 0.5t7 0.5v-36q-39 3 -108 3q-63 0 -116 -4v37q12 -1 39 -1q25 0 34.5 5t9.5 19q0 22 -55 173q-5 15 -16 17 q-13 3 -121 3q-75 0 -105 -1q-16 0 -23 -16q-63 -157 -63 -176q0 -24 39 -24q28 0 41 1v-37zM354 582q-90 -213 -110 -266q-4 -9 -4 -15q0 -5 6 -8q10 -3 94 -3q69 0 98 1q11 0 11 10q0 2 -3 14q-86 249 -92 267zM222 838l54 47q54 -62 148 -154l-16 -18q-116 72 -186 125z " />
<glyph unicode="&#xc1;" horiz-adv-x="674" d="M228 -2q-55 4 -109 4q-47 0 -115 -4v37q1 0 7.5 -0.5t8.5 -0.5q32 0 49.5 18t38.5 68q208 485 235 563h38q19 -63 214 -596q12 -34 24.5 -43.5t37.5 -9.5q2 0 8 0.5t7 0.5v-36q-39 3 -108 3q-63 0 -116 -4v37q12 -1 39 -1q25 0 34.5 5t9.5 19q0 22 -55 173q-5 15 -16 17 q-13 3 -121 3q-75 0 -105 -1q-16 0 -23 -16q-63 -157 -63 -176q0 -24 39 -24q28 0 41 1v-37zM354 582q-90 -213 -110 -266q-4 -9 -4 -15q0 -5 6 -8q10 -3 94 -3q69 0 98 1q11 0 11 10q0 2 -3 14q-86 249 -92 267zM442 885l54 -47q-70 -53 -186 -125l-16 18q94 92 148 154z " />
<glyph unicode="&#xc2;" horiz-adv-x="674" d="M228 -2q-55 4 -109 4q-47 0 -115 -4v37q1 0 7.5 -0.5t8.5 -0.5q32 0 49.5 18t38.5 68q208 485 235 563h38q19 -63 214 -596q12 -34 24.5 -43.5t37.5 -9.5q2 0 8 0.5t7 0.5v-36q-39 3 -108 3q-63 0 -116 -4v37q12 -1 39 -1q25 0 34.5 5t9.5 19q0 22 -55 173q-5 15 -16 17 q-13 3 -121 3q-75 0 -105 -1q-16 0 -23 -16q-63 -157 -63 -176q0 -24 39 -24q28 0 41 1v-37zM354 582q-90 -213 -110 -266q-4 -9 -4 -15q0 -5 6 -8q10 -3 94 -3q69 0 98 1q11 0 11 10q0 2 -3 14q-86 249 -92 267zM497 726l-19 -21q-63 47 -117 84q-70 -47 -117 -84l-20 20 q62 60 117 120h45q44 -50 111 -119z" />
<glyph unicode="&#xc3;" horiz-adv-x="674" d="M228 -2q-55 4 -109 4q-47 0 -115 -4v37q1 0 7.5 -0.5t8.5 -0.5q32 0 49.5 18t38.5 68q208 485 235 563h38q19 -63 214 -596q12 -34 24.5 -43.5t37.5 -9.5q2 0 8 0.5t7 0.5v-36q-39 3 -108 3q-63 0 -116 -4v37q12 -1 39 -1q25 0 34.5 5t9.5 19q0 22 -55 173q-5 15 -16 17 q-13 3 -121 3q-75 0 -105 -1q-16 0 -23 -16q-63 -157 -63 -176q0 -24 39 -24q28 0 41 1v-37zM354 582q-90 -213 -110 -266q-4 -9 -4 -15q0 -5 6 -8q10 -3 94 -3q69 0 98 1q11 0 11 10q0 2 -3 14q-86 249 -92 267zM357 815l32 -13q24 -11 45 -11q18 0 27.5 11t18.5 36l29 -8 q-15 -51 -34 -72t-46 -21q-26 0 -65 15l-31 11q-35 13 -46 13q-15 0 -25 -11t-20 -37l-28 8q13 39 35 66.5t50 27.5q23 0 58 -15z" />
<glyph unicode="&#xc4;" horiz-adv-x="674" d="M228 -2q-55 4 -109 4q-47 0 -115 -4v37q1 0 7.5 -0.5t8.5 -0.5q32 0 49.5 18t38.5 68q208 485 235 563h38q19 -63 214 -596q12 -34 24.5 -43.5t37.5 -9.5q2 0 8 0.5t7 0.5v-36q-39 3 -108 3q-63 0 -116 -4v37q12 -1 39 -1q25 0 34.5 5t9.5 19q0 22 -55 173q-5 15 -16 17 q-13 3 -121 3q-75 0 -105 -1q-16 0 -23 -16q-63 -157 -63 -176q0 -24 39 -24q28 0 41 1v-37zM354 582q-90 -213 -110 -266q-4 -9 -4 -15q0 -5 6 -8q10 -3 94 -3q69 0 98 1q11 0 11 10q0 2 -3 14q-86 249 -92 267zM273 738q-17 0 -29 11.5t-12 29.5q0 17 12 28.5t30 11.5 q17 0 28.5 -11.5t11.5 -28.5q0 -18 -12 -29.5t-29 -11.5zM453 738q-17 0 -29 11.5t-12 29.5q0 17 12 28.5t30 11.5q17 0 28.5 -11.5t11.5 -28.5q0 -18 -12 -29.5t-29 -11.5z" />
<glyph unicode="&#xc5;" horiz-adv-x="674" d="M228 -2q-55 4 -109 4q-47 0 -115 -4v37q1 0 7.5 -0.5t8.5 -0.5q32 0 49.5 18t38.5 68q208 485 235 563h38q19 -63 214 -596q12 -34 24.5 -43.5t37.5 -9.5q2 0 8 0.5t7 0.5v-36q-39 3 -108 3q-63 0 -116 -4v37q12 -1 39 -1q25 0 34.5 5t9.5 19q0 22 -55 173q-5 15 -16 17 q-13 3 -121 3q-75 0 -105 -1q-16 0 -23 -16q-63 -157 -63 -176q0 -24 39 -24q28 0 41 1v-37zM354 582q-90 -213 -110 -266q-4 -9 -4 -15q0 -5 6 -8q10 -3 94 -3q69 0 98 1q11 0 11 10q0 2 -3 14q-86 249 -92 267zM361 891q40 0 64.5 -24.5t24.5 -62.5q0 -39 -25.5 -64 t-64.5 -25t-64.5 24t-25.5 62q0 39 26 64.5t65 25.5zM360 860q-22 0 -37 -15.5t-15 -41.5q0 -24 14.5 -40t37.5 -16q22 0 37 15.5t15 40.5q0 27 -15 42t-37 15z" />
<glyph unicode="&#xc6;" horiz-adv-x="970" d="M244 -2q-52 4 -122 4q-58 0 -122 -4v37q1 0 11.5 -0.5t13.5 -0.5q44 0 94 85q232 396 261 448q21 37 21 51q0 23 -55 23q-18 0 -30 -1v36q111 -3 227 -3q275 0 325 3q2 -54 14 -154l-34 -2q-11 76 -42 96q-25 15 -148 15q-59 0 -80 -2q-20 -1 -22 -17q-5 -32 -5 -203 q0 -23 11 -28q10 -5 85 -5q101 0 119 20q14 15 17 63h32q-3 -75 -3 -109q0 -17 1 -53t1 -47h-33q-4 55 -23 68q-24 17 -113 17q-75 0 -86 -8q-8 -5 -8 -21q1 -218 13 -238q9 -14 33 -20t89 -6q119 0 161 23q30 16 48 104l36 -4q-9 -51 -23 -166q-67 2 -376 2q-9 0 -123 -3 v37q7 0 19.5 -0.5t15.5 -0.5q35 0 42 12q7 13 7 62v117q0 32 -12 38q-8 4 -98 4q-78 0 -105 -1q-13 0 -27 -23q-22 -36 -69 -121q-22 -39 -22 -64q0 -22 42 -24q7 0 24 0.5t18 0.5v-37zM299 321q0 -8 5 -10q9 -3 78 -3q54 0 87 1q14 0 19 8q5 7 5 35q0 228 -1 253t-12 25 q-9 0 -23 -24q-73 -122 -143 -248q-15 -27 -15 -37z" />
<glyph unicode="&#xc7;" horiz-adv-x="644" d="M262 -258v36q119 0 119 68q0 23 -19.5 35.5t-53.5 12.5l-7 15l31 76q-130 3 -206 97.5t-76 239.5q0 166 90.5 266.5t240.5 100.5q45 0 87 -15q5 -2 14.5 -5.5t16.5 -6t11 -2.5q16 0 16 20l39 3q4 -51 19 -179l-37 -5q-15 73 -58.5 108.5t-131.5 35.5q-104 0 -174.5 -85.5 t-70.5 -213.5q0 -142 67 -223.5t172 -81.5q138 0 220 130l37 -22q-89 -149 -242 -161l-17 -46q85 -8 85 -79q0 -42 -30.5 -70.5t-67.5 -38.5t-74 -10z" />
<glyph unicode="&#xc8;" horiz-adv-x="606" d="M543 0q-140 1 -390 1q-18 0 -36 -0.5t-39 -1.5t-34 -1v37q12 -1 34 -1q37 0 43 14q7 12 7 61q1 80 1 244q0 46 -0.5 128t-0.5 88q0 48 -6 59q-6 13 -44 13q-20 0 -32 -1v37q8 0 56.5 -2t73.5 -2q197 0 327 2q5 -77 14 -153l-34 -3q-14 77 -41 96q-15 10 -44 13t-118 3 q-47 0 -68 -2q-19 -1 -21 -19q-5 -28 -5 -199q0 -24 8 -29q10 -6 76 -6q72 0 95.5 4t35.5 16q14 15 17 63h33q-3 -78 -3 -105q0 -58 2 -104h-34q-4 53 -23 67q-23 18 -125 18q-65 0 -74 -7q-8 -6 -8 -35q0 -197 14 -225q7 -14 28 -20t80 -6q137 0 175 23q29 19 48 104l36 -3 q-12 -65 -24 -166zM141 838l54 47q54 -62 148 -154l-16 -18q-116 72 -186 125z" />
<glyph unicode="&#xc9;" horiz-adv-x="606" d="M543 0q-140 1 -390 1q-18 0 -36 -0.5t-39 -1.5t-34 -1v37q12 -1 34 -1q37 0 43 14q7 12 7 61q1 80 1 244q0 46 -0.5 128t-0.5 88q0 48 -6 59q-6 13 -44 13q-20 0 -32 -1v37q8 0 56.5 -2t73.5 -2q197 0 327 2q5 -77 14 -153l-34 -3q-14 77 -41 96q-15 10 -44 13t-118 3 q-47 0 -68 -2q-19 -1 -21 -19q-5 -28 -5 -199q0 -24 8 -29q10 -6 76 -6q72 0 95.5 4t35.5 16q14 15 17 63h33q-3 -78 -3 -105q0 -58 2 -104h-34q-4 53 -23 67q-23 18 -125 18q-65 0 -74 -7q-8 -6 -8 -35q0 -197 14 -225q7 -14 28 -20t80 -6q137 0 175 23q29 19 48 104l36 -3 q-12 -65 -24 -166zM394 885l54 -47q-70 -53 -186 -125l-16 18q94 92 148 154z" />
<glyph unicode="&#xca;" horiz-adv-x="606" d="M543 0q-140 1 -390 1q-18 0 -36 -0.5t-39 -1.5t-34 -1v37q12 -1 34 -1q37 0 43 14q7 12 7 61q1 80 1 244q0 46 -0.5 128t-0.5 88q0 48 -6 59q-6 13 -44 13q-20 0 -32 -1v37q8 0 56.5 -2t73.5 -2q197 0 327 2q5 -77 14 -153l-34 -3q-14 77 -41 96q-15 10 -44 13t-118 3 q-47 0 -68 -2q-19 -1 -21 -19q-5 -28 -5 -199q0 -24 8 -29q10 -6 76 -6q72 0 95.5 4t35.5 16q14 15 17 63h33q-3 -78 -3 -105q0 -58 2 -104h-34q-4 53 -23 67q-23 18 -125 18q-65 0 -74 -7q-8 -6 -8 -35q0 -197 14 -225q7 -14 28 -20t80 -6q137 0 175 23q29 19 48 104l36 -3 q-12 -65 -24 -166zM437 726l-19 -21q-63 47 -117 84q-70 -47 -117 -84l-20 20q62 60 117 120h45q44 -50 111 -119z" />
<glyph unicode="&#xcb;" horiz-adv-x="606" d="M543 0q-140 1 -390 1q-18 0 -36 -0.5t-39 -1.5t-34 -1v37q12 -1 34 -1q37 0 43 14q7 12 7 61q1 80 1 244q0 46 -0.5 128t-0.5 88q0 48 -6 59q-6 13 -44 13q-20 0 -32 -1v37q8 0 56.5 -2t73.5 -2q197 0 327 2q5 -77 14 -153l-34 -3q-14 77 -41 96q-15 10 -44 13t-118 3 q-47 0 -68 -2q-19 -1 -21 -19q-5 -28 -5 -199q0 -24 8 -29q10 -6 76 -6q72 0 95.5 4t35.5 16q14 15 17 63h33q-3 -78 -3 -105q0 -58 2 -104h-34q-4 53 -23 67q-23 18 -125 18q-65 0 -74 -7q-8 -6 -8 -35q0 -197 14 -225q7 -14 28 -20t80 -6q137 0 175 23q29 19 48 104l36 -3 q-12 -65 -24 -166zM205 738q-17 0 -29 11.5t-12 29.5q0 17 12 28.5t30 11.5q17 0 28.5 -11.5t11.5 -28.5q0 -18 -12 -29.5t-29 -11.5zM385 738q-17 0 -29 11.5t-12 29.5q0 17 12 28.5t30 11.5q17 0 28.5 -11.5t11.5 -28.5q0 -18 -12 -29.5t-29 -11.5z" />
<glyph unicode="&#xcc;" horiz-adv-x="317" d="M273 -2q-108 4 -115 4q-24 0 -63.5 -2t-50.5 -2v37q6 0 18 -0.5t16 -0.5q38 0 44 13q5 11 5 61q0 40 0.5 135t0.5 109q0 190 -1 217q-2 53 -5 59q-6 14 -44 14q-20 0 -32 -1v36q12 0 50.5 -2t61.5 -2q5 0 113 4v-36q-15 1 -36 1q-30 0 -38 -13q-8 -10 -9 -62 q-2 -74 -2 -203q0 -184 2 -256q1 -52 9 -62q8 -12 38 -12q3 0 16.5 0.5t21.5 0.5v-37zM39 838l54 47q54 -62 148 -154l-16 -18q-116 72 -186 125z" />
<glyph unicode="&#xcd;" horiz-adv-x="317" d="M273 -2q-108 4 -115 4q-24 0 -63.5 -2t-50.5 -2v37q6 0 18 -0.5t16 -0.5q38 0 44 13q5 11 5 61q0 40 0.5 135t0.5 109q0 190 -1 217q-2 53 -5 59q-6 14 -44 14q-20 0 -32 -1v36q12 0 50.5 -2t61.5 -2q5 0 113 4v-36q-15 1 -36 1q-30 0 -38 -13q-8 -10 -9 -62 q-2 -74 -2 -203q0 -184 2 -256q1 -52 9 -62q8 -12 38 -12q3 0 16.5 0.5t21.5 0.5v-37zM238 885l54 -47q-70 -53 -186 -125l-16 18q94 92 148 154z" />
<glyph unicode="&#xce;" horiz-adv-x="317" d="M273 -2q-108 4 -115 4q-24 0 -63.5 -2t-50.5 -2v37q6 0 18 -0.5t16 -0.5q38 0 44 13q5 11 5 61q0 40 0.5 135t0.5 109q0 190 -1 217q-2 53 -5 59q-6 14 -44 14q-20 0 -32 -1v36q12 0 50.5 -2t61.5 -2q5 0 113 4v-36q-15 1 -36 1q-30 0 -38 -13q-8 -10 -9 -62 q-2 -74 -2 -203q0 -184 2 -256q1 -52 9 -62q8 -12 38 -12q3 0 16.5 0.5t21.5 0.5v-37zM297 726l-19 -21q-63 47 -117 84q-70 -47 -117 -84l-20 20q62 60 117 120h45q44 -50 111 -119z" />
<glyph unicode="&#xcf;" horiz-adv-x="317" d="M273 -2q-108 4 -115 4q-24 0 -63.5 -2t-50.5 -2v37q6 0 18 -0.5t16 -0.5q38 0 44 13q5 11 5 61q0 40 0.5 135t0.5 109q0 190 -1 217q-2 53 -5 59q-6 14 -44 14q-20 0 -32 -1v36q12 0 50.5 -2t61.5 -2q5 0 113 4v-36q-15 1 -36 1q-30 0 -38 -13q-8 -10 -9 -62 q-2 -74 -2 -203q0 -184 2 -256q1 -52 9 -62q8 -12 38 -12q3 0 16.5 0.5t21.5 0.5v-37zM67 738q-17 0 -29 11.5t-12 29.5q0 17 12 28.5t30 11.5q17 0 28.5 -11.5t11.5 -28.5q0 -18 -12 -29.5t-29 -11.5zM247 738q-17 0 -29 11.5t-12 29.5q0 17 12 28.5t30 11.5 q17 0 28.5 -11.5t11.5 -28.5q0 -18 -12 -29.5t-29 -11.5z" />
<glyph unicode="&#xd0;" horiz-adv-x="745" d="M36 378q42 -2 93 -2q0 170 -1 193q-2 52 -6 59q-6 13 -44 13q-20 0 -32 -1v37q11 0 55.5 -2t66.5 -2q17 0 66 1.5t70 1.5q360 0 360 -328q0 -156 -96 -252.5t-270 -96.5q-29 0 -73.5 1.5t-56.5 1.5q-24 0 -68 -2t-54 -2v37q12 -1 32 -1q38 0 44 13q6 11 6 61q1 72 1 226 q-15 0 -46 -0.5t-47 -0.5v45zM189 573q-2 -46 -2 -197h29q124 0 186 2v-45q-48 1 -184 1h-31q0 -141 3 -215q1 -41 14 -56q17 -20 107 -20q137 0 210.5 81.5t73.5 226.5q0 38 -6 71t-19.5 65.5t-37.5 58t-57 45.5t-81 30.5t-107 10.5q-73 0 -85 -11q-12 -8 -13 -48z" />
<glyph unicode="&#xd1;" horiz-adv-x="763" d="M276 -2q-108 4 -119 4q-24 0 -66 -2t-52 -2v37q6 0 18 -0.5t16 -0.5q36 0 44 15q8 14 8 61q2 142 2 462q0 25 -7 41q-4 9 -22 18t-44 9q-9 0 -20 -1v38q84 -4 91 -4q35 0 67 3q9 -20 48 -76q19 -26 96 -134t142.5 -197t113.5 -152q0 12 -1 104t-2.5 186t-3.5 158 q-1 44 -11 61q-8 15 -44 15q-28 0 -39 -1v36q8 0 54 -2t70 -2q8 0 116 4v-36q-14 1 -33 1q-29 0 -40 -11q-12 -12 -13 -43q-4 -129 -4 -365q0 -167 2 -229l-37 -7q-325 458 -428 590q0 -322 6 -488q2 -32 13 -43t40 -11q3 0 17 0.5t22 0.5v-37zM375 815l32 -13 q24 -11 45 -11q18 0 27.5 11t18.5 36l29 -8q-15 -51 -34 -72t-46 -21q-26 0 -65 15l-31 11q-35 13 -46 13q-15 0 -25 -11t-20 -37l-28 8q13 39 35 66.5t50 27.5q23 0 58 -15z" />
<glyph unicode="&#xd2;" horiz-adv-x="743" d="M693 353q0 -166 -91 -267.5t-244 -101.5q-138 0 -223 99t-85 246q0 161 91.5 261.5t246.5 100.5q133 0 219 -96t86 -242zM630 316q0 42 -8 85t-28 87.5t-50 78t-77 55t-105 21.5q-109 0 -180 -80t-71 -201q0 -148 75.5 -238.5t198.5 -90.5q107 0 176 78.5t69 204.5z M240 838l54 47q54 -62 148 -154l-16 -18q-116 72 -186 125z" />
<glyph unicode="&#xd3;" horiz-adv-x="743" d="M693 353q0 -166 -91 -267.5t-244 -101.5q-138 0 -223 99t-85 246q0 161 91.5 261.5t246.5 100.5q133 0 219 -96t86 -242zM630 316q0 42 -8 85t-28 87.5t-50 78t-77 55t-105 21.5q-109 0 -180 -80t-71 -201q0 -148 75.5 -238.5t198.5 -90.5q107 0 176 78.5t69 204.5z M441 885l54 -47q-70 -53 -186 -125l-16 18q94 92 148 154z" />
<glyph unicode="&#xd4;" horiz-adv-x="743" d="M693 353q0 -166 -91 -267.5t-244 -101.5q-138 0 -223 99t-85 246q0 161 91.5 261.5t246.5 100.5q133 0 219 -96t86 -242zM630 316q0 42 -8 85t-28 87.5t-50 78t-77 55t-105 21.5q-109 0 -180 -80t-71 -201q0 -148 75.5 -238.5t198.5 -90.5q107 0 176 78.5t69 204.5z M504 726l-19 -21q-63 47 -117 84q-70 -47 -117 -84l-20 20q61 60 117 120h45q44 -50 111 -119z" />
<glyph unicode="&#xd5;" horiz-adv-x="743" d="M693 353q0 -166 -91 -267.5t-244 -101.5q-138 0 -223 99t-85 246q0 161 91.5 261.5t246.5 100.5q133 0 219 -96t86 -242zM630 316q0 42 -8 85t-28 87.5t-50 78t-77 55t-105 21.5q-109 0 -180 -80t-71 -201q0 -148 75.5 -238.5t198.5 -90.5q107 0 176 78.5t69 204.5z M365 815l32 -13q24 -11 45 -11q18 0 27.5 11t18.5 36l29 -8q-15 -51 -34 -72t-46 -21q-26 0 -65 15l-31 11q-35 13 -46 13q-15 0 -25 -11t-20 -37l-28 8q13 39 35 66.5t50 27.5q23 0 58 -15z" />
<glyph unicode="&#xd6;" horiz-adv-x="743" d="M693 353q0 -166 -91 -267.5t-244 -101.5q-138 0 -223 99t-85 246q0 161 91.5 261.5t246.5 100.5q133 0 219 -96t86 -242zM630 316q0 42 -8 85t-28 87.5t-50 78t-77 55t-105 21.5q-109 0 -180 -80t-71 -201q0 -148 75.5 -238.5t198.5 -90.5q107 0 176 78.5t69 204.5z M273 738q-17 0 -29 11.5t-12 29.5q0 17 12 28.5t30 11.5q17 0 28.5 -11.5t11.5 -28.5q0 -18 -12 -29.5t-29 -11.5zM453 738q-17 0 -29 11.5t-12 29.5q0 17 12 28.5t30 11.5q17 0 28.5 -11.5t11.5 -28.5q0 -18 -12 -29.5t-29 -11.5z" />
<glyph unicode="&#xd7;" horiz-adv-x="600" d="M476 154l-33 -33l-143 141l-142 -141l-33 32l142 142l-142 141l33 34l143 -141l142 142l32 -33l-142 -142z" />
<glyph unicode="&#xd8;" horiz-adv-x="743" d="M693 353q0 -166 -91 -267.5t-244 -101.5q-105 0 -182 60l-59 -80l-35 26l61 83q-93 98 -93 256q0 161 91.5 261.5t246.5 100.5q97 0 172 -55l59 80l36 -27l-61 -82q99 -97 99 -254zM630 316q0 143 -76 237l-340 -458q70 -62 171 -62q107 0 176 78.5t69 204.5zM111 362 q0 -144 72 -235l340 459q-65 57 -161 57q-109 0 -180 -80t-71 -201z" />
<glyph unicode="&#xd9;" horiz-adv-x="756" d="M730 640q-11 1 -28 1q-36 0 -45 -11q-13 -16 -13 -64q-1 -90 -1 -300q0 -139 -62.5 -211t-200.5 -72q-261 0 -261 246q0 73 0.5 193t0.5 147q0 48 -8 61q-7 11 -44 11q-21 0 -31 -1v37q70 -4 108 -4q59 0 127 4v-37q-11 1 -31 1q-36 0 -48 -12q-11 -11 -13 -63 q-2 -97 -2 -303q0 -114 46.5 -172.5t158.5 -58.5q111 0 160.5 59t49.5 177q0 267 -2 301q-3 49 -13 61q-10 11 -44 11q-24 0 -34 -1v37q70 -4 118 -4q44 0 112 4v-37zM230 838l54 47q54 -62 148 -154l-16 -18q-116 72 -186 125z" />
<glyph unicode="&#xda;" horiz-adv-x="756" d="M730 640q-11 1 -28 1q-36 0 -45 -11q-13 -16 -13 -64q-1 -90 -1 -300q0 -139 -62.5 -211t-200.5 -72q-261 0 -261 246q0 73 0.5 193t0.5 147q0 48 -8 61q-7 11 -44 11q-21 0 -31 -1v37q70 -4 108 -4q59 0 127 4v-37q-11 1 -31 1q-36 0 -48 -12q-11 -11 -13 -63 q-2 -97 -2 -303q0 -114 46.5 -172.5t158.5 -58.5q111 0 160.5 59t49.5 177q0 267 -2 301q-3 49 -13 61q-10 11 -44 11q-24 0 -34 -1v37q70 -4 118 -4q44 0 112 4v-37zM458 885l54 -47q-70 -53 -186 -125l-16 18q94 92 148 154z" />
<glyph unicode="&#xdb;" horiz-adv-x="756" d="M730 640q-11 1 -28 1q-36 0 -45 -11q-13 -16 -13 -64q-1 -90 -1 -300q0 -139 -62.5 -211t-200.5 -72q-261 0 -261 246q0 73 0.5 193t0.5 147q0 48 -8 61q-7 11 -44 11q-21 0 -31 -1v37q70 -4 108 -4q59 0 127 4v-37q-11 1 -31 1q-36 0 -48 -12q-11 -11 -13 -63 q-2 -97 -2 -303q0 -114 46.5 -172.5t158.5 -58.5q111 0 160.5 59t49.5 177q0 267 -2 301q-3 49 -13 61q-10 11 -44 11q-24 0 -34 -1v37q70 -4 118 -4q44 0 112 4v-37zM522 726l-19 -21q-63 47 -117 84q-70 -47 -117 -84l-20 20q61 60 117 120h45q44 -50 111 -119z" />
<glyph unicode="&#xdc;" horiz-adv-x="756" d="M730 640q-11 1 -28 1q-36 0 -45 -11q-13 -16 -13 -64q-1 -90 -1 -300q0 -139 -62.5 -211t-200.5 -72q-261 0 -261 246q0 73 0.5 193t0.5 147q0 48 -8 61q-7 11 -44 11q-21 0 -31 -1v37q70 -4 108 -4q59 0 127 4v-37q-11 1 -31 1q-36 0 -48 -12q-11 -11 -13 -63 q-2 -97 -2 -303q0 -114 46.5 -172.5t158.5 -58.5q111 0 160.5 59t49.5 177q0 267 -2 301q-3 49 -13 61q-10 11 -44 11q-24 0 -34 -1v37q70 -4 118 -4q44 0 112 4v-37zM273 738q-17 0 -29 11.5t-12 29.5q0 17 12 28.5t30 11.5q17 0 28.5 -11.5t11.5 -28.5q0 -18 -12 -29.5 t-29 -11.5zM453 738q-17 0 -29 11.5t-12 29.5q0 17 12 28.5t30 11.5q17 0 28.5 -11.5t11.5 -28.5q0 -18 -12 -29.5t-29 -11.5z" />
<glyph unicode="&#xdd;" horiz-adv-x="615" d="M419 35v-37q-11 0 -51 2t-63 2q-6 0 -114 -4v37q21 -1 37 -1q32 0 39 13t7 58q0 14 0.5 75.5t0.5 107.5q-51 88 -186 304q-17 28 -32 38.5t-37 10.5q-13 0 -20 -1v36q37 -3 118 -3q90 0 127 3v-36h-15q-14 1 -22 1q-48 0 -49 -23q0 -19 25 -63q10 -17 127 -211 q19 31 50 79.5t52.5 83t32.5 53.5q20 34 20 55q0 13 -10.5 19t-38.5 7q-8 0 -23 -1h-16v36q37 -3 129 -3q71 0 108 3v-36q-5 1 -15 1q-23 0 -37.5 -11.5t-33.5 -37.5q-47 -67 -196 -302q0 -13 2 -185q0 -45 6 -56q8 -15 45 -15q20 0 33 1zM398 885l54 -47q-70 -53 -186 -125 l-16 18q94 92 148 154z" />
<glyph unicode="&#xde;" horiz-adv-x="564" d="M276 -2q-108 4 -118 4q-24 0 -63.5 -2t-50.5 -2v37q6 0 18 -0.5t16 -0.5q38 0 44 13q5 11 5 61q0 40 0.5 135t0.5 109q0 190 -1 217q-2 53 -5 59q-6 14 -44 14q-20 0 -32 -1v36q12 0 50.5 -2t61.5 -2q5 0 113 4v-36q-15 1 -36 1q-30 0 -38 -13q-7 -10 -10 -90q78 3 94 3 q118 0 177 -41t59 -131q0 -108 -72.5 -159t-201.5 -51q-31 0 -56 4q0 -11 0.5 -31.5t0.5 -24.5q2 -50 11 -62q7 -12 39 -12q3 0 16.5 0.5t21.5 0.5v-37zM186 238q0 -30 20 -34q16 -4 48 -4q106 0 151 40.5t45 122.5q0 64 -46 101t-141 37q-60 0 -69 -11q-7 -8 -7 -66 q0 -7 -0.5 -67.5t-0.5 -118.5z" />
<glyph unicode="&#xdf;" horiz-adv-x="561" d="M182 -1q-14 2 -46 2q-24 0 -54 -1.5t-40 -1.5v36q12 -1 29 -1q34 0 44 10q8 7 8 61q0 10 0.5 97.5t0.5 143.5q0 59 -1 85q-31 0 -69 -2v38q32 0 47 3q12 2 17.5 12t10.5 42q10 66 35 111q28 53 79.5 83t106.5 30q68 0 103.5 -38t35.5 -91q0 -91 -74 -162q-47 -45 -59 -60 t-12 -30q0 -14 17 -29.5t95 -74.5q41 -31 60 -60.5t19 -68.5q0 -65 -50 -105.5t-124 -40.5q-59 0 -89.5 21.5t-30.5 50.5q0 18 10.5 28.5t26.5 10.5q27 0 32 -28q4 -28 18 -37.5t40 -9.5q50 0 81 25t31 65q0 58 -75 115q-78 59 -98.5 80t-20.5 46q0 20 11.5 36t39.5 42 q91 86 91 164q0 43 -25 74.5t-73 31.5q-65 0 -112 -63q-21 -28 -30.5 -104.5t-9.5 -246.5q0 -229 4 -289z" />
<glyph unicode="&#xe0;" horiz-adv-x="493" d="M326 60q-76 -72 -159 -72q-55 0 -95 36.5t-40 96.5q0 73 87 103q17 6 38.5 11.5t37 8.5t46.5 8.5t47 8.5q30 6 38 15t8 38q0 71 -24.5 101.5t-83.5 30.5q-47 0 -69 -18q-18 -13 -18 -49q0 -30 -36 -30q-31 0 -31 36q0 43 48.5 72.5t130.5 29.5q134 0 134 -132 q0 -17 -3 -105t-3 -131q0 -54 10.5 -70.5t34.5 -16.5q16 0 41 10l12 -32q-40 -19 -75 -19q-34 0 -52.5 14t-23.5 55zM331 198q0 27 -20 27q-24 0 -76 -11t-83 -22q-65 -22 -65 -72q0 -39 28 -62.5t66 -23.5q28 0 60.5 13t51.5 31q23 18 30.5 43.5t7.5 76.5zM130 694l65 33 q45 -90 107 -184l-21 -11q-113 117 -151 162z" />
<glyph unicode="&#xe1;" horiz-adv-x="493" d="M326 60q-76 -72 -159 -72q-55 0 -95 36.5t-40 96.5q0 73 87 103q17 6 38.5 11.5t37 8.5t46.5 8.5t47 8.5q30 6 38 15t8 38q0 71 -24.5 101.5t-83.5 30.5q-47 0 -69 -18q-18 -13 -18 -49q0 -30 -36 -30q-31 0 -31 36q0 43 48.5 72.5t130.5 29.5q134 0 134 -132 q0 -17 -3 -105t-3 -131q0 -54 10.5 -70.5t34.5 -16.5q16 0 41 10l12 -32q-40 -19 -75 -19q-34 0 -52.5 14t-23.5 55zM331 198q0 27 -20 27q-24 0 -76 -11t-83 -22q-65 -22 -65 -72q0 -39 28 -62.5t66 -23.5q28 0 60.5 13t51.5 31q23 18 30.5 43.5t7.5 76.5zM288 723l69 -29 q-62 -69 -155 -162l-21 11q76 115 107 180z" />
<glyph unicode="&#xe2;" horiz-adv-x="493" d="M326 60q-76 -72 -159 -72q-55 0 -95 36.5t-40 96.5q0 73 87 103q17 6 38.5 11.5t37 8.5t46.5 8.5t47 8.5q30 6 38 15t8 38q0 71 -24.5 101.5t-83.5 30.5q-47 0 -69 -18q-18 -13 -18 -49q0 -30 -36 -30q-31 0 -31 36q0 43 48.5 72.5t130.5 29.5q134 0 134 -132 q0 -17 -3 -105t-3 -131q0 -54 10.5 -70.5t34.5 -16.5q16 0 41 10l12 -32q-40 -19 -75 -19q-34 0 -52.5 14t-23.5 55zM331 198q0 27 -20 27q-24 0 -76 -11t-83 -22q-65 -22 -65 -72q0 -39 28 -62.5t66 -23.5q28 0 60.5 13t51.5 31q23 18 30.5 43.5t7.5 76.5zM363 541l-23 -15 q-44 51 -106 115q-32 -32 -107 -117l-23 16q63 83 115 164h37q89 -137 107 -163z" />
<glyph unicode="&#xe3;" horiz-adv-x="493" d="M326 60q-76 -72 -159 -72q-55 0 -95 36.5t-40 96.5q0 73 87 103q17 6 38.5 11.5t37 8.5t46.5 8.5t47 8.5q30 6 38 15t8 38q0 71 -24.5 101.5t-83.5 30.5q-47 0 -69 -18q-18 -13 -18 -49q0 -30 -36 -30q-31 0 -31 36q0 43 48.5 72.5t130.5 29.5q134 0 134 -132 q0 -17 -3 -105t-3 -131q0 -54 10.5 -70.5t34.5 -16.5q16 0 41 10l12 -32q-40 -19 -75 -19q-34 0 -52.5 14t-23.5 55zM331 198q0 27 -20 27q-24 0 -76 -11t-83 -22q-65 -22 -65 -72q0 -39 28 -62.5t66 -23.5q28 0 60.5 13t51.5 31q23 18 30.5 43.5t7.5 76.5zM228 640l30 -13 q23 -11 43 -11q17 0 26 11t17 36l28 -8q-14 -51 -32 -72t-44 -21q-24 0 -62 15l-29 11q-33 13 -43 13q-15 0 -24.5 -11t-18.5 -37l-27 8q32 94 81 94q22 0 55 -15z" />
<glyph unicode="&#xe4;" horiz-adv-x="493" d="M326 60q-76 -72 -159 -72q-55 0 -95 36.5t-40 96.5q0 73 87 103q17 6 38.5 11.5t37 8.5t46.5 8.5t47 8.5q30 6 38 15t8 38q0 71 -24.5 101.5t-83.5 30.5q-47 0 -69 -18q-18 -13 -18 -49q0 -30 -36 -30q-31 0 -31 36q0 43 48.5 72.5t130.5 29.5q134 0 134 -132 q0 -17 -3 -105t-3 -131q0 -54 10.5 -70.5t34.5 -16.5q16 0 41 10l12 -32q-40 -19 -75 -19q-34 0 -52.5 14t-23.5 55zM331 198q0 27 -20 27q-24 0 -76 -11t-83 -22q-65 -22 -65 -72q0 -39 28 -62.5t66 -23.5q28 0 60.5 13t51.5 31q23 18 30.5 43.5t7.5 76.5zM158 575 q-16 0 -27.5 11t-11.5 29q0 17 11.5 28t28.5 11q16 0 27 -11t11 -28t-11 -28.5t-28 -11.5zM317 575q-16 0 -27 11t-11 29q0 17 11 28t28 11q16 0 27 -11t11 -28t-11 -28.5t-28 -11.5z" />
<glyph unicode="&#xe5;" horiz-adv-x="493" d="M326 60q-76 -72 -159 -72q-55 0 -95 36.5t-40 96.5q0 73 87 103q17 6 38.5 11.5t37 8.5t46.5 8.5t47 8.5q30 6 38 15t8 38q0 71 -24.5 101.5t-83.5 30.5q-47 0 -69 -18q-18 -13 -18 -49q0 -30 -36 -30q-31 0 -31 36q0 43 48.5 72.5t130.5 29.5q134 0 134 -132 q0 -17 -3 -105t-3 -131q0 -54 10.5 -70.5t34.5 -16.5q16 0 41 10l12 -32q-40 -19 -75 -19q-34 0 -52.5 14t-23.5 55zM331 198q0 27 -20 27q-24 0 -76 -11t-83 -22q-65 -22 -65 -72q0 -39 28 -62.5t66 -23.5q28 0 60.5 13t51.5 31q23 18 30.5 43.5t7.5 76.5zM231 717 q42 0 67.5 -25t25.5 -65t-27 -66.5t-67 -26.5t-67 25t-27 65t27.5 66.5t67.5 26.5zM230 687q-23 0 -39 -16.5t-16 -44.5q0 -26 15 -43.5t40 -17.5q24 0 40 17t16 44q0 28 -16 44.5t-40 16.5z" />
<glyph unicode="&#xe6;" horiz-adv-x="752" d="M352 82q-77 -94 -186 -94q-55 0 -94.5 34.5t-39.5 91.5q0 45 21 69.5t62 39.5q22 8 185 40q17 3 25.5 12t8.5 32q0 84 -26.5 113.5t-85.5 29.5q-39 0 -62 -18q-20 -17 -20 -45q0 -36 -34 -36t-34 36q0 43 47.5 71t131.5 28q57 0 85.5 -22t38.5 -66q64 89 176 89 q81 0 122 -46t41 -124q0 -23 -7.5 -31t-28.5 -10q-41 -3 -158.5 -4t-136.5 -1q-2 -8 -2 -31q0 -102 46.5 -154t122.5 -52q87 0 145 90l33 -17q-69 -122 -200 -122q-61 0 -107 26t-69 71zM331 203q0 25 -22 25t-80.5 -13.5t-86.5 -24.5q-55 -21 -55 -73q0 -37 27.5 -61 t65.5 -24q31 0 66.5 15t55.5 37q18 19 23.5 44.5t5.5 74.5zM395 321q0 -11 15 -12q21 -1 101 -1q112 1 128 11q12 8 12 34q0 47 -30.5 70t-76.5 23q-49 0 -90.5 -29t-55.5 -77q-3 -9 -3 -19z" />
<glyph unicode="&#xe7;" horiz-adv-x="444" d="M158 -249v35q115 0 115 65q0 22 -18.5 34.5t-51.5 12.5l-7 14l30 73q-85 4 -133.5 66.5t-48.5 162.5q0 122 66.5 197.5t171.5 75.5q59 0 93 -23t34 -58q0 -46 -39 -46q-32 0 -35 28q-4 35 -19.5 46.5t-53.5 11.5q-67 0 -115 -57.5t-48 -144.5q0 -99 42 -155.5t117 -56.5 q39 0 79.5 25t63.5 68l33 -18q-60 -111 -176 -121q-2 -4 -16 -44q83 -10 83 -76q0 -31 -17 -54.5t-43.5 -36t-53.5 -18.5t-53 -6z" />
<glyph unicode="&#xe8;" horiz-adv-x="465" d="M442 107q-31 -56 -81.5 -89t-114.5 -33q-97 0 -149.5 64.5t-52.5 171.5q0 121 62 193.5t163 72.5q75 0 117 -46t42 -125q0 -22 -8 -30.5t-29 -10.5q-60 -3 -293 -3q-3 -20 -3 -38q1 -94 46.5 -147t122.5 -53q40 0 79.5 23.5t65.5 67.5zM109 322q0 -13 12 -13q20 -1 79 -1 q130 0 150 8q15 7 15 30q0 52 -31 76.5t-81 24.5q-40 0 -78.5 -24t-58.5 -73q-7 -19 -7 -28zM146 694l65 33q45 -90 107 -184l-21 -11q-113 117 -151 162z" />
<glyph unicode="&#xe9;" horiz-adv-x="465" d="M442 107q-31 -56 -81.5 -89t-114.5 -33q-97 0 -149.5 64.5t-52.5 171.5q0 121 62 193.5t163 72.5q75 0 117 -46t42 -125q0 -22 -8 -30.5t-29 -10.5q-60 -3 -293 -3q-3 -20 -3 -38q1 -94 46.5 -147t122.5 -53q40 0 79.5 23.5t65.5 67.5zM109 322q0 -13 12 -13q20 -1 79 -1 q130 0 150 8q15 7 15 30q0 52 -31 76.5t-81 24.5q-40 0 -78.5 -24t-58.5 -73q-7 -19 -7 -28zM300 723l69 -29q-62 -69 -155 -162l-21 11q76 115 107 180z" />
<glyph unicode="&#xea;" horiz-adv-x="465" d="M442 107q-31 -56 -81.5 -89t-114.5 -33q-97 0 -149.5 64.5t-52.5 171.5q0 121 62 193.5t163 72.5q75 0 117 -46t42 -125q0 -22 -8 -30.5t-29 -10.5q-60 -3 -293 -3q-3 -20 -3 -38q1 -94 46.5 -147t122.5 -53q40 0 79.5 23.5t65.5 67.5zM109 322q0 -13 12 -13q20 -1 79 -1 q130 0 150 8q15 7 15 30q0 52 -31 76.5t-81 24.5q-40 0 -78.5 -24t-58.5 -73q-7 -19 -7 -28zM371 541l-23 -15q-44 51 -106 115q-32 -32 -107 -117l-23 16q63 83 115 164h37q89 -137 107 -163z" />
<glyph unicode="&#xeb;" horiz-adv-x="465" d="M442 107q-31 -56 -81.5 -89t-114.5 -33q-97 0 -149.5 64.5t-52.5 171.5q0 121 62 193.5t163 72.5q75 0 117 -46t42 -125q0 -22 -8 -30.5t-29 -10.5q-60 -3 -293 -3q-3 -20 -3 -38q1 -94 46.5 -147t122.5 -53q40 0 79.5 23.5t65.5 67.5zM109 322q0 -13 12 -13q20 -1 79 -1 q130 0 150 8q15 7 15 30q0 52 -31 76.5t-81 24.5q-40 0 -78.5 -24t-58.5 -73q-7 -19 -7 -28zM174 575q-16 0 -27.5 11t-11.5 29q0 17 11.5 28t28.5 11q16 0 27 -11t11 -28t-11 -28.5t-28 -11.5zM333 575q-16 0 -27 11t-11 29q0 17 11 28t28 11q16 0 27 -11t11 -28t-11 -28.5 t-28 -11.5z" />
<glyph unicode="&#xec;" horiz-adv-x="297" d="M262 -2q-92 4 -106 4q-24 0 -65.5 -2t-43.5 -2v36q12 -1 27 -1q41 0 47 13q4 7 6 67q1 49 1 135q0 126 -6 162q-5 24 -50 24q-16 0 -28 -1v36q73 0 138 17l6 -10q-9 -86 -9 -225q0 -97 1 -138q2 -58 7 -68q7 -12 42 -12q17 0 33 1v-36zM23 694l65 33q45 -90 107 -184 l-21 -11q-113 117 -151 162z" />
<glyph unicode="&#xed;" horiz-adv-x="297" d="M262 -2q-92 4 -106 4q-24 0 -65.5 -2t-43.5 -2v36q12 -1 27 -1q41 0 47 13q4 7 6 67q1 49 1 135q0 126 -6 162q-5 24 -50 24q-16 0 -28 -1v36q73 0 138 17l6 -10q-9 -86 -9 -225q0 -97 1 -138q2 -58 7 -68q7 -12 42 -12q17 0 33 1v-36zM189 723l69 -29q-62 -69 -155 -162 l-21 11q76 115 107 180z" />
<glyph unicode="&#xee;" horiz-adv-x="297" d="M262 -2q-92 4 -106 4q-24 0 -65.5 -2t-43.5 -2v36q12 -1 27 -1q41 0 47 13q4 7 6 67q1 49 1 135q0 126 -6 162q-5 24 -50 24q-16 0 -28 -1v36q73 0 138 17l6 -10q-9 -86 -9 -225q0 -97 1 -138q2 -58 7 -68q7 -12 42 -12q17 0 33 1v-36zM270 541l-23 -15q-44 51 -106 115 q-32 -32 -107 -117l-23 16q63 83 115 164h37q89 -137 107 -163z" />
<glyph unicode="&#xef;" horiz-adv-x="297" d="M262 -2q-92 4 -106 4q-24 0 -65.5 -2t-43.5 -2v36q12 -1 27 -1q41 0 47 13q4 7 6 67q1 49 1 135q0 126 -6 162q-5 24 -50 24q-16 0 -28 -1v36q73 0 138 17l6 -10q-9 -86 -9 -225q0 -97 1 -138q2 -58 7 -68q7 -12 42 -12q17 0 33 1v-36zM58 575q-16 0 -27.5 11t-11.5 29 q0 17 11.5 28t28.5 11q16 0 27 -11t11 -28t-11 -28.5t-28 -11.5zM217 575q-16 0 -27 11t-11 29q0 17 11 28t28 11q16 0 27 -11t11 -28t-11 -28.5t-28 -11.5z" />
<glyph unicode="&#xf0;" horiz-adv-x="533" d="M407 678l20 -38q-6 -3 -81 -38q143 -121 143 -349q0 -117 -60.5 -192.5t-174.5 -75.5q-95 0 -152.5 67.5t-57.5 169.5q0 115 66.5 186.5t172.5 71.5q75 0 115 -46q-30 82 -105 143q-25 -12 -52.5 -25.5t-51.5 -26t-28 -14.5l-19 39q44 19 115 53q-56 37 -130 61l14 36 q94 -21 170 -71q74 36 96 49zM434 222q0 41 -8.5 77t-26.5 68t-52 51t-80 19q-75 0 -121 -52t-46 -131q0 -107 47.5 -165.5t122.5 -58.5q68 0 116 52t48 140z" />
<glyph unicode="&#xf1;" horiz-adv-x="608" d="M259 -2q-1 0 -41 2t-65 2q-23 0 -59.5 -2t-49.5 -2v36q12 -1 27 -1q38 0 47 16q7 14 7 58q0 27 0.5 77.5t0.5 63.5q0 126 -6 162q-3 24 -51 24q-15 0 -25 -1v36q69 0 129 17l10 -12q-5 -51 -6 -82q45 45 98.5 69.5t100.5 24.5q81 0 104 -84q13 -51 13 -157v-138 q0 -51 7 -62q6 -12 42 -12q15 0 32 1v-36q-9 0 -30 1.5t-41.5 2t-38.5 0.5q-24 0 -58 -2t-48 -2v36q13 -1 27 -1q36 0 46 16q13 22 13 114q0 186 -26 235q-19 36 -79 36q-36 0 -78 -21.5t-64 -55.5q-21 -31 -21 -100q0 -109 1 -150q1 -52 8 -62q6 -12 42 -12q16 0 32 1v-36z M298 640l30 -13q23 -11 43 -11q17 0 26 11t17 36l28 -8q-14 -51 -32 -72t-44 -21q-24 0 -62 15l-29 11q-33 13 -43 13q-15 0 -24.5 -11t-18.5 -37l-27 8q32 94 81 94q22 0 55 -15z" />
<glyph unicode="&#xf2;" horiz-adv-x="533" d="M489 253q0 -119 -64.5 -193.5t-173.5 -74.5q-92 0 -149.5 67.5t-57.5 169.5q0 115 67 190t172 75q93 0 149.5 -65t56.5 -169zM434 222q0 57 -14 103.5t-53 81.5t-100 35q-74 0 -120.5 -54t-46.5 -134q0 -107 47.5 -165.5t122.5 -58.5q68 0 116 52t48 140zM141 694l65 33 q45 -90 107 -184l-21 -11q-113 117 -151 162z" />
<glyph unicode="&#xf3;" horiz-adv-x="533" d="M489 253q0 -119 -64.5 -193.5t-173.5 -74.5q-92 0 -149.5 67.5t-57.5 169.5q0 115 67 190t172 75q93 0 149.5 -65t56.5 -169zM434 222q0 57 -14 103.5t-53 81.5t-100 35q-74 0 -120.5 -54t-46.5 -134q0 -107 47.5 -165.5t122.5 -58.5q68 0 116 52t48 140zM311 723l69 -29 q-62 -69 -155 -162l-21 11q76 115 107 180z" />
<glyph unicode="&#xf4;" horiz-adv-x="533" d="M489 253q0 -119 -64.5 -193.5t-173.5 -74.5q-92 0 -149.5 67.5t-57.5 169.5q0 115 67 190t172 75q93 0 149.5 -65t56.5 -169zM434 222q0 57 -14 103.5t-53 81.5t-100 35q-74 0 -120.5 -54t-46.5 -134q0 -107 47.5 -165.5t122.5 -58.5q68 0 116 52t48 140zM395 541 l-23 -15q-44 51 -106 115q-32 -32 -107 -117l-23 16q63 83 115 164h37q89 -137 107 -163z" />
<glyph unicode="&#xf5;" horiz-adv-x="533" d="M489 253q0 -119 -64.5 -193.5t-173.5 -74.5q-92 0 -149.5 67.5t-57.5 169.5q0 115 67 190t172 75q93 0 149.5 -65t56.5 -169zM434 222q0 57 -14 103.5t-53 81.5t-100 35q-74 0 -120.5 -54t-46.5 -134q0 -107 47.5 -165.5t122.5 -58.5q68 0 116 52t48 140zM262 640l30 -13 q23 -11 43 -11q17 0 26 11t17 36l28 -8q-14 -51 -32 -72t-44 -21q-24 0 -62 15l-29 11q-33 13 -43 13q-15 0 -24.5 -11t-18.5 -37l-27 8q32 94 81 94q22 0 55 -15z" />
<glyph unicode="&#xf6;" horiz-adv-x="533" d="M489 253q0 -119 -64.5 -193.5t-173.5 -74.5q-92 0 -149.5 67.5t-57.5 169.5q0 115 67 190t172 75q93 0 149.5 -65t56.5 -169zM434 222q0 57 -14 103.5t-53 81.5t-100 35q-74 0 -120.5 -54t-46.5 -134q0 -107 47.5 -165.5t122.5 -58.5q68 0 116 52t48 140zM187 575 q-16 0 -27.5 11t-11.5 29q0 17 11.5 28t28.5 11q16 0 27 -11t11 -28t-11 -28.5t-28 -11.5zM346 575q-16 0 -27 11t-11 29q0 17 11 28t28 11q16 0 27 -11t11 -28t-11 -28.5t-28 -11.5z" />
<glyph unicode="&#xf7;" horiz-adv-x="600" d="M337 437q0 -15 -11 -26.5t-27 -11.5q-17 0 -27.5 11.5t-10.5 27.5t11 27.5t27 11.5t27 -11.5t11 -28.5zM523 270h-446v47h446v-47zM337 148q0 -15 -11 -26.5t-27 -11.5q-17 0 -27.5 11.5t-10.5 27.5t11 27.5t27 11.5t27 -11.5t11 -28.5z" />
<glyph unicode="&#xf8;" horiz-adv-x="533" d="M489 253q0 -119 -64.5 -193.5t-173.5 -74.5q-66 0 -117 37l-43 -57l-31 23l45 60q-61 67 -61 174q0 115 67 190t172 75q68 0 119 -38l46 62l32 -24l-48 -65q57 -65 57 -169zM100 254q0 -99 41 -157l229 309q-41 36 -103 36q-74 0 -120.5 -54t-46.5 -134zM434 222 q0 94 -38 152l-229 -307q43 -37 103 -37q68 0 116 52t48 140z" />
<glyph unicode="&#xf9;" horiz-adv-x="610" d="M568 3q-47 0 -128 -14l-8 7q1 8 4 75q-91 -85 -183 -85q-68 0 -103.5 37t-35.5 131q0 22 2 101t2 107q0 45 -8 57q-11 15 -39 15q-18 0 -33 -1v36q76 0 135 17l9 -11q-14 -105 -14 -275q0 -96 19 -125q24 -38 89 -38q38 0 80 21.5t62 58.5q19 37 19 100q0 111 -1 145 q-1 45 -8 57q-9 15 -40 15q-20 0 -31 -1v36q76 0 133 17l8 -10q-11 -94 -11 -260q0 -128 7 -155q3 -13 10 -18t23 -5q15 0 41 2v-37zM170 694l65 33q45 -90 107 -184l-21 -11q-113 117 -151 162z" />
<glyph unicode="&#xfa;" horiz-adv-x="610" d="M568 3q-47 0 -128 -14l-8 7q1 8 4 75q-91 -85 -183 -85q-68 0 -103.5 37t-35.5 131q0 22 2 101t2 107q0 45 -8 57q-11 15 -39 15q-18 0 -33 -1v36q76 0 135 17l9 -11q-14 -105 -14 -275q0 -96 19 -125q24 -38 89 -38q38 0 80 21.5t62 58.5q19 37 19 100q0 111 -1 145 q-1 45 -8 57q-9 15 -40 15q-20 0 -31 -1v36q76 0 133 17l8 -10q-11 -94 -11 -260q0 -128 7 -155q3 -13 10 -18t23 -5q15 0 41 2v-37zM351 723l69 -29q-62 -69 -155 -162l-21 11q76 115 107 180z" />
<glyph unicode="&#xfb;" horiz-adv-x="610" d="M568 3q-47 0 -128 -14l-8 7q1 8 4 75q-91 -85 -183 -85q-68 0 -103.5 37t-35.5 131q0 22 2 101t2 107q0 45 -8 57q-11 15 -39 15q-18 0 -33 -1v36q76 0 135 17l9 -11q-14 -105 -14 -275q0 -96 19 -125q24 -38 89 -38q38 0 80 21.5t62 58.5q19 37 19 100q0 111 -1 145 q-1 45 -8 57q-9 15 -40 15q-20 0 -31 -1v36q76 0 133 17l8 -10q-11 -94 -11 -260q0 -128 7 -155q3 -13 10 -18t23 -5q15 0 41 2v-37zM416 541l-23 -15q-44 51 -106 115q-32 -32 -107 -117l-23 16q63 83 115 164h37q89 -137 107 -163z" />
<glyph unicode="&#xfc;" horiz-adv-x="610" d="M568 3q-47 0 -128 -14l-8 7q1 8 4 75q-91 -85 -183 -85q-68 0 -103.5 37t-35.5 131q0 22 2 101t2 107q0 45 -8 57q-11 15 -39 15q-18 0 -33 -1v36q76 0 135 17l9 -11q-14 -105 -14 -275q0 -96 19 -125q24 -38 89 -38q38 0 80 21.5t62 58.5q19 37 19 100q0 111 -1 145 q-1 45 -8 57q-9 15 -40 15q-20 0 -31 -1v36q76 0 133 17l8 -10q-11 -94 -11 -260q0 -128 7 -155q3 -13 10 -18t23 -5q15 0 41 2v-37zM220 575q-16 0 -27.5 11t-11.5 29q0 17 11.5 28t28.5 11q16 0 27 -11t11 -28t-11 -28.5t-28 -11.5zM379 575q-16 0 -27 11t-11 29 q0 17 11 28t28 11q16 0 27 -11t11 -28t-11 -28.5t-28 -11.5z" />
<glyph unicode="&#xfd;" horiz-adv-x="500" d="M233 7q-29 74 -158 371q-17 39 -28 48t-27 9q-13 0 -20 -1v37q43 -3 102 -3q66 0 103 3v-37q-11 1 -30 1q-25 0 -35 -6.5t-10 -22.5q0 -18 40 -113q55 -132 94 -220q49 123 82 216q36 103 36 118q0 16 -10 22t-35 6q-15 0 -29 -1v37q59 -4 98 -4q51 0 94 4v-37 q-8 1 -16 1q-20 0 -35 -21t-47 -104q-72 -186 -177 -430q-28 -64 -60 -98t-79 -34q-50 0 -50 40q0 37 38 37q5 0 15 -3.5t19 -3.5q30 0 56 44q21 34 69 145zM318 723l69 -29q-62 -69 -155 -162l-21 11q76 115 107 180z" />
<glyph unicode="&#xfe;" horiz-adv-x="566" d="M245 -242q-9 0 -31.5 1.5t-44 2t-40.5 0.5q-23 0 -59.5 -2t-49.5 -2v36q12 -1 27 -1q40 0 47 17q5 13 7 57q1 49 1 291q0 402 -1 466q-1 47 -13 57t-48 10q-14 0 -23 -1v37q79 0 134 16l10 -12q-6 -55 -7 -335q39 39 92 65t100 26q76 0 121.5 -61t45.5 -165 q0 -121 -60.5 -196t-162.5 -75q-73 0 -139 38q0 -90 2 -161q1 -44 12 -60q7 -14 48 -14q16 0 32 1v-36zM150 214q0 -53 11 -101q9 -36 47 -58.5t86 -22.5q69 0 116.5 54.5t47.5 142.5q0 99 -37.5 152t-108.5 53q-46 0 -91.5 -31t-57.5 -69q-13 -41 -13 -120z" />
<glyph unicode="&#xff;" horiz-adv-x="500" d="M233 7q-29 74 -158 371q-17 39 -28 48t-27 9q-13 0 -20 -1v37q43 -3 102 -3q66 0 103 3v-37q-11 1 -30 1q-25 0 -35 -6.5t-10 -22.5q0 -18 40 -113q55 -132 94 -220q49 123 82 216q36 103 36 118q0 16 -10 22t-35 6q-15 0 -29 -1v37q59 -4 98 -4q51 0 94 4v-37 q-8 1 -16 1q-20 0 -35 -21t-47 -104q-72 -186 -177 -430q-28 -64 -60 -98t-79 -34q-50 0 -50 40q0 37 38 37q5 0 15 -3.5t19 -3.5q30 0 56 44q21 34 69 145zM179 575q-16 0 -27.5 11t-11.5 29q0 17 11.5 28t28.5 11q16 0 27 -11t11 -28t-11 -28.5t-28 -11.5zM338 575 q-16 0 -27 11t-11 29q0 17 11 28t28 11q16 0 27 -11t11 -28t-11 -28.5t-28 -11.5z" />
<glyph unicode="&#x152;" horiz-adv-x="978" d="M915 0q-140 1 -376 1q-18 0 -72 -2.5t-96 -2.5q-157 0 -239.5 87.5t-82.5 239.5q0 150 93 252t251 102q18 0 66.5 -2t101.5 -2q184 0 314 2q5 -77 14 -153l-34 -3q-14 77 -41 96q-15 10 -44 13t-118 3q-47 0 -68 -2q-19 -1 -21 -19q-5 -28 -5 -199q0 -24 8 -29 q10 -6 76 -6q72 0 95.5 4t35.5 16q14 15 17 63h33q-3 -78 -3 -105q0 -58 2 -104h-34q-4 53 -23 67q-23 18 -125 18q-65 0 -74 -7q-8 -6 -8 -35q0 -197 14 -225q7 -14 28 -20t80 -6q137 0 175 23q29 19 48 104l36 -3q-12 -65 -24 -166zM499 125q2 70 2 226q0 126 -1 186 q-1 61 -13 74q-20 25 -102 25q-127 0 -199.5 -84.5t-72.5 -214.5q0 -133 66 -216t195 -83q96 0 113 30q11 18 12 57z" />
<glyph unicode="&#x153;" horiz-adv-x="858" d="M835 107q-31 -56 -81.5 -89t-114.5 -33q-68 0 -115 32t-70 89q-60 -121 -203 -121q-92 0 -149.5 67.5t-57.5 169.5q0 116 66.5 190.5t172.5 74.5q63 0 110 -32t72 -89q29 57 80 89t117 32q75 0 117 -46t42 -125q0 -22 -8 -30.5t-29 -10.5q-60 -3 -293 -3q-3 -19 -3 -38 q1 -94 46.5 -147t122.5 -53q40 0 79.5 23.5t65.5 67.5zM434 221q0 42 -8.5 78.5t-26.5 69.5t-52 52t-80 19q-74 0 -120.5 -53t-46.5 -133q0 -107 47 -164.5t123 -57.5q67 0 114 49.5t50 139.5zM502 322q0 -13 12 -13q20 -1 79 -1q130 0 150 8q15 7 15 30q0 52 -31 76.5 t-81 24.5q-40 0 -78.5 -24t-58.5 -73q-7 -19 -7 -28z" />
<glyph unicode="&#x178;" horiz-adv-x="615" d="M419 35v-37q-11 0 -51 2t-63 2q-6 0 -114 -4v37q21 -1 37 -1q32 0 39 13t7 58q0 14 0.5 75.5t0.5 107.5q-51 88 -186 304q-17 28 -32 38.5t-37 10.5q-13 0 -20 -1v36q37 -3 118 -3q90 0 127 3v-36h-15q-14 1 -22 1q-48 0 -49 -23q0 -19 25 -63q10 -17 127 -211 q19 31 50 79.5t52.5 83t32.5 53.5q20 34 20 55q0 13 -10.5 19t-38.5 7q-8 0 -23 -1h-16v36q37 -3 129 -3q71 0 108 3v-36q-5 1 -15 1q-23 0 -37.5 -11.5t-33.5 -37.5q-47 -67 -196 -302q0 -13 2 -185q0 -45 6 -56q8 -15 45 -15q20 0 33 1zM225 738q-17 0 -29 11.5t-12 29.5 q0 17 12 28.5t30 11.5q17 0 28.5 -11.5t11.5 -28.5q0 -18 -12 -29.5t-29 -11.5zM405 738q-17 0 -29 11.5t-12 29.5q0 17 12 28.5t30 11.5q17 0 28.5 -11.5t11.5 -28.5q0 -18 -12 -29.5t-29 -11.5z" />
<glyph unicode="&#x2c6;" horiz-adv-x="277" d="M268 541l-23 -15q-44 51 -106 115q-32 -32 -107 -117l-23 16q63 83 115 164h37q89 -137 107 -163z" />
<glyph unicode="&#x2dc;" horiz-adv-x="277" d="M135 640l30 -13q23 -11 43 -11q17 0 26 11t17 36l28 -8q-14 -51 -32 -72t-44 -21q-25 0 -62 15l-29 11q-33 13 -43 13q-15 0 -24.5 -11t-18.5 -37l-27 8q32 94 81 94q22 0 55 -15z" />
<glyph unicode="&#x2000;" horiz-adv-x="445" />
<glyph unicode="&#x2001;" horiz-adv-x="891" />
<glyph unicode="&#x2002;" horiz-adv-x="445" />
<glyph unicode="&#x2003;" horiz-adv-x="891" />
<glyph unicode="&#x2004;" horiz-adv-x="297" />
<glyph unicode="&#x2005;" horiz-adv-x="222" />
<glyph unicode="&#x2006;" horiz-adv-x="148" />
<glyph unicode="&#x2007;" horiz-adv-x="148" />
<glyph unicode="&#x2008;" horiz-adv-x="111" />
<glyph unicode="&#x2009;" horiz-adv-x="178" />
<glyph unicode="&#x200a;" horiz-adv-x="49" />
<glyph unicode="&#x2010;" horiz-adv-x="322" d="M51 283q23 -2 108 -2q75 0 112 2v-61q-29 1 -111 1q-71 0 -109 -1v61z" />
<glyph unicode="&#x2011;" horiz-adv-x="322" d="M51 283q23 -2 108 -2q75 0 112 2v-61q-29 1 -111 1q-71 0 -109 -1v61z" />
<glyph unicode="&#x2012;" horiz-adv-x="322" d="M51 283q23 -2 108 -2q75 0 112 2v-61q-29 1 -111 1q-71 0 -109 -1v61z" />
<glyph unicode="&#x2013;" horiz-adv-x="580" d="M51 279q23 -2 238 -2q203 0 240 2v-54q-29 1 -239 1q-201 0 -239 -1v54z" />
<glyph unicode="&#x2014;" horiz-adv-x="815" d="M51 279q23 -2 333 -2q343 0 380 2v-54q-29 1 -379 1q-296 0 -334 -1v54z" />
<glyph unicode="&#x2018;" horiz-adv-x="196" d="M160 691l10 -26q-26 -10 -43 -24q-26 -21 -26 -53q0 -22 20 -30q29 -11 29 -45q0 -16 -14 -28.5t-34 -12.5q-21 0 -38 17t-17 58q0 51 31 88t82 56z" />
<glyph unicode="&#x2019;" horiz-adv-x="196" d="M36 471l-10 26q21 8 43 24q26 23 26 53q0 22 -20 30q-29 12 -29 45q0 16 14 28.5t34 12.5q21 0 38 -17t17 -58q0 -52 -31.5 -89t-81.5 -55z" />
<glyph unicode="&#x201a;" horiz-adv-x="196" d="M36 -107l-10 26q21 8 43 24q26 23 26 53q0 22 -20 30q-29 12 -29 45q0 16 14 28.5t34 12.5q21 0 38 -17t17 -58q0 -52 -32 -89.5t-81 -54.5z" />
<glyph unicode="&#x201c;" horiz-adv-x="342" d="M306 691l10 -26q-21 -8 -43 -24q-26 -23 -26 -53q0 -22 20 -30q29 -12 29 -45q0 -16 -14 -28.5t-34 -12.5q-21 0 -38 17t-17 58q0 51 31 88.5t82 55.5zM160 691l10 -26q-26 -10 -43 -24q-26 -21 -26 -53q0 -22 20 -30q29 -11 29 -45q0 -16 -14 -28.5t-34 -12.5 q-21 0 -38 17t-17 58q0 51 31.5 89t81.5 55z" />
<glyph unicode="&#x201d;" horiz-adv-x="342" d="M36 471l-10 26q21 8 43 24q26 23 26 53q0 22 -20 30q-29 12 -29 45q0 16 14 28.5t34 12.5q21 0 38 -17t17 -58q0 -103 -113 -144zM182 471l-10 26q24 9 42 24q27 22 27 53q0 22 -20 30q-29 11 -29 45q0 16 14 28.5t34 12.5q21 0 38 -17t17 -58q0 -53 -31 -89.5t-82 -54.5 z" />
<glyph unicode="&#x201e;" horiz-adv-x="342" d="M36 -107l-10 26q21 8 43 24q26 23 26 53q0 22 -20 30q-29 12 -29 45q0 16 14 28.5t34 12.5q21 0 38 -17t17 -58q0 -54 -32 -90t-81 -54zM182 -107l-10 26q26 10 43 24q26 21 26 53q0 22 -20 30q-29 11 -29 45q0 16 14 28.5t34 12.5q21 0 38 -17t17 -58q0 -103 -113 -144z " />
<glyph unicode="&#x2022;" horiz-adv-x="304" d="M151 171q-49 0 -80 29.5t-31 85.5q0 50 33 80.5t81 30.5q49 0 79.5 -30.5t30.5 -82.5t-31 -82.5t-82 -30.5z" />
<glyph unicode="&#x2026;" horiz-adv-x="815" d="M179 39q0 -21 -12.5 -33.5t-32.5 -12.5q-19 0 -31.5 12.5t-12.5 34.5q0 20 13 32.5t32 12.5q20 0 32 -12.5t12 -33.5zM451 39q0 -21 -12.5 -33.5t-32.5 -12.5q-19 0 -31.5 12.5t-12.5 34.5q0 20 13 32.5t32 12.5q20 0 32 -12.5t12 -33.5zM725 39q0 -21 -12.5 -33.5 t-32.5 -12.5q-19 0 -31.5 12.5t-12.5 34.5q0 20 13 32.5t32 12.5q20 0 32 -12.5t12 -33.5z" />
<glyph unicode="&#x202f;" horiz-adv-x="178" />
<glyph unicode="&#x2039;" horiz-adv-x="254" d="M235 82l-23 -20q-98 98 -190 176v16q116 94 191 170l22 -21q-44 -54 -139 -155q115 -135 139 -166z" />
<glyph unicode="&#x203a;" horiz-adv-x="254" d="M22 404l23 20q98 -98 190 -176v-16q-116 -94 -191 -170l-22 21q44 54 139 155q-115 135 -139 166z" />
<glyph unicode="&#x205f;" horiz-adv-x="222" />
<glyph unicode="&#x20ac;" horiz-adv-x="637" d="M430 238h-225q28 -201 188 -201q58 0 106.5 31.5t77.5 90.5l38 -20q-44 -82 -102 -118t-136 -36q-99 0 -160 69t-75 184h-78v38h75v22q0 32 3 60h-78v38h83q22 116 94 183t180 67q77 0 121.5 -30t44.5 -76q0 -39 -39 -39q-38 0 -44 33q-7 40 -31.5 54t-76.5 14 q-67 0 -120 -57t-70 -149h224v-38h-229q-1 -11 -1 -34q0 -33 1 -48h229v-38z" />
<glyph unicode="&#x2122;" horiz-adv-x="880" d="M271 321q-36 2 -84 2q-55 0 -77 -2v29q6 -1 25 -1q18 0 24 8q5 7 5 31q1 40 1 120q0 92 -1 113q0 13 -4 18q-5 5 -33 5q-38 0 -49.5 -10.5t-22.5 -53.5l-27 2q5 33 10 94q32 -2 147 -2q124 0 161 2q1 -32 7 -93l-29 -2q-8 42 -18 52.5t-45 10.5q-38 0 -42 -5 q-4 -6 -4 -18q-1 -25 -1 -112q0 -79 1 -121q0 -24 5 -30q8 -9 30 -9q15 0 21 1v-29zM527 321q-28 2 -68 2q-33 0 -73 -2v29q1 0 9.5 -0.5t11.5 -0.5q21 0 24 8q5 8 6 32q13 211 13 222t-4 21q-6 15 -30 15l-16 -1v29q30 -2 61 -2q36 0 60 2q7 -29 16 -51q4 -9 31 -78 t42 -109q69 158 78 183q1 3 10 26t10 29q11 -1 54 -1q11 0 30.5 0.5t25.5 0.5v-29q-8 1 -19 1q-18 0 -22 -8t-4 -35q0 -12 7 -216q2 -26 7 -33q5 -6 23 -6q3 0 10.5 0.5t8.5 0.5v-29q-30 2 -80 2q-26 0 -64 -2v29q2 0 10 -0.5t10 -0.5q17 0 21 8q4 5 4 31q0 78 -5 225 q-112 -251 -117 -262h-15q-19 51 -56 140t-52 126q-6 -145 -8 -238q0 -17 6 -24q6 -6 19 -6q2 0 13 0.5t12 0.5v-29z" />
</font>
</defs>
</svg>
